<svg xmlns="http://www.w3.org/2000/svg" width="51.655" height="35.384" viewBox="0 0 51.655 35.384">
  <g id="Group_3724" data-name="Group 3724" transform="translate(1746.332 4558)">
    <path id="Path_64842" data-name="Path 64842" d="M-416.577,0h.825a1.223,1.223,0,0,1,.1.529l.016.249.016.272.018.281q.019.3.037.592.023.373.046.746c.119,1.883.119,1.883.155,2.746.011.25.03.5.059.744a6.7,6.7,0,0,1,.04.793c0,.132,0,.132,0,.268q0,.274,0,.548a1.743,1.743,0,0,0,.378,1.24,1.874,1.874,0,0,1,.092,1.168h1.169l-.021-.327a2.368,2.368,0,0,1,.672-1.64,1.931,1.931,0,0,1,1.467-.522h.151l.473,0,.322,0,.786.007,0-.124c-.006-.188-.009-.376-.013-.564l-.007-.195a1.7,1.7,0,0,1,.417-1.251l.114-.093.113-.1a1.7,1.7,0,0,1,.961-.237h.242l.258,0h.266l.7,0,.713,0,1.4.007v.138l.142.009a1.408,1.408,0,0,1,.812.688,1.934,1.934,0,0,1,.153.77c0,.055,0,.11,0,.167s0,.113,0,.172,0,.116,0,.175q0,.213,0,.426l.178,0,.665-.008.286,0a2.876,2.876,0,0,1,1.909.419,2.429,2.429,0,0,1,.773,1.434,6.085,6.085,0,0,1-.03.637l.2-.01c.787-.023.787-.023,1.024.13a.862.862,0,0,1,.308.581c0,.053,0,.107,0,.161s0,.116,0,.176,0,.12,0,.182,0,.122,0,.185q0,.226-.007.451l.206-.03a.979.979,0,0,1,.716.326,2.28,2.28,0,0,1,.162,1.26c-.006.171-.007.342-.008.514q0,.164-.006.328c0,.051,0,.1,0,.154a1.134,1.134,0,0,1-.365.869,1.273,1.273,0,0,1-.618.132l-.244.014-.186.008c0,.061.008.123.012.186,0,.081.006.161.009.244s.008.16.012.242a.466.466,0,0,1-.159.363,2.144,2.144,0,0,1-.406.216,1.014,1.014,0,0,0-.632.487,3.94,3.94,0,0,0,0,.6q0,.255,0,.509c0,.046,0,.093,0,.14,0,.557-.042,1.111-.083,1.667-.116,1.584-.186,3.171-.251,4.758q-.078,1.9-.218,3.789h.344c0-.056,0-.111-.007-.168,0-.073,0-.147-.006-.223l-.007-.22a.848.848,0,0,1,.226-.558,1.524,1.524,0,0,1,1.07-.309l.152,0a1.149,1.149,0,0,1,.841.313.9.9,0,0,1,.232.764c0,.049,0,.1,0,.147,0,.161,0,.321,0,.481q0,.167,0,.335,0,.351,0,.7,0,.45,0,.9,0,.346,0,.691,0,.166,0,.332c0,.154,0,.309,0,.463,0,.088,0,.176,0,.266a.6.6,0,0,1-.155.42l.133,0c.2-.006.4-.009.6-.013l.21-.007c.513-.007.513-.007.785.147a.923.923,0,0,1,.2.634h-.138l-.021.133-.047.142a1.282,1.282,0,0,1-.482.077h-.53l-.582,0h-.395l-.967,0,.1.125a.635.635,0,0,1,.1.563.771.771,0,0,1-.481.413c-.1.006-.209.009-.313.009h-3.34l-1.642,0-3.968,0h-1.314l-6.982,0H-418.5q-3.261,0-6.521.006-3.35,0-6.7.005h-1.134l-3,0q-1.506,0-3.013,0-.9,0-1.792,0-.6,0-1.2,0-.341,0-.682,0c-.245,0-.489,0-.734,0l-.215,0a.992.992,0,0,1-.743-.211.812.812,0,0,1-.128-.728l.137-.206-.254.005c-.312.006-.623.01-.935.013l-.4.007c-.194,0-.388.006-.582.008l-.183.005c-.418,0-.418,0-.636-.2a.733.733,0,0,1-.1-.6.717.717,0,0,1,.5-.371c.185-.006.367,0,.552.006l.194,0q.236.006.472.017l-.068-.11a1.418,1.418,0,0,1-.088-.613v-.134c0-.146,0-.292,0-.438v-.306q0-.32,0-.64,0-.409,0-.819,0-.316,0-.631,0-.151,0-.3,0-.212,0-.423c0-.08,0-.16,0-.243a1.541,1.541,0,0,1,.5-1.048,2.274,2.274,0,0,1,.739-.086l.144,0a1.723,1.723,0,0,1,.9.228.744.744,0,0,1,.138.275h.137v.894h.206l-.009-.2q-.055-1.149-.11-2.3l-.029-.6c-.125-2.617-.125-2.617-.173-3.7l-.01-.216q-.021-.463-.04-.926c-.019-.427-.039-.852-.079-1.277-.043-.484-.039-.966-.035-1.451q0-.138,0-.277,0-.334,0-.668l-.158-.028a2.237,2.237,0,0,1-1.08-.59,2.033,2.033,0,0,1,0-.894l-.168-.008-.223-.014-.22-.012a.921.921,0,0,1-.669-.387,1.581,1.581,0,0,1-.128-.744c0-.078,0-.078,0-.157q0-.164,0-.328c0-.167,0-.333-.006-.5q0-.16,0-.32c0-.049,0-.1,0-.15a.924.924,0,0,1,.21-.646c.178-.172.178-.172.315-.172v-.138h.481c0-.04,0-.08,0-.121-.006-.182-.009-.363-.013-.545,0-.063,0-.125-.007-.19a1.184,1.184,0,0,1,.146-.727,1.206,1.206,0,0,1,1-.282l.155,0,.378.007-.007-.176a2.3,2.3,0,0,1,.488-1.68,1.886,1.886,0,0,1,1.219-.642l.272,0h.146l.456.006.311,0q.379,0,.759.01l-.01-.266q0-.176-.008-.352l-.007-.175A1.6,1.6,0,0,1-439.4,5.69l.139-.112.14-.115a1.026,1.026,0,0,1,.742-.26l.253,0,.273,0h.14l.732-.005c.251,0,.5-.005.752-.01.194,0,.388,0,.582,0,.137,0,.274,0,.411-.007a1.556,1.556,0,0,1,1.216.414,1.47,1.47,0,0,1,.468,1.125c0,.058,0,.116,0,.176s0,.12,0,.182,0,.122,0,.185q0,.226,0,.451l.186,0q.345-.007.691-.011l.3-.006a2.492,2.492,0,0,1,2,.644,2.3,2.3,0,0,1,.6,1.851h1.238l-.017-.37a2.294,2.294,0,0,1,.745-1.684,1.9,1.9,0,0,1,1.422-.428h.142l.445,0h.3l.741,0,0-.125c-.006-.189-.009-.378-.013-.567,0-.065,0-.13-.007-.2a1.583,1.583,0,0,1,.458-1.226,2.169,2.169,0,0,1,1.63-.381h.28l.733.005.749,0q.734,0,1.467.01v.138h.206V5.5l.12.047a1.185,1.185,0,0,1,.506.61,3.257,3.257,0,0,1,.07.916c0,.207-.006.414-.009.627h1.581l.016-.359q.037-.837.075-1.674c0-.075,0-.075.007-.152Q-416.768,2.755-416.577,0Z" transform="translate(-1299 -4558)" fill="#052946"/>
    <path id="Path_64843" data-name="Path 64843" d="M-26.181,0c.55,0,.55,0,.619.069.007.126.009.252.009.378,0,.077,0,.153,0,.232V1.4c0,.071,0,.142,0,.215a.523.523,0,0,1-.078.31,1.837,1.837,0,0,1-.275.069v.138h.55c.3-.531.3-.531.275-1.719h5.569l.069,1.513c.1.279.1.279.277.327a.8.8,0,0,0,.652-.1,1.313,1.313,0,0,0,.191-.729l.008-.166q.007-.172.014-.344c.02-.426.02-.426.1-.5.122-.006.245-.007.368-.007h.225l.237,0h.238l.583,0c.016.885-.006,1.766-.055,2.65l-.009.156q-.023.408-.046.815-.188,3.333-.258,6.668-.005.243-.011.485-.007.294-.012.589c-.009.426-.027.847-.075,1.27-.025.252-.03.5-.035.758l-.008.33q-.005.256-.011.512t-.011.5c0,.051,0,.1,0,.155-.009.36-.009.36-.085.513-.01.118-.016.237-.019.355l-.008.217c0,.075,0,.15-.007.228q-.007.22-.015.441c0,.065,0,.131-.006.2-.016.255-.05.508-.082.762h-1.856l-.069-.894-.138-.344-.138-.034-.138-.034a3.18,3.18,0,0,1-.138-.344q-1,0-2,.013l-.927.006q-.447,0-.895.007l-.341,0c-.16,0-.319,0-.478,0l-.275,0a1.128,1.128,0,0,0-.784.468,1.807,1.807,0,0,0-.128.689l-.021.46-.819,0h-.279l-.4,0h-.243c-.185-.008-.185-.008-.253-.077-.01-.113-.016-.227-.019-.341l-.008-.221-.007-.241-.008-.248q-.013-.395-.026-.789t-.026-.78q-.008-.243-.016-.486c-.015-.455-.044-.908-.08-1.362-.021-.29-.03-.58-.035-.87l0-.176q-.008-.365-.015-.729-.005-.269-.011-.539l0-.162c-.006-.283-.022-.563-.05-.844-.041-.43-.058-.86-.072-1.291l-.009-.263q-.012-.354-.023-.708,0-.147-.009-.295c-.075-2.4-.074-4.791-.06-7.187l.816,0,.235,0h.432a.508.508,0,0,1,.3.077l.069,1.169Z" transform="translate(-1683.209 -4542.806)" fill="#d67f01"/>
    <path id="Path_64844" data-name="Path 64844" d="M-.041,0h1.65l.009.546A1.753,1.753,0,0,0,1.97,1.69c.128.119.128.119.37.158a.5.5,0,0,0,.391-.2A1.578,1.578,0,0,0,2.984.894H8.553l.206.688c.187.232.187.232.455.223.221.009.221.009.3-.086.092-.006.185-.007.277-.007h.152l.194,0,.329,0,.286,0c.012,1.213-.02,2.426-.051,3.639q-.009.352-.017.7c-.027,1.155-.057,2.307-.152,3.46-.056.7-.092,1.4-.126,2.1L10.4,11.8q-.027.558-.053,1.116-.035.752-.072,1.5-.012.258-.024.516-.05,1.057-.115,2.113l-.206.069-.005-.181a1.521,1.521,0,0,0-.338-1.125,1.171,1.171,0,0,0-.863-.318c-.187.034-.187.034-.351.216a1.911,1.911,0,0,1-1.223.21c-.158,0-.315,0-.473,0-.391,0-.783,0-1.174,0q-.5,0-.994,0c-.154,0-.309,0-.463,0a1.7,1.7,0,0,0-1.334.384c-.3.392-.231.7-.275,1.238H.577c-.127-2.081-.233-4.161-.3-6.245L.27,11.048q-.007-.217-.013-.434C.244,10.2.224,9.794.2,9.385.161,8.7.136,8.015.113,7.329l-.007-.2Q.089,6.617.072,6.1.058,5.684.043,5.267C-.019,3.51-.056,1.757-.041,0Z" transform="translate(-1726.33 -4542.324)" fill="#196a61"/>
    <path id="Path_64845" data-name="Path 64845" d="M-.041,0h1.65c.017.584.017.584.02.765a1.59,1.59,0,0,0,.392,1.091A.788.788,0,0,0,2.7,1.719c.2-.241.2-.241.288-.756h5.5l.069.55c.105.223.105.223.344.344a5.8,5.8,0,0,0,.95.021l.264,0q.322-.006.643-.017,0,.813,0,1.626,0,.277,0,.553,0,.4,0,.8c0,.082,0,.165,0,.25s0,.154,0,.234,0,.135,0,.2a3.18,3.18,0,0,1-.077.531q-.013.152-.019.3l-.008.177-.007.19-.008.2q-.013.325-.026.649l-.018.448q-.06,1.494-.1,2.989c-.01.424-.028.842-.076,1.264-.034.354-.04.71-.051,1.066a11.111,11.111,0,0,1-.069,1.235c-.056.509-.056,1.023-.063,1.534A2.294,2.294,0,0,1,10,17.257H9.928c0-.062,0-.125,0-.189a1.706,1.706,0,0,0-.436-1.284.7.7,0,0,0-.589-.19l-.18,0a.826.826,0,0,0-.447.153l-.069.206H3.19v.138l-.356.134a.75.75,0,0,0-.332.347,4.931,4.931,0,0,0-.047.533l-.021.5H.646c-.1-1.543-.17-3.087-.221-4.633Q.377,11.531.307,10.1.2,7.825.106,5.555.087,5.119.069,4.683C0,3.121-.059,1.564-.041,0Z" transform="translate(-1741.386 -4542.394)" fill="#026eaf"/>
    <path id="Path_64847" data-name="Path 64847" d="M-2.229-.493a1.11,1.11,0,0,1,.308-.026l.2,0H17.362q3.2,0,6.39,0,3.587,0,7.173,0h3.8q1.618,0,3.235,0h3.711q.371,0,.741,0l.219,0,.2,0H43c.145.034.145.034.266.161a.728.728,0,0,1,.085.56.771.771,0,0,1-.481.413c-.1.006-.209.009-.313.009h-3.34l-1.642,0-3.968,0H32.295l-6.982,0H23.491q-3.26,0-6.521.006-3.35,0-6.7.005H9.135l-3,0q-1.506,0-3.013,0-.9,0-1.792,0-.6,0-1.2,0H-.546c-.245,0-.489,0-.734,0l-.215,0A.992.992,0,0,1-2.239.441a.812.812,0,0,1-.128-.728Z" transform="translate(-1740.986 -4523.268)" fill="#59af9b"/>
    <path id="Path_64848" data-name="Path 64848" d="M-24.831-1.875a.616.616,0,0,1,.28.451c.027.288.038.573.044.863q.006.161.013.321c.011.279.019.559.026.838s.016.545.025.818c.009.3.018.6.025.906.009.4.021.792.058,1.188.053.581.059,1.163.073,1.746q.005.227.011.454l.006.269c.008.215.025.428.046.642.042.441.058.882.072,1.324l.009.263q.009.275.018.55.013.413.028.826c.035,1.026.052,2.049.046,3.075h-2.613c0-.7.012-1.385.064-2.084.075-1.055.1-2.109.118-3.166.009-.532.02-1.06.076-1.589.032-.342.039-.685.051-1.028.014-.421.03-.839.069-1.258.042-.473.051-.946.061-1.421.007-.327.018-.654.028-.981.008-.278.015-.555.02-.833q.006-.393.02-.785,0-.147.005-.294c0-.754,0-.754.257-1.016A.893.893,0,0,1-24.831-1.875Z" transform="translate(-1702.801 -4537.522)" fill="#fdf0c7"/>
    <path id="Path_64849" data-name="Path 64849" d="M-15.845,0a2.235,2.235,0,0,1,.756.413A2.012,2.012,0,0,1-15,1.026l.013.2c.015.233.026.467.037.7l.022.414c.034.654.062,1.309.089,1.964q.019.461.039.921.033.773.066,1.545.037.887.076,1.773.037.861.074,1.723.015.363.031.725c.055,1.265.1,2.524.085,3.79h-2.544c-.006-1.127.011-2.248.06-3.373l.019-.448q.07-1.666.158-3.331l.008-.161.008-.156q.039-.768.067-1.537c.011-.274.029-.545.058-.818.04-.381.052-.76.064-1.142q.009-.235.019-.47c.011-.277.021-.554.027-.83s.015-.527.026-.791q.005-.155.008-.31c.014-.822.014-.822.225-1.108A2.515,2.515,0,0,1-15.845,0Z" transform="translate(-1697.395 -4539.644)" fill="#faefc8"/>
    <path id="Path_64850" data-name="Path 64850" d="M-29.331-.222a.623.623,0,0,1,.206.206A1.294,1.294,0,0,1-29.1.314c0,.067,0,.134,0,.2l0,.218V.958c0,.237,0,.474-.008.71s0,.474-.006.71q0,.221,0,.442l0,.2,0,.178a.675.675,0,0,0,.076.358l.413-.138.069-3.506a.875.875,0,0,1,.756-.069c.173.173.156.235.159.475l0,.213,0,.23,0,.235q.006.373.01.746,0,.252.008.5.01.62.018,1.24.172,0,.344,0c.1-.1.078-.2.08-.345l0-.177,0-.193q0-.2.006-.4,0-.317.007-.635c0-.2.005-.407.008-.61V.938l0-.179,0-.157a.464.464,0,0,1,.233-.343c.419.007.419.007.6.184a1.014,1.014,0,0,1,.115.584v.26q0,.14,0,.28t0,.288q0,.3,0,.6,0,.386,0,.773,0,.3,0,.595,0,.142,0,.285c0,.133,0,.266,0,.4,0,.113,0,.113,0,.229a1.01,1.01,0,0,1-.155.471l-.052.223a2.647,2.647,0,0,1-1.048,1.289A4.736,4.736,0,0,1-28.162,7l-.125.04a2.906,2.906,0,0,1-1.8-.178V6.722h-.206V6.584l-.122-.019c-.355-.116-.6-.532-.793-.841a3.849,3.849,0,0,1-.277-1.78q0-.143,0-.287,0-.3,0-.6c0-.255,0-.509,0-.764q0-.3,0-.59,0-.141,0-.282c0-.131,0-.263,0-.394,0-.075,0-.149,0-.226a.939.939,0,0,1,.309-.546c.378.042.378.042.528.157a.533.533,0,0,1,.12.406l0,.174v.188l0,.193c0,.2.005.407.007.61s.005.408.008.612q0,.19,0,.381a.681.681,0,0,0,.082.512q.172,0,.344,0V3.359q.007-.678.017-1.355,0-.253.006-.506,0-.363.01-.726V.542l0-.213,0-.187C-29.975-.263-29.691-.261-29.331-.222Z" transform="translate(-1676.759 -4541.14)" fill="#08263e"/>
    <path id="Path_64851" data-name="Path 64851" d="M-6.872,0H8.682c.431,0,.431,0,.507.078V1.656H-7.38C-7.38,0-7.38,0-6.872,0Z" transform="translate(-1721.604 -4545.012)" fill="#116260"/>
    <path id="Path_64853" data-name="Path 64853" d="M0-.24,5.533-.248l2.569,0,2.238,0,1.186,0h2.249c.373,0,.373,0,.526.155V1.41H0Z" transform="translate(-1711.452 -4544.766)" fill="#d68c10"/>
    <path id="Path_64854" data-name="Path 64854" d="M-6.024,0H2.394l5.231,0v1.65H-6.468C-6.468,0-6.468,0-6.024,0Z" transform="translate(-1737.641 -4545.015)" fill="#0161a2"/>
    <path id="Path_64856" data-name="Path 64856" d="M-16.033-.03l.256,0h3.61q.811,0,1.621,0h3.294c.907,0,.907,0,1.31.234.275.289.275.289.275.481h.138c.069.206.069.206.069.894H-17.217c0-.963,0-.963.069-1.1h.138l.043-.125A.991.991,0,0,1-16.033-.03Z" transform="translate(-1709.292 -4549.334)" fill="#176261"/>
    <path id="Path_64857" data-name="Path 64857" d="M-16.978-.223h.823l.794,0h.5l1.554,0,1.792,0,1.386,0,.827,0h1.064A2.193,2.193,0,0,1-6.8.09a1.019,1.019,0,0,1,.305.823c-.015.372-.015.372-.1.455-.15.007-.3.008-.449.008h-6.836l-4.333,0c-.006-.142-.01-.284-.013-.425L-18.232.7a1,1,0,0,1,.394-.728A1.335,1.335,0,0,1-16.978-.223Z" transform="translate(-1693.309 -4549.124)" fill="#ea8d05"/>
    <path id="Path_64858" data-name="Path 64858" d="M-23.563-.033h.292c.264,0,.527,0,.791,0h2.222q.8,0,1.607,0,.691,0,1.382,0h.824q.388,0,.776,0h.418A2.274,2.274,0,0,1-13.8.415a1.65,1.65,0,0,1,.141.806c0,.1,0,.1,0,.206,0,.052,0,.1,0,.157l-4.514,0-2.1,0h-4.751c-.189-.008-.189-.008-.258-.077A1.5,1.5,0,0,1-25.006.278,2.055,2.055,0,0,1-23.563-.033Z" transform="translate(-1716.216 -4549.34)" fill="#036ba6"/>
    <path id="Path_64859" data-name="Path 64859" d="M-30.095,0h.433l.237,0h.238l.583,0c.016.885-.006,1.766-.055,2.65l-.009.156q-.023.408-.046.815-.188,3.333-.258,6.668-.005.243-.011.485-.007.294-.012.589c-.009.426-.027.847-.075,1.27-.025.252-.03.5-.035.758l-.008.33q-.006.256-.011.511t-.011.5l0,.155c-.009.36-.009.36-.085.513-.01.118-.016.237-.019.355l-.008.217-.007.228q-.007.22-.015.441l-.006.2c-.016.255-.05.508-.082.762h-1.856l-.069-.894-.138-.344-.138-.034L-31.7,16.3a1.6,1.6,0,0,1-.138-.344h-.481l.069-.138h.138v-.138h.206v-.138c.909-.037.909-.037,1.219.246a1.45,1.45,0,0,1,.4,1l.017.226.013.173a.993.993,0,0,0,.088-.477l.008-.2.007-.213q.007-.208.015-.417l.006-.187a.535.535,0,0,1,.082-.29c.009-.1.015-.2.018-.294l.007-.186.007-.2.008-.211q.008-.226.016-.451c.04-1.119.084-2.237.154-3.355q.074-1.174.11-2.35c.011-.363.028-.724.056-1.086.041-.562.065-1.125.088-1.689l.014-.324q.018-.421.035-.843t.036-.864q.035-.844.07-1.688l-.206,0-.267,0-.266,0c-.224-.013-.224-.013-.361-.151l.066-.166a3.469,3.469,0,0,0,.11-.887C-30.329.011-30.329.011-30.095,0Z" transform="translate(-1671.16 -4542.401)" fill="#a56009"/>
    <path id="Path_64860" data-name="Path 64860" d="M-92.4,0h.394l.248,0,.421,0,.366,0c.014,1.561-.021,3.115-.088,4.675q-.014.327-.027.654-.068,1.689-.166,3.376c-.046.78-.082,1.558-.092,2.339-.018,1.382-.076,2.762-.137,4.143q-.011.238-.021.476-.016.376-.034.752-.006.14-.012.281-.008.193-.018.386l-.01.22c-.016.163-.016.163-.084.232-.132.006-.265.007-.4.007H-92.3l-.257,0h-.257l-.632,0-.02-.214-.031-.281-.013-.14a1.068,1.068,0,0,0-.348-.741A1.268,1.268,0,0,0-94.636,16l-.151,0-.491,0-.341,0-.9-.009-.915-.01-1.8-.018v-.069h.179q.839,0,1.678-.009.431,0,.863,0t.833-.005h.317a1.775,1.775,0,0,0,1.423-.393.967.967,0,0,1,.773.081,1.685,1.685,0,0,1,.6.675,2.694,2.694,0,0,1,.047.434l.014.223.008.168h.137l0-.208c-.005-.776.021-1.548.058-2.323l.009-.192c.053-1.131.115-2.262.18-3.392l.013-.232q.019-.33.039-.66l.011-.194q.029-.5.071-.989c.039-.5.053-1,.064-1.507q.006-.253.012-.506.013-.539.026-1.078.017-.708.034-1.416l0-.171c.021-.823.051-1.644.1-2.465H-92.9l.1-.206A3.231,3.231,0,0,0-92.645.446C-92.628.011-92.628.011-92.4,0Z" transform="translate(-1623.846 -4542.332)" fill="#064b54"/>
    <path id="Path_64861" data-name="Path 64861" d="M-92.489,0h.433l.237,0h.238l.583,0c.014,1.157.012,2.308-.06,3.463-.067,1.078-.1,2.157-.13,3.236-.064,2.435-.169,4.868-.281,7.3l-.009.188-.017.368q-.07,1.522-.122,3.044h-1.856v-.759A.977.977,0,0,0-93.9,16.2a2.9,2.9,0,0,0-1.391-.164l-.349,0c-.3,0-.609,0-.914,0s-.623,0-.935,0q-.915,0-1.831,0v-.069h.188q.879,0,1.757-.009.452,0,.9,0,.436,0,.872-.005h.332c.155,0,.311,0,.466,0h.268a.883.883,0,0,0,.576-.388,1.151,1.151,0,0,1,.881.107l.15.168.094.094A1.8,1.8,0,0,1-92.51,17.2a2.4,2.4,0,0,0,.164-.835l.007-.24.006-.248c.013-.488.029-.971.082-1.457.033-.356.04-.713.051-1.069a10.94,10.94,0,0,1,.069-1.228c.045-.414.051-.829.061-1.245.023-1.024.06-2.047.1-3.07q.009-.223.018-.445.012-.314.026-.628l.007-.19.008-.177.006-.153a1.794,1.794,0,0,1,.048-.317,3.2,3.2,0,0,0,.048-.57l0-.234,0-.25,0-.257q.006-.338.01-.675t.011-.69q.011-.676.021-1.352l-1.375.069.069-.138h.138A2.973,2.973,0,0,0-92.747.708q.006-.177.013-.354l0-.157C-92.71.01-92.678.009-92.489,0Z" transform="translate(-1638.88 -4542.401)" fill="#035385"/>
    <path id="Path_64862" data-name="Path 64862" d="M0,0H14.025V1.031H0Z" transform="translate(-1712.208 -4547)" fill="#e1a12c"/>
    <path id="Path_64863" data-name="Path 64863" d="M0,0H15.125l-.069.275L14.3.344l-.138.55L0,.963Z" transform="translate(-1728.296 -4546.931)" fill="#1b7c6a"/>
    <path id="Path_64864" data-name="Path 64864" d="M0,0H13.888V.894L0,.963Z" transform="translate(-1743.146 -4546.931)" fill="#0471a8"/>
    <path id="Path_64866" data-name="Path 64866" d="M-.022,0,.6.069l.012.3Q.63.921.652,1.474q.009.239.019.477Q.683,2.3.7,2.64l.008.214c.012.3.028.6.064.9a9,9,0,0,1,.05.969q0,.195.007.389l0,.2C.848,6.476.886,7.63.959,8.787l.018.285.009.14c.035.578.053,1.157.069,1.737.011.369.028.734.059,1.1.056.746.04,1.494.037,2.242q0,.232,0,.464,0,.563,0,1.126H.6C.469,13.8.364,11.721.3,9.637L.29,9.4Q.283,9.181.276,8.964C.264,8.555.244,8.147.22,7.738.179,7.033.155,6.327.132,5.621l-.014-.41Q.1,4.786.091,4.36.073,3.818.055,3.276.041,2.854.027,2.433q-.007-.2-.013-.4C-.009,1.355-.03.678-.022,0Z" transform="translate(-1726.349 -4540.675)" fill="#76ab90"/>
    <path id="Path_64867" data-name="Path 64867" d="M0,0H.069L.138.756H13.75v.688H0Z" transform="translate(-1711.452 -4544.8)" fill="#b56709"/>
    <path id="Path_64868" data-name="Path 64868" d="M-16.978-.236h.823l.794,0h.5l1.554,0,1.792,0,1.386,0,.827,0h1.064c1.01-.007,1.01-.007,1.44.339A.266.266,0,0,1-6.73.324l-.275.069.069.55c-.138,0-.138,0-.284-.129C-7.349.667-7.349.667-7.349.53L-7.654.491-7.825.469-7.968.461-8.036.53c-.118.007-.236.009-.354.009h-.49l-.409,0h-.441l-.919,0q-1.306.006-2.612.01L-14.7.563l-.764,0c-.284,0-.568,0-.851,0h-.257l-.234,0h-.2A.346.346,0,0,0-17.3.688a1.128,1.128,0,0,0-.152.6h-.756c-.006-.13-.01-.261-.013-.391l-.007-.22a1,1,0,0,1,.394-.712A1.335,1.335,0,0,1-16.978-.236Z" transform="translate(-1693.309 -4549.11)" fill="#fdd606"/>
    <path id="Path_64869" data-name="Path 64869" d="M-23.465-.033h.292c.264,0,.527,0,.791,0h2.222q.8,0,1.607,0,.691,0,1.382,0h.824q.388,0,.776,0h.418a1.936,1.936,0,0,1,1.246.312l.138.344h-1.169V.759h-.144q-1.738.006-3.475.016l-1.681.008L-21.7.79l-.776,0c-.288,0-.577,0-.865,0H-23.6l-.238,0h-.207a.35.35,0,0,0-.294.115,1.132,1.132,0,0,0-.151.6h-.688A1.551,1.551,0,0,1-24.907.278,2.055,2.055,0,0,1-23.465-.033Z" transform="translate(-1716.314 -4549.34)" fill="#4daecc"/>
    <path id="Path_64870" data-name="Path 64870" d="M0,0H5.569V1.238L5.5.963H3.644L3.575,1.1a4.379,4.379,0,0,1-.55.069l0,.132Q3.015,1.98,3,2.659,3,2.913,3,3.167q0,.364-.011.728l0,.23,0,.213,0,.188c-.019.15-.019.15-.157.287a.925.925,0,0,1-.344,0,.7.7,0,0,1-.151-.537v-.2l0-.219,0-.225q0-.356.007-.712.005-.469.009-.937l0-.219v-.2l0-.179c0-.158,0-.158-.153-.281a3.314,3.314,0,0,0-.768-.091L1.191,1,.941.993.687.984.069.963v.344H0Z" transform="translate(-1708.29 -4542.394)" fill="#935a0e"/>
    <path id="Path_64871" data-name="Path 64871" d="M-6.129-.091H2.289l5.231,0L7.451.4H-6.23V1.567h-.344q0-.393,0-.786l0-.227V.139C-6.567-.161-6.388-.091-6.129-.091Z" transform="translate(-1737.535 -4544.923)" fill="#e0f5f7"/>
    <path id="Path_64874" data-name="Path 64874" d="M-.086,0,.257.069C.315.876.346,1.682.37,2.491q.009.323.019.645.028.916.054,1.832Q.459,5.532.477,6.1q.006.213.012.427.009.3.018.6l0,.176A9.951,9.951,0,0,0,.6,8.319c.017.2.027.4.037.6L.646,9.1c.042.927.048,1.856.062,2.784.013.885.03,1.768.085,2.652.017.293.021.582.019.875v.142q0,.165,0,.331-.172,0-.344,0c-.114-.114-.083-.252-.088-.409l-.008-.221L.361,15.01l-.008-.248q-.013-.395-.026-.789T.3,13.194q-.008-.243-.016-.486C.269,12.252.241,11.8.2,11.346c-.021-.29-.03-.58-.035-.87l0-.176Q.158,9.935.151,9.571.145,9.3.139,9.032l0-.162C.13,8.588.114,8.31.087,8.029c-.043-.451-.058-.9-.072-1.355L.005,6.4q-.012-.368-.023-.736Q-.024,5.432-.031,5.2-.11,2.6-.086,0Z" transform="translate(-1711.228 -4540.675)" fill="#fefeea"/>
    <path id="Path_64875" data-name="Path 64875" d="M-185.318,0h.069a1.606,1.606,0,0,1-.069.756,9.829,9.829,0,0,1-1.637.075H-188l-1.127,0-2.6,0-2.376,0h-.934c-1.848-.006-1.848-.006-3.693.074l-.069.413.137.069-.344.069V.344h13.682Z" transform="translate(-1544.765 -4544.869)" fill="#0374b0"/>
    <path id="Path_64877" data-name="Path 64877" d="M-6.958-.156H2.864l6.1,0L9.036.2H-7.189V1.5h-.275q0-.393,0-.786l0-.227V.074C-7.455-.247-7.227-.156-6.958-.156Z" transform="translate(-1721.52 -4544.859)" fill="#edf9c5"/>
    <path id="Path_64879" data-name="Path 64879" d="M-.044-.029q.172,0,.344,0c.1.1.078.2.079.344V.7q0,.224,0,.449l0,.246c.02,1.975.1,3.946.187,5.919l.019.415q.027.592.054,1.184L.656,9.1c.028.607.059,1.213.11,1.819.033.436.042.874.056,1.311.013.37.031.738.063,1.107.041.5.04,1,.037,1.51q0,.138,0,.276,0,.333,0,.665H.574c-.1-1.371-.159-2.743-.206-4.116C.33,10.553.289,9.438.235,8.324Q.15,6.543.072,4.761q-.018-.4-.036-.8C-.024,2.628-.059,1.3-.044-.029Z" transform="translate(-1741.315 -4540.646)" fill="#e4f2f3"/>
    <path id="Path_64881" data-name="Path 64881" d="M0,0H5.638V.963H.069v.413H0Z" transform="translate(-1723.415 -4542.394)" fill="#07474f"/>
    <path id="Path_64882" data-name="Path 64882" d="M0,0H13.338l-.069.413-2.919,0-1.356,0H6.28A10.389,10.389,0,0,1,5.124.356,4.021,4.021,0,0,0,4.4.393C4,.431,3.6.429,3.2.434l-.279,0L2.2.449,1.454.46,0,.481Z" transform="translate(-1712.14 -4546.587)" fill="#ea9503"/>
    <path id="Path_64883" data-name="Path 64883" d="M0-.24,5.533-.248l2.569,0,2.238,0,1.186,0h2.249c.373,0,.373,0,.526.155a2.056,2.056,0,0,1,.013.344c0,.1,0,.1,0,.205s0,.106,0,.215c0,.072,0,.143,0,.217q0,.266-.007.531h-.344c0-.125,0-.125,0-.253q0-.163,0-.327c0-.055,0-.11,0-.167,0-.141,0-.281-.006-.422-.137-.137-.414-.079-.6-.08h-.171l-.572,0-.408,0-1.113,0L9.929.146,7.728.137,5.223.126.069.1Z" transform="translate(-1711.452 -4544.766)" fill="#fefb84"/>
    <path id="Path_64885" data-name="Path 64885" d="M0,0H5.5V.963H0Z" transform="translate(-1738.403 -4542.394)" fill="#014c7a"/>
    <path id="Path_64886" data-name="Path 64886" d="M-.022,0H.322C.37.817.4,1.631.413,2.449.439,4,.494,5.549.554,7.1l.007.175q.1,2.5.235,5.005c.066,1.2.108,2.4.077,3.6H.6C.469,13.8.364,11.721.3,9.637L.29,9.4Q.283,9.181.276,8.964C.264,8.555.244,8.147.22,7.738.179,7.033.155,6.327.132,5.621l-.014-.41Q.1,4.786.091,4.36.073,3.818.055,3.276.041,2.854.027,2.433q-.007-.2-.013-.4C-.009,1.355-.03.678-.022,0Z" transform="translate(-1726.349 -4540.675)" fill="#edf5ec"/>
    <path id="Path_64887" data-name="Path 64887" d="M0,0,.413.069C.483,1.2.5,2.322.519,3.451c.012.8.027,1.6.084,2.4.029.492.034.985.043,1.479q.029,1.644.111,3.284c.048.942.087,1.884.112,2.827l0,.159c.02.761.025,1.521.022,2.282H.619C.5,14.277.457,12.674.436,11.066.426,10.351.415,9.638.381,8.924L.373,8.761C.36,8.527.341,8.3.31,8.066c-.04-.316-.052-.63-.06-.947L.244,6.93Q.234,6.621.226,6.313L.213,5.879Q.2,5.31.179,4.74.152,3.831.125,2.923.115,2.608.106,2.293C.084,1.528.05.764,0,0Z" transform="translate(-1711.04 -4540.675)" fill="#fbd915"/>
    <path id="Path_64888" data-name="Path 64888" d="M-26.075,0c.55,0,.55,0,.619.069.007.126.009.252.009.378,0,.077,0,.153,0,.232s0,.162,0,.245c0,.121,0,.121,0,.244,0,.077,0,.154,0,.233s0,.142,0,.215a.523.523,0,0,1-.078.31,1.837,1.837,0,0,1-.275.069v.138l.413.069-.138.138c-.11-.013-.22-.027-.329-.046a10.471,10.471,0,0,0-1.158-.064l-.206-.008-.185-.006c-.2-.014-.4-.049-.6-.082V.413l.816,0,.257,0h.409a.508.508,0,0,1,.3.077l.069,1.169Z" transform="translate(-1683.315 -4542.806)" fill="#9e5b04"/>
    <path id="Path_64889" data-name="Path 64889" d="M-16.978-.236h.823l.794,0h.5l1.554,0,1.792,0,1.386,0,.827,0h1.064c.908-.006.908-.006,1.306.232l.069.138h-.163Q-9,.119-10.964.126q-.951,0-1.9,0-.829,0-1.658,0-.439,0-.878,0-.413,0-.826,0h-.3c-.138,0-.276,0-.414,0h-.234a.85.85,0,0,0-.55.387,1,1,0,0,0-.056.4l-.01.2,0,.153h-.413c-.006-.13-.01-.261-.013-.391l-.007-.22a1,1,0,0,1,.394-.712A1.335,1.335,0,0,1-16.978-.236Z" transform="translate(-1693.309 -4549.11)" fill="#f3f5e0"/>
    <path id="Path_64890" data-name="Path 64890" d="M-16.137-.02h.256l.278,0h1.932l1.406,0q.812,0,1.625,0H-8.41l.783,0h.9a1.271,1.271,0,0,1,.542.155l.069.206h-.161l-3.885.019L-12.04.379l-1.637.008-.867,0-.816,0h-.3l-.409,0H-16.3a.9.9,0,0,0-.471.155,1.193,1.193,0,0,0-.18.636l-.016.186-.01.141h-.344q0-.219,0-.438l0-.247a.559.559,0,0,1,.075-.346h.138l.043-.125A.99.99,0,0,1-16.137-.02Z" transform="translate(-1709.187 -4549.343)" fill="#deeee5"/>
    <path id="Path_64891" data-name="Path 64891" d="M-23.494-.037h.293c.264,0,.528,0,.792,0h.83l1.394,0q.805,0,1.61,0h2.211l.777,0h.285l.389,0h.22A1.473,1.473,0,0,1-14.076.2l.069.138h-.16Q-16.1.348-18.023.357l-1.865.008-1.625.007-.861,0-.81,0h-.3l-.406,0h-.229a1.019,1.019,0,0,0-.547.233.919.919,0,0,0-.18.563l-.016.188-.01.143h-.344A1.551,1.551,0,0,1-24.939.272,2.064,2.064,0,0,1-23.494-.037Z" transform="translate(-1716.283 -4549.334)" fill="#c7ebf5"/>
    <path id="Path_64892" data-name="Path 64892" d="M-147.4,0l.138.069V.206a1.649,1.649,0,0,1-.894.138l-.069.206h-.146l-3.524-.007-1.7,0-1.485,0-.786,0h-.74l-.4,0h-.451a.864.864,0,0,0-.456.154.846.846,0,0,0-.086.318l-.031.17-.02.131h-.206c-.039-.751-.039-.751.206-1.031a1.13,1.13,0,0,1,.7-.154h.864l.833,0h.871l1.649,0,1.877,0,3.861.007Z" transform="translate(-1567.904 -4549.131)" fill="#74a78e"/>
    <path id="Path_64893" data-name="Path 64893" d="M0-.047A1.119,1.119,0,0,1,.688.091L.694.342Q.727,1.536.761,2.731.778,3.344.8,3.958q.02.712.04,1.424l.007.239q.043,1.5.118,2.994c.075,1.491.089,2.979.081,4.472q0,.48,0,.96,0,.928-.007,1.856H.619v-.069H.963q-.012-.4-.026-.8-.007-.2-.013-.4c-.016-.491-.043-.98-.083-1.47-.025-.336-.035-.673-.046-1.01Q.762,11.212.7,10.277C.629,9.024.568,7.769.511,6.515L.5,6.364C.41,4.273.365,2.183.344.091L0,.022Z" transform="translate(-1741.359 -4540.697)" fill="#5daecc"/>
    <path id="Path_64894" data-name="Path 64894" d="M0,0H14.025V.275H0Z" transform="translate(-1712.208 -4547)" fill="#e7ead9"/>
    <path id="Path_64895" data-name="Path 64895" d="M-15.865-.055h.232l.485,0c.247,0,.494,0,.741,0l.471,0h.224a1.208,1.208,0,0,1,.977.307c.006.1.007.195.007.292,0,.059,0,.117,0,.178l0,.187v.188q0,.23,0,.461h-.55l-.069-.825L-16.447.673v.894H-17c-.009-.2-.016-.4-.021-.6L-17.028.8l0-.166-.005-.152C-16.885-.111-16.364-.063-15.865-.055Z" transform="translate(-1690.811 -4551.798)" fill="#ecab1c"/>
    <path id="Path_64897" data-name="Path 64897" d="M-6.806-.1h1.558l.842,0h1.64a.589.589,0,0,1,.408.155V.67h-4.95C-7.308-.094-7.308-.094-6.806-.1Z" transform="translate(-1730.82 -4525.463)" fill="#0e4c57"/>
    <path id="Path_64898" data-name="Path 64898" d="M-14.8-.092h.233c.246,0,.492.005.738.009l.5,0c.3,0,.607,0,.91.01l.185,0a.988.988,0,0,1,.362.079,2.029,2.029,0,0,1,.146.954l0,.143c0,.115,0,.231-.007.346h-.069V.632h-.138v.894h-.206l-.138-.756L-15.314.7v.825h-.55q-.011-.3-.017-.6l-.007-.17,0-.166,0-.152C-15.772-.164-15.31-.1-14.8-.092Z" transform="translate(-1721.92 -4551.757)" fill="#0377b4"/>
    <path id="Path_64899" data-name="Path 64899" d="M-6.921-.007h4.114C-2.619,0-2.619,0-2.55.07V.758H-7.432C-7.432-.007-7.432-.007-6.921-.007Z" transform="translate(-1715.571 -4525.551)" fill="#0c4e56"/>
    <path id="Path_64900" data-name="Path 64900" d="M-15.931-.053h.233l.486.006c.249,0,.5.006.746.006l.473,0,.226,0,.209,0,.184,0c.156.019.156.019.362.157a.537.537,0,0,1,.038.393,3.713,3.713,0,0,0-.077.621l-.017.244-.013.186h-.275V.749h-3.163v.825h-.55c-.009-.186-.016-.372-.021-.559L-17.1.857l0-.156-.005-.142C-16.944-.083-16.5-.066-15.931-.053Z" transform="translate(-1705.729 -4551.804)" fill="#226c68"/>
    <path id="Path_64901" data-name="Path 64901" d="M-4.446-.091l.305,0,.172,0c.142.007.142.007.211.075.007.128.009.257.009.385v.25c0,.09,0,.179,0,.272s0,.184,0,.277q0,.29,0,.581,0,.373,0,.746,0,.286,0,.571,0,.2,0,.409v.25c0,.109,0,.109,0,.221-.009.164-.009.164-.077.233a.659.659,0,0,1-.606-.142c-.521-.7-.311-2.236-.232-3.059l.017-.179A3.408,3.408,0,0,1-4.446-.091Z" transform="translate(-1693.6 -4529.584)" fill="#0b4d5d"/>
    <path id="Path_64902" data-name="Path 64902" d="M-6.649-.009h3.927A.543.543,0,0,1-2.4.069V.756H-7.14C-7.14-.009-7.14-.009-6.649-.009Z" transform="translate(-1700.805 -4525.549)" fill="#0d4f56"/>
    <path id="Path_64904" data-name="Path 64904" d="M0,0H.756A11.369,11.369,0,0,1,.872,3.175l0,.142a1.888,1.888,0,0,1-.249.876c-.4.111-.4.111-.619,0Z" transform="translate(-1743.765 -4529.674)" fill="#094954"/>
    <path id="Path_64905" data-name="Path 64905" d="M0,0H15.125V.206H.344V.963H0Z" transform="translate(-1728.296 -4546.931)" fill="#dcefe3"/>
    <path id="Path_64906" data-name="Path 64906" d="M-.349,0H1.232a6.24,6.24,0,0,1,.619,1.513,2.2,2.2,0,0,1-.344-.138l-.069-.206c-.36.144-.456.394-.61.726a2.281,2.281,0,0,1-.2.361,1.271,1.271,0,0,0-.155.494A2.377,2.377,0,0,1-.375,1.435,1.249,1.249,0,0,1-.087.742.7.7,0,0,0,.063.413L-.143.284-.349.138Z" transform="translate(-1723.203 -4537.718)" fill="#eff8f7"/>
    <path id="Path_64907" data-name="Path 64907" d="M-14.9,0h1.788l-.275.275a.879.879,0,0,0-.036.352l0,.212c0,.075,0,.15,0,.227l0,.234c0,.247,0,.494,0,.74s0,.5-.007.743q0,.231,0,.462v.21c0,.061,0,.123,0,.186-.009.14-.009.14-.078.208a1.532,1.532,0,0,1-.344,0c-.165-.165-.156-.205-.159-.431l0-.183,0-.2,0-.2q-.006-.322-.01-.643,0-.218-.008-.435-.01-.534-.018-1.069l-.55-.069a.838.838,0,0,0-.232.693v.256q0,.138,0,.276t0,.285q0,.3,0,.6,0,.381,0,.761,0,.295,0,.59,0,.208,0,.416a5.767,5.767,0,0,0,.158,1.419c-.138-.069-.138-.069-.214-.215a2.074,2.074,0,0,1-.077-.672c0-.046,0-.093,0-.14,0-.152,0-.3,0-.456q0-.159,0-.318,0-.417,0-.834t0-.852q0-.835.007-1.67l-.161.136a.589.589,0,0,1-.513.156l-.165-.008-.123-.01L-16,.894l.223.009a.721.721,0,0,0,.533-.146,2.3,2.3,0,0,0,.206-.413h.138Z" transform="translate(-1693.321 -4541.431)" fill="#c97f11"/>
    <path id="Path_64908" data-name="Path 64908" d="M0-.814C.276-.832.553-.843.829-.853l.236-.016c.568-.015.568-.015.811.183a2.9,2.9,0,0,1,.461.834C2.6,0,2.845-.165,3.094-.333q-.189.474-.382.945L2.645.775c-.163.4-.163.4-.239.473-.127.006-.255.007-.383.007H1.789l-.247,0H1.3l-.608,0C.853,1,.959.983,1.238.9A2.374,2.374,0,0,0,.315-.538.7.7,0,0,0,0-.677Z" transform="translate(-1721.352 -4539.242)" fill="#f5fbfa"/>
    <path id="Path_64909" data-name="Path 64909" d="M0-1.12c1.418-.12,1.418-.12,1.789.072a1.779,1.779,0,0,1,.48.684v.138a5.538,5.538,0,0,0,.619-.413l.138.069-.069.138H2.819L2.8-.285a2.694,2.694,0,0,1-.217.578,3.237,3.237,0,0,0-.241.649H.756C.894.667.894.667,1.04.616L1.169.6A2.914,2.914,0,0,0,0-.983Z" transform="translate(-1736.409 -4538.936)" fill="#f5fbfd"/>
    <path id="Path_64910" data-name="Path 64910" d="M0-.529C.259-.539.518-.545.778-.55L1-.559l.214,0,.2-.005c.169.039.169.039.289.2.093.2.183.4.267.6l.089.213A3.148,3.148,0,0,1,2.2.915,1.541,1.541,0,0,1,1.65.5L1.633.647a2.071,2.071,0,0,1-.322.642,3.082,3.082,0,0,0-.417.864A2.273,2.273,0,0,1,.047.84,1.091,1.091,0,0,1,.2.357,1.815,1.815,0,0,0,.413-.185L0-.391Z" transform="translate(-1738.746 -4537.19)" fill="#f1fafc"/>
    <path id="Path_64911" data-name="Path 64911" d="M-189.975-.956v.275h-13.682V.488H-204l.275-.069V-.887l.4,0,3.77-.021,1.938-.011,1.693-.01.893,0,1.008-.006h.162q.93-.007,1.86-.032l.179-.005.853-.027.156,0,.417-.014A.914.914,0,0,1-189.975-.956Z" transform="translate(-1540.109 -4543.843)" fill="#6abcdc"/>
    <path id="Path_64912" data-name="Path 64912" d="M-8.552,0h.069V.55q.419-.011.838-.026l.24-.006L-7.174.51-6.961.5A1.656,1.656,0,0,0-6.42.344a2.88,2.88,0,0,1-.52.868l-.207.273-.092.121a.674.674,0,0,0-.144.319h-1.1v.55a2.434,2.434,0,0,1-.5-.645L-9.09,1.64a1.053,1.053,0,0,1-.081-.609A1.867,1.867,0,0,1-8.977.683l.109-.17.11-.169.113-.193Z" transform="translate(-1711.013 -4536.481)" fill="#f2f8f8"/>
    <path id="Path_64913" data-name="Path 64913" d="M0,0H1.65c.021.584.021.584.027.765a2.759,2.759,0,0,0,.248,1.023L1.306,1.8l-.175,0A3.483,3.483,0,0,1,.069,1.65L0,1.856Z" transform="translate(-1741.428 -4542.394)" fill="#024a76"/>
    <path id="Path_64915" data-name="Path 64915" d="M0,0H1.65c.017.55.017.55.02.72a2.035,2.035,0,0,0,.323,1l-.8,0-.23,0H.534A2.4,2.4,0,0,1,0,1.65Z" transform="translate(-1726.371 -4542.324)" fill="#09464e"/>
    <path id="Path_64916" data-name="Path 64916" d="M-6.522,0h.206V.55c.255-.006.51-.013.765-.021l.218,0A1.77,1.77,0,0,0-4.322.275a1.366,1.366,0,0,1-.3.614c-.164.225-.314.452-.455.692l-.138.206a4.819,4.819,0,0,1-.559.013l-.157,0-.384-.01v.55A2.173,2.173,0,0,1-7,1.306,2.755,2.755,0,0,1-6.522,0Z" transform="translate(-1728.375 -4536.413)" fill="#f5fcfd"/>
    <path id="Path_64917" data-name="Path 64917" d="M0,0H11.825l-.138.206a2.25,2.25,0,0,1-.445.025H11.1l-.466,0H10.3L9.4.227l-.947,0-1.794,0-2.042,0q-2.1,0-4.2-.01V.963H0Z" transform="translate(-1743.146 -4546.931)" fill="#b5dfec"/>
    <path id="Path_64919" data-name="Path 64919" d="M0,0H.138V.963H14.163V.138h.069v.894l-.194.005-.733.02-.313.009c-.5.013-1,.027-1.5.06-1.025.065-2.052.053-3.078.052H.619A3.568,3.568,0,0,1,0,1.1Z" transform="translate(-1712.346 -4546.931)" fill="#192429"/>
    <path id="Path_64920" data-name="Path 64920" d="M-218.843,0l.138.069V.55L-234.725.481V1.65H-235V.344h16.225Z" transform="translate(-1493.709 -4545.006)" fill="#70b494"/>
    <path id="Path_64921" data-name="Path 64921" d="M-85.675-.112c.069.069.069.069.077.228V.325c0,.111,0,.111,0,.225l0,.237v.238q0,.292,0,.583h.206l.013-.268.017-.346.008-.177.009-.169.008-.156c.014-.121.014-.121.083-.19.122-.006.245-.007.368-.007h.225l.237,0h.238l.583,0V.37l-1.581.069c-.014.386-.014.386-.027.771a2.008,2.008,0,0,1-.248.948.69.69,0,0,1-.619.138,2.165,2.165,0,0,1-.344-.344l-.069-.069V.37H-92V.3h5.569l.069,1.1.023-.278.033-.362.015-.184L-86.275.4l.014-.163C-86.179-.088-85.989-.145-85.675-.112Z" transform="translate(-1616.221 -4542.763)" fill="#18242b"/>
    <path id="Path_64922" data-name="Path 64922" d="M-25.471-.695V.68q-.425.008-.851.013L-26.567.7-26.8.7l-.216,0L-27.19.68a.757.757,0,0,1-.138-.688C-27.029-.933-26.289-.748-25.471-.695Z" transform="translate(-1695.193 -4535.236)" fill="#edf6f5"/>
    <path id="Path_64923" data-name="Path 64923" d="M-16.7-.08c.191.077.245.175.353.349l.106.17.1.157.129.185a.835.835,0,0,1,.077.571,1.125,1.125,0,0,1-.7.444c-.4.024-.4.024-.582-.128a3.682,3.682,0,0,1-.262-.415,1.313,1.313,0,0,0-.451-.589V.458h.413V.321c.4-.206.4-.206.55-.206V-.023A.34.34,0,0,1-16.7-.08Z" transform="translate(-1716.688 -4537.833)" fill="#f1f9fb"/>
    <path id="Path_64924" data-name="Path 64924" d="M-13.128,0a1.4,1.4,0,0,1,.741.515.819.819,0,0,1,.077.554,4.547,4.547,0,0,1-.241.541l-.07.143q-.084.174-.171.346a2.623,2.623,0,0,1-.692-.378,3.6,3.6,0,0,0-.614-.378A4.509,4.509,0,0,1-13.668.5l.077-.134C-13.454.143-13.389.047-13.128,0Z" transform="translate(-1708.355 -4539.819)" fill="#f2faf9"/>
    <path id="Path_64925" data-name="Path 64925" d="M-.011,0H.264Q.4,2.848.45,5.7q0,.232.009.465.007.369.012.738,0,.2.007.4A2.976,2.976,0,0,1,.333,8.456H.264c-.05-.46-.084-.918-.1-1.38l-.008-.2q-.013-.32-.026-.639L.117,6.017Q.05,4.352.015,2.686l0-.2Q-.016,1.245-.011,0Z" transform="translate(-1726.016 -4540.606)" fill="#93b899"/>
    <path id="Path_64926" data-name="Path 64926" d="M-14.9,0a.5.5,0,0,1,.275.069A1.873,1.873,0,0,1-14.41.4l.1.182.094.175.079.145a1.026,1.026,0,0,1,.058.612,1.066,1.066,0,0,1-.825.361l-.142.005a.462.462,0,0,1-.339-.229q-.1-.154-.185-.314l-.091-.164a.434.434,0,0,1-.068-.279L-16,.756V.619l.206-.1.267-.132.136-.066A1.7,1.7,0,0,0-14.9,0Z" transform="translate(-1703.427 -4537.925)" fill="#f4fbfa"/>
    <path id="Path_64927" data-name="Path 64927" d="M0-.24,5.533-.248l2.569,0,2.238,0,1.186,0h2.249c.373,0,.373,0,.526.155a2.056,2.056,0,0,1,.013.344c0,.1,0,.1,0,.205s0,.106,0,.215c0,.072,0,.143,0,.217q0,.266-.007.531h-.344V.035L12.719-.034V-.172h-8.8v.138H0Z" transform="translate(-1711.452 -4544.766)" fill="#fcf9be"/>
    <path id="Path_64928" data-name="Path 64928" d="M-24.387,0V1.375q-.37.008-.739.013l-.212.005-.2,0-.188,0a.65.65,0,0,1-.445-.23,2.249,2.249,0,0,1,0-.481h.138l.021-.116a1.2,1.2,0,0,1,.254-.5,2.475,2.475,0,0,1,.623-.056l.173-.005C-24.773,0-24.58,0-24.387,0Z" transform="translate(-1711.472 -4535.931)" fill="#f7fcfd"/>
    <path id="Path_64929" data-name="Path 64929" d="M-11.99,0A1.111,1.111,0,0,1-11.4.487a.381.381,0,0,0,.242.2,2.779,2.779,0,0,1-.333,1.069,1.7,1.7,0,0,0-.148.375,5.82,5.82,0,0,1-.657-.378l-.2-.127q-.192-.124-.382-.251a1.248,1.248,0,0,1,.138-.481h.138l.013-.142A.953.953,0,0,1-11.99,0Z" transform="translate(-1724.634 -4539.846)" fill="#edf8fb"/>
    <path id="Path_64930" data-name="Path 64930" d="M-26.075,0c.55,0,.55,0,.619.069.007.126.009.252.009.378,0,.077,0,.153,0,.232s0,.162,0,.245c0,.121,0,.121,0,.244,0,.077,0,.154,0,.233s0,.142,0,.215a.523.523,0,0,1-.078.31,1.837,1.837,0,0,1-.275.069v.138l.413.069-.138.138a3.413,3.413,0,0,1-.481-.069l-.155-.009c-.174-.087-.213-.224-.284-.4A2.318,2.318,0,0,1-26.5,1.1l0-.162c0-.131.006-.261.01-.392l-.176,0-.236,0-.232,0c-.267-.007-.534-.042-.8-.075V2.063H-28V.413l.816,0,.257,0h.409a.508.508,0,0,1,.3.077l.069,1.169Z" transform="translate(-1683.315 -4542.806)" fill="#373323"/>
    <path id="Path_64931" data-name="Path 64931" d="M-35.387,0h.069c.008.624-.015,1.244-.051,1.868-.1,1.706-.132,3.413-.172,5.121q-.008.338-.016.677-.006.235-.011.469c-.01.449-.028.893-.079,1.339-.026.251-.03.5-.035.755l-.008.33q-.006.256-.011.512t-.011.5l0,.155c-.009.36-.009.36-.085.513-.01.118-.016.237-.019.355l-.008.217-.007.227q-.007.22-.015.441l-.006.2c-.016.255-.05.508-.082.762h-1.856l-.069-.894L-38,13.269a1.837,1.837,0,0,1,.275.069,2.39,2.39,0,0,1,.069,1.031h1.65l0-.479q0-.229,0-.457,0-.159,0-.319,0-.229,0-.457v-.145c0-.114,0-.229.008-.343l.069-.069c.01-.114.015-.228.018-.342l.007-.223.007-.245.008-.254q.008-.272.016-.543.021-.712.044-1.425l0-.143c.028-.876.068-1.752.114-2.628.045-.86.071-1.72.089-2.581C-35.6,2.474-35.5,1.238-35.387,0Z" transform="translate(-1664.583 -4539.231)" fill="#7a592a"/>
    <path id="Path_64932" data-name="Path 64932" d="M0,0H.069V.619H13.888V.069L14.025,0V.756H0Z" transform="translate(-1712.208 -4546.725)" fill="#b07818"/>
    <path id="Path_64933" data-name="Path 64933" d="M-88.285-1.533a.281.281,0,0,1,.082.249h-1.169v.138H-94.8v-.069l.161-.008.209-.014.208-.012.179-.035.138-.206a1.112,1.112,0,0,1,.306-.029l.193,0h.211l.219,0,.708-.007.723-.009.478-.006c.446-.006.892-.016,1.338-.037l.144-.006q.316-.015.632-.033l.216-.01.182-.011A.377.377,0,0,1-88.285-1.533Z" transform="translate(-1641.881 -4547.434)" fill="#46a9cf"/>
    <path id="Path_64934" data-name="Path 64934" d="M-52.75-.169h.412l1.14,0,1.468,0,1.144,0,.68,0h.753l.227,0h.385l.142.026.138.206H-56.645V-.017a5.074,5.074,0,0,1,1.033-.107l.21-.009C-54.518-.166-53.634-.167-52.75-.169Z" transform="translate(-1653.914 -4549.045)" fill="#fef89b"/>
    <path id="Path_64935" data-name="Path 64935" d="M-5.587-.232l3.5-.007,1.624,0,1.416,0,.749,0H2.788A3.077,3.077,0,0,1,3.9-.094V.043L-6-.025V-.094h.413Z" transform="translate(-1719.202 -4549.037)" fill="#f9feee"/>
    <path id="Path_64936" data-name="Path 64936" d="M0,0,.206.069C.264.876.3,1.682.318,2.491q.009.323.019.645.028.916.054,1.832Q.408,5.532.425,6.1q.006.213.012.427.009.3.018.6l0,.176A9.951,9.951,0,0,0,.55,8.319c.017.2.027.4.037.6L.6,9.1c.042.927.048,1.856.062,2.784.013.885.03,1.768.085,2.652.017.293.021.582.019.875v.142q0,.165,0,.331H.413l.138-.069Q.528,14.405.5,13,.492,12.344.482,11.69q-.01-.633-.021-1.266,0-.239-.008-.479C.438,8.977.393,8.018.308,7.054.253,6.439.228,5.821.2,5.2l-.017-.39Q.123,3.406.092,2C.077,1.331.043.666,0,0Z" transform="translate(-1711.177 -4540.675)" fill="#fef99d"/>
    <path id="Path_64937" data-name="Path 64937" d="M0,0H8.525L8.456.138h-.55L7.838.344C6.33.357,4.823.366,3.317.279L3.155.27C2.283.22,2.283.22,2.2.138,2.043.131,1.885.13,1.727.131H1.584l-.454,0H.823l-.754,0Z" transform="translate(-1723.965 -4548.925)" fill="#65a68a"/>
    <path id="Path_64938" data-name="Path 64938" d="M-30.731,0h.069l.005.2q.01.377.02.755,0,.162.009.325.006.235.013.471l0,.143c.008.268.026.532.052.8.042.44.058.88.072,1.322l.009.263q.009.275.018.55.013.413.028.826c.035,1.026.052,2.049.046,3.075H-33c0-.7.012-1.385.064-2.084.065-.912.091-1.823.107-2.737A28.534,28.534,0,0,1-32.656.963h.069c.009,1.115-.014,2.227-.055,3.342q-.014.4-.028.792-.009.252-.018.5l-.008.239-.008.218-.007.192c-.013.144-.013.144-.082.213-.006.158-.007.315-.007.473V7.2l0,.335,0,1.061,2.338.069-.069-.55c-.006-.1-.011-.192-.013-.289l0-.149,0-.155-.008-.332q-.006-.259-.011-.518t-.011-.5l0-.158a.571.571,0,0,0-.085-.44c-.011-.205-.018-.409-.022-.614l0-.193q-.007-.314-.013-.628l0-.215Q-30.746,1.959-30.731,0Z" transform="translate(-1696.465 -4533.593)" fill="#e0e1cc"/>
    <path id="Path_64939" data-name="Path 64939" d="M-.019-.106l1.134,0H1.5l.554,0H2.23a1.875,1.875,0,0,1,.638.077l.069.206a.931.931,0,0,1-.275.344,2.473,2.473,0,0,1-.518.041l-.15,0c-.158,0-.316,0-.474,0H1.044q-.148,0-.3,0A1.729,1.729,0,0,0,.393.582L.256.788C.05.651.05.651,0,.535A4.537,4.537,0,0,1-.019-.106Z" transform="translate(-1737.146 -4550.882)" fill="#024"/>
    <path id="Path_64940" data-name="Path 64940" d="M-14.8-.092h.233c.246,0,.492.005.738.009l.5,0c.3,0,.607,0,.91.01l.185,0a.988.988,0,0,1,.362.079,2.029,2.029,0,0,1,.146.954l0,.143c0,.115,0,.231-.007.346h-.069V.632h-.138v.894h-.206l-.069-1.1h.275V.219l-3.575.069-.069,1.238h-.275q-.011-.3-.017-.6l-.007-.17,0-.166,0-.152C-15.772-.164-15.31-.1-14.8-.092Z" transform="translate(-1721.92 -4551.757)" fill="#b2e6fa"/>
    <path id="Path_64941" data-name="Path 64941" d="M-.073-.029q.172,0,.344,0c.116.116.08.262.083.421l0,.228,0,.25,0,.258q0,.272.008.545.006.41.013.819c.016.97.026,1.94.021,2.91H.34L.271,4.577l-.206.206C-.022,3.178-.1,1.579-.073-.029Z" transform="translate(-1741.286 -4540.646)" fill="#eaf8f8"/>
    <path id="Path_64942" data-name="Path 64942" d="M-.139,0-.07.206H.067l0,.2C.06,1.021.083,1.626.126,2.237c.082,1.182.09,2.36.08,3.545,0,.63,0,1.25.052,1.878.029.447.023.894.02,1.342q0,.142,0,.284,0,.341,0,.683H.2C-.007,6.653-.2,3.324-.139,0Z" transform="translate(-1740.807 -4539.506)" fill="#7bb8c9"/>
    <path id="Path_64945" data-name="Path 64945" d="M0,0H.825l-.1.164a2.156,2.156,0,0,0-.135.923l0,.195c0,.2,0,.409-.006.613s0,.409-.006.614q0,.191,0,.381a1.672,1.672,0,0,1-.158.823L.138,3.644V.138H0Z" transform="translate(-1705.952 -4541.431)" fill="#dc8302"/>
    <path id="Path_64946" data-name="Path 64946" d="M-189.043-.234a1.761,1.761,0,0,1,.387-.013l.209.006.161.007V.453H-203V.384h13.819V-.028Z" transform="translate(-1524.953 -4546.421)" fill="#084c50"/>
    <path id="Path_64947" data-name="Path 64947" d="M-6.934-.154H2.847l6.078,0v.069H-7.3V.13h.138V1.5h-.275q0-.393,0-.786l0-.227V.076C-7.429-.244-7.2-.154-6.934-.154Z" transform="translate(-1721.546 -4544.861)" fill="#f3fada"/>
    <path id="Path_64948" data-name="Path 64948" d="M-15.931-.053h.233l.486.006c.249,0,.5.006.746.006l.473,0,.226,0,.209,0,.184,0c.156.019.156.019.362.157a.537.537,0,0,1,.038.393,3.713,3.713,0,0,0-.077.621l-.017.244-.013.186h-.275q-.006-.247-.009-.494l0-.14A1.628,1.628,0,0,1-13.218.2l-3.438.069a2.815,2.815,0,0,0-.107.769l-.009.156q-.011.19-.021.381h-.275c-.009-.186-.016-.372-.021-.559L-17.1.857l0-.156-.005-.142C-16.944-.083-16.5-.066-15.931-.053Z" transform="translate(-1705.729 -4551.804)" fill="#e3f1f1"/>
    <path id="Path_64949" data-name="Path 64949" d="M0,0H.481L.413.138C.4.25.4.362.4.475l0,.213,0,.23,0,.235Q.38,1.526.374,1.9q0,.252-.009.5-.011.62-.021,1.24H.619V.55H.825V.413h.619l.138.275h.138q.007.875.011,1.75,0,.406,0,.813t0,.785q0,.149,0,.3c.01.961.01.961-.228,1.372a1.069,1.069,0,0,1-.069-.275l.066-.121A1.241,1.241,0,0,0,1.6,4.732l0-.26q0-.14,0-.28t0-.288q0-.3,0-.6c0-.258,0-.515,0-.773q0-.3,0-.595,0-.142,0-.285c0-.133,0-.266,0-.4,0-.076,0-.151,0-.229A.629.629,0,0,0,1.306.55a.585.585,0,0,0-.344,0C.8.714.807.749.805.972l0,.178v.193l0,.2q0,.313-.008.626,0,.411-.011.823v.192l0,.178,0,.157c-.018.128-.018.128-.156.265a1.532,1.532,0,0,1-.344,0c-.112-.112-.079-.24-.081-.4l0-.211,0-.229q0-.238-.007-.476,0-.377-.009-.754T.164.991l0-.229,0-.212,0-.187C.147.187.147.187,0,0Z" transform="translate(-1704.646 -4541.362)" fill="#ae7a23"/>
    <path id="Path_64950" data-name="Path 64950" d="M-.339,0l.206.069c.076,1,.1,2,.133,3q.011.372.023.743.009.292.018.583.006.2.013.4.011.384.019.767l0,.149q0,.228.007.456l0,.143c0,.117-.006.234-.013.351l-.138.138a.813.813,0,0,1-.071-.458l0-.2q0-.2.008-.4a3.6,3.6,0,0,0-.073-.9A15.556,15.556,0,0,1-.344,1.461q0-.214,0-.428Q-.342.516-.339,0Z" transform="translate(-1710.975 -4540.675)" fill="#fafdf8"/>
    <path id="Path_64951" data-name="Path 64951" d="M-.082,0h.069L.055,1.375H.193V3.438H.33A11.547,11.547,0,0,1,.406,4.884v.21q0,.328,0,.656,0,.224,0,.448,0,.545,0,1.091H.193l0-.125Q.161,6.37.133,5.577L.124,5.321C.085,4.25.038,3.18-.031,2.111-.076,1.406-.1.706-.082,0Z" transform="translate(-1725.67 -4532.081)" fill="#7aa48a"/>
    <path id="Path_64952" data-name="Path 64952" d="M-4.713,0l.227,0,.228,0,.176,0-.069.275h-.138V.426h-.275V.563h-.206V3.657h-.275q-.005-.745-.008-1.491,0-.254,0-.507,0-.364,0-.728l0-.23c0-.07,0-.14,0-.213V.3C-5.034.057-4.949.016-4.713,0Z" transform="translate(-1699.258 -4541.375)" fill="#e08b02"/>
    <path id="Path_64953" data-name="Path 64953" d="M0,0H14.713V.069H.344V.688H0Z" transform="translate(-1727.952 -4546.725)" fill="#3d7f6f"/>
    <path id="Path_64954" data-name="Path 64954" d="M-1.055,0h.619V3.369H-.5L-.528,3.12-.561,2.8l-.015-.164-.017-.158-.014-.145c-.027-.138-.027-.138-.14-.235-.177-.177-.142-.427-.149-.665L-.9,1.275c-.006-.127-.01-.254-.014-.381h-.138A.833.833,0,0,1-1.132.447V.281A.491.491,0,0,1-1.055,0Z" transform="translate(-1696.991 -4529.674)" fill="#75a194"/>
    <path id="Path_64955" data-name="Path 64955" d="M-17.185,0h.821l.748,0h.765l1.5,0a1.062,1.062,0,0,1-.578.158l-.18,0-.194,0-.2,0-.638.009-.633.01L-16.172.2a2.5,2.5,0,0,0-1.719.359.919.919,0,0,0-.18.563l-.016.188-.01.143h-.344A1.606,1.606,0,0,1-18.166.213,1.561,1.561,0,0,1-17.185,0Z" transform="translate(-1723.056 -4549.275)" fill="#f3fdfe"/>
    <path id="Path_64956" data-name="Path 64956" d="M-16.029-.1h.234c.247,0,.493.006.74.011l.5,0q.615.006,1.23.017V.144l-.13,0L-14.788.17l-.5.009L-16,.191l-.227,0-.209,0-.185,0c-.139,0-.139,0-.208.08-.011.092-.017.185-.022.277l-.009.169L-16.868.9l-.009.178q-.011.218-.021.437h-.275c-.009-.2-.016-.4-.021-.6L-17.2.752l0-.166-.005-.152C-17.059-.165-16.531-.107-16.029-.1Z" transform="translate(-1690.635 -4551.75)" fill="#f7f5da"/>
    <path id="Path_64957" data-name="Path 64957" d="M-2.794,0c.092,1.606.162,3.2.138,4.813h-.275L-3,.069C-2.862,0-2.862,0-2.794,0Z" transform="translate(-1722.821 -4529.605)" fill="#f6fce3"/>
    <path id="Path_64958" data-name="Path 64958" d="M-1.061,0h.069c.074,1.435.143,2.869.18,4.306l0,.16Q-.779,5.533-.786,6.6H-.854l-.069-.481H-.992L-1,5.913q-.01-.385-.02-.77,0-.165-.009-.33c-.013-.528-.028-1.054-.071-1.581s-.043-1.063-.041-1.6q0-.252,0-.5,0-.161,0-.323V.659A2.085,2.085,0,0,1-1.061,0Z" transform="translate(-1709.36 -4531.531)" fill="#fbcb08"/>
    <path id="Path_64959" data-name="Path 64959" d="M0,0H.619V1.719L0,1.65Z" transform="translate(-1726.371 -4542.324)" fill="#317774"/>
    <path id="Path_64960" data-name="Path 64960" d="M0,0H.756A1.29,1.29,0,0,1,.481.963H.275L.206,2.406H.069v.688H0Z" transform="translate(-1743.765 -4529.674)" fill="#94bca8"/>
    <path id="Path_64961" data-name="Path 64961" d="M0,0H.619V1.65l-.55-.069L0,1.788Z" transform="translate(-1741.428 -4542.324)" fill="#0d79a7"/>
    <path id="Path_64962" data-name="Path 64962" d="M0,0H13.819V.206h-.275V.069H0Z" transform="translate(-1711.383 -4544.525)" fill="#e79407"/>
    <path id="Path_64963" data-name="Path 64963" d="M-156.45,0a.355.355,0,0,1,.153.329c0,.074,0,.149,0,.225,0,.112,0,.112,0,.226-.012.182-.012.182-.08.251-.15.007-.3.008-.449.008h-6.836l-4.333,0V.963l11.413-.069.069-.825Z" transform="translate(-1543.521 -4548.787)" fill="#724f15"/>
    <path id="Path_64964" data-name="Path 64964" d="M-.931,0h.55A16.1,16.1,0,0,1-.312,1.719L-1,1.65Z" transform="translate(-1710.315 -4542.324)" fill="#e1890e"/>
    <path id="Path_64965" data-name="Path 64965" d="M-.042,0H.027A5.671,5.671,0,0,1,.173,1.487l0,.209q0,.252-.007.5H.3L.371,4.263H.233l.006.185q.012.348.023.7,0,.149.01.3Q.309,6.5.3,7.563H.233C.156,6.743.143,5.924.127,5.1.11,4.221.11,4.221.044,3.343.009,2.96,0,2.576-.012,2.191L-.02,1.927C-.041,1.284-.05.643-.042,0Z" transform="translate(-1711.204 -4536.206)" fill="#cbd8e0"/>
    <path id="Path_64966" data-name="Path 64966" d="M-.931,0C-.6.06-.6.06-.519.138q0,.241,0,.481L-.175.481q.011.312.017.623l.007.177a1.455,1.455,0,0,1-.3.988H-1V1.994h.275c.006-.307.01-.613.013-.92L-.707.809l0-.252,0-.233L-.725.138Z" transform="translate(-1708.115 -4542.875)" fill="#0d253d"/>
    <path id="Path_64967" data-name="Path 64967" d="M-133.169-.01l.2,0,.146,0-.069.138a1.745,1.745,0,0,0,.03.284l.039.266c-.138,0-.138,0-.284-.129-.129-.146-.129-.146-.129-.284l-.305-.039-.172-.022L-133.856.2l-.069.069c-.117.007-.235.008-.353.008h-5.339l-3.384,0V.2h.137l3.3-.019,1.6-.009,1.393-.008.737,0,.824-.005h.245C-134.217.152-133.7-.023-133.169-.01Z" transform="translate(-1567.421 -4548.854)" fill="#fec607"/>
    <path id="Path_64968" data-name="Path 64968" d="M-12.519,0h4.884L-4.54,0V.073l-.215,0L-6.793.1-7.84.107q-1.285.013-2.57.032l-.529.007q-.393,0-.786.013l-.415.005-.248.006-.213,0a1.046,1.046,0,0,0-.535.312h-.138v.688h-.138c-.059-.665-.059-.665.159-.932A.886.886,0,0,1-12.519,0Z" transform="translate(-1727.744 -4548.998)" fill="#60acc4"/>
    <path id="Path_64969" data-name="Path 64969" d="M-7.816-.019l.2,0,.213.005.216,0,.528.01V.069a5.746,5.746,0,0,1-.911.064,1.118,1.118,0,0,0-.6.142l-.069.138.118-.034A2.007,2.007,0,0,1-7.652.337h.582l.639,0H-6l1.062,0V.963H-5L-5.074.551-8.1.482v.825h-.275q-.008-.269-.013-.537L-8.392.616C-8.4.24-8.4.24-8.291.089A.648.648,0,0,1-7.816-.019Z" transform="translate(-1729.135 -4551.539)" fill="#0d6a99"/>
    <path id="Path_64970" data-name="Path 64970" d="M-.044,0H.231Q.261.7.29,1.409l.02.479q.014.345.029.69l.009.215c.015.376.024.75.021,1.126H.3L.275,3.776.24,3.588.206,3.4a.634.634,0,0,0-.181-.377A2.541,2.541,0,0,1,0,2.657l-.008-.223L-.018,2.2l-.008-.242Q-.056.977-.044,0Z" transform="translate(-1725.984 -4540.606)" fill="#88b494"/>
    <path id="Path_64971" data-name="Path 64971" d="M-154.587,0c.137.138.137.138.137.894H-166V.825h.173L-161.654.8l2.018-.011,1.758-.01.931,0,.876,0,.322,0,.439,0h.248a.764.764,0,0,0,.406-.078l.137.069-.034-.107A2.873,2.873,0,0,1-154.587,0Z" transform="translate(-1575.428 -4548.65)" fill="#045283"/>
    <path id="Path_64972" data-name="Path 64972" d="M-152.725,0c.137.138.137.138.153.3l0,.187V.673c-.012.152-.012.152-.08.221-.146.007-.293.008-.439.008h-6.674l-4.231,0V.825l11.206-.069Z" transform="translate(-1547.108 -4548.581)" fill="#1b201d"/>
    <path id="Path_64973" data-name="Path 64973" d="M0,0H2.2V.275l-.236.03c-.232.012-.232.012-.314.107A8.7,8.7,0,0,1,.554.5L.325.5.138.481A.58.58,0,0,1,0,0Z" transform="translate(-1736.821 -4550.299)" fill="#0b517d"/>
    <path id="Path_64974" data-name="Path 64974" d="M0,0,.344.069Q.351,2.055.309,4.039l-.01.53Q.288,5.207.275,5.844H.206l0-.17q-.022-.8-.045-1.6Q.144,3.665.133,3.254t-.023-.8q0-.15-.008-.3C.082,1.438.046.719,0,0Z" transform="translate(-1711.04 -4540.675)" fill="#fae21e"/>
    <path id="Path_64975" data-name="Path 64975" d="M-2.029,0H1.409V.275H1.271V.138L.465.13l-.406,0a7.558,7.558,0,0,0-1.606.15V.413l-.275.069-.069.894h-.275q-.006-.266-.009-.533l0-.152A1.246,1.246,0,0,1-2.029,0Z" transform="translate(-1720.355 -4551.606)" fill="#2e7168"/>
    <path id="Path_64976" data-name="Path 64976" d="M-10.437-.008h.882l.851,0h.889l1.683,0,1.916,0L-.276.009l.069.206L-.352.181A3.519,3.519,0,0,0-.976.137H-4.909l-1.65,0h-3.975A.871.871,0,0,0-11,.284l-.069.138h-.138C-11.04.035-10.84-.008-10.437-.008Z" transform="translate(-1699.833 -4549.002)" fill="#f7da23"/>
    <path id="Path_64977" data-name="Path 64977" d="M0-.047A1.119,1.119,0,0,1,.688.091Q.715.923.741,1.755q.012.387.025.773t.024.749Q.8,3.486.8,3.7c.02.632.024,1.263.021,1.9H.756C.487,2.342.487,2.342.619,1.4H.481A2.815,2.815,0,0,1,.374.628L.365.472Q.354.281.344.091L0,.022Z" transform="translate(-1741.359 -4540.697)" fill="#3e9fc7"/>
    <path id="Path_64978" data-name="Path 64978" d="M-1.862,0c.445.034.445.034.6.183a1.034,1.034,0,0,1,.116.585l0,.26q0,.14,0,.28t0,.288q0,.3,0,.6c0,.258,0,.515,0,.773q0,.3,0,.595,0,.142,0,.285c0,.133,0,.266,0,.4,0,.076,0,.151,0,.229a.731.731,0,0,1-.232.471V4.834q0-.611,0-1.222,0-.227,0-.453c0-.754,0-1.508-.036-2.261L-1.42.732a1.241,1.241,0,0,0-.1-.526H-2Z" transform="translate(-1701.821 -4540.881)" fill="#393826"/>
    <path id="Path_64979" data-name="Path 64979" d="M-3.987,0h.433l.237,0h.238l.583,0c.01,1.033-.015,2.062-.069,3.094h-.069V.145L-3.871.214a1.967,1.967,0,0,0-.1.807,1.165,1.165,0,0,1-.239.568,1.583,1.583,0,0,1-.063-.57l.009-.166.011-.171.009-.173C-4.219.011-4.219.011-3.987,0Z" transform="translate(-1697.268 -4542.401)" fill="#805726"/>
    <path id="Path_64982" data-name="Path 64982" d="M0-.211.815-.219l.414,0h.262l.242,0a.355.355,0,0,1,.33.153A2.057,2.057,0,0,1,2.076.27V.476l0,.215,0,.217q0,.266-.007.531H1.719V.064L.481-.005V-.143H0Z" transform="translate(-1699.214 -4544.794)" fill="#fbf7c1"/>
    <path id="Path_64983" data-name="Path 64983" d="M-1.173,0A1.415,1.415,0,0,1-.948.859l.008.219.015.455.008.219.006.2a2.309,2.309,0,0,0,.082.453q.007.163,0,.327l0,.167,0,.126h-.344A13.288,13.288,0,0,1-1.173,0Z" transform="translate(-1739.567 -4527.887)" fill="#ecf5ef"/>
    <path id="Path_64984" data-name="Path 64984" d="M-9.522-.039h.152l.5,0h.346l.91.005.929,0q.911,0,1.823.01l.138.275-.14-.034A4.054,4.054,0,0,0-5.581.183h-.995l-.907,0h-.926l-1.816,0C-10.041-.069-9.814-.043-9.522-.039Z" transform="translate(-1698.133 -4526.428)" fill="#2f372c"/>
    <path id="Path_64985" data-name="Path 64985" d="M-15.831,0c.206.069.206.069.288.211l.056.133-.206.069-.069.206,1.238.069a.638.638,0,0,1-.5.151h-.167l-.174,0-.176,0-.43-.007L-16,.951a1.53,1.53,0,0,1-.247.493h-.138v.481c-.5-.231-.5-.231-.619-.413a.86.86,0,0,1,.069-.275l.275.344.078-.161a9.641,9.641,0,0,1,.611-1.1A.8.8,0,0,0-15.831,0Z" transform="translate(-1721.265 -4536.687)" fill="#236b98"/>
    <path id="Path_64987" data-name="Path 64987" d="M-7.556-.329V1.046h-.55q0-.324,0-.649l0-.187V-.133C-8.094-.455-7.91-.329-7.556-.329Z" transform="translate(-1691.315 -4525.907)" fill="#e7e1be"/>
    <path id="Path_64988" data-name="Path 64988" d="M-28.869,0h.069c.013,2.633.013,2.633-.03,3.64l-.008.193c-.017.355-.055.694-.1,1.049h-1.856l-.069-.894L-31,3.713a1.837,1.837,0,0,1,.275.069,2.39,2.39,0,0,1,.069,1.031h1.65l0-.479q0-.229,0-.457,0-.159,0-.319,0-.229,0-.457V2.956c0-.114,0-.229.008-.343l.069-.069c.011-.188.018-.375.022-.563l0-.171q.007-.271.013-.542,0-.183.009-.367Q-28.879.45-28.869,0Z" transform="translate(-1671.583 -4529.674)" fill="#9c6421"/>
    <path id="Path_64989" data-name="Path 64989" d="M-3.126,0l.206.069V1.925c-.344-.069-.344-.069-.413-.138-.019-.273-.016-.547-.017-.821l0-.234V.509l0-.206.025-.166Z" transform="translate(-1729.158 -4542.875)" fill="#166a9a"/>
    <path id="Path_64990" data-name="Path 64990" d="M-4.982,0a1.657,1.657,0,0,1,.075.6V.835l0,.243v.246q0,.3,0,.6a2.7,2.7,0,0,1-.344-.069A2.1,2.1,0,0,1-5.339.928l0-.223V.3C-5.316.038-5.235,0-4.982,0Z" transform="translate(-1712.039 -4542.875)" fill="#215a5e"/>
    <path id="Path_64991" data-name="Path 64991" d="M-1.037,0l.344.069V1.788l-.413.069q0-.445,0-.889l0-.257V.241C-1.106.069-1.106.069-1.037,0Z" transform="translate(-1701.203 -4542.806)" fill="#936c12"/>
    <path id="Path_64992" data-name="Path 64992" d="M-1.862,0a2.051,2.051,0,0,1,.275.138q0,.391,0,.782l0,.225v.413a.5.5,0,0,1-.077.3H-2V.069Z" transform="translate(-1722.24 -4542.875)" fill="#4a7f74"/>
    <path id="Path_64994" data-name="Path 64994" d="M-.029-.029q.172,0,.344,0C.383.04.383.04.391.268q0,.152,0,.3V.734q0,.256,0,.513,0,.173,0,.347,0,.426,0,.852H.315V.521H.177L.108,3.683H.04C-.019,2.445-.038,1.21-.029-.029Z" transform="translate(-1741.33 -4540.646)" fill="#c8e0e6"/>
    <path id="Path_64995" data-name="Path 64995" d="M-7.663,0h.069q.005.7.008,1.4,0,.239,0,.477,0,.343,0,.685l0,.217c0,.066,0,.132,0,.2v.177c-.017.142-.017.142-.154.279a.925.925,0,0,1-.344,0,.644.644,0,0,1-.153-.495c0-.058,0-.116,0-.175l0-.188V2.386q0-.306,0-.612,0-.207,0-.415,0-.508.007-1.016h.138l.069,2.888L-7.8,3.3A4.387,4.387,0,0,0-7.71,2.276l0-.2q.007-.311.013-.622,0-.211.009-.423Q-7.673.517-7.663,0Z" transform="translate(-1697.739 -4541.018)" fill="#a57420"/>
    <path id="Path_64996" data-name="Path 64996" d="M0,0H.481V1.444H0Z" transform="translate(-1699.352 -4528.299)" fill="#0f4d7e"/>
    <path id="Path_64998" data-name="Path 64998" d="M0,0H.481L.413.138C.4.25.4.362.4.475l0,.213,0,.23,0,.235Q.38,1.526.374,1.9q0,.252-.009.5-.011.62-.021,1.24H.619V2.475H.688q0,.307,0,.614l0,.177c0,.056,0,.111,0,.169v.156c-.008.121-.008.121-.077.19a2.3,2.3,0,0,1-.344,0c-.112-.112-.079-.24-.081-.4l0-.211,0-.229q0-.238-.007-.476,0-.377-.009-.754T.164.991l0-.229,0-.212,0-.187C.147.187.147.187,0,0Z" transform="translate(-1704.646 -4541.362)" fill="#c98d22"/>
    <path id="Path_65000" data-name="Path 65000" d="M0-.112l1.31,0h.446l.64,0h.555A.924.924,0,0,1,3.3-.043V.094H0Z" transform="translate(-1733.728 -4549.156)" fill="#d7f9fd"/>
    <path id="Path_65001" data-name="Path 65001" d="M-1.972,0H-1.9V3.85a1.164,1.164,0,0,1-.18-.7l-.008-.156c-.04-.928-.023-1.859-.018-2.787h.138Z" transform="translate(-1708.862 -4532.149)" fill="#fbfdfb"/>
    <path id="Path_65002" data-name="Path 65002" d="M-86.606,0A2.331,2.331,0,0,1-86.4.206V.344h-1.169V.481H-93V.413h5.088V.275L-87.5.206V.138h.894Z" transform="translate(-1643.684 -4549.063)" fill="#3aa3cd"/>
    <path id="Path_65003" data-name="Path 65003" d="M-.931,0A2.472,2.472,0,0,1,.263,1.147l.077.119c.063.1.118.208.172.315l-.069.206H.306V1.513a.648.648,0,0,0-.275-.069.4.4,0,0,0-.206.206v.275l-.344.138a3.809,3.809,0,0,1,.245-.623A1.712,1.712,0,0,0-.106.894L-.312.825C-.442.689-.557.545-.676.4S-.792.258-1,.206Z" transform="translate(-1735.684 -4540.056)" fill="#1b6897"/>
    <path id="Path_65005" data-name="Path 65005" d="M-1.059,0H-.99l0,.119q.025.619.05,1.238.009.23.019.46.013.333.027.667L-.88,2.7c.015.36.035.718.066,1.077.056.728.037,1.461.034,2.191q0,.232,0,.464,0,.563,0,1.126H-.852l-.069-3.85h-.138a1.39,1.39,0,0,1-.069-.688h.069Z" transform="translate(-1724.419 -4532.355)" fill="#629a85"/>
    <path id="Path_65006" data-name="Path 65006" d="M-44.7,0h.138a2.274,2.274,0,0,1,.146.954l0,.143c0,.115,0,.231-.007.346h-.069V.619h-.138v.894h-.206l-.069-1.1h.275V.206H-48V.138l3.3-.069Z" transform="translate(-1689.234 -4551.744)" fill="#5eb1d9"/>
    <path id="Path_65007" data-name="Path 65007" d="M-11.6,0h1.483c.2.009.2.009.273.078.117.011.235.017.353.022L-9.272.1l.227.008.228.009.559.021V.212h-4.194V.074A3.538,3.538,0,0,1-11.6,0Z" transform="translate(-1711.856 -4548.861)" fill="#72ad91"/>
    <path id="Path_65008" data-name="Path 65008" d="M-.931,0h.138V.206h.206V.344H-.794V.619L-.587.55c.069.069.069.069.075.2l-.007.423h.138V2.956H-.45l-.023-.248-.033-.323L-.52,2.221l-.017-.158-.014-.145c-.027-.138-.027-.138-.14-.235-.177-.177-.142-.427-.149-.665L-.848.862C-.854.735-.858.608-.862.481H-1Z" transform="translate(-1697.046 -4529.262)" fill="#68a493"/>
    <path id="Path_65009" data-name="Path 65009" d="M-2.794,0c.266.129.266.129.344.206.006.1.007.195.007.292V.677l0,.187v.188q0,.23,0,.461h-.413V.55L-3,.481l.138-.069L-3,.344V.206l.275-.069Z" transform="translate(-1701.096 -4551.744)" fill="#d09221"/>
    <path id="Path_65011" data-name="Path 65011" d="M-8.743,0V.138l3.713.069V.275h-.145q-.675.006-1.35.015L-7.22.3l-.8.01H-8.27l-.234,0-.206,0A.353.353,0,0,0-9,.433a1.131,1.131,0,0,0-.151.6h-.206a2.243,2.243,0,0,1,0-.688A.815.815,0,0,1-8.743,0Z" transform="translate(-1731.653 -4548.856)" fill="#41a6ce"/>
    <path id="Path_65012" data-name="Path 65012" d="M0,0H.825l-.1.163A2.235,2.235,0,0,0,.584,1.1l0,.2c0,.207-.006.413-.008.62q0,.211-.007.422Q.556,2.853.55,3.369H.481L.413.825H.138V.138H0Z" transform="translate(-1705.952 -4541.431)" fill="#d38814"/>
    <path id="Path_65013" data-name="Path 65013" d="M0-.112l1.344,0H1.8l.656,0h.569A.476.476,0,0,1,3.3-.043V.919H3.163L3.094.094,0,.026Z" transform="translate(-1707.258 -4551.15)" fill="#dab254"/>
    <path id="Path_65015" data-name="Path 65015" d="M0,0H.344c0,.215.006.43.009.645l0,.185v.177l0,.164c-.016.136-.016.136-.153.273a1.907,1.907,0,0,0-.028.374L.17,2.042l-.006.235-.008.237q-.01.29-.018.58H.069Z" transform="translate(-1726.371 -4540.675)" fill="#e2eee9"/>
    <path id="Path_65016" data-name="Path 65016" d="M-.079,0-.01.206H.127l0,.2C.119,1.117.15,1.824.2,2.535A16.566,16.566,0,0,1,.265,4.4C.1,4.235.109,4.194.1,3.969L.1,3.786l0-.2C.075,3.061.042,2.54-.015,2.015A15.912,15.912,0,0,1-.079,0Z" transform="translate(-1740.867 -4539.506)" fill="#5daec9"/>
    <path id="Path_65017" data-name="Path 65017" d="M-.931,0h.413V1.306H-1Z" transform="translate(-1741.322 -4526.168)" fill="#f8f8e3"/>
    <path id="Path_65019" data-name="Path 65019" d="M-7.487,0h.069q.006.288.009.576l0,.165c0,.143,0,.285-.012.428l-.138.138c-.048.091-.094.182-.138.275V1.306l-.206.069-.069.756h-.069A8.453,8.453,0,0,1-7.968.688h.206A3.921,3.921,0,0,0-7.487,0Z" transform="translate(-1735.522 -4529.399)" fill="#1c5856"/>
    <path id="Path_65020" data-name="Path 65020" d="M-1.862-.234a1.761,1.761,0,0,1,.387-.013l.209.006.161.007V.384H-2C-2-.028-2-.028-1.862-.234Z" transform="translate(-1712.133 -4546.421)" fill="#076664"/>
    <path id="Path_65021" data-name="Path 65021" d="M-28.869,0h.069V.619a17.1,17.1,0,0,1-1.788.069h-.275L-31,.619l.069-.206.174,0A8.455,8.455,0,0,0-29.419.344l.069-.069q.241,0,.481,0Z" transform="translate(-1705.753 -4550.299)" fill="#014676"/>
    <path id="Path_65022" data-name="Path 65022" d="M0,0H1.65c.021.662.021.662.027.868a1.688,1.688,0,0,0,.248.92H1.719A2.009,2.009,0,0,1,1.5.692l0-.162c0-.131.006-.261.01-.392l-.176,0L1.1.142l-.232,0C.6.137.334.1.069.069V1.65H0Z" transform="translate(-1711.315 -4542.394)" fill="#816233"/>
    <path id="Path_65023" data-name="Path 65023" d="M-1.862,0h.069q.03.587.059,1.173.01.2.02.4c.041.806.069,1.609.059,2.417H-2l.138-.069Z" transform="translate(-1708.765 -4528.781)" fill="#fcf9ba"/>
    <path id="Path_65024" data-name="Path 65024" d="M-2.794,0h.069q0,.83,0,1.66,0,.385,0,.771t0,.744q0,.142,0,.284,0,.2,0,.4v.229a.526.526,0,0,1-.077.316h1.306v.138H-3l.138-.344a2.57,2.57,0,0,0,.022-.424l0-.254,0-.273q0-.14,0-.281.005-.368.009-.736t.01-.752Q-2.8.737-2.794,0Z" transform="translate(-1693.602 -4529.399)" fill="#f8f3d6"/>
    <path id="Path_65025" data-name="Path 65025" d="M-8.128,0a1.193,1.193,0,0,1,.275.275V.55l.825-.069L-7.1.619h-.116c-.174,0-.347.007-.52.012h-.182a.775.775,0,0,0-.668.23l-.1.168A.6.6,0,0,1-8.661.516l.053-.161C-8.492.1-8.414,0-8.128,0Z" transform="translate(-1713.637 -4536.55)" fill="#115754"/>
    <path id="Path_65027" data-name="Path 65027" d="M-6.7,0l.206.069-.069.138.138.069-.168.163a1.339,1.339,0,0,0-.245.937h-.344A1.607,1.607,0,0,1-6.907.138Z" transform="translate(-1734.315 -4549.2)" fill="#e2edf0"/>
    <path id="Path_65028" data-name="Path 65028" d="M-2.794,0a.641.641,0,0,1,.473.335.568.568,0,0,1,.009.49C-2.4.852-2.49.877-2.579.9l-.15.044-.134.017L-3,.825A2.321,2.321,0,0,1-2.794,0Z" transform="translate(-1717.802 -4539.093)" fill="#1c615c"/>
    <path id="Path_65029" data-name="Path 65029" d="M-4.656,0l-.069,1.788L-5,1.65V.069A.515.515,0,0,1-4.656,0Z" transform="translate(-1734.365 -4542.806)" fill="#3e9ecc"/>
    <path id="Path_65030" data-name="Path 65030" d="M0,0H.344A14.288,14.288,0,0,1,.413,1.65L.344,1.513H.069Z" transform="translate(-1711.04 -4542.256)" fill="#c97806"/>
    <path id="Path_65031" data-name="Path 65031" d="M0,0H.344V1.375L0,1.306Z" transform="translate(-1742.253 -4528.299)" fill="#145782"/>
    <path id="Path_65032" data-name="Path 65032" d="M0,0,.206.069A22.616,22.616,0,0,1,.069,3.094H0Z" transform="translate(-1711.315 -4540.675)" fill="#e1ebeb"/>
    <path id="Path_65033" data-name="Path 65033" d="M-3.831,0V1.717h-.275q0-.41,0-.821l0-.237V.226C-4.1-.017-4.078,0-3.831,0Z" transform="translate(-1705.078 -4542.804)" fill="#f0be2f"/>
    <path id="Path_65036" data-name="Path 65036" d="M-7.661,0-7.73.275h-.138l-.069,1.238h-.275q-.006-.3-.009-.606l0-.174V.566l0-.154c.016-.137.016-.137.153-.343A.872.872,0,0,1-7.661,0Z" transform="translate(-1729.573 -4551.744)" fill="#d1e6ee"/>
    <path id="Path_65038" data-name="Path 65038" d="M-1.945,0h.138q.02.217.039.434l.022.244a.8.8,0,0,1-.06.422c-.01.127-.017.254-.022.381l-.009.224-.008.233-.009.236q-.011.288-.021.576h-.138V4.263h-.069q0-.37,0-.739l0-.208c0-.418.019-.828.057-1.244.032-.4.043-.8.056-1.2L-1.966.62Q-1.955.31-1.945,0Z" transform="translate(-1696.788 -4540.812)" fill="#d7dac5"/>
    <path id="Path_65039" data-name="Path 65039" d="M0,0H2.131V.206H0Z" transform="translate(-1721.765 -4550.299)" fill="#daeff2"/>
    <path id="Path_65040" data-name="Path 65040" d="M0,0H2.131V.206H0Z" transform="translate(-1736.753 -4550.299)" fill="#c5e3f0"/>
    <path id="Path_65041" data-name="Path 65041" d="M-.032,0H.037C.091.685.124,1.367.144,2.054l.009.285q.011.343.021.686H.243l.069.963H.037C-.006,2.658-.044,1.33-.032,0Z" transform="translate(-1710.458 -4528.781)" fill="#f9d91a"/>
    <path id="Path_65042" data-name="Path 65042" d="M0,0H2.819L2.613.688H2.544c-.009-.4-.009-.4.069-.55H.069Z" transform="translate(-1746.034 -4523.762)" fill="#dbe1c8"/>
    <path id="Path_65043" data-name="Path 65043" d="M-5.587,0c.335.327.335.327.413.481A1.2,1.2,0,0,0-4.144.206,1.7,1.7,0,0,0-3.937,0a.991.991,0,0,1-.275.619,1.557,1.557,0,0,1-.572.075H-5l-.223,0h-.226L-6,.688V.619L-5.519.55-5.45.344-5.656.275Z" transform="translate(-1728.621 -4536.618)" fill="#0e4e71"/>
    <path id="Path_65044" data-name="Path 65044" d="M-.028,0,.179.138A1.8,1.8,0,0,1,.2.533V.778l0,.261,0,.264C.186,1.925.164,2.543.11,3.163H.041C-.006,2.108-.038,1.056-.028,0Z" transform="translate(-1725.931 -4537.581)" fill="#b0c8aa"/>
    <path id="Path_65045" data-name="Path 65045" d="M0,0H2.063V.206H0Z" transform="translate(-1706.708 -4550.299)" fill="#e6f1ef"/>
    <path id="Path_65046" data-name="Path 65046" d="M-.178,0h.069L-.04,1.375H.1a12.715,12.715,0,0,1-.069,2.2H-.04A28.888,28.888,0,0,1-.178,0Z" transform="translate(-1725.575 -4532.081)" fill="#a6c0a7"/>
    <path id="Path_65047" data-name="Path 65047" d="M0,0A1.128,1.128,0,0,1,.481.275c.007.2.006.388,0,.585l-.005.175C.469,1.22.462,1.4.455,1.59q-.006.188-.012.376-.014.461-.031.922l-.138.069,0-.242Q.266,2.27.257,1.826q0-.192-.006-.385c0-.184-.006-.369-.01-.553V.715A.863.863,0,0,0,0,0Z" transform="translate(-1696.464 -4545.762)" fill="#dcdcc6"/>
    <path id="Path_65048" data-name="Path 65048" d="M-8.381,0h.344A.854.854,0,0,1-7.9.55l1.375.069V.688H-8.106V.138h-.206l-.022.15a1.683,1.683,0,0,1-.249.542,6.133,6.133,0,0,0-.348.614A.843.843,0,0,1-9,1.169,1.487,1.487,0,0,1-8.811.877,3.034,3.034,0,0,0-8.381,0Z" transform="translate(-1726.584 -4536.55)" fill="#35799f"/>
    <path id="Path_65050" data-name="Path 65050" d="M0,0H.138V.206H.275V1.581H0Z" transform="translate(-1728.984 -4544.938)" fill="#f6f9ec"/>
    <path id="Path_65052" data-name="Path 65052" d="M-20.487,0V1.375H-22V1.306h1.375V.138h-1.169l-.069.275L-22,.344l.138-.275.61-.034.175-.01.168-.009.155-.009Q-20.621,0-20.487,0Z" transform="translate(-1715.371 -4535.931)" fill="#b3d8e6"/>
    <path id="Path_65053" data-name="Path 65053" d="M-5.587-.75a1.128,1.128,0,0,1,.481.344,2.7,2.7,0,0,1,.069.825q0,.2,0,.406,0,.588,0,1.176h-.069L-5.312-.474l-.413-.069V-.681L-6-.75C-5.825-.837-5.77-.808-5.587-.75Z" transform="translate(-1722.296 -4538.756)" fill="#e2e4cc"/>
    <path id="Path_65054" data-name="Path 65054" d="M-.014,0H.054A8.811,8.811,0,0,1,.2,1.977q0,.153,0,.307,0,.371-.007.742l-.138.069Q.039,2.682.025,2.269.018,2.062.01,1.855C-.011,1.236-.018.619-.014,0Z" transform="translate(-1725.532 -4527.887)" fill="#96b195"/>
    <path id="Path_65056" data-name="Path 65056" d="M-.035,0a2.12,2.12,0,0,1,.2,1.321l0,.2q-.008.317-.017.635-.005.216-.011.432Q.117,3.116.1,3.644H.034C-.007,2.429-.048,1.216-.035,0Z" transform="translate(-1710.868 -4528.506)" fill="#d7e0e4"/>
    <path id="Path_65057" data-name="Path 65057" d="M-.212,0l.138.069v.16q0,.749-.006,1.5,0,.385,0,.77t0,.745q0,.141,0,.283A5.9,5.9,0,0,0,.063,5.088c-.138-.069-.138-.069-.214-.216a2.047,2.047,0,0,1-.077-.665V4.069c0-.15,0-.3,0-.45q0-.156,0-.313,0-.411,0-.822t0-.839Q-.217.823-.212,0Z" transform="translate(-1708.077 -4540.606)" fill="#a37427"/>
    <path id="Path_65059" data-name="Path 65059" d="M-.092,0A.52.52,0,0,1,.149.386L.161.6.174.844c.014.425.016.849.013,1.274v.266q0,.32,0,.641H.114V1.375H-.023A1.263,1.263,0,0,1-.1.893V.735l0-.164V.405Q-.094.2-.092,0Z" transform="translate(-1725.592 -4532.081)" fill="#83ad92"/>
    <path id="Path_65060" data-name="Path 65060" d="M-3.892,0c.146.24.146.24.11.393L-3.823.55q-.023.232-.039.464l-.017.244-.013.186h-.275Q-4.172,1.2-4.175.95l0-.14a1.4,1.4,0,0,1,.15-.741Z" transform="translate(-1714.917 -4551.675)" fill="#4d8e81"/>
    <path id="Path_65062" data-name="Path 65062" d="M-.958,0h.069q.015.528.029,1.056,0,.179.01.358c.022.767.034,1.532.029,2.3H-.889l-.069-.481h-.069C-1.037,2.152-1.006,1.078-.958,0Z" transform="translate(-1709.325 -4528.644)" fill="#f3ba05"/>
    <path id="Path_65063" data-name="Path 65063" d="M-.931,0H3.95V.069l-.176,0L2.136.089,1.293.1.48.107.17.11-.265.116l-.25,0A.96.96,0,0,0-1,.275Z" transform="translate(-1707.427 -4526.512)" fill="#b47e24"/>
    <path id="Path_65064" data-name="Path 65064" d="M-2.9,0V1.788h-.206q0-.428,0-.855l0-.247V.234C-3.1,0-3.1,0-2.9,0Z" transform="translate(-1699.203 -4542.806)" fill="#e0a81a"/>
    <path id="Path_65065" data-name="Path 65065" d="M-28.869,0l.069.206a1.021,1.021,0,0,1-.275.344,1.444,1.444,0,0,1-.448.034l-.261,0-.271-.009-.274,0Q-30.665.561-31,.55V.481h1.444l.138-.275A.78.78,0,0,1-28.869,0Z" transform="translate(-1705.409 -4550.918)" fill="#001735"/>
    <path id="Path_65066" data-name="Path 65066" d="M-2.9,0q.006.425.009.851l0,.245v.234l0,.216c-.016.173-.016.173-.153.311-.069-.069-.069-.069-.077-.234V1.171l0-.247V.676q0-.3,0-.608C-2.968,0-2.968,0-2.9,0Z" transform="translate(-1723.128 -4539.368)" fill="#fcfefa"/>
    <path id="Path_65067" data-name="Path 65067" d="M-2.921,0V1.788h-.138a.951.951,0,0,1-.078-.494V.22C-3.125.025-3.117,0-2.921,0Z" transform="translate(-1714.237 -4542.806)" fill="#8caba9"/>
    <path id="Path_65068" data-name="Path 65068" d="M-1.037,0H-.9V1.719l-.206.069q0-.408,0-.816l0-.235V.3A.508.508,0,0,1-1.037,0Z" transform="translate(-1737.984 -4542.806)" fill="#06599a"/>
    <path id="Path_65069" data-name="Path 65069" d="M0,0H.206V1.65H0Z" transform="translate(-1732.49 -4542.738)" fill="#84b9d2"/>
    <path id="Path_65070" data-name="Path 65070" d="M0,0H.206V1.65H0Z" transform="translate(-1726.371 -4542.324)" fill="#458c94"/>
    <path id="Path_65071" data-name="Path 65071" d="M0,0H1.444V.069H.206V1.238H0Z" transform="translate(-1728.64 -4544.593)" fill="#4c9782"/>
    <path id="Path_65072" data-name="Path 65072" d="M-1.019,0-.95.138-.744.069-.813,1.306h-.275q0-.288,0-.576l0-.165C-1.1.153-1.1.153-1.019,0Z" transform="translate(-1721.709 -4551.537)" fill="#b7ccca"/>
    <path id="Path_65073" data-name="Path 65073" d="M-3.977,0h.069a8.579,8.579,0,0,1-.069,1.856h-.069C-4.339.526-4.339.526-4.083.114Z" transform="translate(-1738.963 -4528.368)" fill="#145358"/>
    <path id="Path_65075" data-name="Path 65075" d="M0-.529C.259-.539.518-.545.778-.55L1-.559l.214,0,.2-.005c.169.039.169.039.292.2a1.885,1.885,0,0,1,.152.6H1.719L1.65-.322.413-.391v.138L0-.391Z" transform="translate(-1738.746 -4537.19)" fill="#b2ddec"/>
    <path id="Path_65076" data-name="Path 65076" d="M0,0,.206.069V1.581H0Z" transform="translate(-1697.358 -4544.938)" fill="#e5eae0"/>
    <path id="Path_65077" data-name="Path 65077" d="M-14.9,0h1.788l-.344.275V.138L-14.831.069V.413a1.52,1.52,0,0,1-.2.292l-.114.143a1.989,1.989,0,0,1-.166.184c-.1,0-.209.006-.314,0l-.172,0-.133,0L-16,.894l.223.009a.721.721,0,0,0,.533-.146,2.3,2.3,0,0,0,.206-.413h.138Z" transform="translate(-1693.321 -4541.431)" fill="#c27b15"/>
    <path id="Path_65079" data-name="Path 65079" d="M-23.281,0l.206.138q-.167.211-.344.413h-.138l-.017.112a1.516,1.516,0,0,1-.327.576,2.072,2.072,0,0,1-.533.026l-.145-.006c-.118,0-.236-.012-.353-.02v.481H-25v-.55l.2,0,.263-.01.261-.007c.246-.028.246-.028.4-.209.133-.211.133-.211.257-.429A3.694,3.694,0,0,1-23.281,0Z" transform="translate(-1709.621 -4535.725)" fill="#12689e"/>
    <path id="Path_65080" data-name="Path 65080" d="M0,0,.344.138V.963H0Z" transform="translate(-1728.296 -4546.931)" fill="#e4edde"/>
    <path id="Path_65081" data-name="Path 65081" d="M-.931,0H2.506V.275H2.369V.138H-1Z" transform="translate(-1721.452 -4551.606)" fill="#4b7e76"/>
    <path id="Path_65082" data-name="Path 65082" d="M0,0H.55L.481.206.138.275V1.513H0Z" transform="translate(-1743.765 -4529.605)" fill="#edfce1"/>
    <path id="Path_65083" data-name="Path 65083" d="M0-.1C.387-.119.387-.119.619.036a1.052,1.052,0,0,1,.02.3l0,.177L.632.7l0,.187q0,.229-.01.458H.481A2.815,2.815,0,0,1,.374.573L.365.417Q.354.226.344.036L0-.033Z" transform="translate(-1741.359 -4540.641)" fill="#47a7c5"/>
    <path id="Path_65085" data-name="Path 65085" d="M0,0A1.837,1.837,0,0,1,.275.069,2.39,2.39,0,0,1,.344,1.1H2.063v.069H.206L.138.275Z" transform="translate(-1702.583 -4525.962)" fill="#7b5626"/>
    <path id="Path_65086" data-name="Path 65086" d="M0,0H.756A1.29,1.29,0,0,1,.481.963H.275V.413L.408.357C.573.283.573.283.619.069H0Z" transform="translate(-1743.765 -4529.674)" fill="#57807e"/>
    <path id="Path_65087" data-name="Path 65087" d="M-.931,0h.413V1.513H-.656V.275L-1,.206Z" transform="translate(-1696.908 -4529.605)" fill="#d4f0e6"/>
    <path id="Path_65089" data-name="Path 65089" d="M-.931,0A1.74,1.74,0,0,1-.037.688,1.707,1.707,0,0,1,.031,1.1l-.138-.069V.894L-.312.825C-.442.689-.557.545-.676.4S-.792.258-1,.206Z" transform="translate(-1735.684 -4540.056)" fill="#1c628c"/>
    <path id="Path_65090" data-name="Path 65090" d="M-4.86,0l.2.009v.55h-.55a3.3,3.3,0,0,1,0-.413C-5.075.009-5.075.009-4.86,0Z" transform="translate(-1693.658 -4546.665)" fill="#c97b06"/>
    <path id="Path_65091" data-name="Path 65091" d="M-.029,0H.04A14.838,14.838,0,0,1,.108,2.956H.04C-.021,1.97-.038.988-.029,0Z" transform="translate(-1740.917 -4538.2)" fill="#82b9c9"/>
    <path id="Path_65092" data-name="Path 65092" d="M-9.312-.824A1.6,1.6,0,0,1-8.694,0L-8.9-.068l-.069.275-.047-.18A1.587,1.587,0,0,0-9.45-.618,2.648,2.648,0,0,0-10-.755V-.824A1.009,1.009,0,0,1-9.312-.824Z" transform="translate(-1711.696 -4539.025)" fill="#32716e"/>
    <path id="Path_65093" data-name="Path 65093" d="M0,0H.481L.55.138H.138l0,.129c0,.193,0,.386.006.58l0,.2v.2l0,.18c-.016.156-.016.156-.153.362Z" transform="translate(-1741.428 -4542.324)" fill="#1d77a0"/>
    <path id="Path_65094" data-name="Path 65094" d="M0,0,.825.069V.138L.413.275.344.688H0Z" transform="translate(-1742.734 -4546.725)" fill="#0f85a6"/>
    <path id="Path_65095" data-name="Path 65095" d="M-8.09-.032l.207,0,.158,0-.069.138A1.743,1.743,0,0,0-7.764.4l.039.266c-.138,0-.138,0-.284-.129C-8.137.389-8.137.389-8.137.252l-.55-.138A.781.781,0,0,1-8.09-.032Z" transform="translate(-1692.521 -4548.833)" fill="#fbb408"/>
    <path id="Path_65096" data-name="Path 65096" d="M-18.625,0h.069c.034.5.034.5-.129.752-.254.247-.471.219-.808.215h-.147l-.36,0c.178-.178.289-.168.537-.2a1.026,1.026,0,0,0,.769-.352A1.191,1.191,0,0,0-18.625,0Z" transform="translate(-1698.809 -4536.894)" fill="#184d4b"/>
    <path id="Path_65099" data-name="Path 65099" d="M-2.9,0V1.306h-.206q0-.307,0-.614l0-.177V.19C-3.1.014-3.076,0-2.9,0Z" transform="translate(-1741.003 -4544.731)" fill="#f7fcf8"/>
    <path id="Path_65100" data-name="Path 65100" d="M-29.8,0c.138.138.138.138.153.3l0,.187V.673c-.012.152-.012.152-.08.221C-29.9.9-30.066.9-30.234.9h-.152l-.483,0H-31.2l-.8,0V.825l2.131-.069Z" transform="translate(-1670.033 -4548.581)" fill="#1f2725"/>
    <path id="Path_65101" data-name="Path 65101" d="M-2.794,0h.069q0,.185,0,.37l0,.208a.516.516,0,0,1-.075.316c-.016.117-.028.235-.039.352l-.017.19-.013.146L-3,1.513V.069h.069l.069.413Z" transform="translate(-1723.165 -4535.106)" fill="#d1e0e1"/>
    <path id="Path_65103" data-name="Path 65103" d="M0,0C.235.235.235.235.262.477L.281.616A.4.4,0,0,1,.21.876,1.82,1.82,0,0,0,.095,1.6l-.008.155q-.01.189-.018.378H0Z" transform="translate(-1726.027 -4532.287)" fill="#e2ece9"/>
    <path id="Path_65104" data-name="Path 65104" d="M-14.9,0a2.333,2.333,0,0,1,.206.206V.344h-1.169l-.069.138L-16,.275a.9.9,0,0,1,.666-.146l.246,0,.188,0Z" transform="translate(-1715.39 -4549.063)" fill="#2e94c2"/>
    <path id="Path_65105" data-name="Path 65105" d="M-28.869,0h.069V.619a17.1,17.1,0,0,1-1.788.069h-.275L-31,.619l.069-.206V.55l2.063-.069Z" transform="translate(-1705.753 -4550.299)" fill="#033a64"/>
    <path id="Path_65106" data-name="Path 65106" d="M-1.014,0A.515.515,0,0,1-.945.344h.138v.825h-.275q0-.273,0-.546l0-.157c0-.132,0-.265.006-.4Z" transform="translate(-1706.45 -4551.4)" fill="#dcb222"/>
    <path id="Path_65107" data-name="Path 65107" d="M-1.015,0l.138.069V1.375h-.206A4.952,4.952,0,0,1-1.015,0Z" transform="translate(-1717.725 -4551.606)" fill="#216a69"/>
    <path id="Path_65108" data-name="Path 65108" d="M0,0H.344V.688H0Z" transform="translate(-1727.952 -4546.725)" fill="#4e957c"/>
    <path id="Path_65112" data-name="Path 65112" d="M-2.074,0h.069q0,.187,0,.374l0,.21c-.007.172-.007.172-.075.241-.011.1-.017.195-.022.292L-2.1,1.3l-.008.187-.009.188q-.011.23-.021.461h-.069q-.006-.455-.009-.911l0-.261V.708l0-.231A.92.92,0,0,1-2.074,0Z" transform="translate(-1723.747 -4531.531)" fill="#f8fef7"/>
    <path id="Path_65113" data-name="Path 65113" d="M-14.9,0a.52.52,0,0,1,.069.275,1.37,1.37,0,0,1-.688.481l-.138.138a2.292,2.292,0,0,1-.344,0,1.062,1.062,0,0,1,.4-.3,1.923,1.923,0,0,0,.559-.455Z" transform="translate(-1688.646 -4535.106)" fill="#a9731e"/>
    <path id="Path_65114" data-name="Path 65114" d="M0-.445c.269-.01.538-.016.808-.021l.231-.009c.568-.009.568-.009.8.2L1.925-.1,1.788.036V-.17L1.513-.239V-.307H.413L.344-.17,0-.307Z" transform="translate(-1736.409 -4539.611)" fill="#c2e7f7"/>
    <path id="Path_65115" data-name="Path 65115" d="M-3.507,0l.156.01.169.01.177.012.178.011.437.028V.139l-1.1.138L-3.56.483H-3.7L-3.766.62C-3.7,0-3.7,0-3.507,0Z" transform="translate(-1703.699 -4551.539)" fill="#f2b20f"/>
    <path id="Path_65116" data-name="Path 65116" d="M0,0,.138.069A7.563,7.563,0,0,1,.206,1.65H0Z" transform="translate(-1740.672 -4526.581)" fill="#f8fdef"/>
    <path id="Path_65117" data-name="Path 65117" d="M0,0H.069L.138.481H.275a1.662,1.662,0,0,1,0,.55L0,1.306Z" transform="translate(-1698.183 -4529.262)" fill="#05505d"/>
    <path id="Path_65118" data-name="Path 65118" d="M-6.519,0h.069V.481l-.275.138v.55l-.138.069L-7,1.169V.688h.206A3.921,3.921,0,0,0-6.519,0Z" transform="translate(-1736.49 -4529.399)" fill="#346c64"/>
    <path id="Path_65119" data-name="Path 65119" d="M0,0H.138A1.967,1.967,0,0,1,.213.588V.764l0,.182V1.13q0,.225,0,.451L.069,1.65Z" transform="translate(-1717.777 -4551.881)" fill="#223642"/>
    <path id="Path_65121" data-name="Path 65121" d="M0,0H.963L.968.236a2.585,2.585,0,0,0,.338,1.482H1.1A2.009,2.009,0,0,1,.881.623l0-.162C.886.33.89.2.894.069H0Z" transform="translate(-1710.696 -4542.324)" fill="#92611c"/>
    <path id="Path_65122" data-name="Path 65122" d="M0,0H.413V.619L.206.55.069.619Z" transform="translate(-1699.352 -4528.299)" fill="#6198cd"/>
    <path id="Path_65123" data-name="Path 65123" d="M-1.055,0l.138.069q.006.254.009.507l0,.146C-.9.848-.91.974-.917,1.1l-.138.138A1.868,1.868,0,0,1-1.132.58V.339A.565.565,0,0,1-1.055,0Z" transform="translate(-1739.823 -4530.912)" fill="#fafdfa"/>
    <path id="Path_65124" data-name="Path 65124" d="M-14.9,0h.069V.756L-16,.825V.619A1.439,1.439,0,0,1-15.334.58l.246.021.188.017Z" transform="translate(-1727.697 -4548.581)" fill="#f4f2d6"/>
    <path id="Path_65125" data-name="Path 65125" d="M-8.2,0l.275.069-.1.093a2.768,2.768,0,0,0-.589.732l-.082.159-.056.116C-8.822.963-8.822.963-8.781.837A3.826,3.826,0,0,1-8.2,0Z" transform="translate(-1703.661 -4549.888)" fill="#193040"/>
    <path id="Path_65129" data-name="Path 65129" d="M-23.477,0l.069.138-.123,0c-.184,0-.368.009-.552.015l-.194,0-.186.007-.171,0c-.16.026-.16.026-.27.164a1.319,1.319,0,0,0-.155.561L-25.2.825a.691.691,0,0,1,.129-.6,1.328,1.328,0,0,1,.924-.217l.194-.005Q-23.713,0-23.477,0Z" transform="translate(-1721.113 -4524.931)" fill="#495c5d"/>
    <path id="Path_65130" data-name="Path 65130" d="M0,0H.138q.02.217.039.434L.2.678a.8.8,0,0,1-.06.422Q.115,1.3.1,1.491L.081,1.7l-.013.158H0Z" transform="translate(-1698.733 -4540.812)" fill="#e2e3ca"/>
    <path id="Path_65131" data-name="Path 65131" d="M0,0H.344V.138H.619L.688,1.1H.481L.471.954.455.765.441.576C.427.4.427.4.275.275V.069Z" transform="translate(-1698.183 -4544.456)" fill="#cd8113"/>
    <path id="Path_65133" data-name="Path 65133" d="M0,0H.069A7.709,7.709,0,0,1,.138,2.475H.069Z" transform="translate(-1740.465 -4532.906)" fill="#137eb4"/>
    <path id="Path_65135" data-name="Path 65135" d="M-4.656,0l.344.069V.206l-.275.069V.413l.413.069-.138.138A1.36,1.36,0,0,1-4.794.55,1.139,1.139,0,0,1-5,.206h.344Z" transform="translate(-1704.527 -4541.087)" fill="#17272b"/>
    <path id="Path_65136" data-name="Path 65136" d="M-1.862,0c.473.06.473.06.55.138.006.112.007.225.007.338V.681l0,.217v.218q0,.267,0,.534h-.069l-.005-.118q-.012-.263-.025-.527L-1.42.82-1.428.643-1.436.479A.405.405,0,0,0-1.519.206H-2Z" transform="translate(-1701.821 -4540.881)" fill="#212a25"/>
    <path id="Path_65139" data-name="Path 65139" d="M-.957,0h.069a7.623,7.623,0,0,1,0,1.719h-.138A14.863,14.863,0,0,1-.957,0Z" transform="translate(-1728.096 -4534.418)" fill="#d5d4c0"/>
    <path id="Path_65140" data-name="Path 65140" d="M0,0H1.238A.885.885,0,0,1,.7.18L.52.2C.347.206.174.208,0,.206Z" transform="translate(-1710.558 -4540.606)" fill="#c67608"/>
    <path id="Path_65141" data-name="Path 65141" d="M-1.862,0a.35.35,0,0,1,.151.331l0,.227,0,.228,0,.176L-2,.894q.014-.2.03-.408l.017-.23C-1.931.069-1.931.069-1.862,0Z" transform="translate(-1698.108 -4548.787)" fill="#9b6525"/>
    <path id="Path_65142" data-name="Path 65142" d="M-14.9,0a.616.616,0,0,1,.069.275.792.792,0,0,1-.43.4A3.676,3.676,0,0,1-16,.619V.55l.249-.017a1.281,1.281,0,0,0,.713-.327Z" transform="translate(-1717.728 -4536.618)" fill="#1b567c"/>
    <path id="Path_65144" data-name="Path 65144" d="M-1.022,0A.781.781,0,0,1-.876.6L-.88.8l0,.158h-.206q0-.221,0-.443l0-.249C-1.091.069-1.091.069-1.022,0Z" transform="translate(-1741.093 -4530.225)" fill="#f8fad5"/>
    <path id="Path_65145" data-name="Path 65145" d="M0,0H.206a3.472,3.472,0,0,1,0,1.169L.069,1.1C.047.913.033.733.026.546L.018.388Q.008.194,0,0Z" transform="translate(-1717.227 -4542.875)" fill="#296565"/>
    <path id="Path_65146" data-name="Path 65146" d="M0,0,.206.069V.894H0Z" transform="translate(-1719.084 -4551.125)" fill="#bfd9d9"/>
    <path id="Path_65147" data-name="Path 65147" d="M-10.244,0h.069V1.169h-.481v.138A3.637,3.637,0,0,1-11,1.513l.069-.275h.138V1.1h.55Z" transform="translate(-1733.934 -4547.137)" fill="#d3ded2"/>
    <path id="Path_65148" data-name="Path 65148" d="M-13.037,0q.105.1.206.206V.275h-.894V.413L-14,.344l.069-.138c.135-.018.271-.036.407-.049A1.64,1.64,0,0,0-13.037,0Z" transform="translate(-1702.127 -4548.994)" fill="#2c7d70"/>
    <path id="Path_65149" data-name="Path 65149" d="M-.931-.091l.468,0L-.2-.1a1.016,1.016,0,0,1,.437.075V.115L-1,.047Z" transform="translate(-1730.665 -4549.178)" fill="#d6f5fb"/>
    <path id="Path_65152" data-name="Path 65152" d="M0,0H1.925l.069.206L1.847.173A4.081,4.081,0,0,0,1.256.116L1.033.107.8.1.57.09,0,.069Z" transform="translate(-1702.033 -4548.994)" fill="#fbe550"/>
    <path id="Path_65153" data-name="Path 65153" d="M0-.317C.238-.323.475-.327.713-.33L.918-.335l.2,0,.181,0,.148.023.138.206A6.739,6.739,0,0,1,.52-.18L.368-.2,0-.248Z" transform="translate(-1701.758 -4548.883)" fill="#f6f5c9"/>
    <path id="Path_65155" data-name="Path 65155" d="M-8.381,0l.138.206c-.09.18-.157.2-.344.275A3.29,3.29,0,0,1-9,.481l.069-.344a.68.68,0,0,1,.55.138Z" transform="translate(-1728.096 -4536.481)" fill="#05669b"/>
    <path id="Path_65156" data-name="Path 65156" d="M-6.519-.713l-.069.069,1.306.069v.069H-7C-6.856-.723-6.774-.84-6.519-.713Z" transform="translate(-1713.665 -4537.487)" fill="#bbdeda"/>
    <path id="Path_65157" data-name="Path 65157" d="M-10.244,0l.138.069-.069.138h-.138l-.026.163a.45.45,0,0,1-.18.318l-.069-.206h-.344L-11,.206l.138.069V.413A5.537,5.537,0,0,0-10.244,0Z" transform="translate(-1723.278 -4539.574)" fill="#b9e4f3"/>
    <path id="Path_65158" data-name="Path 65158" d="M-4.656,0h.069q.011.312.017.623L-4.563.8a1.455,1.455,0,0,1-.3.988H-5V1.581h.138V1.444h.138Z" transform="translate(-1703.702 -4542.394)" fill="#172223"/>
    <path id="Path_65161" data-name="Path 65161" d="M-.067,0H0A4.318,4.318,0,0,1,.071,1.581H0A5.893,5.893,0,0,1-.071.52V.368Q-.069.184-.067,0Z" transform="translate(-1740.742 -4535.106)" fill="#74afc1"/>
    <path id="Path_65162" data-name="Path 65162" d="M0,0H.138L.206.344H1.444V.413H0Z" transform="translate(-1710.765 -4548.306)" fill="#d78207"/>
    <path id="Path_65163" data-name="Path 65163" d="M0,0,.069.138H.206A1.24,1.24,0,0,1,.344.963,1.118,1.118,0,0,1,.069.756,1.506,1.506,0,0,1,.017.365L.005.158Z" transform="translate(-1697.908 -4528.437)" fill="#45887e"/>
    <path id="Path_65165" data-name="Path 65165" d="M0,0H.275L.206.688,0,.619Z" transform="translate(-1742.184 -4528.299)" fill="#49b1d3"/>
    <path id="Path_65166" data-name="Path 65166" d="M-5.587,0l.069.138A2.968,2.968,0,0,1-5.686.49l-.1.19-.078.146H-6l.034-.159A1.074,1.074,0,0,0-5.931.275,3.21,3.21,0,0,1-5.587,0Z" transform="translate(-1712.74 -4539.574)" fill="#d1ecea"/>
    <path id="Path_65167" data-name="Path 65167" d="M-1.892,0h.069V1.169h-.206q0-.241,0-.481L-1.96.619c.016-.1.028-.209.039-.314L-1.9.133Z" transform="translate(-1701.792 -4551.469)" fill="#e4980d"/>
    <path id="Path_65168" data-name="Path 65168" d="M0,0H1.719L1.65.206,1.444.138C1.332.127,1.22.121,1.108.116L.912.107.709.1.5.09,0,.069Z" transform="translate(-1731.734 -4545.006)" fill="#d8ebf5"/>
    <path id="Path_65171" data-name="Path 65171" d="M0,0H.138A1.72,1.72,0,0,1,.619,1.169L.566,1.058C.423.78.259.515.1.246,0,.069,0,.069,0,0Z" transform="translate(-1733.178 -4537.787)" fill="#176da2"/>
    <path id="Path_65172" data-name="Path 65172" d="M-15.831,0a.5.5,0,0,1,.013.425.376.376,0,0,1-.219.193c-.163,0-.327.006-.49,0l-.267,0-.206,0V.55l.173-.008L-16.6.529l.225-.012a.5.5,0,0,0,.407-.241A2.033,2.033,0,0,0-15.831,0Z" transform="translate(-1702.908 -4538.475)" fill="#105954"/>
    <path id="Path_65173" data-name="Path 65173" d="M0,0H.825L.619.413.481.138H0Z" transform="translate(-1705.952 -4541.431)" fill="#cc8110"/>
    <path id="Path_65176" data-name="Path 65176" d="M-.931,0h.206V.688H-1V.413h.206V.275H-.931Z" transform="translate(-1696.839 -4529.331)" fill="#94b89d"/>
    <path id="Path_65177" data-name="Path 65177" d="M-2.794,0h.206V.481h-.206l-.069.138H-3Z" transform="translate(-1732.103 -4536.413)" fill="#cde7f1"/>
    <path id="Path_65178" data-name="Path 65178" d="M-8.381,0c0,.207-.133.271-.275.413l-.069.206V.481L-9,.344V.206C-8.536,0-8.536,0-8.381,0Z" transform="translate(-1710.427 -4537.512)" fill="#cde8e8"/>
    <path id="Path_65179" data-name="Path 65179" d="M-13.037,0a.5.5,0,0,1,.069.275c-.169.293-.169.293-.344.413a2.16,2.16,0,0,1-.619,0L-14,.55l.223.009a.721.721,0,0,0,.533-.146A2.3,2.3,0,0,0-13.037,0Z" transform="translate(-1695.321 -4541.087)" fill="#ab7725"/>
    <path id="Path_65180" data-name="Path 65180" d="M0,0H.206V.688H0Z" transform="translate(-1743.009 -4546.725)" fill="#dcf2e4"/>
    <path id="Path_65181" data-name="Path 65181" d="M-4.656,0a.9.9,0,0,1,.039.559l-.021.228-.017.176h-.069L-4.75.819-4.785.632-4.819.446A.634.634,0,0,0-5,.069Z" transform="translate(-1695.383 -4548.856)" fill="#cc800b"/>
    <path id="Path_65185" data-name="Path 65185" d="M0,0,.275.069.206.55H0Z" transform="translate(-1743.49 -4529.262)" fill="#699f86"/>
    <path id="Path_65187" data-name="Path 65187" d="M-2.185,0l.275.138-.275.138v.55l.206.069-.069.138a.6.6,0,0,1-.3-.408A.9.9,0,0,1-2.185,0Z" transform="translate(-1741.031 -4523.762)" fill="#6db59b"/>
    <path id="Path_65188" data-name="Path 65188" d="M-4.656,0h.481C-4.653.363-4.653.363-5,.344l.138-.069V.138h.206Z" transform="translate(-1698.408 -4526.855)" fill="#b16303"/>
    <path id="Path_65189" data-name="Path 65189" d="M-4.784,0h.069A.858.858,0,0,1-4.81.576c-.112.112-.112.112-.249.112v.344h-.069A1.469,1.469,0,0,1-4.784,0Z" transform="translate(-1715.055 -4536.068)" fill="#c2dfda"/>
    <path id="Path_65190" data-name="Path 65190" d="M0,0H.344L.275.55H.138V.275H0Z" transform="translate(-1705.815 -4541.293)" fill="#e18402"/>
    <path id="Path_65191" data-name="Path 65191" d="M0,0H.206L.275.481.069.619Z" transform="translate(-1724.721 -4541.913)" fill="#08344a"/>
    <path id="Path_65192" data-name="Path 65192" d="M0,0,.206.138a1.109,1.109,0,0,1,0,.413L0,.756Z" transform="translate(-1701.483 -4525.894)" fill="#d1820f"/>
    <path id="Path_65193" data-name="Path 65193" d="M-.093,0h.069L.044.413.251.481.319.138H.388q0,.206,0,.413C.319.619.319.619.143.623l-.168,0A1.223,1.223,0,0,1-.093,0Z" transform="translate(-1705.79 -4538.2)" fill="#be8522"/>
    <path id="Path_65194" data-name="Path 65194" d="M0,0H.138V.138H.275V.275L.688.138A1.173,1.173,0,0,1,.55.413.919.919,0,0,1,.275.481Z" transform="translate(-1734.415 -4539.644)" fill="#196898"/>
    <path id="Path_65195" data-name="Path 65195" d="M-1.862,0c.138.138.138.138.151.3l0,.189,0,.19,0,.146L-2,.894l.069-.138C-1.916.628-1.9.5-1.893.37l.017-.209Z" transform="translate(-1697.971 -4548.581)" fill="#273130"/>
    <path id="Path_65196" data-name="Path 65196" d="M-20.487-1.988a1.128,1.128,0,0,1-.512.06l-.177-.01-.184-.012-.186-.011L-22-1.988v-.069l.6-.043.172-.013.167-.011.153-.011A.872.872,0,0,1-20.487-1.988Z" transform="translate(-1713.378 -4549.687)" fill="#a6d9f2"/>
    <path id="Path_65199" data-name="Path 65199" d="M0,0,.206.069q0,.172,0,.344L.138.481C.122.585.109.69.1.795L.081.967.069,1.1H0Z" transform="translate(-1740.946 -4529.88)" fill="#c9d5d4"/>
    <path id="Path_65200" data-name="Path 65200" d="M-2.511,0c.077.258.077.258,0,.413l.138.069-.275.344A.6.6,0,0,1-2.619.3l.06-.168Z" transform="translate(-1719.666 -4536.343)" fill="#1a5d58"/>
    <path id="Path_65201" data-name="Path 65201" d="M0,0H.825C.619.206.619.206.413.232.206.206.206.206,0,0Z" transform="translate(-1702.515 -4540.675)" fill="#2e2d24"/>
    <path id="Path_65202" data-name="Path 65202" d="M-2.794,0h.069V.619H-3A1.8,1.8,0,0,1-2.794,0Z" transform="translate(-1708.452 -4548.444)" fill="#fefde6"/>
    <path id="Path_65203" data-name="Path 65203" d="M-13.037,0l.275.069V.206H-14V.138h.963Z" transform="translate(-1718.559 -4548.787)" fill="#2fa0d2"/>
    <path id="Path_65204" data-name="Path 65204" d="M-1.862,0l.206.138V.413H-2C-1.94.077-1.94.077-1.862,0Z" transform="translate(-1697.283 -4527.818)" fill="#296eab"/>
    <path id="Path_65205" data-name="Path 65205" d="M0,0C.206.206.206.206.226.347l-.02.41L.069.825Z" transform="translate(-1726.165 -4535.38)" fill="#f8fefd"/>
    <path id="Path_65206" data-name="Path 65206" d="M-5.587,0h.481V.069h-.413l-.056.125A1.255,1.255,0,0,1-5.862.55L-6,.481q.132-.176.275-.344h.138Z" transform="translate(-1739.003 -4545.968)" fill="#213b47"/>
    <path id="Path_65211" data-name="Path 65211" d="M0,0A1.837,1.837,0,0,1,.275.069,1.171,1.171,0,0,1,.348.662l0,.248,0,.191H.275V.275L.069.206Z" transform="translate(-1702.583 -4525.962)" fill="#895a1d"/>
    <path id="Path_65212" data-name="Path 65212" d="M0,0,.344.344.481.206V.619A1.122,1.122,0,0,1,0,.275Z" transform="translate(-1738.265 -4535.45)" fill="#2275a3"/>
    <path id="Path_65213" data-name="Path 65213" d="M-1.964,0A2.07,2.07,0,0,1-1.9.756H-2.1C-2.119.232-2.119.232-1.964,0Z" transform="translate(-1736.713 -4536.756)" fill="#1772a3"/>
    <path id="Path_65214" data-name="Path 65214" d="M0,0A1.128,1.128,0,0,1,.481.275,2.949,2.949,0,0,1,.413.688C.275.619.275.619.206.421L.138.206Z" transform="translate(-1696.464 -4545.762)" fill="#e1dfc8"/>
    <path id="Path_65215" data-name="Path 65215" d="M-9.021-.01l.168,0,.128,0V.067l-.223.026a1.205,1.205,0,0,0-.533.18L-9.55.411h-.138A.586.586,0,0,1-9.021-.01Z" transform="translate(-1701.352 -4548.992)" fill="#f8e046"/>
    <path id="Path_65218" data-name="Path 65218" d="M-3.725,0l.069.206a3.821,3.821,0,0,1-.275.413A1.649,1.649,0,0,1-4,.138Z" transform="translate(-1729.04 -4536.137)" fill="#c5e7f5"/>
    <path id="Path_65219" data-name="Path 65219" d="M0,0H.275L.344.344,0,.275Z" transform="translate(-1720.39 -4538.681)" fill="#155652"/>
    <path id="Path_65220" data-name="Path 65220" d="M0,0,.344.344.275.481.138.413.069.688Z" transform="translate(-1720.734 -4539.506)" fill="#437a78"/>
    <path id="Path_65221" data-name="Path 65221" d="M0,0H.344V.138H.619V.481L.55.344A1.379,1.379,0,0,0,.275.275V.069Z" transform="translate(-1698.183 -4544.456)" fill="#d7840c"/>
    <path id="Path_65222" data-name="Path 65222" d="M0,0H.206Q.195.153.18.305L.166.477.138.619,0,.688Z" transform="translate(-1742.734 -4546.725)" fill="#3593a8"/>
    <path id="Path_65223" data-name="Path 65223" d="M-4.656,0c.069.138.069.138.015.3l-.08.189L-4.8.679l-.063.146L-5,.756q.046-.151.095-.3l.053-.169A.571.571,0,0,1-4.656,0Z" transform="translate(-1707.484 -4549.543)" fill="#233845"/>
    <path id="Path_65224" data-name="Path 65224" d="M-.931,0h.55V.069L-.725.138-.794.344H-.931L-1,.481Z" transform="translate(-1706.465 -4551.4)" fill="#f0ad03"/>
    <path id="Path_65228" data-name="Path 65228" d="M-.931,0H.031V.069l-.156.01L-.33.095l-.2.015A1.169,1.169,0,0,0-1,.275Z" transform="translate(-1707.427 -4526.512)" fill="#c4841d"/>
    <path id="Path_65229" data-name="Path 65229" d="M0,0H.069L.138.481H.275V.963H.206V.619L0,.55Z" transform="translate(-1698.183 -4529.262)" fill="#216263"/>
    <path id="Path_65230" data-name="Path 65230" d="M0,0H.275L.344.275H.825V.344a2.5,2.5,0,0,1-.619,0A.816.816,0,0,1,0,0Z" transform="translate(-1734.003 -4536.413)" fill="#c3e2ec"/>
    <path id="Path_65231" data-name="Path 65231" d="M-.931,0A.481.481,0,0,1-.695.413c-.03.206-.03.206-.168.335L-1,.825-.931.55h.138V.275H-.931Z" transform="translate(-1731.903 -4537.1)" fill="#bbdff0"/>
    <path id="Path_65232" data-name="Path 65232" d="M-3.55-.09a1.6,1.6,0,0,1,.494.331L-3.537.173V.035l-.275-.069A.323.323,0,0,1-3.55-.09Z" transform="translate(-1724.484 -4539.472)" fill="#dfe2cc"/>
    <path id="Path_65233" data-name="Path 65233" d="M-5.587,0h.069V.344H-6l.069-.206h.275Z" transform="translate(-1709.302 -4548.168)" fill="#0e555d"/>
    <path id="Path_65234" data-name="Path 65234" d="M-4.656,0l.275.069L-4.7.324A.392.392,0,0,0-4.862.55L-5,.481Z" transform="translate(-1718.621 -4552.5)" fill="#1c3447"/>
    <path id="Path_65241" data-name="Path 65241" d="M-4.787,0a1.128,1.128,0,0,1-.344.55,2.2,2.2,0,0,1,0-.413C-4.925,0-4.925,0-4.787,0Z" transform="translate(-1712.646 -4536.137)" fill="#cde9ea"/>
    <path id="Path_65242" data-name="Path 65242" d="M-.931,0l.413.206V.413L-1,.206Z" transform="translate(-1735.684 -4540.056)" fill="#0b5486"/>
    <path id="Path_65243" data-name="Path 65243" d="M-.273,0l.138.069A2.712,2.712,0,0,1-.092.451l.016.211.01.163A.461.461,0,0,1-.293.463L-.286.3-.28.128Z" transform="translate(-1700.042 -4548.65)" fill="#f39c0e"/>
    <path id="Path_65244" data-name="Path 65244" d="M-7.45-.7c-.318.275-.318.275-.55.275A1.64,1.64,0,0,1-7.862-.7.438.438,0,0,1-7.45-.7Z" transform="translate(-1733.084 -4548.088)" fill="#58aaca"/>
    <path id="Path_65245" data-name="Path 65245" d="M-5.587,0l.138.069-.413.55L-6,.55A2.063,2.063,0,0,1-5.587,0Z" transform="translate(-1705.521 -4549.2)" fill="#cdd2d5"/>
    <path id="Path_65252" data-name="Path 65252" d="M-2.794,0h.069a1.42,1.42,0,0,1-.069.688h-.138L-3,.344h.138Z" transform="translate(-1739.184 -4528.025)" fill="#1f75a0"/>
    <path id="Path_65253" data-name="Path 65253" d="M0,0H.619V.069L.206.138V.344H0Z" transform="translate(-1698.046 -4529.674)" fill="#98b0b0"/>
    <path id="Path_65254" data-name="Path 65254" d="M-3.725,0a.773.773,0,0,1,0,.55L-4,.481Z" transform="translate(-1718.659 -4535.862)" fill="#276864"/>
    <path id="Path_65255" data-name="Path 65255" d="M-4.656,0l.275.069-.481.344L-5,.344A2.6,2.6,0,0,1-4.656,0Z" transform="translate(-1736.978 -4550.025)" fill="#142d39"/>
    <path id="Path_65260" data-name="Path 65260" d="M-2.794,0h.069l.069.413L-3,.55A2.878,2.878,0,0,1-2.794,0Z" transform="translate(-1733.203 -4538.543)" fill="#22709f"/>
    <path id="Path_65261" data-name="Path 65261" d="M-2.659,0h.069c-.052.524-.052.524-.206.756a.481.481,0,0,1-.027-.4C-2.772.236-2.716.118-2.659,0Z" transform="translate(-1715.874 -4539.093)" fill="#2e7169"/>
    <path id="Path_65262" data-name="Path 65262" d="M0,0,.688.069.55.206A2.242,2.242,0,0,1,.069.138Z" transform="translate(-1709.39 -4540.675)" fill="#33311f"/>
    <path id="Path_65263" data-name="Path 65263" d="M0,0,.55.069V.206L0,.138Z" transform="translate(-1730.978 -4549.269)" fill="#c4ebf5"/>
    <path id="Path_65264" data-name="Path 65264" d="M-2.794,0l.069.138.138.069-.1.09c-.124.118-.124.118-.176.322H-3Z" transform="translate(-1705.771 -4552.225)" fill="#173040"/>
    <path id="Path_65268" data-name="Path 65268" d="M0,0A1.139,1.139,0,0,1,.344.206,2.028,2.028,0,0,1,.413.688.505.505,0,0,1,.275.275L0,.138Z" transform="translate(-1695.089 -4524.793)" fill="#3d4d56"/>
    <path id="Path_65269" data-name="Path 65269" d="M-2.794,0l.206.069q-.131.21-.275.413H-3A4.21,4.21,0,0,1-2.794,0Z" transform="translate(-1719.315 -4535.862)" fill="#ceebea"/>
    <path id="Path_65270" data-name="Path 65270" d="M0,0,.481.275.55.069V.344A1.878,1.878,0,0,1,.138.275.749.749,0,0,1,0,0Z" transform="translate(-1736.753 -4537.994)" fill="#1b70a1"/>
    <path id="Path_65271" data-name="Path 65271" d="M-1.862,0h.138V.344L-2,.481Z" transform="translate(-1732.071 -4538.612)" fill="#2774a7"/>
    <path id="Path_65272" data-name="Path 65272" d="M0,0,.344.069V.481A1.329,1.329,0,0,1,0,0Z" transform="translate(-1735.928 -4539.644)" fill="#caeaf2"/>
    <path id="Path_65273" data-name="Path 65273" d="M-2.794,0h.344l-.206.069V.206A3.637,3.637,0,0,1-3,.413l.069-.275h.138Z" transform="translate(-1741.934 -4546.037)" fill="#dbdec4"/>
    <path id="Path_65274" data-name="Path 65274" d="M-.931,0h.688V.069H-.725V.206L-1,.138Z" transform="translate(-1715.127 -4548.787)" fill="#227667"/>
    <path id="Path_65275" data-name="Path 65275" d="M-.931,0h.413A1.957,1.957,0,0,1-1,.344Z" transform="translate(-1710.04 -4549.063)" fill="#fffed5"/>
    <path id="Path_65276" data-name="Path 65276" d="M-3.725,0l.206.069-.413.344L-4,.138l.138-.069.138.069Z" transform="translate(-1738.115 -4550.025)" fill="#e4e3c8"/>
  </g>
</svg>
