<svg xmlns="http://www.w3.org/2000/svg" xmlns:xlink="http://www.w3.org/1999/xlink" width="103.974" height="79.914" viewBox="0 0 103.974 79.914">
  <defs>
    <linearGradient id="linear-gradient" x1="0.5" y1="1" x2="0.5" y2="-0.025" gradientUnits="objectBoundingBox">
      <stop offset="0" stop-color="#616161"/>
      <stop offset="0.416" stop-color="#323232"/>
      <stop offset="0.798" stop-color="#0d0d0d"/>
      <stop offset="1"/>
    </linearGradient>
    <linearGradient id="linear-gradient-2" y1="0.5" x2="1" y2="0.5" gradientUnits="objectBoundingBox">
      <stop offset="0" stop-color="#a8a8a8"/>
      <stop offset="0.198" stop-color="#171717"/>
      <stop offset="0.199" stop-color="#191919"/>
      <stop offset="0.25" stop-color="#5d5d5d"/>
      <stop offset="0.297" stop-color="#979797"/>
      <stop offset="0.341" stop-color="#c4c4c4"/>
      <stop offset="0.38" stop-color="#e4e4e4"/>
      <stop offset="0.412" stop-color="#f7f7f7"/>
      <stop offset="0.434" stop-color="#fff"/>
      <stop offset="0.469" stop-color="#eee"/>
      <stop offset="0.538" stop-color="#c3c3c3"/>
      <stop offset="0.632" stop-color="gray"/>
      <stop offset="0.78" stop-color="#404040"/>
      <stop offset="1" stop-color="#a8a8a8"/>
    </linearGradient>
    <linearGradient id="linear-gradient-4" x1="0.209" y1="0.245" x2="0.209" y2="1.119" gradientUnits="objectBoundingBox">
      <stop offset="0" stop-color="#bd7137"/>
      <stop offset="0.154" stop-color="#c5892f"/>
      <stop offset="0.505" stop-color="#c5892f"/>
      <stop offset="0.852" stop-color="#c5892f"/>
      <stop offset="0.951" stop-color="#ffdf80"/>
    </linearGradient>
    <linearGradient id="linear-gradient-5" x1="0.067" y1="0.684" x2="0.067" y2="1.558" xlink:href="#linear-gradient-4"/>
    <linearGradient id="linear-gradient-6" x1="-0.075" y1="1.122" x2="-0.075" y2="1.997" xlink:href="#linear-gradient-4"/>
    <linearGradient id="linear-gradient-7" x1="-0.217" y1="1.561" x2="-0.217" y2="2.436" xlink:href="#linear-gradient-4"/>
    <linearGradient id="linear-gradient-8" x1="-0.644" y1="1.932" x2="-0.644" y2="2.766" xlink:href="#linear-gradient-4"/>
    <linearGradient id="linear-gradient-9" x1="0.5" y1="0.013" x2="0.5" y2="1.038" gradientUnits="objectBoundingBox">
      <stop offset="0" stop-color="#5d717f"/>
      <stop offset="0.118" stop-color="#6b7f8e"/>
      <stop offset="0.518" stop-color="#97adbd"/>
      <stop offset="0.825" stop-color="#b2cadb"/>
      <stop offset="1" stop-color="#bdd5e6"/>
    </linearGradient>
    <linearGradient id="linear-gradient-10" x1="0.5" y1="1" x2="0.5" y2="-0.025" xlink:href="#linear-gradient"/>
    <linearGradient id="linear-gradient-11" y1="0.5" x2="1" y2="0.5" gradientUnits="objectBoundingBox">
      <stop offset="0" stop-color="#1a1a1a"/>
      <stop offset="0.505" stop-color="gray"/>
      <stop offset="1" stop-color="#1a1a1a"/>
    </linearGradient>
    <linearGradient id="linear-gradient-12" x1="0.5" y1="0.976" x2="0.5" y2="-0.024" gradientUnits="objectBoundingBox">
      <stop offset="0" stop-color="#ccc"/>
      <stop offset="1" stop-color="gray"/>
    </linearGradient>
    <linearGradient id="linear-gradient-13" x1="0.5" y1="0.027" x2="0.5" y2="0.964" gradientUnits="objectBoundingBox">
      <stop offset="0" stop-color="#e6e6e6"/>
      <stop offset="0.331" stop-color="#a0a0a0"/>
      <stop offset="0.646" stop-color="#656565"/>
      <stop offset="0.878" stop-color="#404040"/>
      <stop offset="1" stop-color="#333"/>
    </linearGradient>
    <linearGradient id="linear-gradient-14" x1="0.5" y1="1.006" x2="0.5" y2="-0.001" xlink:href="#linear-gradient-13"/>
  </defs>
  <g id="Group_5649" data-name="Group 5649" transform="translate(-76.224 -16.093)">
    <g id="Dump_Truck" data-name="Dump Truck" transform="translate(76.224 16.093)">
      <g id="Group_5648" data-name="Group 5648" transform="translate(0 0)">
        <path id="Path_77950" data-name="Path 77950" d="M180.464,325.631H177.8V324.42h-.747v-2.434a1.806,1.806,0,0,0-3.223-1.12l-1.508,2.089h-4.649a.517.517,0,0,0-.5.541v.924H155.454v-.4a.638.638,0,0,0-.638-.639h-5.1v-.058a.394.394,0,0,0-.394-.394H148.9v-4.325h-2.883v4.325h-.453a.394.394,0,0,0-.394.394v.058h-3.985a.639.639,0,0,0-.638.639v.4h-8.885a.638.638,0,0,0-.638-.631h-3.9a.638.638,0,0,0-.638.631h-.494a.638.638,0,0,0-.638-.631h-2.2a.638.638,0,0,0-.638.631h-1.058l-.581-7.656a.593.593,0,0,0-.592-.559h-1.252l-.981-12.916a.592.592,0,0,0-.591-.558h-1.914v-.407a.308.308,0,0,0-.308-.309h-.985a.308.308,0,0,0-.308.309v21.5a.541.541,0,0,1-.546.5H87.661V334.39h87.272a.86.86,0,0,0,.8-.439l1.853-3.4h2.875a.427.427,0,0,0,.427-.427v-4.062A.427.427,0,0,0,180.464,325.631Z" transform="translate(-86.031 -261.261)" fill="#1a1818"/>
        <path id="Path_77951" data-name="Path 77951" d="M699.51,442.3a.812.812,0,1,1-1.625,0h.276a.537.537,0,0,0,1.074,0Z" transform="translate(-609.276 -381.551)" fill="url(#linear-gradient)"/>
        <rect id="Rectangle_3967" data-name="Rectangle 3967" width="1.685" height="10.275" transform="translate(60.582 47.071)" fill="url(#linear-gradient-2)"/>
        <rect id="Rectangle_3968" data-name="Rectangle 3968" width="2.417" height="4.716" transform="translate(60.22 52.63)" fill="url(#linear-gradient-2)"/>
        <g id="Group_5609" data-name="Group 5609" transform="translate(11.564 64.045)">
          <path id="Path_77952" data-name="Path 77952" d="M172.827,474.5v-1.347a7.737,7.737,0,1,0-15.474,0V474.5Z" transform="translate(-157.353 -465.418)"/>
          <path id="Path_77953" data-name="Path 77953" d="M730.692,476.882h-1.534a.427.427,0,0,1-.427-.427v-2.318a.427.427,0,0,1,.427-.427h1.534Z" transform="translate(-647.289 -472.528)" fill="#e50019"/>
          <path id="Path_77954" data-name="Path 77954" d="M730.636,474.994a.427.427,0,0,0-.427.427v.547a.428.428,0,0,1,.427-.427h1.323v-.547Z" transform="translate(-648.556 -473.629)" fill="#980e1b"/>
          <path id="Path_77955" data-name="Path 77955" d="M730.209,489.676v.273a.427.427,0,0,0,.427.427h1.323V490.1h-1.323A.427.427,0,0,1,730.209,489.676Z" transform="translate(-648.556 -486.218)" fill="#fff" opacity="0.3" style="mix-blend-mode: screen;isolation: isolate"/>
          <path id="Path_77956" data-name="Path 77956" d="M606.767,474.5v-1.347a7.737,7.737,0,1,0-15.474,0V474.5Z" transform="translate(-529.441 -465.418)"/>
          <path id="Path_77957" data-name="Path 77957" d="M503.663,474.5v-1.347a7.737,7.737,0,1,0-15.474,0V474.5Z" transform="translate(-441.033 -465.418)"/>
        </g>
        <g id="Group_5612" data-name="Group 5612" transform="translate(40.664)">
          <path id="Path_77958" data-name="Path 77958" d="M377.361,33.332a1.073,1.073,0,0,1-.47-1.152l2.362-8.779a1.073,1.073,0,0,0-.45-1.22l-9.5-6.023a.421.421,0,0,0-.581.13l-1.471,2.322a.421.421,0,0,0,.13.581l6.559,4.156a.825.825,0,0,1,.255,1.139L361.811,44.031a1.91,1.91,0,0,0,.591,2.635l50.819,32.2a1.91,1.91,0,0,0,2.635-.592l8.835-13.945a.852.852,0,0,0-.264-1.176Z" transform="translate(-361.514 -16.093)" fill="#b23c14"/>
          <g id="Group_5611" data-name="Group 5611" transform="translate(0.678 27.303)">
            <g id="Group_5610" data-name="Group 5610">
              <path id="Path_77959" data-name="Path 77959" d="M417.845,241.682,367.52,209.8a1.565,1.565,0,0,1-.484-2.159l-.519.818a1.564,1.564,0,0,0,.484,2.159L417.326,242.5a1.564,1.564,0,0,0,2.159-.484L420,241.2A1.565,1.565,0,0,1,417.845,241.682Z" transform="translate(-366.274 -207.64)" fill="#b27031"/>
            </g>
          </g>
          <path id="Path_77960" data-name="Path 77960" d="M693.964,348.053a.741.741,0,0,1-1.019.229l-4.968-3.147a.742.742,0,0,1-.229-1.02l5.552-8.763a.741.741,0,0,1,1.02-.228l4.968,3.148a.741.741,0,0,1,.228,1.019Zm4.409-8.183a.666.666,0,0,0-.206-.915l-3.989-2.527a.665.665,0,0,0-.915.2l-4.44,7.008a.665.665,0,0,0,.205.915l3.989,2.527a.665.665,0,0,0,.915-.205Z" transform="translate(-641.15 -289.552)" fill="url(#linear-gradient-4)"/>
          <path id="Path_77961" data-name="Path 77961" d="M628.915,306.843a.741.741,0,0,1-1.019.229l-4.968-3.147a.741.741,0,0,1-.229-1.02l5.552-8.763a.741.741,0,0,1,1.02-.228l4.968,3.147a.741.741,0,0,1,.229,1.019Zm4.409-8.183a.666.666,0,0,0-.206-.915l-3.989-2.527a.665.665,0,0,0-.915.205l-4.44,7.008a.665.665,0,0,0,.205.915l3.989,2.527a.666.666,0,0,0,.915-.205Z" transform="translate(-585.373 -254.216)" fill="url(#linear-gradient-5)"/>
          <path id="Path_77962" data-name="Path 77962" d="M563.868,265.633a.741.741,0,0,1-1.019.229l-4.968-3.148a.741.741,0,0,1-.229-1.02l5.552-8.763a.741.741,0,0,1,1.019-.228l4.968,3.147a.741.741,0,0,1,.229,1.019Zm4.409-8.182a.666.666,0,0,0-.206-.915l-3.989-2.527a.665.665,0,0,0-.915.206l-4.44,7.008a.665.665,0,0,0,.205.915l3.989,2.527a.665.665,0,0,0,.915-.205Z" transform="translate(-529.597 -218.88)" fill="url(#linear-gradient-6)"/>
          <path id="Path_77963" data-name="Path 77963" d="M498.821,224.423a.741.741,0,0,1-1.019.229l-4.968-3.147a.741.741,0,0,1-.229-1.02l5.552-8.764a.741.741,0,0,1,1.02-.228l4.968,3.147a.741.741,0,0,1,.228,1.019Zm4.409-8.183a.666.666,0,0,0-.205-.915l-3.989-2.527a.665.665,0,0,0-.915.205l-4.44,7.008a.665.665,0,0,0,.2.915l3.989,2.527a.666.666,0,0,0,.915-.205Z" transform="translate(-473.822 -183.543)" fill="url(#linear-gradient-7)"/>
          <path id="Path_77964" data-name="Path 77964" d="M443.739,178.259a.741.741,0,0,1-1.019.229l-3.193-2.023a1.071,1.071,0,0,1-.433-1.109l2.865-10.545a.513.513,0,0,1,.815-.318l6.288,3.984a.741.741,0,0,1,.229,1.019Zm4.4-8.188a.666.666,0,0,0-.206-.915l-5.023-3.182a.461.461,0,0,0-.732.286l-2.309,8.429a.961.961,0,0,0,.388,1l2.526,1.6a.665.665,0,0,0,.916-.205Z" transform="translate(-428.011 -143.253)" fill="url(#linear-gradient-8)"/>
          <path id="Path_77965" data-name="Path 77965" d="M513.041,162.945a.838.838,0,0,0-.26-1.156l-46.834-29.671a.926.926,0,0,1-.4-1.082c.021-.066.068-.214.105-.3a1.053,1.053,0,0,0,.461,1.131l46.834,29.671a.837.837,0,0,1,.26,1.156Z" transform="translate(-450.679 -114.392)" fill="#fce3a8"/>
          <path id="Path_77966" data-name="Path 77966" d="M411.554,19.071a.4.4,0,0,1,.549-.123l9.109,5.774a1.014,1.014,0,0,1,.425,1.152,1.494,1.494,0,0,0,.087-.215,1.009,1.009,0,0,0-.425-1.153l-9.074-5.751a.4.4,0,0,0-.548.123Z" transform="translate(-404.421 -18.322)" fill="#fce3a8"/>
          <path id="Path_77967" data-name="Path 77967" d="M410.164,37.449a.825.825,0,0,0-.256-1.139l-6.559-4.156a.421.421,0,0,1-.13-.581l.112-.177a.421.421,0,0,0,.13.581l6.559,4.156a.825.825,0,0,1,.256,1.139Z" transform="translate(-397.219 -29.216)" fill="#bd7137"/>
        </g>
        <g id="Group_5613" data-name="Group 5613" transform="translate(9.522 63.328)">
          <path id="Path_77968" data-name="Path 77968" d="M143.026,460.383h19.9a1.394,1.394,0,0,1,1.394,1.394v8.408a.333.333,0,0,1-.333.334h-3.113a.333.333,0,0,1-.333-.334v-1.347a7.737,7.737,0,1,0-15.474,0v1.347a.333.333,0,0,1-.333.334h-1.709Z" transform="translate(-143.026 -460.383)" fill="#333"/>
        </g>
        <g id="Group_5620" data-name="Group 5620" transform="translate(31.613 63.159)">
          <g id="Group_5619" data-name="Group 5619" transform="translate(1.126)">
            <g id="Group_5614" data-name="Group 5614" transform="translate(0 1.363)">
              <path id="Rectangle_3969" data-name="Rectangle 3969" d="M4.8,0H16.939a4.8,4.8,0,0,1,4.8,4.8v0a4.8,4.8,0,0,1-4.8,4.8H4.8A4.8,4.8,0,0,1,0,4.8v0A4.8,4.8,0,0,1,4.8,0Z" fill="#333"/>
              <path id="Path_77969" data-name="Path 77969" d="M328.21,523.881H308.673a.8.8,0,0,1-.8-.8v.751a.8.8,0,0,0,.8.8H328.21a.8.8,0,0,0,.8-.8v-.751A.8.8,0,0,1,328.21,523.881Z" transform="translate(-307.594 -515.34)" fill="#1a1a1a"/>
              <path id="Path_77970" data-name="Path 77970" d="M328.21,472.178H308.673a.8.8,0,0,0-.8.8v-.751a.8.8,0,0,1,.8-.8H328.21a.8.8,0,0,1,.8.8v.751A.8.8,0,0,0,328.21,472.178Z" transform="translate(-307.594 -471.047)" fill="#666"/>
            </g>
            <g id="Group_5616" data-name="Group 5616" transform="translate(4.322)">
              <path id="Path_77971" data-name="Path 77971" d="M338.248,459.2v9.687a.4.4,0,0,1-.4.4h-1.213a.4.4,0,0,1-.4-.4V459.2Z" transform="translate(-336.234 -459.202)" fill="#1a1a1a"/>
              <g id="Group_5615" data-name="Group 5615" transform="translate(0 0)">
                <rect id="Rectangle_3970" data-name="Rectangle 3970" width="2.014" height="1.263"/>
                <rect id="Rectangle_3971" data-name="Rectangle 3971" width="2.014" height="0.4" transform="translate(0 5.202)"/>
                <rect id="Rectangle_3972" data-name="Rectangle 3972" width="2.014" height="0.399" transform="translate(0 8.628)"/>
              </g>
            </g>
            <g id="Group_5618" data-name="Group 5618" transform="translate(14.859)">
              <path id="Path_77972" data-name="Path 77972" d="M412.175,459.2v9.687a.4.4,0,0,1-.4.4h-1.213a.4.4,0,0,1-.4-.4V459.2Z" transform="translate(-410.161 -459.202)" fill="#1a1a1a"/>
              <g id="Group_5617" data-name="Group 5617" transform="translate(0 0)">
                <rect id="Rectangle_3973" data-name="Rectangle 3973" width="2.013" height="1.263"/>
                <rect id="Rectangle_3974" data-name="Rectangle 3974" width="2.013" height="0.4" transform="translate(0 5.202)"/>
                <rect id="Rectangle_3975" data-name="Rectangle 3975" width="2.013" height="0.399" transform="translate(0 8.628)"/>
              </g>
            </g>
          </g>
          <path id="Path_77973" data-name="Path 77973" d="M321.983,483.187a.4.4,0,0,1-.4.4h-23.17a.4.4,0,0,1-.4-.4v-1.214a.4.4,0,0,1,.4-.4h23.17a.4.4,0,0,1,.4.4Z" transform="translate(-298.012 -478.384)" fill="#1a1a1a"/>
          <path id="Path_77974" data-name="Path 77974" d="M321.983,507.216a.4.4,0,0,1-.4.4h-23.17a.4.4,0,0,1-.4-.4V506a.4.4,0,0,1,.4-.4h23.17a.4.4,0,0,1,.4.4Z" transform="translate(-298.012 -498.988)" fill="#1a1a1a"/>
          <path id="Path_77975" data-name="Path 77975" d="M322.089,506.227H299.013a.355.355,0,0,0-.355.356v.1a.354.354,0,0,1,.355-.355h23.076a.355.355,0,0,1,.355.355v-.1A.356.356,0,0,0,322.089,506.227Z" transform="translate(-298.566 -499.524)" fill="#666"/>
          <path id="Path_77976" data-name="Path 77976" d="M322.089,516.217H299.013a.355.355,0,0,1-.355-.356v.1a.355.355,0,0,0,.355.355h23.076a.355.355,0,0,0,.355-.355v-.1A.355.355,0,0,1,322.089,516.217Z" transform="translate(-298.566 -507.785)" fill="#1a1818"/>
          <path id="Path_77977" data-name="Path 77977" d="M322.089,482.385H299.013a.355.355,0,0,0-.355.356v.1a.354.354,0,0,1,.355-.354h23.076a.355.355,0,0,1,.355.354v-.1A.355.355,0,0,0,322.089,482.385Z" transform="translate(-298.566 -479.081)" fill="#666"/>
          <path id="Path_77978" data-name="Path 77978" d="M322.089,492.375H299.013a.355.355,0,0,1-.355-.355v.1a.354.354,0,0,0,.355.355h23.076a.355.355,0,0,0,.355-.355v-.1A.355.355,0,0,1,322.089,492.375Z" transform="translate(-298.566 -487.342)" fill="#1a1818"/>
        </g>
        <g id="Group_5621" data-name="Group 5621" transform="translate(56.111 63.3)">
          <path id="Path_77979" data-name="Path 77979" d="M505.362,467.875l-2.607-5.95a2.674,2.674,0,0,0-2.5-1.734h-25.24a2.674,2.674,0,0,0-2.5,1.734l-2.607,5.95a.292.292,0,0,0-.017.1.3.3,0,0,0,.216.287l1.213.3a.2.2,0,0,0,.225-.1l2.678-5.3a2.335,2.335,0,0,1,2.066-1.247h7.1a2.334,2.334,0,0,1,2.065,1.247l.782,1.536a.263.263,0,0,0,.247.174h2.159a.262.262,0,0,0,.247-.174l.773-1.536a2.334,2.334,0,0,1,2.066-1.247h7.263a2.333,2.333,0,0,1,2.065,1.247l2.678,5.3a.2.2,0,0,0,.225.1l1.212-.3a.3.3,0,0,0,.216-.287A.306.306,0,0,0,505.362,467.875Z" transform="translate(-469.885 -460.191)" fill="#333"/>
          <path id="Path_77980" data-name="Path 77980" d="M516.4,461.307h-25.02a2.649,2.649,0,0,0-2.481,1.718l-.053.122a2.626,2.626,0,0,1,2.329-1.413H516.6a2.627,2.627,0,0,1,2.362,1.476l-.081-.185A2.65,2.65,0,0,0,516.4,461.307Z" transform="translate(-486.147 -461.148)" fill="#666"/>
        </g>
        <path id="Path_77981" data-name="Path 77981" d="M77.754,308.21a.6.6,0,0,1-.595-.482,16.351,16.351,0,0,1-.293-3.309v-4.632c0-1.53,1.783-7.525,3.12-11.879a3.36,3.36,0,0,1,2.776-2.44,132.62,132.62,0,0,1,13.813-1.18h5.275a2.39,2.39,0,0,1,2.39,2.391v22.214a.541.541,0,0,1-.546.5H94.274a7.01,7.01,0,0,0-7.01,7.01V319a.5.5,0,0,1-.5.5H77.2a.974.974,0,0,1-.974-.973v-9.7a.609.609,0,0,1,.609-.608Z" transform="translate(-76.224 -246.06)" fill="#b23c14"/>
        <path id="Path_77982" data-name="Path 77982" d="M88.426,518.472H79.247a.823.823,0,0,1-.823-.824v.774a.824.824,0,0,0,.823.823l9.144,0c.454,0,.647-.182.647-.568v-1.026C89.008,518.288,88.88,518.472,88.426,518.472Z" transform="translate(-78.11 -446.158)" fill="#b27031"/>
        <path id="Path_77983" data-name="Path 77983" d="M106.391,291.027a3.322,3.322,0,0,1,2.566-1.592c3.464-.482,10.807-.958,13.442-.958h5.156a2.106,2.106,0,0,1,2.13,1.37,2.3,2.3,0,0,0-2.3-2.3h-5.066a127.384,127.384,0,0,0-13.266,1.133A3.227,3.227,0,0,0,106.391,291.027Z" transform="translate(-102.091 -248.858)" fill="#fce3a8"/>
        <g id="Group_5625" data-name="Group 5625" transform="translate(3.205 65.692)">
          <path id="Rectangle_3976" data-name="Rectangle 3976" d="M2.349,0H4.008A2.349,2.349,0,0,1,6.357,2.349v0A2.351,2.351,0,0,1,4.006,4.7H2.351A2.351,2.351,0,0,1,0,2.349v0A2.349,2.349,0,0,1,2.349,0Z" fill="#333"/>
          <g id="Group_5623" data-name="Group 5623" transform="translate(0 0)">
            <path id="Path_77984" data-name="Path 77984" d="M104.492,476.967H99.281a.574.574,0,0,0-.573.574v.814a.573.573,0,0,1,.573-.573h5.211a.573.573,0,0,1,.573.573v-.814A.574.574,0,0,0,104.492,476.967Z" transform="translate(-98.708 -476.967)" fill="#1a1a1a"/>
            <g id="Group_5622" data-name="Group 5622" transform="translate(0 3.762)">
              <path id="Path_77985" data-name="Path 77985" d="M104.492,503.936H99.281a.574.574,0,0,1-.573-.573v.365a.573.573,0,0,0,.573.573h5.211a.573.573,0,0,0,.573-.573v-.365A.574.574,0,0,1,104.492,503.936Z" transform="translate(-98.708 -503.363)" fill="#4d4d4d"/>
            </g>
          </g>
          <g id="Group_5624" data-name="Group 5624" transform="translate(0.22 1.3)">
            <path id="Path_77986" data-name="Path 77986" d="M100.515,486.616a.265.265,0,1,1,0-.53h5.364a.265.265,0,0,1,0,.53Z" transform="translate(-100.25 -486.086)" fill="#1a1a1a"/>
            <path id="Path_77987" data-name="Path 77987" d="M100.515,494.089a.265.265,0,1,1,0-.53h5.364a.265.265,0,0,1,0,.53Z" transform="translate(-100.25 -492.494)" fill="#1a1a1a"/>
            <path id="Path_77988" data-name="Path 77988" d="M100.515,501.556a.265.265,0,0,1,0-.53h5.364a.265.265,0,0,1,0,.53Z" transform="translate(-100.25 -498.896)" fill="#1a1a1a"/>
          </g>
        </g>
        <path id="Path_77989" data-name="Path 77989" d="M116.078,323.5a1.217,1.217,0,0,0,.879-1.169v-5.65a1.216,1.216,0,0,0-1.217-1.216H100.849a1.182,1.182,0,0,0-1.141.793c-.49,1.572-1.656,6.5-1.8,7.545-.021.149-.032.474-.032.547v1.761a1.391,1.391,0,0,0,1.707,1.353Z" transform="translate(-94.787 -272.797)" fill="#fff"/>
        <g id="Group_5626" data-name="Group 5626" transform="translate(5.655 47.591)">
          <path id="Path_77990" data-name="Path 77990" d="M121.3,354.111l-4.243-4.018a.414.414,0,1,0-.569.6l1.5,1.422-2.094,2.212,1.13,1.071,2.094-2.212,1.611,1.525a.413.413,0,1,0,.569-.6Z" transform="translate(-115.899 -349.979)" fill="#b3b3b3"/>
        </g>
        <path id="Path_77991" data-name="Path 77991" d="M116.67,335.273a.714.714,0,0,0-.52.393l-1.121,2.209h-3.652l-.447-2.7a.452.452,0,0,0-.383-.351h-1.416c-.435,0-.99,2.2-.531,2.662a4.494,4.494,0,0,0-1.125,1.947l-.974,2.97,9.561-2.3.016,0a1.217,1.217,0,0,0,.879-1.169v-3.656ZM98.246,338.7c-.06.269-.114.52-.161.746l0,.008-.033.158-.012.06-.027.133L98,339.87c-.008.039-.015.077-.022.114s-.009.045-.013.067-.012.064-.017.093-.009.048-.013.071-.008.048-.012.069c-.007.043-.013.083-.018.117-.021.149-.032.474-.032.547v1.761a1.391,1.391,0,0,0,1.707,1.353l2.712-.652.613-.883L100.6,338.24Z" transform="translate(-94.787 -289.39)" fill="#b3b3b3"/>
        <path id="Path_77992" data-name="Path 77992" d="M116.078,323.5a1.217,1.217,0,0,0,.879-1.169v-5.65a1.216,1.216,0,0,0-1.217-1.216H100.849a1.182,1.182,0,0,0-1.141.793c-.49,1.572-1.656,6.5-1.8,7.545-.021.149-.032.474-.032.547v1.761a1.391,1.391,0,0,0,1.707,1.353Z" transform="translate(-94.787 -272.797)" fill="url(#linear-gradient-9)" style="mix-blend-mode: multiply;isolation: isolate"/>
        <path id="Path_77993" data-name="Path 77993" d="M168.748,391.222v-.476h0a1.394,1.394,0,0,1,.652-1.185h0c.428-.317.861-.585,1.213-.838h0a1.252,1.252,0,0,0,.561-1.252h0c0-.06,0-.123,0-.188h0v-3.571h0v-3.1h0a.1.1,0,0,1,.1-.1h0a.1.1,0,0,1,.1.1h0v6.671h0c0,.064,0,.127,0,.188h0a1.464,1.464,0,0,1-.648,1.422h0c-.36.259-.791.525-1.21.836h0a1.181,1.181,0,0,0-.568,1.017h0v.476h0a.1.1,0,0,1-.1.1h0a.1.1,0,0,1-.1-.1Z" transform="translate(-155.56 -328.565)" fill="#b3b3b3" style="mix-blend-mode: multiply;isolation: isolate"/>
        <path id="Path_77994" data-name="Path 77994" d="M77.989,456.184c0-.716.211-1.09.632-1.09H93.6a.272.272,0,1,1,0,.544H79.084C78.607,455.638,78.189,455.628,77.989,456.184Z" transform="translate(-77.737 -392.52)" fill="#fce3a8"/>
        <path id="Path_77995" data-name="Path 77995" d="M176.148,324.738l-2.233.537v-9.806h2.233Z" transform="translate(-159.991 -272.797)" fill="#1a1a1a"/>
        <path id="Path_77996" data-name="Path 77996" d="M500.25,317.761h-2.175l-.242-4.749,2.882,1.826Z" transform="translate(-437.737 -270.691)" fill="#1a1818"/>
        <path id="Path_77997" data-name="Path 77997" d="M503.509,320.359a1.456,1.456,0,1,0,1.9,1.207Z" transform="translate(-441.761 -276.99)" fill="#1a1818"/>
        <path id="Path_77998" data-name="Path 77998" d="M508.621,329.987a.812.812,0,1,1-1.625,0h.276a.537.537,0,1,0,1.074,0Z" transform="translate(-445.595 -285.246)" fill="url(#linear-gradient-10)"/>
        <g id="Group_5633" data-name="Group 5633" transform="translate(74.468 65.541)">
          <g id="Group_5629" data-name="Group 5629">
            <g id="Group_5628" data-name="Group 5628">
              <path id="Path_77999" data-name="Path 77999" d="M612.686,484.806c.031-.125.06-.251.084-.379.046.03.091.061.135.093a7.221,7.221,0,0,0,.117-.859q-.071-.034-.143-.066.013-.193.017-.389c.049.021.1.043.146.067,0-.058,0-.117,0-.175q0-.349-.034-.688c-.05-.015-.1-.028-.154-.04-.014-.128-.03-.257-.05-.386.053.013.106.026.158.041a7.2,7.2,0,0,0-.182-.847c-.053-.005-.106-.01-.159-.013-.036-.124-.075-.248-.117-.371.054,0,.109.007.162.013a7.108,7.108,0,0,0-.324-.8c-.053,0-.106.008-.16.015-.057-.116-.117-.231-.18-.345.054-.007.109-.012.163-.016a7.13,7.13,0,0,0-.462-.733c-.051.013-.1.026-.152.042-.076-.1-.155-.207-.237-.308.052-.016.1-.03.156-.043a7.119,7.119,0,0,0-.579-.643c-.048.021-.1.044-.143.068q-.139-.134-.287-.263c.048-.024.1-.047.146-.069a7.214,7.214,0,0,0-.681-.533c-.044.03-.087.06-.13.092q-.16-.108-.328-.209c.043-.033.089-.064.133-.1a7.1,7.1,0,0,0-.765-.405c-.038.037-.076.075-.113.113-.117-.052-.237-.1-.359-.149.037-.04.076-.079.114-.117a7.23,7.23,0,0,0-.822-.268c-.031.044-.062.088-.092.133-.125-.031-.252-.059-.38-.083.03-.046.061-.091.093-.135a7.118,7.118,0,0,0-.859-.117c-.023.047-.045.095-.066.143-.128-.009-.257-.015-.388-.017.021-.049.044-.1.067-.146-.059,0-.117,0-.176,0-.232,0-.462.012-.688.033-.014.051-.028.1-.04.154-.128.013-.257.03-.385.051.012-.053.026-.105.04-.158a7.16,7.16,0,0,0-.846.181c-.005.053-.01.106-.013.159-.125.036-.248.075-.371.118,0-.055.007-.109.013-.163a7.112,7.112,0,0,0-.8.323c0,.054.009.107.015.161-.116.057-.231.116-.345.18-.007-.055-.011-.109-.016-.164a7.178,7.178,0,0,0-.734.462c.013.051.027.1.042.153q-.156.113-.308.237c-.016-.052-.03-.1-.043-.156a7.253,7.253,0,0,0-.643.579c.022.048.044.1.068.144-.09.093-.177.188-.263.287-.024-.048-.048-.1-.07-.146a7.343,7.343,0,0,0-.533.681c.03.044.06.087.092.13q-.108.16-.209.328c-.033-.044-.064-.089-.095-.133a7.047,7.047,0,0,0-.405.765q.055.057.113.112c-.052.118-.1.237-.148.36-.04-.037-.078-.075-.117-.114a7.222,7.222,0,0,0-.268.822q.065.047.133.092c-.031.125-.059.251-.084.379-.046-.03-.091-.061-.135-.092a7.189,7.189,0,0,0-.117.858c.047.023.095.045.143.066-.009.129-.015.258-.017.388-.049-.021-.1-.043-.146-.066,0,.059,0,.117,0,.176,0,.232.013.462.034.688.051.015.1.028.154.041q.02.192.051.385-.08-.018-.158-.041a7,7,0,0,0,.181.847l.159.013c.036.124.074.248.117.371-.055,0-.108-.007-.162-.013a7,7,0,0,0,.323.8c.053,0,.107-.009.16-.015q.085.173.18.345l-.163.016a7.2,7.2,0,0,0,.462.733c.051-.013.1-.027.153-.042.075.1.154.207.237.308-.051.015-.1.03-.155.043a7.262,7.262,0,0,0,.579.643c.048-.021.1-.044.143-.068.093.089.189.177.287.263-.047.024-.1.047-.145.069a7.144,7.144,0,0,0,.681.533c.044-.03.087-.06.13-.092.107.072.216.142.328.209-.044.032-.088.064-.134.095a7.241,7.241,0,0,0,.765.405c.039-.037.076-.074.113-.113.118.052.237.1.36.148-.038.04-.076.079-.114.117a7.153,7.153,0,0,0,.822.268c.032-.044.063-.088.092-.133.125.031.251.059.38.084-.03.046-.061.091-.093.136a7.229,7.229,0,0,0,.859.117q.034-.071.066-.143c.128.009.258.014.388.016-.021.049-.044.1-.066.146.058,0,.117,0,.175,0,.233,0,.462-.012.688-.034.015-.051.028-.1.041-.154.128-.014.257-.03.385-.051-.012.053-.026.106-.041.158a7.1,7.1,0,0,0,.846-.181c.006-.053.01-.106.013-.159.124-.036.247-.075.371-.117,0,.054-.007.108-.013.162a7.069,7.069,0,0,0,.8-.323c0-.053-.009-.107-.015-.16q.174-.085.345-.18c.007.054.011.109.016.163a7.237,7.237,0,0,0,.733-.462c-.013-.051-.027-.1-.042-.153q.157-.113.308-.237c.016.052.03.1.043.156a7.219,7.219,0,0,0,.643-.579c-.021-.048-.044-.1-.068-.143.089-.093.178-.188.263-.287.024.048.047.1.069.145a7.347,7.347,0,0,0,.533-.681q-.045-.066-.092-.13c.072-.106.142-.216.209-.328.033.044.064.088.1.133a7.125,7.125,0,0,0,.405-.765c-.037-.038-.075-.076-.113-.112.052-.118.1-.238.149-.359.039.037.078.075.115.114a7.109,7.109,0,0,0,.269-.822C612.775,484.867,612.731,484.836,612.686,484.806Z" transform="translate(-598.673 -475.911)" fill="#1a1a1a"/>
              <g id="Group_5627" data-name="Group 5627" transform="translate(0.15 0.266)">
                <path id="Path_78000" data-name="Path 78000" d="M615.919,482.565a6.92,6.92,0,0,0-13.164,0,.537.537,0,0,0-.026.153.473.473,0,0,0,.473.473.48.48,0,0,0,.451-.32,6.049,6.049,0,0,1,5.685-4.136,5.966,5.966,0,0,1,5.682,4.14.473.473,0,0,0,.92-.158A.5.5,0,0,0,615.919,482.565Z" transform="translate(-602.301 -477.78)" fill="url(#linear-gradient-11)"/>
                <path id="Path_78001" data-name="Path 78001" d="M603.767,506.969c.027-.074.056-.145.085-.217a3.943,3.943,0,0,1-.734-.549c-.052.118-.1.237-.148.36a3.9,3.9,0,0,0,.749.552C603.734,507.066,603.749,507.018,603.767,506.969Z" transform="translate(-602.507 -502.152)" fill="#141414"/>
                <path id="Path_78002" data-name="Path 78002" d="M601.47,514.982c.013-.078.03-.153.046-.23a3.925,3.925,0,0,1-.819-.412c-.031.125-.059.251-.084.379a3.9,3.9,0,0,0,.833.414C601.454,515.082,601.461,515.032,601.47,514.982Z" transform="translate(-600.487 -509.129)" fill="#141414"/>
                <path id="Path_78003" data-name="Path 78003" d="M600.617,523.335c0-.079,0-.156.005-.234a3.9,3.9,0,0,1-.878-.264c-.009.129-.015.258-.017.388a3.907,3.907,0,0,0,.893.263C600.62,523.437,600.617,523.386,600.617,523.335Z" transform="translate(-599.728 -516.415)" fill="#141414"/>
                <path id="Path_78004" data-name="Path 78004" d="M600.935,531.781c-.014-.077-.025-.154-.036-.231a3.935,3.935,0,0,1-.91-.107q.02.192.051.385a3.912,3.912,0,0,0,.925.1C600.955,531.881,600.943,531.831,600.935,531.781Z" transform="translate(-599.952 -523.793)" fill="#141414"/>
                <path id="Path_78005" data-name="Path 78005" d="M602.613,539.746c-.027-.074-.051-.148-.074-.222a3.948,3.948,0,0,1-.915.052c.036.124.074.248.117.371a3.92,3.92,0,0,0,.929-.059C602.651,539.841,602.631,539.794,602.613,539.746Z" transform="translate(-601.353 -530.723)" fill="#141414"/>
                <path id="Path_78006" data-name="Path 78006" d="M605.7,546.657c-.039-.068-.076-.137-.112-.205a3.941,3.941,0,0,1-.893.21q.085.173.18.345a3.909,3.909,0,0,0,.9-.219C605.756,546.744,605.728,546.7,605.7,546.657Z" transform="translate(-603.99 -536.664)" fill="#141414"/>
                <path id="Path_78007" data-name="Path 78007" d="M610.113,552.95c-.051-.06-.1-.122-.146-.183a3.923,3.923,0,0,1-.842.362c.075.1.154.207.236.308a3.893,3.893,0,0,0,.853-.373C610.181,553.026,610.146,552.989,610.113,552.95Z" transform="translate(-607.786 -542.079)" fill="#141414"/>
                <path id="Path_78008" data-name="Path 78008" d="M615.7,558.433c-.06-.051-.118-.1-.175-.155a3.892,3.892,0,0,1-.767.5c.093.089.189.177.287.263a3.92,3.92,0,0,0,.776-.515C615.784,558.5,615.743,558.466,615.7,558.433Z" transform="translate(-612.618 -546.804)" fill="#141414"/>
                <path id="Path_78009" data-name="Path 78009" d="M622.312,562.943c-.068-.039-.134-.081-.2-.122a3.93,3.93,0,0,1-.667.628c.107.072.216.142.328.209a3.913,3.913,0,0,0,.674-.642C622.4,562.992,622.357,562.969,622.312,562.943Z" transform="translate(-618.35 -550.7)" fill="#141414"/>
                <path id="Path_78010" data-name="Path 78010" d="M629.734,566.34c-.074-.027-.146-.056-.218-.085a3.913,3.913,0,0,1-.548.735c.118.052.237.1.359.148a3.94,3.94,0,0,0,.552-.749C629.831,566.372,629.782,566.358,629.734,566.34Z" transform="translate(-624.8 -553.644)" fill="#141414"/>
                <path id="Path_78011" data-name="Path 78011" d="M637.745,568.519c-.078-.013-.154-.03-.229-.046a3.914,3.914,0,0,1-.412.819c.125.031.251.059.38.084a3.892,3.892,0,0,0,.414-.833C637.845,568.534,637.8,568.529,637.745,568.519Z" transform="translate(-631.776 -555.546)" fill="#141414"/>
                <path id="Path_78012" data-name="Path 78012" d="M646.1,569.42c-.079,0-.157,0-.234-.006a3.923,3.923,0,0,1-.264.878q.192.013.388.016a3.909,3.909,0,0,0,.263-.893C646.2,569.417,646.151,569.42,646.1,569.42Z" transform="translate(-639.063 -556.353)" fill="#141414"/>
                <path id="Path_78013" data-name="Path 78013" d="M654.545,568.614c-.078.014-.155.024-.232.035a3.9,3.9,0,0,1-.107.911c.128-.014.257-.03.385-.051a3.971,3.971,0,0,0,.1-.925C654.644,568.594,654.6,568.605,654.545,568.614Z" transform="translate(-646.441 -555.641)" fill="#141414"/>
                <path id="Path_78014" data-name="Path 78014" d="M662.508,566.513c-.074.027-.148.051-.222.075a3.9,3.9,0,0,1,.052.916c.124-.036.247-.075.371-.117a3.9,3.9,0,0,0-.058-.929C662.6,566.476,662.556,566.5,662.508,566.513Z" transform="translate(-653.369 -553.817)" fill="#141414"/>
                <path id="Path_78015" data-name="Path 78015" d="M669.419,563.192c-.068.04-.137.076-.206.112a3.908,3.908,0,0,1,.211.892q.174-.085.345-.18a3.943,3.943,0,0,0-.218-.905C669.506,563.139,669.463,563.167,669.419,563.192Z" transform="translate(-659.309 -550.949)" fill="#141414"/>
                <path id="Path_78016" data-name="Path 78016" d="M675.713,558.751c-.06.051-.122.1-.183.146a3.927,3.927,0,0,1,.362.842q.157-.113.308-.237a3.928,3.928,0,0,0-.373-.853C675.79,558.683,675.752,558.718,675.713,558.751Z" transform="translate(-664.726 -547.122)" fill="#141414"/>
                <path id="Path_78017" data-name="Path 78017" d="M681.2,553.323c-.05.061-.1.118-.154.176a3.924,3.924,0,0,1,.5.767c.089-.093.177-.188.263-.287a3.978,3.978,0,0,0-.515-.776C681.264,553.243,681.233,553.284,681.2,553.323Z" transform="translate(-669.455 -542.452)" fill="#141414"/>
                <path id="Path_78018" data-name="Path 78018" d="M685.707,547.078c-.039.068-.081.134-.122.2a3.89,3.89,0,0,1,.628.667c.072-.106.142-.216.209-.328a3.934,3.934,0,0,0-.641-.674C685.755,546.988,685.733,547.033,685.707,547.078Z" transform="translate(-673.347 -537.085)" fill="#141414"/>
                <path id="Path_78019" data-name="Path 78019" d="M689.1,540.2c-.027.074-.056.146-.085.218a3.909,3.909,0,0,1,.735.548c.052-.118.1-.238.149-.359a3.931,3.931,0,0,0-.749-.552C689.135,540.1,689.12,540.153,689.1,540.2Z" transform="translate(-676.29 -531.179)" fill="#141414"/>
                <path id="Path_78020" data-name="Path 78020" d="M691.286,532.9c-.014.078-.031.154-.046.23a3.92,3.92,0,0,1,.819.412c.031-.125.059-.251.084-.379a3.906,3.906,0,0,0-.833-.414C691.3,532.8,691.3,532.851,691.286,532.9Z" transform="translate(-678.196 -524.915)" fill="#141414"/>
                <path id="Path_78021" data-name="Path 78021" d="M692.182,525.4c0,.079,0,.157-.006.234a3.911,3.911,0,0,1,.878.264q.013-.193.017-.389a3.922,3.922,0,0,0-.893-.262C692.179,525.3,692.182,525.354,692.182,525.4Z" transform="translate(-678.999 -518.486)" fill="#141414"/>
                <path id="Path_78022" data-name="Path 78022" d="M691.38,517.932c.013.078.024.155.035.232a3.92,3.92,0,0,1,.911.107c-.014-.128-.031-.257-.05-.386a3.958,3.958,0,0,0-.925-.1C691.36,517.832,691.371,517.881,691.38,517.932Z" transform="translate(-678.29 -512.08)" fill="#141414"/>
                <path id="Path_78023" data-name="Path 78023" d="M689.279,510.33c.027.074.051.148.075.222a3.878,3.878,0,0,1,.915-.052c-.036-.124-.074-.248-.117-.371a3.927,3.927,0,0,0-.929.058C689.242,510.235,689.262,510.282,689.279,510.33Z" transform="translate(-676.467 -505.513)" fill="#141414"/>
              </g>
            </g>
          </g>
          <g id="Group_5631" data-name="Group 5631" transform="translate(2.15 2.66)">
            <g id="Group_5630" data-name="Group 5630">
              <path id="Path_78024" data-name="Path 78024" d="M626.581,499.047a4.472,4.472,0,1,1-4.471-4.472A4.472,4.472,0,0,1,626.581,499.047Z" transform="translate(-617.085 -494.575)" fill="url(#linear-gradient-12)"/>
              <path id="Path_78025" data-name="Path 78025" d="M633.408,507.823a2.455,2.455,0,1,1-2.454-2.456A2.455,2.455,0,0,1,633.408,507.823Zm-2.454-3a3,3,0,1,0,3,3A3,3,0,0,0,630.953,504.823Z" transform="translate(-625.929 -503.362)" fill="url(#linear-gradient-13)"/>
              <path id="Path_78026" data-name="Path 78026" d="M638.2,513.147a1.757,1.757,0,1,1-1.757-1.757A1.758,1.758,0,0,1,638.2,513.147Zm-1.755-2.129a2.117,2.117,0,1,0,2.118,2.117A2.117,2.117,0,0,0,636.447,511.018Z" transform="translate(-631.398 -508.674)" fill="url(#linear-gradient-14)"/>
              <path id="Path_78027" data-name="Path 78027" d="M623.765,545.252a6.03,6.03,0,0,1-4.982,2.629,5.941,5.941,0,0,1-4.975-2.619.334.334,0,0,1-.051-.186.345.345,0,0,1,.631-.193,5.284,5.284,0,0,0,4.4,2.3,5.361,5.361,0,0,0,4.4-2.31.342.342,0,0,1,.627.192A.321.321,0,0,1,623.765,545.252Z" transform="translate(-613.758 -537.576)" fill="url(#linear-gradient-11)"/>
            </g>
          </g>
          <g id="Group_5632" data-name="Group 5632" transform="translate(3.072 3.029)">
            <path id="Path_78028" data-name="Path 78028" d="M646.624,497.862a.158.158,0,0,0,.168.145s.034,0,.129,0,.128,0,.128,0a.158.158,0,0,0,.167-.145l.05-.523a.155.155,0,0,0-.143-.17s-.081-.007-.2-.007-.2.007-.2.007a.155.155,0,0,0-.143.17Z" transform="translate(-642.817 -497.162)" fill="#313133"/>
            <path id="Path_78029" data-name="Path 78029" d="M633.26,501.106a.158.158,0,0,0,.218.042s.028-.019.11-.067.112-.061.112-.061a.158.158,0,0,0,.072-.21l-.218-.477a.156.156,0,0,0-.209-.076s-.072.035-.178.1-.173.107-.173.107a.154.154,0,0,0-.038.219Z" transform="translate(-631.115 -499.802)" fill="#313133"/>
            <path id="Path_78030" data-name="Path 78030" d="M623.869,510.718a.159.159,0,0,0,.21-.072s.014-.031.061-.113.067-.109.067-.109a.159.159,0,0,0-.042-.218l-.429-.3a.155.155,0,0,0-.219.038s-.045.066-.106.172-.1.179-.1.179a.155.155,0,0,0,.076.21Z" transform="translate(-622.861 -508.061)" fill="#313133"/>
            <path id="Path_78031" data-name="Path 78031" d="M620.927,524.161a.159.159,0,0,0,.145-.168s0-.034,0-.129,0-.127,0-.127a.159.159,0,0,0-.145-.168l-.523-.05a.155.155,0,0,0-.171.143s-.006.08-.006.2.006.2.006.2a.156.156,0,0,0,.171.143Z" transform="translate(-620.227 -519.762)" fill="#313133"/>
            <path id="Path_78032" data-name="Path 78032" d="M624.169,536.511a.158.158,0,0,0,.042-.218s-.019-.028-.067-.11-.061-.112-.061-.112a.159.159,0,0,0-.21-.073l-.477.219a.156.156,0,0,0-.076.21s.035.072.1.178.107.173.107.173a.155.155,0,0,0,.22.039Z" transform="translate(-622.865 -530.451)" fill="#313133"/>
            <path id="Path_78033" data-name="Path 78033" d="M633.781,545.469a.159.159,0,0,0-.072-.21s-.031-.014-.113-.061-.109-.067-.109-.067a.16.16,0,0,0-.219.042l-.3.428a.155.155,0,0,0,.039.219s.066.045.172.107.18.1.18.1a.155.155,0,0,0,.209-.076Z" transform="translate(-631.124 -538.271)" fill="#313133"/>
            <path id="Path_78034" data-name="Path 78034" d="M647.226,548.943a.159.159,0,0,0-.167-.146s-.034,0-.128,0-.128,0-.128,0a.159.159,0,0,0-.168.145l-.049.523a.155.155,0,0,0,.143.171s.08.006.2.006.2-.006.2-.006a.155.155,0,0,0,.143-.171Z" transform="translate(-642.827 -541.437)" fill="#313133"/>
            <path id="Path_78035" data-name="Path 78035" d="M659.573,545.172a.159.159,0,0,0-.218-.042s-.028.019-.11.067-.112.061-.112.061a.16.16,0,0,0-.073.21l.219.477a.155.155,0,0,0,.209.076s.073-.034.179-.1.173-.107.173-.107a.155.155,0,0,0,.039-.22Z" transform="translate(-653.512 -538.27)" fill="#313133"/>
            <path id="Path_78036" data-name="Path 78036" d="M668.533,536a.159.159,0,0,0-.21.072s-.015.031-.062.113-.066.109-.066.109a.16.16,0,0,0,.042.219l.428.3a.154.154,0,0,0,.219-.039s.046-.066.107-.171.1-.18.1-.18a.155.155,0,0,0-.076-.209Z" transform="translate(-661.334 -530.45)" fill="#313133"/>
            <path id="Path_78037" data-name="Path 78037" d="M672.006,523.561a.159.159,0,0,0-.146.168s0,.033,0,.128,0,.128,0,.128a.159.159,0,0,0,.146.168l.523.049a.154.154,0,0,0,.169-.144s.007-.079.007-.2-.006-.2-.006-.2a.156.156,0,0,0-.17-.143Z" transform="translate(-664.501 -519.754)" fill="#313133"/>
            <path id="Path_78038" data-name="Path 78038" d="M668.236,510.2a.159.159,0,0,0-.042.218s.019.028.067.11.061.112.061.112a.16.16,0,0,0,.211.073l.477-.219a.155.155,0,0,0,.076-.209s-.035-.072-.1-.178-.107-.173-.107-.173a.156.156,0,0,0-.22-.039Z" transform="translate(-661.334 -508.054)" fill="#313133"/>
            <path id="Path_78039" data-name="Path 78039" d="M659.062,500.8a.159.159,0,0,0,.072.211s.031.014.112.061.109.066.109.066a.16.16,0,0,0,.219-.042l.3-.428a.156.156,0,0,0-.039-.219s-.066-.045-.172-.107-.18-.1-.18-.1a.156.156,0,0,0-.209.076Z" transform="translate(-653.514 -499.796)" fill="#313133"/>
          </g>
          <path id="Path_78040" data-name="Path 78040" d="M648.169,477.856c.079,0,.156,0,.234.006a3.946,3.946,0,0,1,.263-.878q-.193-.014-.388-.017a3.911,3.911,0,0,0-.263.892C648.067,477.858,648.118,477.856,648.169,477.856Z" transform="translate(-640.983 -476.817)" fill="#141414"/>
          <path id="Path_78041" data-name="Path 78041" d="M640.7,478.171c.077-.014.155-.024.232-.035a3.91,3.91,0,0,1,.107-.91c-.128.013-.257.03-.385.051a3.885,3.885,0,0,0-.1.925C640.6,478.192,640.647,478.18,640.7,478.171Z" transform="translate(-634.578 -477.039)" fill="#141414"/>
          <path id="Path_78042" data-name="Path 78042" d="M633.094,479.847c.074-.026.148-.051.222-.074a3.884,3.884,0,0,1-.053-.916c-.124.036-.248.075-.371.118a3.9,3.9,0,0,0,.059.928C633,479.885,633.046,479.865,633.094,479.847Z" transform="translate(-628.01 -478.437)" fill="#141414"/>
          <path id="Path_78043" data-name="Path 78043" d="M625.426,482.94c.068-.039.136-.076.205-.112a3.911,3.911,0,0,1-.211-.892c-.116.057-.231.116-.345.18a3.89,3.89,0,0,0,.218.9C625.339,482.993,625.381,482.966,625.426,482.94Z" transform="translate(-621.313 -481.077)" fill="#141414"/>
          <path id="Path_78044" data-name="Path 78044" d="M618.436,487.349c.061-.05.122-.1.183-.146a3.894,3.894,0,0,1-.362-.842q-.157.114-.308.237a3.912,3.912,0,0,0,.373.853C618.36,487.417,618.4,487.382,618.436,487.349Z" transform="translate(-615.201 -484.871)" fill="#141414"/>
          <path id="Path_78045" data-name="Path 78045" d="M612.382,492.941c.05-.06.1-.118.155-.175a3.9,3.9,0,0,1-.5-.767c-.09.093-.177.188-.263.287a3.9,3.9,0,0,0,.515.776C612.318,493.021,612.349,492.98,612.382,492.941Z" transform="translate(-609.904 -489.706)" fill="#141414"/>
          <path id="Path_78046" data-name="Path 78046" d="M607.442,499.549c.039-.068.081-.134.122-.2a3.894,3.894,0,0,1-.628-.667q-.108.16-.209.328a3.971,3.971,0,0,0,.642.674C607.393,499.639,607.416,499.594,607.442,499.549Z" transform="translate(-605.579 -495.436)" fill="#141414"/>
          <path id="Path_78047" data-name="Path 78047" d="M685.958,502.66c.039.068.076.138.112.206a3.916,3.916,0,0,1,.892-.211c-.057-.116-.117-.231-.18-.345a3.927,3.927,0,0,0-.9.219C685.9,502.574,685.932,502.616,685.958,502.66Z" transform="translate(-673.448 -498.548)" fill="#141414"/>
          <path id="Path_78048" data-name="Path 78048" d="M681.514,495.673c.051.061.1.123.146.183a3.894,3.894,0,0,1,.843-.362c-.076-.1-.155-.207-.237-.308a3.9,3.9,0,0,0-.853.373C681.447,495.6,681.482,495.634,681.514,495.673Z" transform="translate(-669.619 -492.439)" fill="#141414"/>
          <path id="Path_78049" data-name="Path 78049" d="M676.091,489.617c.06.051.118.1.175.156a3.928,3.928,0,0,1,.767-.5q-.139-.134-.287-.263a3.938,3.938,0,0,0-.775.515C676.011,489.554,676.052,489.584,676.091,489.617Z" transform="translate(-664.953 -487.14)" fill="#141414"/>
          <path id="Path_78050" data-name="Path 78050" d="M669.844,484.677c.068.039.134.081.2.122a3.925,3.925,0,0,1,.667-.628q-.16-.108-.328-.209a3.936,3.936,0,0,0-.674.642C669.754,484.629,669.8,484.652,669.844,484.677Z" transform="translate(-659.584 -482.814)" fill="#141414"/>
          <path id="Path_78051" data-name="Path 78051" d="M662.966,481c.074.027.146.057.218.086a3.915,3.915,0,0,1,.548-.735c-.117-.052-.237-.1-.359-.149a3.926,3.926,0,0,0-.552.749C662.869,480.971,662.918,480.986,662.966,481Z" transform="translate(-653.678 -479.593)" fill="#141414"/>
          <path id="Path_78052" data-name="Path 78052" d="M655.665,478.706c.078.013.154.03.23.046a3.943,3.943,0,0,1,.413-.819c-.125-.031-.252-.059-.38-.084a3.94,3.94,0,0,0-.414.833C655.564,478.692,655.615,478.7,655.665,478.706Z" transform="translate(-647.411 -477.574)" fill="#141414"/>
        </g>
        <g id="Group_5640" data-name="Group 5640" transform="translate(12.148 65.541)">
          <g id="Group_5636" data-name="Group 5636">
            <g id="Group_5635" data-name="Group 5635">
              <path id="Path_78053" data-name="Path 78053" d="M175.461,484.806c.031-.125.059-.251.084-.379.046.03.091.061.135.093a7.193,7.193,0,0,0,.117-.859q-.071-.034-.143-.066.014-.193.017-.389c.049.021.1.043.146.067,0-.058,0-.117,0-.175,0-.232-.012-.462-.034-.688-.05-.015-.1-.028-.154-.04-.014-.128-.031-.257-.05-.386.053.013.105.026.158.041a7.171,7.171,0,0,0-.182-.847c-.053-.005-.106-.01-.159-.013-.036-.124-.075-.248-.117-.371.054,0,.108.007.162.013a7.062,7.062,0,0,0-.324-.8c-.053,0-.106.008-.16.015-.057-.116-.117-.231-.18-.345.054-.007.109-.012.163-.016a7.15,7.15,0,0,0-.462-.733c-.051.013-.1.026-.152.042-.076-.1-.155-.207-.237-.308.052-.016.1-.03.156-.043a7.137,7.137,0,0,0-.579-.643c-.048.021-.1.044-.143.068q-.139-.134-.287-.263c.048-.024.1-.047.145-.069a7.212,7.212,0,0,0-.681-.533c-.044.03-.087.06-.13.092q-.16-.108-.328-.209c.043-.033.088-.064.133-.1a7.076,7.076,0,0,0-.765-.405c-.038.037-.076.075-.112.113-.117-.052-.237-.1-.359-.149.037-.04.075-.079.114-.117a7.235,7.235,0,0,0-.822-.268c-.032.044-.062.088-.092.133-.125-.031-.252-.059-.38-.083.03-.046.061-.091.093-.135a7.124,7.124,0,0,0-.859-.117c-.023.047-.045.095-.066.143-.128-.009-.257-.015-.388-.017.021-.049.043-.1.067-.146-.059,0-.117,0-.176,0-.232,0-.462.012-.688.033-.014.051-.028.1-.04.154-.128.013-.257.03-.385.051.012-.053.026-.105.04-.158a7.156,7.156,0,0,0-.847.181c-.005.053-.01.106-.013.159-.124.036-.248.075-.371.118,0-.055.007-.109.013-.163a7.115,7.115,0,0,0-.8.323c0,.054.009.107.015.161-.116.057-.231.116-.345.18-.007-.055-.012-.109-.016-.164a7.157,7.157,0,0,0-.733.462c.013.051.027.1.042.153q-.157.113-.308.237c-.016-.052-.03-.1-.043-.156a7.258,7.258,0,0,0-.643.579c.022.048.044.1.068.144-.09.093-.177.188-.263.287-.024-.048-.048-.1-.07-.146a7.367,7.367,0,0,0-.533.681c.03.044.06.087.092.13q-.108.16-.209.328c-.033-.044-.064-.089-.095-.133a7.032,7.032,0,0,0-.405.765c.037.038.075.075.113.112-.052.118-.1.237-.148.36q-.059-.056-.116-.114a7.177,7.177,0,0,0-.268.822q.065.047.133.092c-.031.125-.059.251-.084.379-.046-.03-.091-.061-.135-.092a7.226,7.226,0,0,0-.117.858c.047.023.095.045.143.066-.009.129-.015.258-.017.388-.049-.021-.1-.043-.146-.066,0,.059,0,.117,0,.176,0,.232.013.462.034.688.051.015.1.028.154.041q.02.192.051.385-.08-.018-.158-.041a6.964,6.964,0,0,0,.181.847l.159.013c.036.124.075.248.117.371-.055,0-.109-.007-.162-.013a6.965,6.965,0,0,0,.323.8c.053,0,.107-.009.16-.015q.085.173.18.345l-.163.016a7.192,7.192,0,0,0,.462.733c.051-.013.1-.027.153-.042q.113.156.237.308c-.051.015-.1.03-.155.043a7.262,7.262,0,0,0,.579.643c.048-.021.1-.044.143-.068.093.089.189.177.287.263-.047.024-.1.047-.145.069a7.155,7.155,0,0,0,.681.533c.044-.03.087-.06.13-.092.107.072.216.142.328.209-.044.032-.088.064-.134.095a7.256,7.256,0,0,0,.765.405c.039-.037.076-.074.113-.113.118.052.237.1.36.148q-.057.06-.114.117a7.154,7.154,0,0,0,.822.268c.032-.044.063-.088.093-.133.125.031.251.059.379.084-.03.046-.061.091-.093.136a7.224,7.224,0,0,0,.859.117q.034-.071.066-.143c.128.009.258.014.388.016-.021.049-.043.1-.066.146.058,0,.116,0,.175,0,.233,0,.462-.012.688-.034.015-.051.029-.1.041-.154.128-.014.257-.03.385-.051-.012.053-.026.106-.041.158a7.1,7.1,0,0,0,.847-.181c.005-.053.01-.106.013-.159.124-.036.247-.075.371-.117,0,.054-.007.108-.013.162a7.063,7.063,0,0,0,.8-.323c0-.053-.009-.107-.015-.16q.174-.085.345-.18c.007.054.012.109.016.163a7.251,7.251,0,0,0,.733-.462c-.013-.051-.027-.1-.042-.153q.157-.113.308-.237c.016.052.03.1.043.156a7.228,7.228,0,0,0,.643-.579c-.021-.048-.044-.1-.068-.143.089-.093.177-.188.263-.287.024.048.047.1.069.145a7.322,7.322,0,0,0,.533-.681q-.045-.066-.092-.13c.072-.106.142-.216.209-.328.033.044.065.088.1.133a7.106,7.106,0,0,0,.405-.765c-.037-.038-.075-.076-.113-.112.052-.118.1-.238.149-.359.039.037.078.075.115.114a7.083,7.083,0,0,0,.269-.822C175.55,484.867,175.506,484.836,175.461,484.806Z" transform="translate(-161.448 -475.911)" fill="#1a1a1a"/>
              <g id="Group_5634" data-name="Group 5634" transform="translate(0.151 0.266)">
                <path id="Path_78054" data-name="Path 78054" d="M178.695,482.565a6.92,6.92,0,0,0-13.164,0,.542.542,0,0,0-.026.153.473.473,0,0,0,.473.473.48.48,0,0,0,.451-.32,6.049,6.049,0,0,1,5.685-4.136,5.966,5.966,0,0,1,5.682,4.14.474.474,0,0,0,.92-.158A.5.5,0,0,0,178.695,482.565Z" transform="translate(-165.077 -477.78)" fill="url(#linear-gradient-11)"/>
                <path id="Path_78055" data-name="Path 78055" d="M166.542,506.969c.026-.074.056-.145.085-.217a3.945,3.945,0,0,1-.734-.549c-.052.118-.1.237-.148.36a3.9,3.9,0,0,0,.749.552C166.509,507.066,166.524,507.018,166.542,506.969Z" transform="translate(-165.282 -502.152)" fill="#141414"/>
                <path id="Path_78056" data-name="Path 78056" d="M164.246,514.982c.013-.078.03-.153.046-.23a3.923,3.923,0,0,1-.819-.412c-.031.125-.059.251-.084.379a3.9,3.9,0,0,0,.833.414C164.23,515.082,164.236,515.032,164.246,514.982Z" transform="translate(-163.263 -509.129)" fill="#141414"/>
                <path id="Path_78057" data-name="Path 78057" d="M163.393,523.335c0-.079,0-.156.005-.234a3.9,3.9,0,0,1-.878-.264c-.009.129-.015.258-.017.388a3.9,3.9,0,0,0,.893.263C163.4,523.437,163.393,523.386,163.393,523.335Z" transform="translate(-162.504 -516.415)" fill="#141414"/>
                <path id="Path_78058" data-name="Path 78058" d="M163.711,531.781c-.014-.077-.025-.154-.035-.231a3.933,3.933,0,0,1-.91-.107q.02.192.051.385a3.914,3.914,0,0,0,.925.1C163.731,531.881,163.719,531.831,163.711,531.781Z" transform="translate(-162.728 -523.793)" fill="#141414"/>
                <path id="Path_78059" data-name="Path 78059" d="M165.388,539.746c-.027-.074-.051-.148-.075-.222a3.948,3.948,0,0,1-.916.052c.036.124.075.248.117.371a3.919,3.919,0,0,0,.929-.059C165.426,539.841,165.406,539.794,165.388,539.746Z" transform="translate(-164.128 -530.723)" fill="#141414"/>
                <path id="Path_78060" data-name="Path 78060" d="M168.478,546.657c-.039-.068-.076-.137-.112-.205a3.94,3.94,0,0,1-.892.21q.085.173.18.345a3.91,3.91,0,0,0,.9-.219C168.532,546.744,168.5,546.7,168.478,546.657Z" transform="translate(-166.766 -536.664)" fill="#141414"/>
                <path id="Path_78061" data-name="Path 78061" d="M172.888,552.95c-.051-.06-.1-.122-.146-.183a3.925,3.925,0,0,1-.842.362q.113.157.237.308a3.9,3.9,0,0,0,.853-.373C172.956,553.026,172.921,552.989,172.888,552.95Z" transform="translate(-170.561 -542.079)" fill="#141414"/>
                <path id="Path_78062" data-name="Path 78062" d="M178.478,558.433c-.06-.051-.118-.1-.175-.155a3.887,3.887,0,0,1-.767.5c.093.089.189.177.287.263a3.915,3.915,0,0,0,.775-.515C178.558,558.5,178.518,558.466,178.478,558.433Z" transform="translate(-175.393 -546.804)" fill="#141414"/>
                <path id="Path_78063" data-name="Path 78063" d="M185.088,562.943c-.068-.039-.134-.081-.2-.122a3.928,3.928,0,0,1-.667.628c.107.072.216.142.328.209a3.916,3.916,0,0,0,.674-.642C185.178,562.992,185.133,562.969,185.088,562.943Z" transform="translate(-181.126 -550.7)" fill="#141414"/>
                <path id="Path_78064" data-name="Path 78064" d="M192.509,566.34c-.074-.027-.146-.056-.218-.085a3.926,3.926,0,0,1-.548.735c.118.052.237.1.36.148a3.953,3.953,0,0,0,.552-.749C192.606,566.372,192.557,566.358,192.509,566.34Z" transform="translate(-187.575 -553.644)" fill="#141414"/>
                <path id="Path_78065" data-name="Path 78065" d="M200.521,568.519c-.078-.013-.154-.03-.229-.046a3.915,3.915,0,0,1-.412.819c.125.031.251.059.379.084a3.886,3.886,0,0,0,.414-.833C200.621,568.534,200.571,568.529,200.521,568.519Z" transform="translate(-194.552 -555.546)" fill="#141414"/>
                <path id="Path_78066" data-name="Path 78066" d="M208.876,569.42c-.079,0-.157,0-.234-.006a3.918,3.918,0,0,1-.264.878c.128.009.258.014.388.016a3.917,3.917,0,0,0,.263-.893C208.978,569.417,208.927,569.42,208.876,569.42Z" transform="translate(-201.839 -556.353)" fill="#141414"/>
                <path id="Path_78067" data-name="Path 78067" d="M217.32,568.614c-.078.014-.155.024-.232.035a3.9,3.9,0,0,1-.107.911c.128-.014.257-.03.385-.051a3.956,3.956,0,0,0,.1-.925C217.419,568.594,217.37,568.605,217.32,568.614Z" transform="translate(-209.216 -555.641)" fill="#141414"/>
                <path id="Path_78068" data-name="Path 78068" d="M225.283,566.513c-.074.027-.148.051-.222.075a3.9,3.9,0,0,1,.052.916c.124-.036.247-.075.371-.117a3.9,3.9,0,0,0-.058-.929C225.378,566.476,225.331,566.5,225.283,566.513Z" transform="translate(-216.144 -553.817)" fill="#141414"/>
                <path id="Path_78069" data-name="Path 78069" d="M232.194,563.192c-.069.04-.137.076-.206.112a3.9,3.9,0,0,1,.211.892q.174-.085.345-.18a3.943,3.943,0,0,0-.219-.905C232.281,563.139,232.238,563.167,232.194,563.192Z" transform="translate(-222.084 -550.949)" fill="#141414"/>
                <path id="Path_78070" data-name="Path 78070" d="M238.489,558.751c-.06.051-.122.1-.183.146a3.936,3.936,0,0,1,.362.842q.157-.113.308-.237a3.923,3.923,0,0,0-.373-.853C238.565,558.683,238.528,558.718,238.489,558.751Z" transform="translate(-227.501 -547.122)" fill="#141414"/>
                <path id="Path_78071" data-name="Path 78071" d="M243.975,553.323c-.05.061-.1.118-.154.176a3.926,3.926,0,0,1,.5.767c.089-.093.177-.188.263-.287a3.961,3.961,0,0,0-.515-.776C244.039,553.243,244.008,553.284,243.975,553.323Z" transform="translate(-232.23 -542.452)" fill="#141414"/>
                <path id="Path_78072" data-name="Path 78072" d="M248.482,547.078c-.039.068-.081.134-.122.2a3.889,3.889,0,0,1,.628.667c.072-.106.142-.216.209-.328a3.935,3.935,0,0,0-.641-.674C248.53,546.988,248.508,547.033,248.482,547.078Z" transform="translate(-236.122 -537.085)" fill="#141414"/>
                <path id="Path_78073" data-name="Path 78073" d="M251.878,540.2c-.027.074-.057.146-.086.218a3.907,3.907,0,0,1,.735.548c.052-.118.1-.238.149-.359a3.919,3.919,0,0,0-.749-.552C251.909,540.1,251.9,540.153,251.878,540.2Z" transform="translate(-239.065 -531.179)" fill="#141414"/>
                <path id="Path_78074" data-name="Path 78074" d="M254.062,532.9c-.014.078-.031.154-.046.23a3.928,3.928,0,0,1,.819.412c.031-.125.059-.251.084-.379a3.905,3.905,0,0,0-.833-.414C254.077,532.8,254.071,532.851,254.062,532.9Z" transform="translate(-240.972 -524.915)" fill="#141414"/>
                <path id="Path_78075" data-name="Path 78075" d="M254.957,525.4c0,.079,0,.157-.006.234a3.909,3.909,0,0,1,.878.264q.014-.193.017-.389a3.92,3.92,0,0,0-.893-.262C254.954,525.3,254.957,525.354,254.957,525.4Z" transform="translate(-241.774 -518.486)" fill="#141414"/>
                <path id="Path_78076" data-name="Path 78076" d="M254.156,517.932c.013.078.024.155.035.232a3.921,3.921,0,0,1,.911.107c-.014-.128-.03-.257-.05-.386a3.956,3.956,0,0,0-.925-.1C254.135,517.832,254.146,517.881,254.156,517.932Z" transform="translate(-241.066 -512.08)" fill="#141414"/>
                <path id="Path_78077" data-name="Path 78077" d="M252.054,510.33c.027.074.05.148.075.222a3.88,3.88,0,0,1,.915-.052c-.036-.124-.075-.248-.117-.371a3.928,3.928,0,0,0-.929.058C252.017,510.235,252.037,510.282,252.054,510.33Z" transform="translate(-239.242 -505.513)" fill="#141414"/>
              </g>
            </g>
          </g>
          <g id="Group_5638" data-name="Group 5638" transform="translate(2.15 2.66)">
            <g id="Group_5637" data-name="Group 5637">
              <path id="Path_78078" data-name="Path 78078" d="M189.356,499.047a4.472,4.472,0,1,1-4.471-4.472A4.471,4.471,0,0,1,189.356,499.047Z" transform="translate(-179.86 -494.575)" fill="url(#linear-gradient-12)"/>
              <path id="Path_78079" data-name="Path 78079" d="M196.183,507.823a2.455,2.455,0,1,1-2.454-2.456A2.455,2.455,0,0,1,196.183,507.823Zm-2.454-3a3,3,0,1,0,3,3A3,3,0,0,0,193.728,504.823Z" transform="translate(-188.704 -503.362)" fill="url(#linear-gradient-13)"/>
              <path id="Path_78080" data-name="Path 78080" d="M200.977,513.147a1.757,1.757,0,1,1-1.757-1.757A1.758,1.758,0,0,1,200.977,513.147Zm-1.755-2.129a2.117,2.117,0,1,0,2.118,2.117A2.117,2.117,0,0,0,199.222,511.018Z" transform="translate(-194.173 -508.674)" fill="url(#linear-gradient-14)"/>
              <path id="Path_78081" data-name="Path 78081" d="M186.54,545.252a6.029,6.029,0,0,1-4.982,2.629,5.941,5.941,0,0,1-4.975-2.619.334.334,0,0,1-.051-.186.345.345,0,0,1,.631-.193,5.284,5.284,0,0,0,4.4,2.3,5.36,5.36,0,0,0,4.4-2.31.342.342,0,0,1,.627.192A.321.321,0,0,1,186.54,545.252Z" transform="translate(-176.533 -537.576)" fill="url(#linear-gradient-11)"/>
            </g>
          </g>
          <g id="Group_5639" data-name="Group 5639" transform="translate(3.072 3.029)">
            <path id="Path_78082" data-name="Path 78082" d="M209.4,497.862a.158.158,0,0,0,.168.145s.034,0,.129,0,.128,0,.128,0a.158.158,0,0,0,.167-.145l.05-.523a.155.155,0,0,0-.143-.17s-.081-.007-.2-.007-.2.007-.2.007a.155.155,0,0,0-.143.17Z" transform="translate(-205.592 -497.162)" fill="#313133"/>
            <path id="Path_78083" data-name="Path 78083" d="M196.035,501.106a.158.158,0,0,0,.218.042s.028-.019.11-.067.112-.061.112-.061a.158.158,0,0,0,.072-.21l-.218-.477a.155.155,0,0,0-.209-.076s-.072.035-.178.1-.173.107-.173.107a.154.154,0,0,0-.038.219Z" transform="translate(-193.89 -499.802)" fill="#313133"/>
            <path id="Path_78084" data-name="Path 78084" d="M186.644,510.718a.159.159,0,0,0,.21-.072s.014-.031.061-.113.066-.109.066-.109a.159.159,0,0,0-.042-.218l-.428-.3a.155.155,0,0,0-.219.038s-.045.066-.106.172-.1.179-.1.179a.155.155,0,0,0,.076.21Z" transform="translate(-185.636 -508.061)" fill="#313133"/>
            <path id="Path_78085" data-name="Path 78085" d="M183.7,524.161a.159.159,0,0,0,.146-.168s0-.034,0-.129,0-.127,0-.127a.159.159,0,0,0-.146-.168l-.523-.05a.155.155,0,0,0-.171.143s-.006.08-.006.2.006.2.006.2a.156.156,0,0,0,.171.143Z" transform="translate(-183.002 -519.762)" fill="#313133"/>
            <path id="Path_78086" data-name="Path 78086" d="M186.944,536.511a.158.158,0,0,0,.042-.218s-.019-.028-.067-.11-.061-.112-.061-.112a.16.16,0,0,0-.21-.073l-.477.219a.156.156,0,0,0-.076.21s.035.072.1.178.107.173.107.173a.155.155,0,0,0,.219.039Z" transform="translate(-185.64 -530.451)" fill="#313133"/>
            <path id="Path_78087" data-name="Path 78087" d="M196.557,545.469a.159.159,0,0,0-.072-.21s-.031-.014-.113-.061-.109-.067-.109-.067a.159.159,0,0,0-.218.042l-.3.428a.155.155,0,0,0,.038.219s.066.045.172.107.18.1.18.1a.155.155,0,0,0,.209-.076Z" transform="translate(-193.9 -538.271)" fill="#313133"/>
            <path id="Path_78088" data-name="Path 78088" d="M210,548.943a.159.159,0,0,0-.167-.146s-.034,0-.128,0-.128,0-.128,0a.159.159,0,0,0-.168.145l-.049.523a.155.155,0,0,0,.143.171s.08.006.2.006.2-.006.2-.006a.155.155,0,0,0,.143-.171Z" transform="translate(-205.602 -541.437)" fill="#313133"/>
            <path id="Path_78089" data-name="Path 78089" d="M222.348,545.172a.159.159,0,0,0-.218-.042s-.028.019-.11.067-.112.061-.112.061a.16.16,0,0,0-.073.21l.219.477a.155.155,0,0,0,.209.076s.073-.034.179-.1.173-.107.173-.107a.155.155,0,0,0,.039-.22Z" transform="translate(-216.287 -538.27)" fill="#313133"/>
            <path id="Path_78090" data-name="Path 78090" d="M231.309,536a.159.159,0,0,0-.21.072s-.015.031-.062.113-.066.109-.066.109a.16.16,0,0,0,.042.219l.428.3a.154.154,0,0,0,.219-.039s.045-.066.107-.171.1-.18.1-.18a.155.155,0,0,0-.076-.209Z" transform="translate(-224.11 -530.45)" fill="#313133"/>
            <path id="Path_78091" data-name="Path 78091" d="M234.782,523.561a.159.159,0,0,0-.146.168s0,.033,0,.128,0,.128,0,.128a.159.159,0,0,0,.146.168l.523.049a.154.154,0,0,0,.169-.144s.007-.079.007-.2-.006-.2-.006-.2a.156.156,0,0,0-.17-.143Z" transform="translate(-227.277 -519.754)" fill="#313133"/>
            <path id="Path_78092" data-name="Path 78092" d="M231.012,510.2a.159.159,0,0,0-.042.218s.019.028.067.11.061.112.061.112a.16.16,0,0,0,.211.073l.477-.219a.155.155,0,0,0,.076-.209s-.035-.072-.1-.178-.107-.173-.107-.173a.156.156,0,0,0-.22-.039Z" transform="translate(-224.11 -508.054)" fill="#313133"/>
            <path id="Path_78093" data-name="Path 78093" d="M221.838,500.8a.159.159,0,0,0,.072.211s.031.014.112.061.109.066.109.066a.16.16,0,0,0,.219-.042l.3-.428a.156.156,0,0,0-.039-.219s-.066-.045-.172-.107-.179-.1-.179-.1a.156.156,0,0,0-.209.076Z" transform="translate(-216.29 -499.796)" fill="#313133"/>
          </g>
          <path id="Path_78094" data-name="Path 78094" d="M210.944,477.856c.079,0,.156,0,.234.006a3.95,3.95,0,0,1,.263-.878c-.128-.009-.257-.015-.388-.017a3.905,3.905,0,0,0-.263.892C210.842,477.858,210.893,477.856,210.944,477.856Z" transform="translate(-203.758 -476.817)" fill="#141414"/>
          <path id="Path_78095" data-name="Path 78095" d="M203.472,478.171c.078-.014.155-.024.232-.035a3.909,3.909,0,0,1,.107-.91c-.128.013-.257.03-.385.051a3.886,3.886,0,0,0-.1.925C203.373,478.192,203.422,478.18,203.472,478.171Z" transform="translate(-197.354 -477.039)" fill="#141414"/>
          <path id="Path_78096" data-name="Path 78096" d="M195.869,479.847c.074-.026.148-.051.222-.074a3.874,3.874,0,0,1-.053-.916c-.124.036-.248.075-.371.118a3.92,3.92,0,0,0,.059.928C195.774,479.885,195.821,479.865,195.869,479.847Z" transform="translate(-190.785 -478.437)" fill="#141414"/>
          <path id="Path_78097" data-name="Path 78097" d="M188.2,482.94c.068-.039.136-.076.205-.112a3.913,3.913,0,0,1-.21-.892c-.116.057-.231.116-.345.18a3.881,3.881,0,0,0,.218.9C188.115,482.993,188.157,482.966,188.2,482.94Z" transform="translate(-184.088 -481.077)" fill="#141414"/>
          <path id="Path_78098" data-name="Path 78098" d="M181.212,487.349c.061-.05.122-.1.183-.146a3.894,3.894,0,0,1-.362-.842q-.157.114-.308.237a3.912,3.912,0,0,0,.373.853C181.136,487.417,181.173,487.382,181.212,487.349Z" transform="translate(-177.977 -484.871)" fill="#141414"/>
          <path id="Path_78099" data-name="Path 78099" d="M175.158,492.941c.05-.06.1-.118.155-.175a3.9,3.9,0,0,1-.5-.767c-.09.093-.177.188-.263.287a3.911,3.911,0,0,0,.515.776C175.094,493.021,175.125,492.98,175.158,492.941Z" transform="translate(-172.68 -489.706)" fill="#141414"/>
          <path id="Path_78100" data-name="Path 78100" d="M170.218,499.549c.039-.068.081-.134.122-.2a3.892,3.892,0,0,1-.628-.667q-.108.16-.209.328a3.96,3.96,0,0,0,.642.674C170.169,499.639,170.192,499.594,170.218,499.549Z" transform="translate(-168.355 -495.436)" fill="#141414"/>
          <path id="Path_78101" data-name="Path 78101" d="M248.733,502.66c.039.068.076.138.112.206a3.917,3.917,0,0,1,.892-.211c-.057-.116-.117-.231-.18-.345a3.927,3.927,0,0,0-.9.219C248.679,502.574,248.707,502.616,248.733,502.66Z" transform="translate(-236.223 -498.548)" fill="#141414"/>
          <path id="Path_78102" data-name="Path 78102" d="M244.289,495.673c.051.061.1.123.147.183a3.888,3.888,0,0,1,.843-.362c-.076-.1-.155-.207-.237-.308a3.892,3.892,0,0,0-.853.373C244.222,495.6,244.257,495.634,244.289,495.673Z" transform="translate(-232.395 -492.439)" fill="#141414"/>
          <path id="Path_78103" data-name="Path 78103" d="M238.866,489.617c.06.051.118.1.175.156a3.933,3.933,0,0,1,.767-.5q-.139-.134-.287-.263a3.938,3.938,0,0,0-.775.515C238.786,489.554,238.826,489.584,238.866,489.617Z" transform="translate(-227.728 -487.14)" fill="#141414"/>
          <path id="Path_78104" data-name="Path 78104" d="M232.619,484.677c.068.039.134.081.2.122a3.925,3.925,0,0,1,.667-.628q-.16-.108-.328-.209a3.93,3.93,0,0,0-.674.642C232.529,484.629,232.574,484.652,232.619,484.677Z" transform="translate(-222.359 -482.814)" fill="#141414"/>
          <path id="Path_78105" data-name="Path 78105" d="M225.742,481c.074.027.146.057.218.086a3.915,3.915,0,0,1,.548-.735c-.117-.052-.237-.1-.359-.149a3.916,3.916,0,0,0-.552.749C225.645,480.971,225.694,480.986,225.742,481Z" transform="translate(-216.453 -479.593)" fill="#141414"/>
          <path id="Path_78106" data-name="Path 78106" d="M218.44,478.706c.078.013.154.03.23.046a3.949,3.949,0,0,1,.413-.819c-.125-.031-.252-.059-.38-.084a3.948,3.948,0,0,0-.414.833C218.339,478.692,218.39,478.7,218.44,478.706Z" transform="translate(-210.186 -477.574)" fill="#141414"/>
        </g>
        <g id="Group_5647" data-name="Group 5647" transform="translate(58.772 65.541)">
          <g id="Group_5643" data-name="Group 5643">
            <g id="Group_5642" data-name="Group 5642">
              <path id="Path_78107" data-name="Path 78107" d="M502.566,484.806c.031-.125.059-.251.084-.379.046.03.091.061.135.093a7.2,7.2,0,0,0,.117-.859c-.047-.023-.095-.044-.143-.066q.014-.193.017-.389c.049.021.1.043.146.067,0-.058,0-.117,0-.175,0-.232-.012-.462-.034-.688-.05-.015-.1-.028-.154-.04-.014-.128-.031-.257-.05-.386.053.013.106.026.158.041a7.134,7.134,0,0,0-.182-.847c-.053-.005-.106-.01-.159-.013-.036-.124-.074-.248-.117-.371.054,0,.109.007.162.013a7.074,7.074,0,0,0-.324-.8c-.053,0-.106.008-.16.015-.057-.116-.117-.231-.18-.345.054-.007.109-.012.163-.016a7.183,7.183,0,0,0-.462-.733c-.051.013-.1.026-.152.042-.076-.1-.155-.207-.237-.308.052-.016.1-.03.156-.043a7.129,7.129,0,0,0-.579-.643c-.048.021-.1.044-.143.068q-.139-.134-.287-.263c.048-.024.1-.047.146-.069a7.206,7.206,0,0,0-.681-.533c-.044.03-.087.06-.13.092q-.16-.108-.328-.209c.043-.033.088-.064.133-.1a7.106,7.106,0,0,0-.765-.405c-.038.037-.076.075-.112.113-.118-.052-.237-.1-.359-.149.037-.04.075-.079.114-.117a7.23,7.23,0,0,0-.822-.268c-.031.044-.062.088-.092.133-.125-.031-.252-.059-.38-.083.03-.046.061-.091.093-.135a7.121,7.121,0,0,0-.859-.117c-.023.047-.045.095-.066.143-.128-.009-.258-.015-.388-.017.021-.049.044-.1.067-.146-.059,0-.117,0-.176,0-.232,0-.462.012-.688.033-.014.051-.028.1-.04.154-.128.013-.257.03-.385.051.012-.053.026-.105.04-.158a7.152,7.152,0,0,0-.846.181c-.005.053-.01.106-.013.159-.124.036-.248.075-.371.118,0-.055.007-.109.013-.163a7.123,7.123,0,0,0-.8.323c0,.054.009.107.015.161-.116.057-.231.116-.345.18-.007-.055-.012-.109-.016-.164a7.176,7.176,0,0,0-.733.462c.013.051.027.1.042.153q-.157.113-.309.237c-.016-.052-.03-.1-.043-.156a7.236,7.236,0,0,0-.643.579c.022.048.044.1.068.144-.09.093-.177.188-.263.287-.024-.048-.048-.1-.07-.146a7.342,7.342,0,0,0-.533.681q.045.066.092.13-.108.16-.209.328c-.033-.044-.064-.089-.095-.133a7.036,7.036,0,0,0-.405.765c.037.038.075.075.113.112-.052.118-.1.237-.148.36-.04-.037-.078-.075-.117-.114a7.2,7.2,0,0,0-.268.822q.065.047.133.092c-.031.125-.059.251-.084.379q-.069-.045-.135-.092a7.2,7.2,0,0,0-.117.858c.047.023.095.045.143.066-.009.129-.015.258-.017.388-.049-.021-.1-.043-.146-.066,0,.059,0,.117,0,.176,0,.232.013.462.033.688.051.015.1.028.154.041q.02.192.051.385-.08-.018-.158-.041a7,7,0,0,0,.181.847l.159.013c.036.124.074.248.117.371-.055,0-.109-.007-.162-.013a7.023,7.023,0,0,0,.323.8c.053,0,.107-.009.16-.015q.085.173.18.345l-.163.016a7.215,7.215,0,0,0,.462.733c.051-.013.1-.027.153-.042.075.1.154.207.236.308-.051.015-.1.03-.155.043a7.271,7.271,0,0,0,.579.643c.048-.021.1-.044.143-.068.093.089.189.177.287.263-.047.024-.1.047-.145.069a7.136,7.136,0,0,0,.681.533c.044-.03.087-.06.13-.092.107.072.216.142.328.209-.044.032-.088.064-.134.095a7.254,7.254,0,0,0,.765.405c.039-.037.076-.074.113-.113.118.052.237.1.359.148-.038.04-.076.079-.114.117a7.141,7.141,0,0,0,.822.268c.032-.044.063-.088.092-.133.125.031.251.059.379.084-.03.046-.061.091-.093.136a7.231,7.231,0,0,0,.859.117q.034-.071.066-.143c.128.009.258.014.388.016-.021.049-.044.1-.066.146.058,0,.117,0,.175,0,.233,0,.462-.012.688-.034.015-.051.028-.1.041-.154.128-.014.257-.03.385-.051-.012.053-.027.106-.041.158a7.1,7.1,0,0,0,.846-.181c.005-.053.01-.106.013-.159.124-.036.247-.075.371-.117,0,.054-.007.108-.013.162a7.069,7.069,0,0,0,.8-.323q-.006-.08-.015-.16.174-.085.345-.18c.007.054.012.109.016.163a7.23,7.23,0,0,0,.733-.462c-.013-.051-.027-.1-.042-.153q.157-.113.308-.237c.016.052.03.1.043.156a7.219,7.219,0,0,0,.643-.579c-.021-.048-.044-.1-.068-.143.089-.093.177-.188.263-.287.024.048.047.1.069.145a7.358,7.358,0,0,0,.533-.681q-.045-.066-.092-.13c.072-.106.142-.216.209-.328.033.044.064.088.1.133a7.113,7.113,0,0,0,.405-.765c-.037-.038-.075-.076-.113-.112q.079-.177.149-.359c.039.037.078.075.115.114a7.11,7.11,0,0,0,.269-.822C502.655,484.867,502.611,484.836,502.566,484.806Z" transform="translate(-488.553 -475.911)" fill="#1a1a1a"/>
              <g id="Group_5641" data-name="Group 5641" transform="translate(0.15 0.266)">
                <path id="Path_78108" data-name="Path 78108" d="M505.8,482.565a6.92,6.92,0,0,0-13.164,0,.539.539,0,0,0-.026.153.473.473,0,0,0,.473.473.48.48,0,0,0,.451-.32,6.049,6.049,0,0,1,5.685-4.136,5.966,5.966,0,0,1,5.682,4.14.474.474,0,0,0,.92-.158A.5.5,0,0,0,505.8,482.565Z" transform="translate(-492.181 -477.78)" fill="url(#linear-gradient-11)"/>
                <path id="Path_78109" data-name="Path 78109" d="M493.647,506.969c.027-.074.056-.145.085-.217A3.941,3.941,0,0,1,493,506.2c-.052.118-.1.237-.148.36a3.9,3.9,0,0,0,.749.552C493.614,507.066,493.629,507.018,493.647,506.969Z" transform="translate(-492.387 -502.152)" fill="#141414"/>
                <path id="Path_78110" data-name="Path 78110" d="M491.35,514.982c.013-.078.03-.153.046-.23a3.925,3.925,0,0,1-.819-.412c-.031.125-.059.251-.084.379a3.9,3.9,0,0,0,.834.414C491.334,515.082,491.34,515.032,491.35,514.982Z" transform="translate(-490.367 -509.129)" fill="#141414"/>
                <path id="Path_78111" data-name="Path 78111" d="M490.5,523.335c0-.079,0-.156.005-.234a3.9,3.9,0,0,1-.878-.264c-.009.129-.015.258-.017.388a3.907,3.907,0,0,0,.893.263C490.5,523.437,490.5,523.386,490.5,523.335Z" transform="translate(-489.608 -516.415)" fill="#141414"/>
                <path id="Path_78112" data-name="Path 78112" d="M490.815,531.781c-.014-.077-.025-.154-.035-.231a3.935,3.935,0,0,1-.91-.107q.02.192.051.385a3.912,3.912,0,0,0,.925.1C490.835,531.881,490.823,531.831,490.815,531.781Z" transform="translate(-489.832 -523.793)" fill="#141414"/>
                <path id="Path_78113" data-name="Path 78113" d="M492.493,539.746c-.027-.074-.051-.148-.074-.222a3.948,3.948,0,0,1-.915.052c.036.124.074.248.117.371a3.92,3.92,0,0,0,.929-.059C492.531,539.841,492.511,539.794,492.493,539.746Z" transform="translate(-491.233 -530.723)" fill="#141414"/>
                <path id="Path_78114" data-name="Path 78114" d="M495.582,546.657c-.039-.068-.076-.137-.112-.205a3.944,3.944,0,0,1-.893.21q.085.173.18.345a3.906,3.906,0,0,0,.9-.219C495.636,546.744,495.608,546.7,495.582,546.657Z" transform="translate(-493.87 -536.664)" fill="#141414"/>
                <path id="Path_78115" data-name="Path 78115" d="M499.993,552.95c-.05-.06-.1-.122-.146-.183a3.925,3.925,0,0,1-.842.362q.113.157.236.308a3.9,3.9,0,0,0,.853-.373C500.061,553.026,500.026,552.989,499.993,552.95Z" transform="translate(-497.666 -542.079)" fill="#141414"/>
                <path id="Path_78116" data-name="Path 78116" d="M505.583,558.433c-.06-.051-.118-.1-.175-.155a3.888,3.888,0,0,1-.767.5c.093.089.189.177.287.263a3.923,3.923,0,0,0,.776-.515C505.663,558.5,505.623,558.466,505.583,558.433Z" transform="translate(-502.498 -546.804)" fill="#141414"/>
                <path id="Path_78117" data-name="Path 78117" d="M512.192,562.943c-.068-.039-.134-.081-.2-.122a3.93,3.93,0,0,1-.667.628c.107.072.216.142.328.209a3.913,3.913,0,0,0,.674-.642C512.282,562.992,512.237,562.969,512.192,562.943Z" transform="translate(-508.23 -550.7)" fill="#141414"/>
                <path id="Path_78118" data-name="Path 78118" d="M519.614,566.34c-.074-.027-.146-.056-.218-.085a3.916,3.916,0,0,1-.548.735c.118.052.237.1.359.148a3.948,3.948,0,0,0,.552-.749C519.711,566.372,519.662,566.358,519.614,566.34Z" transform="translate(-514.68 -553.644)" fill="#141414"/>
                <path id="Path_78119" data-name="Path 78119" d="M527.625,568.519c-.078-.013-.154-.03-.229-.046a3.912,3.912,0,0,1-.412.819c.125.031.251.059.379.084a3.887,3.887,0,0,0,.414-.833C527.725,568.534,527.675,568.529,527.625,568.519Z" transform="translate(-521.656 -555.546)" fill="#141414"/>
                <path id="Path_78120" data-name="Path 78120" d="M535.98,569.42c-.079,0-.157,0-.234-.006a3.919,3.919,0,0,1-.264.878q.192.013.388.016a3.918,3.918,0,0,0,.263-.893C536.082,569.417,536.031,569.42,535.98,569.42Z" transform="translate(-528.943 -556.353)" fill="#141414"/>
                <path id="Path_78121" data-name="Path 78121" d="M544.425,568.614c-.078.014-.155.024-.232.035a3.9,3.9,0,0,1-.107.911c.128-.014.257-.03.385-.051a3.971,3.971,0,0,0,.1-.925C544.524,568.594,544.475,568.605,544.425,568.614Z" transform="translate(-536.321 -555.641)" fill="#141414"/>
                <path id="Path_78122" data-name="Path 78122" d="M552.388,566.513c-.074.027-.148.051-.222.075a3.9,3.9,0,0,1,.052.916c.124-.036.247-.075.371-.117a3.9,3.9,0,0,0-.058-.929C552.483,566.476,552.436,566.5,552.388,566.513Z" transform="translate(-543.249 -553.817)" fill="#141414"/>
                <path id="Path_78123" data-name="Path 78123" d="M559.3,563.192c-.068.04-.137.076-.206.112a3.9,3.9,0,0,1,.21.892q.174-.085.345-.18a3.952,3.952,0,0,0-.218-.905C559.386,563.139,559.343,563.167,559.3,563.192Z" transform="translate(-549.189 -550.949)" fill="#141414"/>
                <path id="Path_78124" data-name="Path 78124" d="M565.593,558.751c-.06.051-.122.1-.183.146a3.921,3.921,0,0,1,.362.842q.157-.113.309-.237a3.928,3.928,0,0,0-.373-.853C565.669,558.683,565.632,558.718,565.593,558.751Z" transform="translate(-554.605 -547.122)" fill="#141414"/>
                <path id="Path_78125" data-name="Path 78125" d="M571.08,553.323c-.05.061-.1.118-.154.176a3.927,3.927,0,0,1,.5.767c.089-.093.178-.188.263-.287a3.975,3.975,0,0,0-.515-.776C571.144,553.243,571.113,553.284,571.08,553.323Z" transform="translate(-559.335 -542.452)" fill="#141414"/>
                <path id="Path_78126" data-name="Path 78126" d="M575.587,547.078c-.039.068-.081.134-.122.2a3.89,3.89,0,0,1,.628.667c.072-.106.142-.216.209-.328a3.934,3.934,0,0,0-.641-.674C575.635,546.988,575.613,547.033,575.587,547.078Z" transform="translate(-563.227 -537.085)" fill="#141414"/>
                <path id="Path_78127" data-name="Path 78127" d="M578.982,540.2c-.027.074-.056.146-.086.218a3.9,3.9,0,0,1,.735.548c.052-.118.1-.238.149-.359a3.924,3.924,0,0,0-.749-.552C579.014,540.1,579,540.153,578.982,540.2Z" transform="translate(-566.169 -531.179)" fill="#141414"/>
                <path id="Path_78128" data-name="Path 78128" d="M581.166,532.9c-.014.078-.031.154-.046.23a3.92,3.92,0,0,1,.819.412c.031-.125.059-.251.084-.379a3.906,3.906,0,0,0-.833-.414C581.181,532.8,581.175,532.851,581.166,532.9Z" transform="translate(-568.076 -524.915)" fill="#141414"/>
                <path id="Path_78129" data-name="Path 78129" d="M582.062,525.4c0,.079,0,.157-.006.234a3.911,3.911,0,0,1,.878.264q.013-.193.017-.389a3.921,3.921,0,0,0-.893-.262C582.059,525.3,582.062,525.354,582.062,525.4Z" transform="translate(-568.879 -518.486)" fill="#141414"/>
                <path id="Path_78130" data-name="Path 78130" d="M581.26,517.932c.013.078.024.155.035.232a3.921,3.921,0,0,1,.911.107c-.014-.128-.031-.257-.05-.386a3.957,3.957,0,0,0-.925-.1C581.239,517.832,581.25,517.881,581.26,517.932Z" transform="translate(-568.17 -512.08)" fill="#141414"/>
                <path id="Path_78131" data-name="Path 78131" d="M579.158,510.33c.027.074.051.148.075.222a3.881,3.881,0,0,1,.915-.052c-.036-.124-.075-.248-.117-.371a3.929,3.929,0,0,0-.929.058C579.121,510.235,579.141,510.282,579.158,510.33Z" transform="translate(-566.346 -505.513)" fill="#141414"/>
              </g>
            </g>
          </g>
          <g id="Group_5645" data-name="Group 5645" transform="translate(2.15 2.66)">
            <g id="Group_5644" data-name="Group 5644">
              <path id="Path_78132" data-name="Path 78132" d="M516.461,499.047a4.472,4.472,0,1,1-4.471-4.472A4.471,4.471,0,0,1,516.461,499.047Z" transform="translate(-506.965 -494.575)" fill="url(#linear-gradient-12)"/>
              <path id="Path_78133" data-name="Path 78133" d="M523.287,507.823a2.455,2.455,0,1,1-2.454-2.456A2.455,2.455,0,0,1,523.287,507.823Zm-2.454-3a3,3,0,1,0,3,3A3,3,0,0,0,520.833,504.823Z" transform="translate(-515.809 -503.362)" fill="url(#linear-gradient-13)"/>
              <path id="Path_78134" data-name="Path 78134" d="M528.082,513.147a1.757,1.757,0,1,1-1.757-1.757A1.758,1.758,0,0,1,528.082,513.147Zm-1.755-2.129a2.117,2.117,0,1,0,2.118,2.117A2.117,2.117,0,0,0,526.327,511.018Z" transform="translate(-521.278 -508.674)" fill="url(#linear-gradient-14)"/>
              <path id="Path_78135" data-name="Path 78135" d="M513.645,545.252a6.03,6.03,0,0,1-4.982,2.629,5.941,5.941,0,0,1-4.975-2.619.334.334,0,0,1-.05-.186.345.345,0,0,1,.631-.193,5.284,5.284,0,0,0,4.4,2.3,5.361,5.361,0,0,0,4.4-2.31.342.342,0,0,1,.281-.153.345.345,0,0,1,.346.345A.321.321,0,0,1,513.645,545.252Z" transform="translate(-503.638 -537.576)" fill="url(#linear-gradient-11)"/>
            </g>
          </g>
          <g id="Group_5646" data-name="Group 5646" transform="translate(3.072 3.029)">
            <path id="Path_78136" data-name="Path 78136" d="M536.5,497.862a.159.159,0,0,0,.168.145s.034,0,.129,0,.128,0,.128,0a.158.158,0,0,0,.167-.145l.05-.523a.155.155,0,0,0-.143-.17s-.081-.007-.2-.007-.2.007-.2.007a.155.155,0,0,0-.143.17Z" transform="translate(-532.697 -497.162)" fill="#313133"/>
            <path id="Path_78137" data-name="Path 78137" d="M523.14,501.106a.158.158,0,0,0,.218.042s.028-.019.11-.067.112-.061.112-.061a.158.158,0,0,0,.072-.21l-.218-.477a.156.156,0,0,0-.21-.076s-.072.035-.178.1-.174.107-.174.107a.154.154,0,0,0-.038.219Z" transform="translate(-520.994 -499.802)" fill="#313133"/>
            <path id="Path_78138" data-name="Path 78138" d="M513.748,510.718a.159.159,0,0,0,.21-.072s.014-.031.061-.113.067-.109.067-.109a.159.159,0,0,0-.042-.218l-.429-.3a.155.155,0,0,0-.219.038s-.045.066-.106.172-.1.179-.1.179a.155.155,0,0,0,.076.21Z" transform="translate(-512.74 -508.061)" fill="#313133"/>
            <path id="Path_78139" data-name="Path 78139" d="M510.806,524.161a.159.159,0,0,0,.145-.168s0-.034,0-.129,0-.127,0-.127a.159.159,0,0,0-.145-.168l-.523-.05a.155.155,0,0,0-.171.143s-.006.08-.006.2.006.2.006.2a.156.156,0,0,0,.171.143Z" transform="translate(-510.106 -519.762)" fill="#313133"/>
            <path id="Path_78140" data-name="Path 78140" d="M514.049,536.511a.158.158,0,0,0,.042-.218s-.019-.028-.067-.11-.061-.112-.061-.112a.16.16,0,0,0-.21-.073l-.477.219a.155.155,0,0,0-.076.21s.035.072.1.178.107.173.107.173a.155.155,0,0,0,.219.039Z" transform="translate(-512.745 -530.451)" fill="#313133"/>
            <path id="Path_78141" data-name="Path 78141" d="M523.661,545.469a.158.158,0,0,0-.072-.21s-.031-.014-.113-.061-.109-.067-.109-.067a.16.16,0,0,0-.219.042l-.3.428a.155.155,0,0,0,.039.219s.066.045.172.107.18.1.18.1a.155.155,0,0,0,.209-.076Z" transform="translate(-521.004 -538.271)" fill="#313133"/>
            <path id="Path_78142" data-name="Path 78142" d="M537.106,548.943a.159.159,0,0,0-.168-.146s-.034,0-.128,0-.128,0-.128,0a.159.159,0,0,0-.168.145l-.049.523a.155.155,0,0,0,.143.171s.08.006.2.006.2-.006.2-.006a.155.155,0,0,0,.143-.171Z" transform="translate(-532.707 -541.437)" fill="#313133"/>
            <path id="Path_78143" data-name="Path 78143" d="M549.452,545.172a.159.159,0,0,0-.218-.042s-.028.019-.11.067-.112.061-.112.061a.16.16,0,0,0-.073.21l.219.477a.155.155,0,0,0,.209.076s.073-.034.179-.1.173-.107.173-.107a.155.155,0,0,0,.039-.22Z" transform="translate(-543.392 -538.27)" fill="#313133"/>
            <path id="Path_78144" data-name="Path 78144" d="M558.413,536a.159.159,0,0,0-.21.072s-.015.031-.062.113-.066.109-.066.109a.16.16,0,0,0,.042.219l.428.3a.154.154,0,0,0,.219-.039s.046-.066.107-.171.1-.18.1-.18a.155.155,0,0,0-.076-.209Z" transform="translate(-551.214 -530.45)" fill="#313133"/>
            <path id="Path_78145" data-name="Path 78145" d="M561.886,523.561a.159.159,0,0,0-.146.168s0,.033,0,.128,0,.128,0,.128a.16.16,0,0,0,.146.168l.523.049a.154.154,0,0,0,.17-.144s.007-.079.007-.2-.006-.2-.006-.2a.156.156,0,0,0-.17-.143Z" transform="translate(-554.38 -519.754)" fill="#313133"/>
            <path id="Path_78146" data-name="Path 78146" d="M558.116,510.2a.159.159,0,0,0-.042.218s.019.028.067.11.061.112.061.112a.16.16,0,0,0,.211.073l.477-.219a.155.155,0,0,0,.076-.209s-.035-.072-.1-.178-.107-.173-.107-.173a.156.156,0,0,0-.22-.039Z" transform="translate(-551.214 -508.054)" fill="#313133"/>
            <path id="Path_78147" data-name="Path 78147" d="M548.942,500.8a.159.159,0,0,0,.072.211s.031.014.112.061.109.066.109.066a.16.16,0,0,0,.219-.042l.3-.428a.156.156,0,0,0-.039-.219s-.066-.045-.172-.107-.18-.1-.18-.1a.156.156,0,0,0-.209.076Z" transform="translate(-543.394 -499.796)" fill="#313133"/>
          </g>
          <path id="Path_78148" data-name="Path 78148" d="M538.048,477.856c.078,0,.156,0,.234.006a3.946,3.946,0,0,1,.263-.878q-.193-.014-.388-.017a3.915,3.915,0,0,0-.263.892C537.946,477.858,538,477.856,538.048,477.856Z" transform="translate(-530.862 -476.817)" fill="#141414"/>
          <path id="Path_78149" data-name="Path 78149" d="M530.577,478.171c.078-.014.155-.024.232-.035a3.913,3.913,0,0,1,.107-.91c-.128.013-.257.03-.385.051a3.885,3.885,0,0,0-.1.925C530.477,478.192,530.527,478.18,530.577,478.171Z" transform="translate(-524.458 -477.039)" fill="#141414"/>
          <path id="Path_78150" data-name="Path 78150" d="M522.974,479.847c.074-.026.148-.051.222-.074a3.878,3.878,0,0,1-.053-.916c-.124.036-.248.075-.371.118a3.908,3.908,0,0,0,.059.928C522.879,479.885,522.926,479.865,522.974,479.847Z" transform="translate(-517.89 -478.437)" fill="#141414"/>
          <path id="Path_78151" data-name="Path 78151" d="M515.306,482.94c.068-.039.136-.076.205-.112a3.911,3.911,0,0,1-.211-.892c-.116.057-.231.116-.345.18a3.89,3.89,0,0,0,.218.9C515.219,482.993,515.261,482.966,515.306,482.94Z" transform="translate(-511.193 -481.077)" fill="#141414"/>
          <path id="Path_78152" data-name="Path 78152" d="M508.317,487.349c.061-.05.122-.1.183-.146a3.9,3.9,0,0,1-.362-.842q-.156.114-.308.237a3.912,3.912,0,0,0,.373.853C508.24,487.417,508.278,487.382,508.317,487.349Z" transform="translate(-505.082 -484.871)" fill="#141414"/>
          <path id="Path_78153" data-name="Path 78153" d="M502.262,492.941c.05-.06.1-.118.155-.175a3.9,3.9,0,0,1-.5-.767c-.09.093-.177.188-.263.287a3.9,3.9,0,0,0,.515.776C502.2,493.021,502.229,492.98,502.262,492.941Z" transform="translate(-499.784 -489.706)" fill="#141414"/>
          <path id="Path_78154" data-name="Path 78154" d="M497.322,499.549c.039-.068.081-.134.122-.2a3.9,3.9,0,0,1-.628-.667q-.108.16-.209.328a3.961,3.961,0,0,0,.642.674C497.273,499.639,497.3,499.594,497.322,499.549Z" transform="translate(-495.459 -495.436)" fill="#141414"/>
          <path id="Path_78155" data-name="Path 78155" d="M575.838,502.66c.039.068.076.138.112.206a3.919,3.919,0,0,1,.892-.211c-.057-.116-.117-.231-.18-.345a3.929,3.929,0,0,0-.9.219C575.784,502.574,575.812,502.616,575.838,502.66Z" transform="translate(-563.328 -498.548)" fill="#141414"/>
          <path id="Path_78156" data-name="Path 78156" d="M571.394,495.673c.051.061.1.123.146.183a3.893,3.893,0,0,1,.843-.362c-.076-.1-.155-.207-.237-.308a3.9,3.9,0,0,0-.853.373C571.327,495.6,571.362,495.634,571.394,495.673Z" transform="translate(-559.5 -492.439)" fill="#141414"/>
          <path id="Path_78157" data-name="Path 78157" d="M565.971,489.617c.06.051.118.1.175.156a3.925,3.925,0,0,1,.767-.5q-.139-.134-.287-.263a3.938,3.938,0,0,0-.775.515C565.891,489.554,565.931,489.584,565.971,489.617Z" transform="translate(-554.833 -487.14)" fill="#141414"/>
          <path id="Path_78158" data-name="Path 78158" d="M559.724,484.677c.068.039.134.081.2.122a3.935,3.935,0,0,1,.667-.628q-.16-.108-.328-.209a3.936,3.936,0,0,0-.674.642C559.634,484.629,559.679,484.652,559.724,484.677Z" transform="translate(-549.464 -482.814)" fill="#141414"/>
          <path id="Path_78159" data-name="Path 78159" d="M552.846,481c.074.027.146.057.218.086a3.915,3.915,0,0,1,.548-.735c-.118-.052-.237-.1-.359-.149a3.926,3.926,0,0,0-.552.749C552.749,480.971,552.8,480.986,552.846,481Z" transform="translate(-543.558 -479.593)" fill="#141414"/>
          <path id="Path_78160" data-name="Path 78160" d="M545.545,478.706c.078.013.154.03.23.046a3.946,3.946,0,0,1,.413-.819c-.125-.031-.252-.059-.38-.084a3.943,3.943,0,0,0-.414.833C545.444,478.692,545.494,478.7,545.545,478.706Z" transform="translate(-537.291 -477.574)" fill="#141414"/>
        </g>
        <path id="Path_78161" data-name="Path 78161" d="M116.078,323.5a1.217,1.217,0,0,0,.879-1.169v-5.65a1.216,1.216,0,0,0-1.217-1.216H100.849a1.182,1.182,0,0,0-1.141.793c-.49,1.572-1.656,6.5-1.8,7.545-.021.149-.032.474-.032.547v1.761a1.391,1.391,0,0,0,1.707,1.353Z" transform="translate(-94.787 -272.797)" fill="none" stroke="#1a1818" stroke-width="2.438"/>
      </g>
    </g>
  </g>
</svg>
