<svg xmlns="http://www.w3.org/2000/svg" width="137.696" height="61.831" viewBox="0 0 137.696 61.831">
  <g id="Group_5672" data-name="Group 5672" transform="translate(-2490.069 -2178.718)">
    <g id="Group_5656" data-name="Group 5656" transform="translate(2490.569 2179.32)">
      <path id="Path_78200" data-name="Path 78200" d="M3222.8,2201.891l-76.306,11.844V2194.4l97.1,3.337Z" transform="translate(-3108.921 -2193.533)" fill="#330601"/>
      <path id="Path_78201" data-name="Path 78201" d="M4546.791,2180.185l-.157,1.974-.086,1.069-.161,2.031-3.6,45.145h-.014l-.833-.147-3.617-.635.236-3.028-.891.545.461-4.863.806-.5.537-6.868,1.9-24.344-.245.052.416-4.394v-.006l.285-3.007.014-.144.355-3.747,2.24.422,1.666.314Z" transform="translate(-4420.398 -2179.32)" fill="#de875a"/>
      <path id="Path_78202" data-name="Path 78202" d="M2613.214,2227.468l-.252,2.936,1.058.149v4.142l-7.555,5.326-.264-.047h0l-109.841-19.282-.271-2.565-5.4-30.469-.115,0v-4.438l37.576-3.03-.063,4.442.063,0,76.306,3.048,7.271-1.459,3.4-.682v.009l-.462,4.365-3.109.656-.245.052-7.063,1.49-1.729-.069-.539,26.6v.05l-10.837,14.135,17.167-10.548.806-.5-.377,4.813-.891.545-3.39,2.074,4.032.565,3.626.509,0-.03,3.812-44.87.185-2.178.174-2.044h-3.906v-1.42h3.906l2.2-.422.04,1.842-1.46,1.5-.05.58-.168,1.962-.982,11.41.885,22.455.211,5.387.155,3.926Z" transform="translate(-2490.572 -2179.32)" fill="#b23c14"/>
      <path id="Path_78203" data-name="Path 78203" d="M4734.971,2251.286l-7,1.827-.226-4.113,7.221-1.706Z" transform="translate(-4599.589 -2243.401)" fill="#de875a"/>
      <path id="Path_78204" data-name="Path 78204" d="M4767.488,2883.452v3.5l-6.159,4.351-.48-8.774Z" transform="translate(-4630.792 -2842.244)" fill="#de875a"/>
      <g id="Group_5655" data-name="Group 5655" transform="translate(0 0)">
        <path id="Path_78205" data-name="Path 78205" d="M2490.569,2305.832l.115,1.089,5.4,30.469" transform="translate(-2490.569 -2298.584)" fill="none" stroke="#000" stroke-width="1"/>
        <line id="Line_29" data-name="Line 29" x1="1.024" y1="0.161" transform="translate(33.294 43.023)" fill="none" stroke="#000" stroke-width="4.346"/>
        <path id="Path_78206" data-name="Path 78206" d="M2604.455,2251.759l-.209,4.43-1.729-.068-20.8-.832-53.564-2.14-37.461-1.411-.115,0v-4.438l37.513,1.413.063,0Z" transform="translate(-2490.572 -2243.401)" fill="none" stroke="#000" stroke-width="1"/>
        <line id="Line_30" data-name="Line 30" y2="4.734" transform="translate(115.628 55.966)" fill="none" stroke="#000" stroke-width="4.346"/>
        <path id="Path_78207" data-name="Path 78207" d="M4485.589,2292.861l3.109-.656.462-4.365v-.009l-3.4.682-7.271,1.46" transform="translate(-4364.608 -2281.615)" fill="none" stroke="#000" stroke-width="1"/>
        <path id="Path_78208" data-name="Path 78208" d="M4734.971,2247.295v3.991l-7,1.827-.226-4.113Z" transform="translate(-4599.589 -2243.401)" fill="none" stroke="#000" stroke-width="1"/>
        <line id="Line_31" data-name="Line 31" x1="0.009" y2="0.006" transform="translate(118.54 42.452)" fill="none" stroke="#000" stroke-linecap="round" stroke-linejoin="round" stroke-width="1"/>
        <line id="Line_32" data-name="Line 32" x1="0.002" y2="0.084" transform="translate(111.944 12.636)" fill="none" stroke="#000" stroke-linecap="round" stroke-linejoin="round" stroke-width="1"/>
        <line id="Line_33" data-name="Line 33" x1="0.103" y2="0.05" transform="translate(111.302 39.316)" fill="none" stroke="#000" stroke-width="4.346"/>
        <line id="Line_34" data-name="Line 34" x1="0.037" y2="0.018" transform="translate(119.077 35.572)" fill="none" stroke="#000" stroke-width="4.346"/>
        <path id="Path_78209" data-name="Path 78209" d="M4552.143,2216.334l.258-2.945.167-1.911h3.906l-.173,2.044-.185,2.178-3.812,44.87,0,.031,0,.032-3.635-.387.013-.154.012-.156.237-3.028.376-4.813" transform="translate(-4430.76 -2209.636)" fill="none" stroke="#000" stroke-width="1"/>
        <path id="Path_78210" data-name="Path 78210" d="M4264.571,2800.583l-.537,6.868-.806.5-17.167,10.548,10.837-14.135v-.05l6.995-3.4Z" transform="translate(-4145.495 -2764.992)" fill="#de875a" stroke="#000" stroke-width="1"/>
        <path id="Path_78211" data-name="Path 78211" d="M4444.829,2375.635l-1.9,24.344-.677.328-6.995,3.4.539-26.6,1.729.068,7.063-1.49Z" transform="translate(-4323.849 -2364.389)" fill="#de875a" stroke="#000" stroke-width="1"/>
        <path id="Path_78212" data-name="Path 78212" d="M4390.314,3037.857l-1.059-.149h-.013l-.836-.117-3.625-.509-4.033-.565-5.939-.832" transform="translate(-4266.866 -2986.625)" fill="none" stroke="#000" stroke-width="1"/>
        <path id="Path_78213" data-name="Path 78213" d="M4682.968,2258.695h-3.99l-.155-3.926-.211-5.387-.885-22.455,1.2-13.953,1.46-1.5.205,3.757.226,4.113,1.671,30.572Z" transform="translate(-4552.43 -2209.636)" fill="#de875a" stroke="#000" stroke-width="1"/>
        <path id="Path_78214" data-name="Path 78214" d="M4773.635,2898.648v3.5l-6.159,4.351-.106-3.592Z" transform="translate(-4636.939 -2857.44)" fill="none" stroke="#000" stroke-width="1"/>
        <line id="Line_35" data-name="Line 35" x1="6.639" y1="0.923" transform="translate(130.058 40.285)" fill="none" stroke="#000" stroke-width="1"/>
        <line id="Line_36" data-name="Line 36" x1="2.733" y1="0.38" transform="translate(123.447 39.366)" fill="none" stroke="#000" stroke-width="1"/>
        <line id="Line_37" data-name="Line 37" x1="3.425" y1="0.766" transform="translate(122.967 44.367)" fill="none" stroke="#000" stroke-width="1"/>
        <line id="Line_38" data-name="Line 38" x1="3.906" y1="0.911" transform="translate(122.641 48.147)" fill="none" stroke="#000" stroke-width="1"/>
        <path id="Path_78215" data-name="Path 78215" d="M2612.106,2197.435l-83.961-3.03-37.576,3.03" transform="translate(-2490.569 -2193.541)" fill="none" stroke="#000" stroke-width="1"/>
        <path id="Path_78216" data-name="Path 78216" d="M3145.375,2198.951v-.1l.063-4.442" transform="translate(-3107.863 -2193.541)" fill="none" stroke="#000" stroke-width="1"/>
        <path id="Path_78217" data-name="Path 78217" d="M4616.835,2188.111v-1.42h3.905v1.42l.783,1.5" transform="translate(-4495.028 -2186.269)" fill="none" stroke="#000" stroke-width="1"/>
        <path id="Path_78218" data-name="Path 78218" d="M4615.874,2481.15l-2.329,27.076-.325,3.78-.253,2.936h-.013l-.839-.085" transform="translate(-4490.578 -2463.859)" fill="none" stroke="#000" stroke-width="1"/>
        <path id="Path_78219" data-name="Path 78219" d="M4685.013,2179.743l2.2-.422.04,1.842" transform="translate(-4559.3 -2179.321)" fill="none" stroke="#000" stroke-width="1"/>
        <path id="Path_78220" data-name="Path 78220" d="M3050.5,2416.612l-1.014.05-.01-.228-1.353-31.229.973.691,1.4,30.7Z" transform="translate(-3016.183 -2373.411)" fill="#aa7500" stroke="#000" stroke-width="1"/>
        <path id="Path_78221" data-name="Path 78221" d="M2730.982,2391.021l-1.986-29.9.784.665,2.011,29.155" transform="translate(-2715.338 -2350.706)" fill="#aa7500" stroke="#000" stroke-width="1"/>
        <path id="Path_78222" data-name="Path 78222" d="M3380.658,2428.657l-.545-33.523,1.506.488.622,33.339" transform="translate(-3329.154 -2382.771)" fill="#330601" stroke="#000" stroke-width="1"/>
        <path id="Path_78223" data-name="Path 78223" d="M3709.123,2438.3v-35.989l2.15.988v35.3" transform="translate(-3639.316 -2389.532)" fill="#330601" stroke="#000" stroke-width="1"/>
        <path id="Path_78224" data-name="Path 78224" d="M4072.179,2465.319v-37.811l2.15,1.019v37.134" transform="translate(-3981.573 -2413.29)" fill="#330601" stroke="#000" stroke-width="1"/>
        <path id="Path_78290" data-name="Path 78290" d="M0,0,75.953,8.157" transform="translate(14.652 25.375)" fill="none" stroke="#000" stroke-width="1"/>
        <path id="Path_78225" data-name="Path 78225" d="M2704.763,2869.133v4.141l-7.555,5.326-.264-.047L2587.1,2859.272l-.271-2.565,10.126,1.443,17.653,2.775.01.228,1.014-.05v-.017l17.188,2.7,1.582.249,16.721,2.627h0l22.948,3.607,22.873,3.595Z" transform="translate(-2581.315 -2817.901)" fill="#330601" stroke="#000" stroke-width="1"/>
      </g>
      <line id="Line_40" data-name="Line 40" x1="7.465" transform="translate(127.916 3.895)" fill="none" stroke="#000" stroke-width="1"/>
    </g>
    <line id="Line_41" data-name="Line 41" x1="0.218" y1="4.713" transform="translate(2606.243 2235.307)" fill="none" stroke="#000" stroke-width="1"/>
  </g>
</svg>
