<svg xmlns="http://www.w3.org/2000/svg" xmlns:xlink="http://www.w3.org/1999/xlink" viewBox="24 21 301 168"><defs><filter id="a" x="0" y="0" width="349" height="216" filterUnits="userSpaceOnUse"><feOffset dy="3" input="SourceAlpha"/><feGaussianBlur stdDeviation="8" result="b"/><feFlood flood-opacity="0.161"/><feComposite operator="in" in2="b"/><feComposite in="SourceGraphic"/></filter></defs><g transform="matrix(1, 0, 0, 1, 0, 0)" filter="url(#a)"><path d="M344,168H65a11,11,0,0,1-11-11V119.187c18.958-3.529,32.718-18.158,32.718-34.786S72.958,53.142,54,49.613V11A11,11,0,0,1,65,0H344a11,11,0,0,1,11,11V49.8c-18.713,3.874-31.783,18.1-31.783,34.6S336.286,115.13,355,119v38a11,11,0,0,1-11,11Z" transform="translate(-30 21)" fill="#fff" data-darkreader-inline-fill="" style="--darkreader-inline-fill: #181a1b;"/></g></svg>