<svg xmlns="http://www.w3.org/2000/svg" width="10.838" height="5.812" viewBox="0 0 10.838 5.812">
  <g id="Arrow_Down" data-name="Arrow Down" transform="translate(-9.844 -20.118)">
    <path id="Path_60768" data-name="Path 60768" d="M20.535,20.957,15.6,25.79a.476.476,0,0,1-.04.032c-.011.009-.022.019-.034.027a.472.472,0,0,1-.05.026c-.012.006-.023.013-.035.018a.486.486,0,0,1-.06.018c-.01,0-.02.007-.03.009a.486.486,0,0,1-.187,0c-.011,0-.022-.007-.033-.01a.484.484,0,0,1-.057-.017c-.013-.005-.026-.013-.038-.02a.479.479,0,0,1-.047-.025c-.012-.008-.023-.019-.035-.028a.482.482,0,0,1-.039-.031L9.99,20.957a.489.489,0,1,1,.685-.7l4.587,4.5,4.587-4.5a.489.489,0,0,1,.685.7Z" fill="#fbe6d3"/>
  </g>
</svg>
