<svg xmlns="http://www.w3.org/2000/svg" width="17.924" height="17.924" viewBox="0 0 17.924 17.924">
  <g id="Icon" transform="translate(-1.25 -1.25)">
    <path id="Path_60782" data-name="Path 60782" d="M16.627,12.25a4.377,4.377,0,1,1-4.377,4.377A4.378,4.378,0,0,1,16.627,12.25Zm0,1.251a3.126,3.126,0,1,0,3.126,3.126A3.127,3.127,0,0,0,16.627,13.5Z" transform="translate(-1.829 -1.829)" fill-rule="evenodd"/>
    <path id="Path_60783" data-name="Path 60783" d="M16.25,15.875a.625.625,0,1,1,1.251,0v1.042h.625a.625.625,0,1,1,0,1.251H16.875a.625.625,0,0,1-.625-.625Z" transform="translate(-2.495 -2.328)" fill-rule="evenodd"/>
    <path id="Path_60784" data-name="Path 60784" d="M19.174,10.545a.625.625,0,1,1-1.251,0V6.376A1.875,1.875,0,0,0,16.048,4.5H4.376A1.875,1.875,0,0,0,2.5,6.376v10a1.875,1.875,0,0,0,1.876,1.876h5.836a.625.625,0,1,1,0,1.251H4.376A3.126,3.126,0,0,1,1.25,16.381v-10A3.126,3.126,0,0,1,4.376,3.25H16.048a3.126,3.126,0,0,1,3.126,3.126Z" transform="translate(0 -0.333)" fill-rule="evenodd"/>
    <path id="Path_60785" data-name="Path 60785" d="M12.5,3.543a.625.625,0,0,1-1.251,0V1.875a.625.625,0,0,1,1.251,0Z" transform="translate(-1.663)" fill-rule="evenodd"/>
    <path id="Path_60786" data-name="Path 60786" d="M18,3.543a.625.625,0,1,1-1.251,0V1.875a.625.625,0,0,1,1.251,0Z" transform="translate(-2.578)" fill-rule="evenodd"/>
    <path id="Path_60787" data-name="Path 60787" d="M7,3.543a.625.625,0,1,1-1.251,0V1.875A.625.625,0,1,1,7,1.875Z" transform="translate(-0.748)" fill-rule="evenodd"/>
    <circle id="Ellipse_430" data-name="Ellipse 430" cx="0.834" cy="0.834" r="0.834" transform="translate(4.376 6.461)"/>
    <circle id="Ellipse_431" data-name="Ellipse 431" cx="0.834" cy="0.834" r="0.834" transform="translate(7.711 6.461)"/>
    <circle id="Ellipse_432" data-name="Ellipse 432" cx="0.834" cy="0.834" r="0.834" transform="translate(11.046 6.461)"/>
    <circle id="Ellipse_433" data-name="Ellipse 433" cx="0.834" cy="0.834" r="0.834" transform="translate(14.381 6.461)"/>
    <circle id="Ellipse_434" data-name="Ellipse 434" cx="0.834" cy="0.834" r="0.834" transform="translate(4.376 10.212)"/>
    <circle id="Ellipse_435" data-name="Ellipse 435" cx="0.834" cy="0.834" r="0.834" transform="translate(7.711 10.212)"/>
    <circle id="Ellipse_436" data-name="Ellipse 436" cx="0.834" cy="0.834" r="0.834" transform="translate(4.376 13.964)"/>
    <circle id="Ellipse_437" data-name="Ellipse 437" cx="0.834" cy="0.834" r="0.834" transform="translate(7.711 13.964)"/>
  </g>
</svg>
