<svg xmlns="http://www.w3.org/2000/svg" width="29.858" height="25.891" viewBox="0 0 29.858 25.891">
  <g id="Layer_x0020_1" transform="translate(-0.003 -2.883)">
    <g id="_553428304" transform="translate(0.003 2.883)">
      <path id="_553428040" d="M12.948,28.773A12.945,12.945,0,1,1,22.372,6.939a.321.321,0,0,1,.031.414l.76.993a.33.33,0,0,1,.448.123,12.805,12.805,0,0,1,2.283,7.359A12.957,12.957,0,0,1,12.948,28.773Zm0-2.672A10.274,10.274,0,1,1,20.113,8.469a.322.322,0,0,1,.03.456l.962,1.194a.336.336,0,0,1,.465.1A10.31,10.31,0,0,1,12.948,26.1Z" transform="translate(-0.003 -2.883)" fill="#fff" fill-rule="evenodd"/>
      <path id="_553427992" d="M16.3,23.14a.346.346,0,0,1-.316-.219c-.024-.049-2.113-5.44-5.343-7.481-.631-.389-1.117-.8-.923-1.724a2.136,2.136,0,0,1,1.894-1.652c1.943-.413,4.032,2.6,4.809,3.838C19.138,11.943,24.578,5.725,32.5,5a.358.358,0,0,1,.17.68c-.121.049-11.44,5.222-16.03,17.269A.388.388,0,0,1,16.3,23.14Z" transform="translate(-3.011 -3.54)" fill="#fff" fill-rule="evenodd"/>
    </g>
  </g>
</svg>
