<svg xmlns="http://www.w3.org/2000/svg" width="19" height="19" viewBox="0 0 19 19">
  <g id="close-cross-circular-outlined-interface-button_58253" transform="translate(0 -0.001)">
    <g id="Group_2417" data-name="Group 2417" transform="translate(0 0.001)">
      <g id="Group_2415" data-name="Group 2415" transform="translate(0 0)">
        <path id="Path_62027" data-name="Path 62027" d="M3.278,16.691a9.459,9.459,0,1,0-2.032-3.014A9.451,9.451,0,0,0,3.278,16.691ZM9.984,1.886a8.1,8.1,0,1,1-8.1,8.1A8.1,8.1,0,0,1,9.984,1.886Z" transform="translate(-0.484 -0.485)" fill="#9c1803"/>
        <path id="Path_62028" data-name="Path 62028" d="M9.5,19A9.5,9.5,0,0,1,5.8.748a9.5,9.5,0,0,1,7.4,17.506A9.443,9.443,0,0,1,9.5,19ZM9.5.033A9.47,9.47,0,0,0,5.814,18.224,9.47,9.47,0,0,0,13.186.778,9.409,9.409,0,0,0,9.5.033Zm0,17.583A8.116,8.116,0,0,1,3.762,3.763,8.116,8.116,0,1,1,15.239,15.24,8.063,8.063,0,0,1,9.5,17.617Zm0-16.2a8.083,8.083,0,0,0-5.716,13.8A8.083,8.083,0,1,0,15.216,3.785,8.03,8.03,0,0,0,9.5,1.418Z" transform="translate(0 -0.001)" fill="#9c1803"/>
      </g>
      <g id="Group_2416" data-name="Group 2416" transform="translate(5.757 5.757)">
        <path id="Path_62029" data-name="Path 62029" d="M178.848,185.9a.692.692,0,0,0,.979,0l2.545-2.545,2.545,2.545a.692.692,0,0,0,.979-.979l-2.545-2.545,2.545-2.545a.692.692,0,0,0-.979-.979l-2.545,2.545-2.545-2.545a.692.692,0,0,0-.979.979l2.545,2.545-2.545,2.545A.692.692,0,0,0,178.848,185.9Z" transform="translate(-178.629 -178.631)" fill="#9c1803"/>
        <path id="Path_62030" data-name="Path 62030" d="M184.924,185.633a.7.7,0,0,1-.5-.208l-2.533-2.533-2.533,2.533a.708.708,0,0,1-1-1l2.533-2.533-2.533-2.533a.708.708,0,0,1,1-1l2.533,2.533,2.533-2.533a.708.708,0,0,1,1,1l-2.533,2.533,2.533,2.533a.708.708,0,0,1-.5,1.209Zm-3.034-2.787,2.556,2.556a.676.676,0,1,0,.956-.956l-2.556-2.556,2.556-2.556a.676.676,0,0,0-.956-.956l-2.556,2.556-2.556-2.556a.676.676,0,1,0-.956.956l2.556,2.556-2.556,2.556a.676.676,0,1,0,.956.956Z" transform="translate(-178.147 -178.147)" fill="#9c1803"/>
      </g>
    </g>
  </g>
</svg>
