<svg xmlns="http://www.w3.org/2000/svg" width="23.991" height="21.134" viewBox="0 0 23.991 21.134">
  <g id="_6-Check" data-name="6-Check" transform="translate(-32 -59.158)">
    <path id="Path_60788" data-name="Path 60788" d="M42.943,80.292a.526.526,0,0,1-.386-.169L32.14,68.855a.526.526,0,0,1,.386-.883H37.54a.526.526,0,0,1,.4.181l3.481,4.005A19.945,19.945,0,0,1,43.8,68.383,35.443,35.443,0,0,1,55.218,59.22a.526.526,0,0,1,.571.879,34.41,34.41,0,0,0-5.009,5.188,38.686,38.686,0,0,0-7.326,14.605.526.526,0,0,1-.511.4Z" transform="translate(0 0)" fill="#b23c14"/>
  </g>
</svg>
