<svg xmlns="http://www.w3.org/2000/svg" width="19.634" height="23.999" viewBox="0 0 19.634 23.999">
  <g id="delete_3405244" transform="translate(-3 -1)">
    <path id="Path_63782" data-name="Path 63782" d="M20.362,7a1.091,1.091,0,0,0-1.091,1.091V20.3a2.094,2.094,0,0,1-2.193,1.973h-8.7A2.094,2.094,0,0,1,6.182,20.3V8.091A1.091,1.091,0,1,0,4,8.091V20.3a4.274,4.274,0,0,0,4.374,4.155h8.7A4.274,4.274,0,0,0,21.453,20.3V8.091A1.091,1.091,0,0,0,20.362,7Z" transform="translate(0.091 0.545)" fill="#b23c14"/>
    <path id="Path_63783" data-name="Path 63783" d="M21.544,4.272H17.18V2.091A1.091,1.091,0,0,0,16.09,1H9.545A1.091,1.091,0,0,0,8.454,2.091V4.272H4.091a1.091,1.091,0,1,0,0,2.182H21.544a1.091,1.091,0,0,0,0-2.182Zm-10.908,0V3.182H15V4.272Z" fill="#b23c14"/>
    <path id="Path_63784" data-name="Path 63784" d="M11.182,17.726V10.091a1.091,1.091,0,1,0-2.182,0v7.636a1.091,1.091,0,0,0,2.182,0Z" transform="translate(0.545 0.726)" fill="#b23c14"/>
    <path id="Path_63785" data-name="Path 63785" d="M15.182,17.726V10.091a1.091,1.091,0,1,0-2.182,0v7.636a1.091,1.091,0,0,0,2.182,0Z" transform="translate(0.908 0.726)" fill="#b23c14"/>
  </g>
</svg>
