<svg xmlns="http://www.w3.org/2000/svg" xmlns:xlink="http://www.w3.org/1999/xlink" width="32.977" height="32.977" viewBox="0 0 32.977 32.977">
  <defs>
    <linearGradient id="linear-gradient" x2="1" y2="1" gradientUnits="objectBoundingBox">
      <stop offset="0" stop-color="#de875a"/>
      <stop offset="0.958" stop-color="#b23c14"/>
      <stop offset="1" stop-color="#9c1803"/>
    </linearGradient>
  </defs>
  <g id="Group_54" data-name="Group 54" transform="translate(-20 -52)">
    <rect id="Rectangle_2426" data-name="Rectangle 2426" width="30" height="30" rx="10" transform="translate(22 54)" fill="#fff"/>
    <g id="doument_7754012" transform="translate(20 52)">
      <path id="Path_60769" data-name="Path 60769" d="M0,16.489C0,30.067,2.91,32.977,16.489,32.977s16.489-2.91,16.489-16.489S30.067,0,16.489,0,0,2.91,0,16.489Zm16.489,13.74a36.966,36.966,0,0,1-7.708-.6A7.17,7.17,0,0,1,5.1,27.881,7.17,7.17,0,0,1,3.35,24.2a36.97,36.97,0,0,1-.6-7.709,36.969,36.969,0,0,1,.6-7.708A7.171,7.171,0,0,1,5.1,5.1,7.171,7.171,0,0,1,8.78,3.35a36.969,36.969,0,0,1,7.708-.6,36.97,36.97,0,0,1,7.709.6A7.17,7.17,0,0,1,27.881,5.1,7.17,7.17,0,0,1,29.628,8.78a36.966,36.966,0,0,1,.6,7.708,36.967,36.967,0,0,1-.6,7.709,7.17,7.17,0,0,1-1.746,3.684A7.169,7.169,0,0,1,24.2,29.628,36.967,36.967,0,0,1,16.489,30.229Z" fill-rule="evenodd" fill="url(#linear-gradient)"/>
      <path id="Path_60770" data-name="Path 60770" d="M6,7.374A1.374,1.374,0,0,1,7.374,6H11.5a1.374,1.374,0,1,1,0,2.748H7.374A1.374,1.374,0,0,1,6,7.374Z" transform="translate(2.244 2.244)" fill="url(#linear-gradient)"/>
      <path id="Path_60771" data-name="Path 60771" d="M6,12.374A1.374,1.374,0,0,1,7.374,11h13.74a1.374,1.374,0,0,1,0,2.748H7.374A1.374,1.374,0,0,1,6,12.374Z" transform="translate(2.244 4.115)" fill="url(#linear-gradient)"/>
      <path id="Path_60772" data-name="Path 60772" d="M14.374,16a1.374,1.374,0,0,0,0,2.748H18.5A1.374,1.374,0,0,0,18.5,16Z" transform="translate(4.863 5.985)" fill="url(#linear-gradient)"/>
    </g>
  </g>
</svg>
