<svg xmlns="http://www.w3.org/2000/svg" xmlns:xlink="http://www.w3.org/1999/xlink" width="38.411" height="36.205" viewBox="0 0 38.411 36.205">
  <defs>
    <radialGradient id="radial-gradient" cx="0.5" cy="0.5" r="0.363" gradientUnits="objectBoundingBox">
      <stop offset="0.574" stop-color="#161412"/>
      <stop offset="0.798" stop-color="#161412"/>
      <stop offset="1" stop-color="#161412"/>
    </radialGradient>
  </defs>
  <g id="Group_5609" data-name="Group 5609" transform="translate(0)">
    <path id="Path_63317" data-name="Path 63317" d="M5573.858,1475.635l-4.539-2.225a.553.553,0,0,1-.253-.738l.1-.2a.553.553,0,0,1,.739-.252l4.538,2.225a.55.55,0,0,1,.253.738l-.1.2A.551.551,0,0,1,5573.858,1475.635Z" transform="translate(-5549.303 -1456.587)" fill="#b23c14"/>
    <g id="Group_3687" data-name="Group 3687" transform="translate(0 0)">
      <path id="Path_63318" data-name="Path 63318" d="M5327.383,1159.9c-.37-.046-2.727-.127-2.727-.127l-4.041-2.127a.386.386,0,0,1-.188-.221l-.911-1.507-1.709.055-.13,1.177a2.106,2.106,0,0,0,.937,1.948l5.407,1.846c.106.182,1.167-.061,1.167-.061a6.484,6.484,0,0,1,2.65-.1C5328.334,1160.822,5327.874,1159.965,5327.383,1159.9Z" transform="translate(-5302.594 -1146.158)" fill="#f9a78a"/>
      <path id="Path_63319" data-name="Path 63319" d="M5521.536,2375.994l.359,1.9,1.756-.629-.367-1.692Z" transform="translate(-5502.702 -2343.374)" fill="#f9a78a"/>
      <path id="Path_63320" data-name="Path 63320" d="M4588.716,2318.606l1.738-1.226,1,1.286-1.821,1.42Z" transform="translate(-4587.041 -2286.253)" fill="#f9a78a"/>
      <g id="Group_3678" data-name="Group 3678" transform="translate(2.767 14.039)">
        <path id="Path_63321" data-name="Path 63321" d="M4666.266,1407.153l-2.172.57-.114-.573-.016-.077h0c-.013-.019-.03-.04-.046-.062a11.264,11.264,0,0,1-2.448-7.255,7.951,7.951,0,0,1-1.682-2.472,12.713,12.713,0,0,1-.614-1.558c-.387,1.54-1.016,3.5-1.291,4.344a2.733,2.733,0,0,1-.409.789,18.852,18.852,0,0,1-7.744,6.057l-.074.019-.063.045-.39.277-1.119-1.792a.743.743,0,0,1,.336-.226.31.31,0,0,1,.076-.014c.011-.023.022-.047.035-.07,1.692-3.349,5.9-6.121,5.9-6.121a29.284,29.284,0,0,1,.893-7.236c.027-.117.051-.225.072-.323a7.871,7.871,0,0,1,.6-1.638,14.73,14.73,0,0,1,.818-1.485l4.4-.01-.011.031a.057.057,0,0,0,.011-.01l.613,3.579,2.794,5.612a5.281,5.281,0,0,1,.5,1.6l1.04,7.35.012.077.013.078Z" transform="translate(-4648.083 -1388.339)" fill="#330601"/>
        <path id="Path_63322" data-name="Path 63322" d="M5251.657,1657.981a12.467,12.467,0,0,1-.614-1.558l.95-2.5Z" transform="translate(-5239.952 -1649.037)" fill="url(#radial-gradient)"/>
      </g>
      <g id="Group_3679" data-name="Group 3679" transform="translate(17.756 30.751)">
        <path id="Path_63323" data-name="Path 63323" d="M5469.594,2300.392l-.022-.069-.021-.065-.041-.134a.957.957,0,0,0-.823-.665l-2.436-.231.006-.007-.221-2.3-3.1,1.149,1.269,3.73.01.077.014.111a.193.193,0,0,0,.245.162l4.946-1.428A.263.263,0,0,0,5469.594,2300.392Z" transform="translate(-5462.932 -2296.922)" fill="#de875a"/>
        <path id="Path_63324" data-name="Path 63324" d="M5537.822,2481.788l.022.069a.261.261,0,0,1-.177.332l-4.946,1.427a.192.192,0,0,1-.245-.162l-.014-.11Z" transform="translate(-5531.184 -2478.388)" fill="#330601"/>
      </g>
      <g id="Group_3680" data-name="Group 3680" transform="translate(0 30.033)">
        <path id="Path_63325" data-name="Path 63325" d="M4502.232,2262.881l-.457-.177a.423.423,0,0,1-.267-.347l-.08-.718a.788.788,0,0,1,.43-.793l.951-.478-2-2.447-3.014,2.584-.074.04a.224.224,0,0,0-.063.337l.825.983.386.459,1.327,1.58a.527.527,0,0,0,.4.188h2.07a.142.142,0,0,0,.142-.143v-.227A.9.9,0,0,0,4502.232,2262.881Z" transform="translate(-4497.605 -2257.922)" fill="#de875a"/>
        <path id="Path_63326" data-name="Path 63326" d="M4502.809,2401.611v.214a.142.142,0,0,1-.142.142h-2.07a.526.526,0,0,1-.4-.188l-2.538-3.023a.222.222,0,0,1,.063-.336l.074-.041,2.477,3.009a.612.612,0,0,0,.474.223Z" transform="translate(-4497.605 -2395.795)" fill="#330601"/>
      </g>
      <g id="Group_3681" data-name="Group 3681" transform="translate(8.947 5.402)">
        <path id="Path_63327" data-name="Path 63327" d="M5364.617,1017.922l1.73,2.888-1.71.731Z" transform="translate(-5357.619 -1016.099)" fill="#bdccd4"/>
        <path id="Path_63328" data-name="Path 63328" d="M4991.5,931.367h-6.823a.622.622,0,0,1-.612-.729l.718-4.122.136-.79.7-4.022a3.169,3.169,0,0,1,2.436-2.8l.085-.02a2.584,2.584,0,0,1,.6-.082,1.057,1.057,0,0,1,.328.045c.257.086.559.178.85.288a1.772,1.772,0,0,1,.346.143,3.345,3.345,0,0,1,.8,1.042s.078.172.09.214a3.861,3.861,0,0,1,.093.644l.279,2.469.206,2.4.065.78.329,3.865A.622.622,0,0,1,4991.5,931.367Z" transform="translate(-4984.057 -918.802)" fill="#9c1803"/>
      </g>
      <line id="Line_13" data-name="Line 13" x1="0.147" y2="1.545" transform="translate(11 9.469)" fill="#f7931e"/>
      <path id="Path_63329" data-name="Path 63329" d="M5203.768,923.776l-2.322-4.872.085-.02a2.589,2.589,0,0,1,.6-.082,1.041,1.041,0,0,1,.325.045c.259.086.56.178.851.288l.063.073Z" transform="translate(-5188.502 -913.4)" fill="#bdccd4"/>
      <g id="Group_3686" data-name="Group 3686" transform="translate(12.573 0)">
        <g id="Group_3684" data-name="Group 3684" transform="translate(0.032 0.336)">
          <path id="Path_63330" data-name="Path 63330" d="M5217.926,815.169s0,.006,0,.01l-.1.54-.1.547c-.081.427.176,1.5-.28,1.417s-1.447-1.3-1.366-1.727l.16-.849.044-.237.045-.453c.063-.343.369-.442.718-.481a.892.892,0,0,1,.265.01.867.867,0,0,1,.539.336.761.761,0,0,1,.138.591Z" transform="translate(-5215.458 -810.792)" fill="#f7ac92"/>
          <path id="Path_63331" data-name="Path 63331" d="M5231.7,815.472l-.159.859a1.5,1.5,0,0,1-.785-.368c-.916-.834-.6-1.244-.6-1.244.063-.343.312-.453.66-.491a4.6,4.6,0,0,1,.747.653.768.768,0,0,1,.14.581S5231.7,815.469,5231.7,815.472Z" transform="translate(-5229.229 -811.086)" fill="#e5332a" opacity="0.2"/>
          <path id="Path_63333" data-name="Path 63333" d="M5215.448,688.133c-.155,1.058-.354,2.027-1.152,1.91a2.372,2.372,0,0,1-1.737-2.335,2.553,2.553,0,0,1,.147-.554c.01-.026.02-.051.031-.076l.015-.032c.007-.016.014-.032.022-.048a1.823,1.823,0,0,1,.863-.9l.013-.006.025-.01.018-.008a1.138,1.138,0,0,1,1.043.1,1.529,1.529,0,0,1,.138.1c.023.019.044.039.066.061s.026.025.038.037a1.812,1.812,0,0,1,.435.831c.014.057.025.115.034.174q.012.064.018.13a.367.367,0,0,1,0,.039A2.5,2.5,0,0,1,5215.448,688.133Z" transform="translate(-5211.999 -685.21)" fill="#f7ac92"/>
          <path id="Path_63334" data-name="Path 63334" d="M5186.51,644.1c-.322-.592-1.219-.954-2.7-.529-.437.126-.6.721-.707,1.279a4.868,4.868,0,0,0-.084.822,1.616,1.616,0,0,0,.017.292c.04.253.183.658-.135.725,0,0,.7.646.877.452h0l.513-1.326.653-.445s2.021.44,1.9-.1A9.382,9.382,0,0,0,5186.51,644.1Z" transform="translate(-5182.898 -643.382)" fill="#3f1401"/>
          <path id="Path_63335" data-name="Path 63335" d="M5294.4,769.55c-.012,0-.019-.027-.008-.038a.608.608,0,0,1,.109-.088.521.521,0,0,1,.151-.066.408.408,0,0,1,.161-.012.29.29,0,0,1,.126.046c.012.008.01.035,0,.038l-.118.036c-.05.015-.1.03-.148.043s-.1.024-.152.032A.717.717,0,0,1,5294.4,769.55Z" transform="translate(-5292.339 -767.026)" fill="#1a1a1a"/>
          <path id="Path_63336" data-name="Path 63336" d="M5353.192,766.439c.01.006.012.027.005.03a.607.607,0,0,1-.1.018c-.042,0-.083.006-.125.006s-.085,0-.126,0l-.1,0c-.009,0-.016-.021-.01-.029a.229.229,0,0,1,.086-.061.341.341,0,0,1,.13-.023.479.479,0,0,1,.134.02A.49.49,0,0,1,5353.192,766.439Z" transform="translate(-5349.608 -764.112)" fill="#1a1a1a"/>
          <g id="Group_3682" data-name="Group 3682" transform="translate(2.354 2.538)">
            <path id="Path_63337" data-name="Path 63337" d="M5311.07,781.562c-.006.1-.063.176-.129.172s-.115-.086-.109-.185.063-.175.128-.172S5311.076,781.463,5311.07,781.562Z" transform="translate(-5310.832 -781.376)"/>
          </g>
          <g id="Group_3683" data-name="Group 3683" transform="translate(3.162 2.488)">
            <path id="Path_63338" data-name="Path 63338" d="M5354.982,778.856c-.006.1-.063.176-.129.172s-.115-.087-.108-.185.063-.176.128-.172S5354.987,778.758,5354.982,778.856Z" transform="translate(-5354.744 -778.671)"/>
          </g>
          <path id="Path_63339" data-name="Path 63339" d="M5232.486,774.682c-.006.214.069.367.228.39l.249-.744C5232.8,774.3,5232.5,774.219,5232.486,774.682Z" transform="translate(-5231.573 -771.898)" fill="#f7ac92"/>
          <path id="Path_63340" data-name="Path 63340" d="M5243.787,782.259c-.009.09-.042.161-.074.158s-.052-.078-.045-.169.042-.161.074-.158S5243.8,782.169,5243.787,782.259Z" transform="translate(-5242.549 -779.539)" fill="#c66f58"/>
          <path id="Path_63341" data-name="Path 63341" d="M5327.994,802.334a.632.632,0,0,1-.359-.039.032.032,0,0,1,.025-.06c.084.034.317.1.379-.016a.091.091,0,0,0,.011-.085c-.023-.049-.106-.075-.134-.081a.032.032,0,0,1-.027-.032l0-.3a.032.032,0,0,1,.032-.032.031.031,0,0,1,.031.032l0,.28a.245.245,0,0,1,.155.11.151.151,0,0,1-.011.143A.18.18,0,0,1,5327.994,802.334Z" transform="translate(-5324.953 -798.773)" fill="#c66f58"/>
        </g>
        <g id="Group_3685" data-name="Group 3685" transform="translate(0)">
          <path id="Path_63342" data-name="Path 63342" d="M5255.562,714.783l1.389.11h0c-.1.523-1.525.876-2.319.809l-1.6-.12S5255.559,714.779,5255.562,714.783Z" transform="translate(-5251.714 -713.134)" fill="#de875a"/>
          <path id="Path_63343" data-name="Path 63343" d="M5185.024,636.557a5.957,5.957,0,0,1-3.044.978,4.426,4.426,0,0,1-.687-.016l-.075-.294a1.712,1.712,0,0,1,1.317-2.026l.023-.005.256-.066a1.711,1.711,0,0,1,2.133,1.135Z" transform="translate(-5181.169 -634.882)" fill="#330601"/>
          <path id="Path_63344" data-name="Path 63344" d="M5181.979,644.372a4.4,4.4,0,0,1-.687-.016l-.075-.294a1.713,1.713,0,0,1,1.318-2.026l.022-.005.02.034A1.865,1.865,0,0,0,5181.979,644.372Z" transform="translate(-5181.168 -641.719)" fill="#006837" opacity="0.3"/>
          <rect id="Rectangle_2738" data-name="Rectangle 2738" width="0.584" height="0.3" rx="0.15" transform="translate(1.159 0.146) rotate(-14.461)" fill="#de875a"/>
        </g>
        <path id="Path_63345" data-name="Path 63345" d="M5304.677,841.922a.574.574,0,0,0,.675.353" transform="translate(-5302.406 -837.934)" fill="none" stroke="#c66f58" stroke-linecap="round" stroke-width="0.1"/>
      </g>
      <path id="Path_63346" data-name="Path 63346" d="M5005.4,1444.025l-1.159.4-6.566-.717.128-.791,6.365.7,1.159-.368Z" transform="translate(-4988.481 -1427.879)" fill="#de875a"/>
      <path id="Path_63347" data-name="Path 63347" d="M5030.557,1296.352l-1.14.365-5.871-.676.139-.79,5.658.619,1.147-.3Z" transform="translate(-5013.874 -1282.926)" fill="#de875a"/>
      <path id="Path_63348" data-name="Path 63348" d="M5122.562,1215.419c-.409-.05-2.119-.579-2.119-.579l-4.489-1.88a.318.318,0,0,1-.192-.252l-.234-1.687-2.85-.1.041,1.062a2.885,2.885,0,0,0,.885,2.388.579.579,0,0,0,.148.061l6.213,1.7a1.2,1.2,0,0,0,1.065-.081,3.74,3.74,0,0,1,2.038.333C5123.547,1216.646,5123.105,1215.486,5122.562,1215.419Z" transform="translate(-5101.365 -1200.147)" fill="#f9a78a"/>
      <path id="Path_63349" data-name="Path 63349" d="M5091.677,1044.505l3.358-.092-.407-2.512a1.373,1.373,0,0,0-1.161-1.1h0a1.373,1.373,0,0,0-1.554,1.216Z" transform="translate(-5080.75 -1033.141)" fill="#bdccd4"/>
    </g>
    <g id="Group_3699" data-name="Group 3699" transform="translate(21.209 9.524)">
      <g id="Group_3688" data-name="Group 3688" transform="translate(0 0)">
        <path id="Path_63350" data-name="Path 63350" d="M5667.251,1218.294l-16.01,2.312a.419.419,0,0,1-.475-.355l-.066-.458a.418.418,0,0,1,.354-.474l16.01-2.312a.418.418,0,0,1,.474.354l.067.458A.419.419,0,0,1,5667.251,1218.294Z" transform="translate(-5650.696 -1215.64)" fill="#de875a"/>
        <path id="Path_63351" data-name="Path 63351" d="M5720.829,1144.365l-14.659,2.117a1.729,1.729,0,0,1,0-.529,1.764,1.764,0,0,1,.325-.761,1.693,1.693,0,0,1,.184-.208,1.726,1.726,0,0,1,.96-.472l11.218-1.62a1.738,1.738,0,0,1,1.969,1.472Z" transform="translate(-5705.132 -1142.875)" fill="#de875a"/>
        <path id="Path_63352" data-name="Path 63352" d="M5720.829,1196.871l-14.659,2.117a1.731,1.731,0,0,1,0-.529l14.5-2.094A1.723,1.723,0,0,1,5720.829,1196.871Z" transform="translate(-5705.132 -1195.381)" fill="#de875a" opacity="0.2"/>
        <line id="Line_15" data-name="Line 15" x1="0.691" y1="0.265" transform="translate(15.936 1.561)" fill="#fff" opacity="0.15"/>
      </g>
      <g id="Group_3697" data-name="Group 3697" transform="translate(1.539 2.789)">
        <g id="Group_3689" data-name="Group 3689" transform="translate(4.636 18.83)">
          <path id="Path_63353" data-name="Path 63353" d="M5986.347,2318.292l.264,2.465,3.354.175-.54-2.759Z" transform="translate(-5986.347 -2318.174)" fill="#9c1803"/>
          <path id="Path_63354" data-name="Path 63354" d="M5986.347,2318.292l.264,2.465,3.354.175-.54-2.759Z" transform="translate(-5986.347 -2318.174)" fill="#9c1803" opacity="0.3"/>
        </g>
        <g id="Group_3690" data-name="Group 3690" transform="translate(0)">
          <path id="Path_63355" data-name="Path 63355" d="M5749.041,1294.929l.034.242a.527.527,0,0,1-.447.6l-13.614,1.966a.527.527,0,0,1-.6-.447l-.037-.242a.529.529,0,0,1,.447-.6l13.616-1.966a.527.527,0,0,1,.492.2A.545.545,0,0,1,5749.041,1294.929Z" transform="translate(-5734.375 -1294.477)" fill="#9c1803"/>
        </g>
        <g id="Group_3691" data-name="Group 3691" transform="translate(2.468 18.984)">
          <circle id="Ellipse_451" data-name="Ellipse 451" cx="1.718" cy="1.718" r="1.718" transform="translate(0 2.43) rotate(-45)" fill="#30302e"/>
          <circle id="Ellipse_452" data-name="Ellipse 452" cx="1.133" cy="1.133" r="1.133" transform="translate(1.145 1.474) rotate(-8.346)" fill="#de875a"/>
          <ellipse id="Ellipse_453" data-name="Ellipse 453" cx="0.567" cy="0.567" rx="0.567" ry="0.567" transform="matrix(0.982, -0.187, 0.187, 0.982, 1.768, 1.979)" fill="#330601" opacity="0.3"/>
        </g>
        <g id="Group_3696" data-name="Group 3696" transform="translate(0.999 1.321)">
          <path id="Path_63356" data-name="Path 63356" d="M5801.739,1366.317l.035.446,1.3,16.186h0l.226,2.809.041.29a.465.465,0,0,1,.006.063.539.539,0,0,1-.461.546l-1.61.232a.537.537,0,0,1-.6-.393.629.629,0,0,1-.013-.062.292.292,0,0,0-.332-.248l-4.988.721a.594.594,0,0,1-.68-.539q-.007-.076-.018-.153a2.23,2.23,0,0,0-2.525-1.888.064.064,0,0,1-.071-.049l-.119-.571-2.851-13.608-.046-.218-.26-1.241-.093-.438Z" transform="translate(-5788.688 -1366.317)" fill="#330601"/>
          <path id="Path_63357" data-name="Path 63357" d="M5801.737,1366.317l-13.05,1.885.089.438,13-1.877Z" transform="translate(-5788.687 -1366.317)" fill="#006837" opacity="0.3"/>
          <g id="Group_3695" data-name="Group 3695" transform="translate(4.627 8.025)" style="mix-blend-mode: normal;isolation: isolate">
            <g id="Group_3692" data-name="Group 3692" transform="translate(0 0.78)">
              <path id="Path_63358" data-name="Path 63358" d="M6050.684,1852.961l-.337.048a.228.228,0,0,1-.258-.194l-1.082-7.493a.229.229,0,0,1,.194-.26l.336-.048a.228.228,0,0,1,.258.194l1.082,7.493A.228.228,0,0,1,6050.684,1852.961Z" transform="translate(-6048.842 -1845.012)" fill="#de875a" opacity="0.3"/>
              <path id="Path_63359" data-name="Path 63359" d="M6040.409,1854.227l1.078,7.47c.019.132.212.213.43.182a.723.723,0,0,0,.131-.033.531.531,0,0,1-.3.134h0c-.215.032-.409-.05-.427-.182l-1.079-7.47c-.016-.1.082-.208.228-.262A.2.2,0,0,0,6040.409,1854.227Z" transform="translate(-6040.244 -1853.899)" fill="#de875a" opacity="0.1"/>
            </g>
            <g id="Group_3693" data-name="Group 3693" transform="translate(2.7 0.39)">
              <path id="Path_63360" data-name="Path 63360" d="M6197.563,1831.75l-.334.048a.229.229,0,0,1-.261-.194l-1.081-7.493a.229.229,0,0,1,.192-.26l.337-.048a.227.227,0,0,1,.258.194l1.082,7.493A.228.228,0,0,1,6197.563,1831.75Z" transform="translate(-6195.72 -1823.801)" fill="#de875a" opacity="0.3"/>
              <path id="Path_63361" data-name="Path 63361" d="M6187.291,1833.016l1.079,7.47c.019.131.212.213.429.182a.681.681,0,0,0,.131-.034.533.533,0,0,1-.3.134h0c-.217.031-.409-.05-.427-.181l-1.08-7.47c-.014-.1.083-.207.229-.262A.193.193,0,0,0,6187.291,1833.016Z" transform="translate(-6187.124 -1832.688)" fill="#de875a" opacity="0.1"/>
            </g>
            <g id="Group_3694" data-name="Group 3694" transform="translate(5.402)">
              <path id="Path_63362" data-name="Path 63362" d="M6344.443,1810.54l-.334.048a.228.228,0,0,1-.259-.194l-1.083-7.493a.231.231,0,0,1,.195-.26l.335-.048a.23.23,0,0,1,.26.194l1.082,7.493A.23.23,0,0,1,6344.443,1810.54Z" transform="translate(-6342.602 -1802.59)" fill="#de875a" opacity="0.3"/>
              <path id="Path_63363" data-name="Path 63363" d="M6334.169,1811.805l1.079,7.47c.019.131.21.213.43.181a.7.7,0,0,0,.131-.033.533.533,0,0,1-.3.134h0c-.217.031-.409-.05-.428-.181l-1.08-7.47c-.014-.1.083-.207.231-.262A.192.192,0,0,0,6334.169,1811.805Z" transform="translate(-6334.003 -1811.478)" fill="#de875a" opacity="0.1"/>
            </g>
          </g>
          <path id="Path_63364" data-name="Path 63364" d="M6425.032,2423.3l.043.29a.537.537,0,0,1,0,.063l-2.667.386a.37.37,0,0,1-.012-.062.293.293,0,0,0-.333-.248Z" transform="translate(-6410.415 -2403.856)" fill="#de875a"/>
        </g>
      </g>
      <g id="Group_3698" data-name="Group 3698" transform="translate(7.527 6.981)">
        <path id="Path_63365" data-name="Path 63365" d="M6187.9,1642.58l-1.334.193-.049-.339,1.334-.192a.457.457,0,0,0,.362-.285.462.462,0,0,0-.065-.455l-.271-.343.268-.212.271.343a.8.8,0,0,1-.515,1.289Z" transform="translate(-6184.188 -1638.767)" fill="#fbe6d3"/>
        <path id="Path_63366" data-name="Path 63366" d="M6061.283,1644.03l-.442.064a.8.8,0,0,1-.857-1.091l.369-.925.317.127-.371.924a.46.46,0,0,0,.494.625l.442-.063Z" transform="translate(-6059.925 -1639.877)" fill="#fbe6d3"/>
        <path id="Path_63367" data-name="Path 63367" d="M6112.791,1523.927l-.778-.988a.458.458,0,0,0-.786.113l-.173.428-.317-.127.17-.428a.8.8,0,0,1,.63-.5h0a.793.793,0,0,1,.745.3l.778.989Z" transform="translate(-6109.8 -1522.421)" fill="#fbe6d3"/>
        <path id="Path_63368" data-name="Path 63368" d="M6203.99,1579.182l-.115-1.123-.879.59Z" transform="translate(-6200.363 -1577.036)" fill="#fbe6d3"/>
        <path id="Path_63369" data-name="Path 63369" d="M6066.265,1596.543l-.912.662.948.466Z" transform="translate(-6065.25 -1595.18)" fill="#fbe6d3"/>
        <path id="Path_63370" data-name="Path 63370" d="M6147.117,1700.955l1.032.46-.038-.552-.035-.5Z" transform="translate(-6145.512 -1697.087)" fill="#fbe6d3"/>
      </g>
    </g>
  </g>
</svg>
