<svg xmlns="http://www.w3.org/2000/svg" width="24.031" height="23.999" viewBox="0 0 24.031 23.999">
  <g id="Layer_2" data-name="Layer 2" transform="translate(-1 -1.03)">
    <path id="Path_63786" data-name="Path 63786" d="M3.247,25.028a2.244,2.244,0,0,1-2.216-2.613l.765-4.6a3.377,3.377,0,0,1,.949-1.844L16.726,1.993a3.479,3.479,0,0,1,4.8,0L24.036,4.5a3.4,3.4,0,0,1,0,4.8L10.055,23.284a3.378,3.378,0,0,1-1.844.949h0L3.614,25a2.24,2.24,0,0,1-.366.03ZM19.128,3.182a1.207,1.207,0,0,0-.858.355L4.289,17.518a1.208,1.208,0,0,0-.339.659l-.765,4.6,4.666-.7a1.208,1.208,0,0,0,.659-.339L22.492,7.758a1.212,1.212,0,0,0,0-1.714L19.985,3.537a1.2,1.2,0,0,0-.857-.355Z" transform="translate(0 0)" fill="#de875a"/>
    <path id="Path_63787" data-name="Path 63787" d="M19.761,11.769a1.089,1.089,0,0,1-.772-.32L13.227,5.686a1.092,1.092,0,0,1,1.545-1.545L20.533,9.9a1.092,1.092,0,0,1-.772,1.865Z" transform="translate(1.1 0.258)" fill="#de875a"/>
    <path id="Path_63788" data-name="Path 63788" d="M23.016,23.185H12.092a1.092,1.092,0,1,1,0-2.185H23.016a1.092,1.092,0,0,1,0,2.185Z" transform="translate(0.923 1.844)" fill="#de875a"/>
  </g>
</svg>
