<svg xmlns="http://www.w3.org/2000/svg" width="22.281" height="22.281" viewBox="0 0 22.281 22.281">
  <g id="hide_2430482" transform="translate(0 0)">
    <g id="hide" transform="translate(-0.001 -0.001)">
      <path id="Path_60687" data-name="Path 60687" d="M1.363.233a.8.8,0,0,0-1.13,1.13l4.16,4.152a13.355,13.355,0,0,0-4.319,5.3.8.8,0,0,0,0,.652c2,4.494,6.555,7.628,11.065,7.628a11.216,11.216,0,0,0,5.369-1.456l4.407,4.407a.8.8,0,0,0,1.125,0l0,0a.8.8,0,0,0,0-1.125l0,0ZM11.386,14.766a3.977,3.977,0,0,1-3.977-3.977A3.858,3.858,0,0,1,7.87,9l1.217,1.209A2.386,2.386,0,0,0,11.974,13.1l1.209,1.225a3.914,3.914,0,0,1-1.8.445Z" transform="translate(0.001 0.001)" fill="#30302e"/>
      <path id="Path_60688" data-name="Path 60688" d="M238.3,180.7a2.387,2.387,0,0,0-1.591-1.591Z" transform="translate(-224.937 -170.201)" fill="#30302e"/>
      <path id="Path_60689" data-name="Path 60689" d="M143.53,68.042A4.073,4.073,0,0,1,147.61,72.1a3.832,3.832,0,0,1-.119.907l3.858,3.866a13.332,13.332,0,0,0,3.349-4.526.8.8,0,0,0,0-.652c-2-4.494-6.555-7.628-11.065-7.628a10.969,10.969,0,0,0-4.208.883l3.182,3.182A3.646,3.646,0,0,1,143.53,68.042Z" transform="translate(-132.493 -60.88)" fill="#30302e"/>
    </g>
  </g>
</svg>
