<svg xmlns="http://www.w3.org/2000/svg" width="15.252" height="13.981" viewBox="0 0 15.252 13.981">
  <g id="envelope_3916631" transform="translate(0 -1)">
    <g id="Path_60683" data-name="Path 60683" transform="translate(0 -1.656)" fill="none">
      <path d="M15.223,5.542l-5.35,5.35a3.182,3.182,0,0,1-4.494,0L.029,5.542C.02,5.642,0,5.733,0,5.833v7.626a3.181,3.181,0,0,0,3.177,3.177h8.9a3.181,3.181,0,0,0,3.177-3.177V5.833C15.252,5.733,15.232,5.642,15.223,5.542Z" stroke="none"/>
      <path d="M 1.099996566772461 8.168402671813965 L 1.099996566772461 13.45771312713623 C 1.101366996765137 14.6026029586792 2.033916473388672 15.53515243530273 3.177486419677734 15.53652286529541 L 12.07314682006836 15.53652286529541 C 13.21803665161133 15.53515243530273 14.15058708190918 14.6026029586792 14.15195655822754 13.45903301239014 L 14.15195655822754 8.168402671813965 L 10.64992713928223 11.67043304443359 C 9.841587066650391 12.47670269012451 8.767665863037109 12.92074298858643 7.6259765625 12.92074298858643 C 6.48427677154541 12.92074298858643 5.410346984863281 12.47670269012451 4.60103702545166 11.66944313049316 L 1.099996566772461 8.168402671813965 M 0.02923679351806641 5.542003631591797 L 5.378856658935547 10.89162254333496 C 6.620826721191406 12.13045310974121 8.631126403808594 12.13045310974121 9.873096466064453 10.89162254333496 L 15.22271633148193 5.542003631591797 C 15.23161697387695 5.642412185668945 15.25195693969727 5.733282089233398 15.25195693969727 5.833053588867188 L 15.25195693969727 13.45903301239014 C 15.24985694885254 15.21304321289062 13.82846641540527 16.63442230224609 12.07446670532227 16.63652229309082 L 3.177486419677734 16.63652229309082 C 1.423486709594727 16.63442230224609 0.002096176147460937 15.21304321289062 -3.814697265625e-06 13.45903301239014 L -3.814697265625e-06 5.833053588867188 C -3.814697265625e-06 5.733282089233398 0.02033615112304688 5.642412185668945 0.02923679351806641 5.542003631591797 Z" stroke="none" fill="#330601"/>
    </g>
    <g id="Path_60684" data-name="Path 60684" transform="translate(-0.271 0)" fill="none">
      <path d="M9.246,8.337l5.8-5.805A3.169,3.169,0,0,0,12.346,1h-8.9a3.169,3.169,0,0,0-2.7,1.532l5.8,5.805a1.911,1.911,0,0,0,2.7,0Z" stroke="none"/>
      <path d="M 7.89716625213623 7.794459342956543 C 8.113165855407715 7.794459342956543 8.316396713256836 7.710509777069092 8.467836380004883 7.559679508209229 L 13.53964519500732 2.487319946289062 C 13.19483852386475 2.241235256195068 12.7772970199585 2.101182460784912 12.3456563949585 2.099999666213989 L 3.451686143875122 2.099999666213989 C 3.018185377120972 2.101182460784912 2.599876880645752 2.241267681121826 2.254764318466187 2.487398624420166 L 7.324886322021484 7.558079719543457 C 7.477936267852783 7.710509777069092 7.68117618560791 7.794459342956543 7.89716625213623 7.794459342956543 M 7.89716625213623 8.894454956054688 C 7.409313678741455 8.894454956054688 6.92146110534668 8.708789825439453 6.548636436462402 8.337459564208984 L 0.743996262550354 2.532189607620239 C 1.315886259078979 1.583929538726807 2.341326236724854 1.003029584884644 3.448676347732544 0.9999995827674866 L 12.3456563949585 0.9999995827674866 C 13.45300579071045 1.003029584884644 14.4784460067749 1.583929538726807 15.05033588409424 2.532189607620239 L 9.245696067810059 8.337459564208984 C 8.872871398925781 8.708789825439453 8.385018348693848 8.894454956054688 7.89716625213623 8.894454956054688 Z" stroke="none" fill="#330601"/>
    </g>
  </g>
</svg>
