<svg xmlns="http://www.w3.org/2000/svg" width="19.928" height="21.702" viewBox="0 0 19.928 21.702">
  <g id="Layer_2" data-name="Layer 2" transform="translate(-2.24 -1)">
    <path id="Path_60789" data-name="Path 60789" d="M14.037,8.55H8.244a.724.724,0,1,0,0,1.448h5.793a.724.724,0,1,0,0-1.448Z" transform="translate(-1.457 -2.083)" fill="#fbe6d3"/>
    <path id="Path_60790" data-name="Path 60790" d="M14.037,13.9H8.244a.724.724,0,0,0,0,1.448h5.793a.724.724,0,1,0,0-1.448Z" transform="translate(-1.457 -3.559)" fill="#fbe6d3"/>
    <path id="Path_60791" data-name="Path 60791" d="M14.037,19.37H8.244a.724.724,0,1,0,0,1.448h5.793a.724.724,0,1,0,0-1.448Z" transform="translate(-1.457 -5.068)" fill="#fbe6d3"/>
    <path id="Path_60792" data-name="Path 60792" d="M19.351,1H5.057A2.824,2.824,0,0,0,2.24,3.839V21.5a1.021,1.021,0,0,0,1.55.876l2.665-1.6a.253.253,0,0,1,.268,0L9.684,22.55a.97.97,0,0,0,.521.152,1.057,1.057,0,0,0,.529-.145l2.976-1.781a.253.253,0,0,1,.268,0l2.65,1.6a1.007,1.007,0,0,0,1.028,0,1.021,1.021,0,0,0,.514-.883V9.284h2.274a1.731,1.731,0,0,0,1.723-1.723V3.839A2.824,2.824,0,0,0,19.351,1ZM16.722,20.739l-2-1.2a1.723,1.723,0,0,0-1.76,0l-2.752,1.651L7.468,19.53a1.723,1.723,0,0,0-1.781.007l-2,1.209V3.839a1.369,1.369,0,0,1,1.369-1.39H17.019a2.592,2.592,0,0,0-.3,1.18V20.718Zm4-13.179a.275.275,0,0,1-.275.275H18.171V3.65a1.18,1.18,0,0,1,1.18-1.2,1.369,1.369,0,0,1,1.369,1.369Z" fill="#fbe6d3"/>
  </g>
</svg>
