<svg xmlns="http://www.w3.org/2000/svg" width="26.016" height="26" viewBox="0 0 26.016 26">
  <g id="gps_1161327" transform="translate(0 0)">
    <path id="Path_62031" data-name="Path 62031" d="M173.15,168.7a4.428,4.428,0,1,0,4.428,4.428A4.433,4.433,0,0,0,173.15,168.7Zm0,7.332a2.9,2.9,0,1,1,2.9-2.9A2.907,2.907,0,0,1,173.15,176.031Zm0,0" transform="translate(-160.149 -160.127)" fill="#b23c14"/>
    <path id="Path_62032" data-name="Path 62032" d="M25.254,12.238h-2.8a9.5,9.5,0,0,0-8.694-8.694V.762a.762.762,0,1,0-1.524,0V3.545a9.5,9.5,0,0,0-8.694,8.694H.762a.762.762,0,0,0,0,1.524H3.545a9.5,9.5,0,0,0,8.694,8.694v2.782a.762.762,0,0,0,1.524,0V22.456a9.5,9.5,0,0,0,8.693-8.694h2.8a.762.762,0,0,0,0-1.524ZM13,20.962A7.962,7.962,0,1,1,20.963,13,7.971,7.971,0,0,1,13,20.962Zm0,0" fill="#b23c14"/>
  </g>
</svg>
