<svg xmlns="http://www.w3.org/2000/svg" width="20.463" height="23.951" viewBox="0 0 20.463 23.951">
  <g id="Notification" transform="translate(-3.268 -1.1)">
    <path id="Path_60773" data-name="Path 60773" d="M22.374,15.462a2.547,2.547,0,0,1-.395-1.358V10.656a.723.723,0,0,0-1.447,0V14.1a4.006,4.006,0,0,0,.621,2.136l.7,1.082a.888.888,0,0,1-.749,1.363H5.607a.887.887,0,0,1-.75-1.36l.7-1.091a4,4,0,0,0,.618-2.13V9.724a7.185,7.185,0,0,1,7.177-7.177,7.055,7.055,0,0,1,2.122.32.723.723,0,1,0,.435-1.38A8.516,8.516,0,0,0,13.355,1.1,8.633,8.633,0,0,0,4.731,9.724V14.1a2.543,2.543,0,0,1-.391,1.353l-.7,1.087a2.334,2.334,0,0,0,1.967,3.589H21.1a2.335,2.335,0,0,0,1.967-3.591Z" fill="#fbe6d3"/>
    <path id="Path_60774" data-name="Path 60774" d="M18.709,26.572a.724.724,0,0,0-.985.28,3.394,3.394,0,0,1-5.922,0,.724.724,0,0,0-1.264.7,4.841,4.841,0,0,0,8.449,0A.723.723,0,0,0,18.709,26.572Z" transform="translate(-1.409 -4.982)" fill="#fbe6d3"/>
    <path id="Path_60775" data-name="Path 60775" d="M23.615,8.82a3.436,3.436,0,1,0-3.436-3.436A3.439,3.439,0,0,0,23.615,8.82Zm0-5.425a1.989,1.989,0,1,1-1.989,1.989A1.992,1.992,0,0,1,23.615,3.395Z" transform="translate(-3.319 -0.166)" fill="#fbe6d3"/>
  </g>
</svg>
