<svg xmlns="http://www.w3.org/2000/svg" width="31.135" height="31.047" viewBox="0 0 31.135 31.047">
  <g id="destination_4970987" transform="translate(-16.496 -17.054)">
    <path id="Path_76756" data-name="Path 76756" d="M181.876,20.054a4.072,4.072,0,0,0-4.1,4.045q0,.1.005.208a3.984,3.984,0,0,0,.615,1.932l3.479,5.235,3.479-5.235a3.984,3.984,0,0,0,.615-1.932q.005-.1.005-.208a4.072,4.072,0,0,0-4.1-4.045Z" transform="translate(-138.763 -2.581)" fill="#330601"/>
    <ellipse id="Ellipse_472" data-name="Ellipse 472" cx="2.448" cy="2.415" rx="2.448" ry="2.415" transform="translate(40.665 19.103)" fill="#b23c14"/>
    <path id="Path_76757" data-name="Path 76757" d="M23.891,123.407H23.02a1.906,1.906,0,1,0-.509,0H21.64A2.143,2.143,0,0,0,19.5,125.55v3.294a1.25,1.25,0,0,0,1.25,1.25h.238v4.936a.89.89,0,0,0,1.78,0v-4.936h0v4.936a.89.89,0,0,0,1.78,0v-4.936h.238a1.25,1.25,0,0,0,1.25-1.25V125.55A2.144,2.144,0,0,0,23.891,123.407Z" transform="translate(-2.581 -88.238)" fill="#330601"/>
    <path id="Path_76758" data-name="Path 76758" d="M71.917,97.623H87.931a5.872,5.872,0,1,0,0-11.743H79.3a2.585,2.585,0,1,1,0-5.169h4.46v1.977l4.354-3.126-4.354-3.126v1.97H79.3a4.888,4.888,0,1,0,0,9.777h8.627a3.568,3.568,0,1,1,0,7.136H71.917Z" transform="translate(-47.683 -51.092)" fill="#de875a"/>
    <path id="Path_76759" data-name="Path 76759" d="M179.3,17.054a4.5,4.5,0,0,0-4.518,4.464q0,.116.006.23a4.393,4.393,0,0,0,.353,1.515,4.47,4.47,0,0,0,.332.627l3.479,5.235h.7l3.484-5.243a4.453,4.453,0,0,0,.327-.619,4.389,4.389,0,0,0,.353-1.515q.006-.114.006-.231a4.5,4.5,0,0,0-4.518-4.464Zm3.675,4.651a3.554,3.554,0,0,1-.285,1.227,3.593,3.593,0,0,1-.26.494l-3.13,4.71-3.125-4.7a3.6,3.6,0,0,1-.265-.5,3.555,3.555,0,0,1-.286-1.227c0-.062,0-.124,0-.187a3.681,3.681,0,1,1,7.361,0c0,.062,0,.124-.005.187Z" transform="translate(-136.182 0)" fill="#330601"/>
    <path id="Path_76760" data-name="Path 76760" d="M189.868,28.728a2.834,2.834,0,1,0,2.866,2.834A2.834,2.834,0,0,0,189.868,28.728Zm0,4.831a2,2,0,1,1,2.029-2A2,2,0,0,1,189.868,33.559Z" transform="translate(-146.755 -10.044)" fill="#de875a"/>
    <path id="Path_76761" data-name="Path 76761" d="M23.873,122.947a2.565,2.565,0,0,0-1.955-2.487,2.325,2.325,0,1,0-3.467,0,2.565,2.565,0,0,0-1.955,2.487v3.294a1.671,1.671,0,0,0,1.488,1.659v4.528a1.307,1.307,0,0,0,2.2.956,1.307,1.307,0,0,0,2.2-.956V127.9a1.671,1.671,0,0,0,1.488-1.659Zm-3.688-5.518a1.487,1.487,0,1,1-1.487,1.487A1.487,1.487,0,0,1,20.184,117.429Zm2.851,8.812a.833.833,0,0,1-.65.811v-4.1h-.838v9.477a.471.471,0,1,1-.943,0v-5.583h-.84v5.583a.471.471,0,1,1-.943,0V122.95h-.838v4.1a.833.833,0,0,1-.65-.811v-3.294a1.727,1.727,0,0,1,1.725-1.725H19.9a2.117,2.117,0,0,0,.565,0h.843a1.727,1.727,0,0,1,1.725,1.725Z" transform="translate(0 -85.635)" fill="#330601"/>
    <path id="Path_76762" data-name="Path 76762" d="M85.349,83.364H76.722a2.166,2.166,0,1,1,0-4.332h4.041v1.558l.663.34,4.354-3.126v-.681L81.426,74l-.663.34v1.552H76.722a5.307,5.307,0,1,0,0,10.614h8.627a3.149,3.149,0,1,1,0,6.3H69.336l-.419.419v2.3l.419.419H85.349a6.29,6.29,0,1,0,0-12.581Zm0,11.743H69.755V93.641H85.349a3.987,3.987,0,1,0,0-7.974H76.722a4.469,4.469,0,1,1,0-8.939h4.46l.419-.419V75.155l3.217,2.309L81.6,79.774V78.613l-.419-.419h-4.46a3,3,0,1,0,0,6.007h8.627a5.453,5.453,0,1,1,0,10.906Z" transform="translate(-45.102 -48.994)" fill="#de875a"/>
  </g>
</svg>
