<svg xmlns="http://www.w3.org/2000/svg" width="15.252" height="15.256" viewBox="0 0 15.252 15.256">
  <g id="telephone_126523" transform="translate(-0.068 0)">
    <g id="Path_60692" data-name="Path 60692" transform="translate(0)" fill="#330601">
      <path d="M14.8,11.033c-.639-.646-1.279-1.282-1.9-1.9a1.536,1.536,0,0,0-2.283,0l-.085.085c-.337.334-.687.68-1.024,1.027-.069-.035-.139-.069-.2-.1a4.577,4.577,0,0,1-.431-.23,11.619,11.619,0,0,1-2.847-2.6,6.618,6.618,0,0,1-.957-1.5c.3-.29.592-.586.879-.876l.22-.22a1.549,1.549,0,0,0,0-2.327c-.214-.217-.435-.435-.646-.646l-.283-.283-.3-.3C4.723.945,4.5.721,4.275.5A1.628,1.628,0,0,0,3.132,0a1.616,1.616,0,0,0-1.14.5c-.161.161-.324.321-.479.479-.227.23-.463.466-.7.693A2.346,2.346,0,0,0,.08,3.25,6.077,6.077,0,0,0,.527,5.8a14.766,14.766,0,0,0,2.62,4.372,16.32,16.32,0,0,0,5.364,4.2,7.948,7.948,0,0,0,3.055.885c.069,0,.139.006.2.006a2.518,2.518,0,0,0,1.956-.838c.214-.239.444-.463.687-.7.123-.12.249-.243.375-.368A1.541,1.541,0,0,0,14.8,11.033Zm-.611,1.72c-.12.12-.243.239-.362.359-.243.236-.494.482-.728.743a1.706,1.706,0,0,1-1.48.551,7.119,7.119,0,0,1-2.731-.8A15.469,15.469,0,0,1,3.8,9.628a13.9,13.9,0,0,1-2.476-4.12,5.067,5.067,0,0,1-.4-2.183A1.5,1.5,0,0,1,1.4,2.305c.243-.243.482-.485.715-.718.154-.154.312-.315.469-.472A.8.8,0,0,1,3.132.854a.817.817,0,0,1,.548.261c.217.214.441.438.652.652.1.1.2.2.3.3l.283.283.643.643a.7.7,0,0,1,0,1.128c-.072.076-.148.148-.22.224-.306.309-.624.63-.942.935a.661.661,0,0,0-.157.781,7.3,7.3,0,0,0,1.118,1.8,12.558,12.558,0,0,0,3.055,2.778,5.4,5.4,0,0,0,.51.274c.1.047.192.094.283.145a.69.69,0,0,0,.34.091h0a.686.686,0,0,0,.494-.23c.356-.368.728-.734,1.083-1.09l.085-.085a.8.8,0,0,1,.542-.261.816.816,0,0,1,.545.261c.617.614,1.257,1.25,1.893,1.893A.705.705,0,0,1,14.19,12.752Z" stroke="none"/>
      <path d="M 11.77122020721436 15.25626182556152 C 11.70508003234863 15.25626182556152 11.63579082489014 15.2531213760376 11.56650066375732 15.24997138977051 C 10.61850070953369 15.19642162322998 9.64530086517334 14.91612148284912 8.511470794677734 14.36495113372803 C 6.451690673828125 13.36026096343994 4.64702033996582 11.9492712020874 3.147850513458252 10.16665172576904 C 1.944740414619446 8.733621597290039 1.088070511817932 7.303741455078125 0.5274504423141479 5.795121192932129 C 0.2817904651165009 5.127431392669678 0.007780452724546194 4.236111640930176 0.08022045344114304 3.250311374664307 C 0.1274704486131668 2.623561382293701 0.3731304407119751 2.094441413879395 0.8140604496002197 1.675561428070068 C 1.050270438194275 1.44879138469696 1.286490440368652 1.212581396102905 1.513250470161438 0.9826614260673523 C 1.667580485343933 0.8251913785934448 1.831350445747375 0.66456139087677 1.99198043346405 0.5039414167404175 C 2.325830459594727 0.1732414066791534 2.722670555114746 2.140319884347264e-05 3.132100343704224 2.140319884347264e-05 C 3.541540384292603 2.140319884347264e-05 3.938380479812622 0.1732414066791534 4.275380611419678 0.5039414167404175 C 4.498990535736084 0.7212613821029663 4.722610473632812 0.9448714256286621 4.936770439147949 1.162191390991211 C 5.03756046295166 1.2629714012146 5.135190486907959 1.360611438751221 5.23598051071167 1.461391448974609 C 5.330460548400879 1.555881381034851 5.42495059967041 1.65036141872406 5.519430637359619 1.744851350784302 C 5.730450630187988 1.955861449241638 5.950920581817627 2.173181295394897 6.165080547332764 2.390501499176025 C 6.867430686950684 3.099141359329224 6.870580673217773 4.012501239776611 6.168230533599854 4.717991352081299 C 6.095790386199951 4.790431499481201 6.020210266113281 4.866021633148193 5.947770595550537 4.938451290130615 C 5.661160469055176 5.228211402893066 5.368260383605957 5.524261474609375 5.069050312042236 5.814021587371826 C 5.283220291137695 6.299041271209717 5.588720321655273 6.777771472930908 6.026510238647461 7.316341400146484 C 6.927270412445068 8.42811107635498 7.859520435333252 9.275331497192383 8.87367057800293 9.911540985107422 C 9.002799987792969 9.99342155456543 9.150830268859863 10.06586170196533 9.305150032043457 10.14145183563232 C 9.37129020690918 10.17610168457031 9.440580368041992 10.21074104309082 9.509870529174805 10.24539184570312 C 9.846870422363281 9.898941040039062 10.19646072387695 9.552491188049316 10.53346061706543 9.21864128112793 L 10.61850070953369 9.133601188659668 C 10.95235061645508 8.802911758422852 11.34604072570801 8.626531600952148 11.758620262146 8.626531600952148 C 12.17121028900146 8.626531600952148 12.56490039825439 8.802911758422852 12.90190029144287 9.136751174926758 C 13.5223503112793 9.750911712646484 14.16170024871826 10.38711166381836 14.80105018615723 11.0327615737915 C 15.49710083007812 11.73511123657227 15.49395084381104 12.64217185974121 14.78846073150635 13.35081100463867 C 14.66247081756592 13.47679138183594 14.53649044036865 13.59962177276611 14.41366004943848 13.71930122375488 C 14.17115020751953 13.95551109313965 13.94124031066895 14.17913150787354 13.72707080841064 14.41849136352539 C 13.22945022583008 14.97281169891357 12.57120037078857 15.25626182556152 11.77122020721436 15.25626182556152 Z M 3.132100343704224 0.8535314202308655 C 2.899040460586548 0.8535314202308655 2.706920385360718 0.9952614307403564 2.58724045753479 1.114941358566284 C 2.429760456085205 1.272421360015869 2.272290468215942 1.433041453361511 2.117960453033447 1.587371349334717 C 1.88489043712616 1.820431351661682 1.645530462265015 2.062951326370239 1.40302050113678 2.305461406707764 C 1.116410493850708 2.576321363449097 0.9620904326438904 2.913321495056152 0.9305904507637024 3.325901508331299 C 0.8833504319190979 3.965251445770264 1.00303041934967 4.639251232147217 1.327430486679077 5.508521556854248 C 1.853400468826294 6.925801277160645 2.662820339202881 8.270641326904297 3.802950382232666 9.628081321716309 C 5.223380565643311 11.31622123718262 6.936720371246338 12.65476131439209 8.889410018920898 13.60592174530029 C 9.919310569763184 14.10669136047363 10.78542041778564 14.35865116119385 11.62005043029785 14.40589141845703 C 12.26568698883057 14.44053363800049 12.73182010650635 14.26731204986572 13.10032081604004 13.85473155975342 C 13.33338069915771 13.59332180023193 13.58534049987793 13.34766101837158 13.82785034179688 13.11144161224365 C 13.94754028320312 12.99176120758057 14.0703706741333 12.8720817565918 14.19005012512207 12.75240135192871 C 14.55539035797119 12.3839111328125 14.55854034423828 11.99651145935059 14.19005012512207 11.63432121276855 C 13.5538501739502 10.9918212890625 12.91450023651123 10.35562133789062 12.29719066619873 9.741461753845215 C 12.17436027526855 9.621781349182129 11.98224067687988 9.480051040649414 11.75232028961182 9.480051040649414 C 11.52241039276123 9.480051040649414 11.33029079437256 9.621781349182129 11.21061038970947 9.741461753845215 L 11.12557029724121 9.826501846313477 C 10.76968002319336 10.18240165710449 10.39803028106689 10.5477409362793 10.04214000701904 10.91623115539551 C 9.894110679626465 11.06741142272949 9.727190017700195 11.14615154266357 9.547660827636719 11.14615154266357 C 9.434280395507812 11.14615154266357 9.320900917053223 11.11780166625977 9.207520484924316 11.05481147766113 C 9.116180419921875 11.00442123413086 9.024850845336914 10.95718097686768 8.924060821533203 10.90993118286133 C 8.757140159606934 10.82805156707764 8.58390998840332 10.74301147460938 8.413840293884277 10.63593101501465 C 7.320960521697998 9.949331283569336 6.31941032409668 9.039121627807617 5.358810424804688 7.858051300048828 C 4.84229040145874 7.221851348876953 4.486390590667725 6.648641586303711 4.240730285644531 6.059681415557861 C 4.086410522460938 5.688041210174561 4.240730285644531 5.429781436920166 4.398210525512695 5.278601169586182 C 4.716310501098633 4.973101615905762 5.03441047668457 4.651851177215576 5.339910507202148 4.343201637268066 C 5.412350654602051 4.267611503601074 5.487940311431885 4.195171356201172 5.560380458831787 4.11958122253418 C 5.938320636749268 3.741641521453857 5.935170650482178 3.373151302337646 5.557230472564697 2.992051362991333 C 5.343060493469238 2.777891397476196 5.125740528106689 2.560571432113647 4.914730548858643 2.349551439285278 C 4.820240497589111 2.255071401596069 4.725760459899902 2.160581350326538 4.631270408630371 2.066101312637329 C 4.530490398406982 1.968461394309998 4.432850360870361 1.867681384086609 4.332070350646973 1.766891360282898 C 4.121050357818604 1.552731394767761 3.897430419921875 1.329111456871033 3.680120468139648 1.114941358566284 C 3.557290554046631 0.9952614307403564 3.365170478820801 0.8535314202308655 3.132100343704224 0.8535314202308655 Z" stroke="none" fill="#330601"/>
    </g>
  </g>
</svg>
