<svg xmlns="http://www.w3.org/2000/svg" width="15.252" height="18.025" viewBox="0 0 15.252 18.025">
  <g id="user_people_person_users_man" data-name="user people person users man" transform="translate(-5 -3)">
    <path id="Path_60690" data-name="Path 60690" d="M17.992,16.091a.694.694,0,1,0-.978.984,6.239,6.239,0,0,1,1.851,4.437c0,.846-2.433,2.08-6.239,2.08s-6.239-1.234-6.239-2.08A6.239,6.239,0,0,1,8.21,17.1a.691.691,0,0,0-.978-.978A7.57,7.57,0,0,0,5,21.512c0,2.253,3.931,3.466,7.626,3.466s7.626-1.213,7.626-3.466a7.584,7.584,0,0,0-2.26-5.421Z" transform="translate(0 -3.954)" fill="#330601"/>
    <path id="Path_60691" data-name="Path 60691" d="M13.853,12.706A4.853,4.853,0,1,0,9,7.853,4.853,4.853,0,0,0,13.853,12.706Zm0-8.319a3.466,3.466,0,1,1-3.466,3.466A3.466,3.466,0,0,1,13.853,4.387Z" transform="translate(-1.227)" fill="#330601"/>
  </g>
</svg>
