<svg xmlns="http://www.w3.org/2000/svg" width="40" height="49" viewBox="0 0 40 49">
  <g id="Group_3773" data-name="Group 3773" transform="translate(-133 -154)">
    <g id="Ellipse_456" data-name="Ellipse 456" transform="translate(146 157)" fill="none" stroke="#b23c14" stroke-width="1" opacity="0.26">
      <circle cx="3.5" cy="3.5" r="3.5" stroke="none"/>
      <circle cx="3.5" cy="3.5" r="3" fill="none"/>
    </g>
    <g id="Ellipse_457" data-name="Ellipse 457" transform="translate(161 164)" fill="none" stroke="#b23c14" stroke-width="1" opacity="0.26">
      <circle cx="3.5" cy="3.5" r="3.5" stroke="none"/>
      <circle cx="3.5" cy="3.5" r="3" fill="none"/>
    </g>
    <g id="Ellipse_458" data-name="Ellipse 458" transform="translate(156 180)" fill="none" stroke="#b23c14" stroke-width="1" opacity="0.26">
      <circle cx="3.5" cy="3.5" r="3.5" stroke="none"/>
      <circle cx="3.5" cy="3.5" r="3" fill="none"/>
    </g>
    <g id="Ellipse_459" data-name="Ellipse 459" transform="translate(150 169)" fill="none" stroke="#fbe6d3" stroke-width="1" opacity="0.26">
      <circle cx="3.5" cy="3.5" r="3.5" stroke="none"/>
      <circle cx="3.5" cy="3.5" r="3" fill="none"/>
    </g>
    <g id="Ellipse_460" data-name="Ellipse 460" transform="translate(139 173)" fill="none" stroke="#b23c14" stroke-width="1" opacity="0.26">
      <circle cx="3.5" cy="3.5" r="3.5" stroke="none"/>
      <circle cx="3.5" cy="3.5" r="3" fill="none"/>
    </g>
    <g id="Ellipse_461" data-name="Ellipse 461" transform="translate(144 184)" fill="none" stroke="#fbe6d3" stroke-width="1" opacity="0.26">
      <circle cx="3.5" cy="3.5" r="3.5" stroke="none"/>
      <circle cx="3.5" cy="3.5" r="3" fill="none"/>
    </g>
    <g id="Ellipse_462" data-name="Ellipse 462" transform="translate(158 154)" fill="none" stroke="#fbe6d3" stroke-width="1" opacity="0.26">
      <circle cx="3.5" cy="3.5" r="3.5" stroke="none"/>
      <circle cx="3.5" cy="3.5" r="3" fill="none"/>
    </g>
    <g id="Ellipse_463" data-name="Ellipse 463" transform="translate(166 173)" fill="none" stroke="#b23c14" stroke-width="1" opacity="0.26">
      <circle cx="3.5" cy="3.5" r="3.5" stroke="none"/>
      <circle cx="3.5" cy="3.5" r="3" fill="none"/>
    </g>
    <g id="Ellipse_464" data-name="Ellipse 464" transform="translate(165 184)" fill="none" stroke="#fbe6d3" stroke-width="1" opacity="0.26">
      <circle cx="3.5" cy="3.5" r="3.5" stroke="none"/>
      <circle cx="3.5" cy="3.5" r="3" fill="none"/>
    </g>
    <g id="Ellipse_465" data-name="Ellipse 465" transform="translate(153 191)" fill="none" stroke="#b23c14" stroke-width="1" opacity="0.26">
      <circle cx="3.5" cy="3.5" r="3.5" stroke="none"/>
      <circle cx="3.5" cy="3.5" r="3" fill="none"/>
    </g>
    <g id="Ellipse_466" data-name="Ellipse 466" transform="translate(135 155)" fill="none" stroke="#b23c14" stroke-width="1" opacity="0.26">
      <circle cx="3.5" cy="3.5" r="3.5" stroke="none"/>
      <circle cx="3.5" cy="3.5" r="3" fill="none"/>
    </g>
    <g id="Ellipse_467" data-name="Ellipse 467" transform="translate(163 196)" fill="none" stroke="#b23c14" stroke-width="1" opacity="0.26">
      <circle cx="3.5" cy="3.5" r="3.5" stroke="none"/>
      <circle cx="3.5" cy="3.5" r="3" fill="none"/>
    </g>
    <g id="Ellipse_468" data-name="Ellipse 468" transform="translate(133 165)" fill="none" stroke="#fbe6d3" stroke-width="1" opacity="0.26">
      <circle cx="3.5" cy="3.5" r="3.5" stroke="none"/>
      <circle cx="3.5" cy="3.5" r="3" fill="none"/>
    </g>
  </g>
</svg>
