<svg xmlns="http://www.w3.org/2000/svg" xmlns:xlink="http://www.w3.org/1999/xlink" width="50" height="76.319" viewBox="0 0 50 76.319">
  <defs>
    <clipPath id="clip-path">
      <rect id="Rectangle_3966" data-name="Rectangle 3966" width="50" height="61" transform="translate(86 289)" fill="#fff"/>
    </clipPath>
  </defs>
  <g id="Group_5619" data-name="Group 5619" transform="translate(-86 -289)">
    <g id="Mask_Group_4" data-name="Mask Group 4" clip-path="url(#clip-path)">
      <g id="Group_3765" data-name="Group 3765" transform="translate(19.408 289.866)">
        <path id="Path_63707" data-name="Path 63707" d="M73.423,1538.823c.02,0-.414,2.919-.44,3.138-.155,1.273-.982,5.737-1.134,8.057a12.884,12.884,0,0,0,.381,4.26c1.563,2.936,4.509,5.136,4.8,4.147a5.619,5.619,0,0,0-.826-3.459,3.548,3.548,0,0,1,.221-3.388c.292.078.42.809,1.025,1.665a7.48,7.48,0,0,0,.225,1.733c.429.709,1.186.637,1.228-.158a18.31,18.31,0,0,0,.094-2.092,23.062,23.062,0,0,1-.173-2.51c.033-1.153-1.343-5.167-1.234-6.5l.329-4.005c.013-.153-.13-.29-.155-.41-.406-1.914-2.041.058-2.041.058a6.6,6.6,0,0,0-1.475.256C74.038,1539.76,73.423,1538.823,73.423,1538.823Z" transform="translate(-5.889 -1460.475)" fill="#9d6a57" fill-rule="evenodd"/>
        <path id="Path_63708" data-name="Path 63708" d="M956.433,1538.823c-.02,0,.414,2.919.44,3.138.155,1.273.982,5.737,1.135,8.057a12.88,12.88,0,0,1-.381,4.26c-1.563,2.936-4.509,5.136-4.8,4.147a5.621,5.621,0,0,1,.826-3.459,3.549,3.549,0,0,0-.221-3.388c-.292.078-.42.809-1.025,1.665a7.49,7.49,0,0,1-.225,1.733c-.429.709-1.186.637-1.228-.158a18.233,18.233,0,0,1-.094-2.092,23.093,23.093,0,0,0,.173-2.51c-.033-1.153,1.343-5.167,1.234-6.5l-.329-4.005c-.012-.153.13-.29.155-.41.406-1.914,2.042.058,2.042.058a6.6,6.6,0,0,1,1.475.256C955.817,1539.76,956.433,1538.823,956.433,1538.823Z" transform="translate(-840.057 -1460.475)" fill="#9d6a57" fill-rule="evenodd"/>
        <path id="Path_63709" data-name="Path 63709" d="M491.058,502.2l-8.26.01a13.572,13.572,0,0,0-1.032,2.57c1.336.438,3.321-.054,5.025-.054a18.97,18.97,0,0,0,5.079-.287A9.4,9.4,0,0,0,491.058,502.2Z" transform="translate(-394.996 -476.39)" fill="#183285" fill-rule="evenodd"/>
        <path id="Path_63710" data-name="Path 63710" d="M187.373,851.761l.952.127c.366-1.44,1.216-2.481,1.382-3.978l2.51-25.567,1.3-10.487-1.359-.62Z" transform="translate(-115.197 -770.751)" fill="#214db3" fill-rule="evenodd"/>
        <g id="Group_3757" data-name="Group 3757" transform="translate(66.354 27.972)">
          <path id="Path_63711" data-name="Path 63711" d="M93.3,571.822a22.912,22.912,0,0,0-4.918,1.52,6.414,6.414,0,0,0-2.854,2.455c-1.022,2.008-2.831,14.634-3.631,23.3-.525,5.691-1.5,15.142-2.115,20.961a10.111,10.111,0,0,0,.287,4.509l6.355.852c.366-1.44,1.216-2.481,1.382-3.978l2.51-25.567Z" transform="translate(-79.69 -571.822)" fill="#b23c14" fill-rule="evenodd"/>
          <path id="Path_63712" data-name="Path 63712" d="M822.676,571.822a22.911,22.911,0,0,1,4.918,1.52,6.412,6.412,0,0,1,2.854,2.455c1.022,2.008,2.831,14.634,3.631,23.3.525,5.691,1.5,15.142,2.115,20.961a10.111,10.111,0,0,1-.287,4.509l-6.355.852c-.366-1.44-1.216-2.481-1.382-3.978l-2.51-25.567Z" transform="translate(-785.162 -571.822)" fill="#b23c14" fill-rule="evenodd"/>
        </g>
        <path id="Path_63713" data-name="Path 63713" d="M860.645,851.761l-.952.127c-.366-1.44-1.216-2.481-1.382-3.978l-2.51-25.567-1.3-10.487,1.359-.62Z" transform="translate(-748.911 -770.751)" fill="#9c1803" fill-rule="evenodd"/>
        <path id="Path_63714" data-name="Path 63714" d="M248.346,569.979c.384,6.328.527,9.778.623,12.045l.092,2.164L217.4,584.3l.708-14.323c1.067-22.43-4.079-34.275-3.12-35.362,1.414-1.6,10.028-4.475,12.8-4.578.108,0,.219-.006.333-.007q.155.068.317.132l.7,2.221,2.186,1.127.936,2.35.347,2.977.907.162.555-3.6.867-1.989,1.746-.4.3-.99.994-1.919.153-.066c.126,0,.249,0,.369.008,2.751.106,11.357,2.983,12.764,4.576C252.214,535.7,247.279,547.548,248.346,569.979Z" transform="translate(-141.202 -504.137)" fill="#b23c14" fill-rule="evenodd"/>
        <path id="Path_63715" data-name="Path 63715" d="M302.881,551.945c1.183-.428,2.465-.839,3.705-1.193l1.9,23.107-3.778.311Z" transform="translate(-225.146 -522.8)" fill="#f80" fill-rule="evenodd"/>
        <path id="Path_63716" data-name="Path 63716" d="M957.447,1554.1c-2.039.2-4.017.373-6.056.573a32.043,32.043,0,0,0-.836-6.439l6.355-.852C956.909,1549.605,957.221,1551.885,957.447,1554.1Z" transform="translate(-839.772 -1468.032)" fill="#295ec5" fill-rule="evenodd"/>
        <path id="Path_63717" data-name="Path 63717" d="M952.273,1567.273l-.881.071a44.067,44.067,0,0,0-.838-6.443l.952-.128Z" transform="translate(-839.772 -1480.702)" fill="#214db3" fill-rule="evenodd"/>
        <path id="Path_63718" data-name="Path 63718" d="M266.2,1508.824c-.564,0-.687.427-.718.932l-.54,8.558h-15.4c.1-9.145.343-18.3.889-27.486,5.051-.031,10.731-.046,15.766-.046l15.471.046c.354,8.6.777,16.508.867,24.7l.015,2.781h-15.1l-.54-8.558C266.884,1509.251,266.761,1508.824,266.2,1508.824Z" transform="translate(-174.005 -1415.375)" fill="#f80" fill-rule="evenodd"/>
        <g id="Group_3758" data-name="Group 3758" transform="translate(74.44 86.817)">
          <path id="Path_63719" data-name="Path 63719" d="M254.1,1705.8q.036-1.173.077-2.347l6.478-1.661.56,2.184Z" transform="translate(-254.103 -1701.788)" fill="#e06404" fill-rule="evenodd"/>
          <path id="Path_63720" data-name="Path 63720" d="M780.327,1703.436q.05,1.178.094,2.352l-7.083-1.816.56-2.184Z" transform="translate(-745.265 -1701.788)" fill="#e06404" fill-rule="evenodd"/>
        </g>
        <path id="Path_63721" data-name="Path 63721" d="M490.58,1732.692c-.4.1-.5.475-.534.905l-.583,8.558h-3.874l.8-14.738Z" transform="translate(-398.488 -1639.215)" fill="#e06404" fill-rule="evenodd"/>
        <path id="Path_63722" data-name="Path 63722" d="M588.063,1742.155l-.583-8.558v-.1l0-.018v0l0-.019v0l0-.018v-.005l0-.014v-.019l0-.019,0-.015v0l0-.019h0l0-.019v0l0-.015v-.006l0-.012,0-.01,0-.009,0-.013v-.005l0-.016v0l0-.017h0l0-.016v0l0-.013a.638.638,0,0,0-.464-.491l4.194-5.276.828,14.738Z" transform="translate(-494.66 -1639.215)" fill="#e06404" fill-rule="evenodd"/>
        <path id="Path_63723" data-name="Path 63723" d="M77.5,1554.1c2.039.2,4.017.373,6.056.573a32.049,32.049,0,0,1,.837-6.439l-6.355-.852C78.04,1549.605,77.728,1551.885,77.5,1554.1Z" transform="translate(-11.267 -1468.032)" fill="#295ec5" fill-rule="evenodd"/>
        <path id="Path_63724" data-name="Path 63724" d="M173.189,1567.273l.881.071a44.036,44.036,0,0,1,.838-6.443l-.951-.128Z" transform="translate(-101.78 -1480.702)" fill="#214db3" fill-rule="evenodd"/>
        <rect id="Rectangle_2741" data-name="Rectangle 2741" width="8.023" height="5.121" transform="translate(87.868 24.291)" fill="#f2c2a9"/>
        <path id="Path_63725" data-name="Path 63725" d="M498.027,455.3h8.305v4.644l-2.526.456-5.184-3.69Z" transform="translate(-410.377 -431.925)" fill="#c29180" fill-rule="evenodd"/>
        <path id="Path_63726" data-name="Path 63726" d="M482.15,531.193c1.473.127,3.138-.073,5.056-.073a36.088,36.088,0,0,0,5.176.009l.043,1.919-1.434.99-2.6,4.157-.658,2.28-.6,1.118-1.468-3.961-1.844-2.493-1.776-1.639Z" transform="translate(-395.268 -503.931)" fill="#f2c2a9" fill-rule="evenodd"/>
        <path id="Path_63727" data-name="Path 63727" d="M482.195,523.25c.932,1.15,2.064,3.11,4.989,3.161s3.478-1.8,4.629-3.3l.419,2.469-1.17,1.2-2.382,4.559-.7,2.382-1.012,4.53-2.232-7.612-1.656-2.886-1.249-1.6Z" transform="translate(-395.066 -496.41)" fill="#fff" fill-rule="evenodd"/>
        <path id="Path_63728" data-name="Path 63728" d="M580.833,500.65c3.217,1.04,4.894,5.851,5.728,8.883-2.361-1.385-4.746-3.407-6.681.556-.573,1.173-2.651,6.375-3.091,6.919a32.02,32.02,0,0,1,1.022-6.823c1.492-3.506,4.7-5.548,3.022-9.363Z" transform="translate(-485.168 -475.113)" fill="#de875a" fill-rule="evenodd"/>
        <g id="Group_3759" data-name="Group 3759" transform="translate(82.748 14.461)">
          <path id="Path_63729" data-name="Path 63729" d="M402.326,267.65c-2.771-.9-2.584,1.643-1.973,3.4a3.671,3.671,0,0,0,1.932,2.25C404.716,274.349,401.679,269.037,402.326,267.65Z" transform="translate(-399.975 -267.463)" fill="#f2c2a9" fill-rule="evenodd"/>
          <path id="Path_63730" data-name="Path 63730" d="M413.108,280.027a1.554,1.554,0,0,1,.365.015,10.612,10.612,0,0,0,.552,2.675,13.821,13.821,0,0,1,.46,1.838c-.157.047-.809-.548-.924-.682a3.589,3.589,0,0,1-.653-1.165,5.454,5.454,0,0,1-.337-1.8,1.326,1.326,0,0,1,.156-.681A.483.483,0,0,1,413.108,280.027Z" transform="translate(-411.888 -279.343)" fill="#c29180" fill-rule="evenodd"/>
        </g>
        <path id="Path_63731" data-name="Path 63731" d="M694.614,267.65c2.77-.9,2.584,1.643,1.973,3.4a3.671,3.671,0,0,1-1.932,2.25C692.223,274.349,695.26,269.037,694.614,267.65Z" transform="translate(-595.878 -253.002)" fill="#f2c2a9" fill-rule="evenodd"/>
        <path id="Path_63732" data-name="Path 63732" d="M707.5,280.027a1.553,1.553,0,0,0-.364.015,10.61,10.61,0,0,1-.552,2.675,13.77,13.77,0,0,0-.46,1.838c.157.047.809-.548.924-.682a3.591,3.591,0,0,0,.653-1.165,5.465,5.465,0,0,0,.337-1.8,1.324,1.324,0,0,0-.156-.681A.483.483,0,0,0,707.5,280.027Z" transform="translate(-607.627 -264.882)" fill="#c29180" fill-rule="evenodd"/>
        <path id="Path_63733" data-name="Path 63733" d="M422.44,99.727h5.932c3.113,0,6.09,2.577,5.661,5.661l-1.072,7.7a13,13,0,0,1-2.53,6.118,5.906,5.906,0,0,1-5.025,2.509h0a5.907,5.907,0,0,1-5.022-2.505,13.255,13.255,0,0,1-2.532-6.121l-1.072-7.7C416.35,102.3,419.326,99.727,422.44,99.727Z" transform="translate(-333.489 -94.335)" fill="#f2c2a9" fill-rule="evenodd"/>
        <path id="Path_63734" data-name="Path 63734" d="M523.964,417.088c.993.088,1.92.235,2.871.241s1.878-.154,2.871-.241a3.7,3.7,0,0,1-5.741,0Z" transform="translate(-434.918 -395.634)" fill="#fff" fill-rule="evenodd"/>
        <path id="Path_63735" data-name="Path 63735" d="M641.393,283.013a.538.538,0,1,0,.538.538A.538.538,0,0,0,641.393,283.013Z" transform="translate(-545.684 -267.711)" fill-rule="evenodd"/>
        <path id="Path_63736" data-name="Path 63736" d="M628.537,282.211h-2.612S627.444,280.866,628.537,282.211Z" transform="translate(-531.565 -266.387)" fill-rule="evenodd"/>
        <g id="Group_3760" data-name="Group 3760" transform="translate(86.994 15.242)">
          <path id="Path_63737" data-name="Path 63737" d="M496.5,283.037a.538.538,0,1,1-.538.538A.538.538,0,0,1,496.5,283.037Z" transform="translate(-495.232 -282.976)" fill-rule="evenodd"/>
          <path id="Path_63738" data-name="Path 63738" d="M482.46,282.5h2.612S483.552,281.158,482.46,282.5Z" transform="translate(-482.46 -281.905)" fill-rule="evenodd"/>
        </g>
        <g id="Group_3761" data-name="Group 3761" transform="translate(85.543 13.405)">
          <path id="Path_63739" data-name="Path 63739" d="M463.642,248.81a.567.567,0,0,0-.31-.749,19.594,19.594,0,0,0-2.472-.127,2.215,2.215,0,0,0-.714.045,2.973,2.973,0,0,0-.865.809c-.059.1.567-.194.878-.2C461.092,248.564,462.346,248.871,463.642,248.81Z" transform="translate(-459.277 -247.925)" fill-rule="evenodd"/>
          <path id="Path_63740" data-name="Path 63740" d="M616.48,248.81a.567.567,0,0,1,.31-.749,19.6,19.6,0,0,1,2.473-.127,2.214,2.214,0,0,1,.714.045,2.974,2.974,0,0,1,.865.809c.059.1-.567-.194-.878-.2C619.03,248.564,617.776,248.871,616.48,248.81Z" transform="translate(-607.93 -247.925)" fill-rule="evenodd"/>
        </g>
        <path id="Path_63741" data-name="Path 63741" d="M412.646,39.8a5.824,5.824,0,0,1-.516-1.391c-1.65-7.145-1-14.991,8.332-14.816.248,0,4.37.215,4.9,1.422A3.453,3.453,0,0,1,428,26.332c2.581,2.667,1.7,7.437.628,12.072-.047.2-.359,1.451-.566,1.411-.031-2.281-.131-8.861-2.308-11.323a10.765,10.765,0,0,1-6.781,2.346c-1.08-.038-3.693-.714-3.374-1.868C411.75,30.652,412.948,35.418,412.646,39.8Z" transform="translate(-328.472 -22.31)" fill-rule="evenodd"/>
        <path id="Path_63742" data-name="Path 63742" d="M578.911,531.122c1.586.005,3.032.18,4.357.091-.692,1.018-1.273,2.077-2.585,2.538l-1.772-2.628Z" transform="translate(-487.013 -503.819)" fill="#c29180" fill-rule="evenodd"/>
        <path id="Path_63743" data-name="Path 63743" d="M401.839,500.65c-3.217,1.04-4.894,5.851-5.728,8.883,2.361-1.385,4.746-3.407,6.681.556.573,1.173,2.651,6.375,3.091,6.919a32.04,32.04,0,0,0-1.022-6.823c-1.492-3.506-4.7-5.548-3.022-9.363Z" transform="translate(-313.692 -475.113)" fill="#de875a" fill-rule="evenodd"/>
        <path id="Path_63744" data-name="Path 63744" d="M424.977,126.313s-.285,1.823-1.353,2.1c-2.136.561-4.509-2.175-8.011-2.285-3.5.11-5.875,2.846-8.011,2.285-1.068-.281-1.353-2.1-1.353-2.1a1.567,1.567,0,0,0,.561-.243,27.136,27.136,0,0,1,8.3-2.264,4.2,4.2,0,0,1,.982,0,27.115,27.115,0,0,1,8.32,2.266A1.566,1.566,0,0,0,424.977,126.313Z" transform="translate(-323.578 -117.084)" fill="#b23c14" fill-rule="evenodd"/>
        <path id="Path_63745" data-name="Path 63745" d="M433.83,134.753a2.578,2.578,0,0,1-.24-.132,26.891,26.891,0,0,0-8.142-2.215,4.577,4.577,0,0,0-.906,0,26.943,26.943,0,0,0-8.125,2.214,2.574,2.574,0,0,1-.24.132c.15.541.463,1.237.933,1.36a1.845,1.845,0,0,0,.289.051,7.006,7.006,0,0,0,3.107-1.018,10.923,10.923,0,0,1,4.483-1.334h.029a10.921,10.921,0,0,1,4.483,1.334,7.007,7.007,0,0,0,3.107,1.018,1.845,1.845,0,0,0,.289-.051C433.367,135.99,433.68,135.294,433.83,134.753Z" transform="translate(-332.968 -125.226)" fill="#de875a" fill-rule="evenodd"/>
        <path id="Path_63746" data-name="Path 63746" d="M749.705,550.842c1.24.355,2.523.767,3.705,1.2l-1.83,22.218-3.778-.311Z" transform="translate(-647.297 -522.885)" fill="#f80" fill-rule="evenodd"/>
        <path id="Path_63747" data-name="Path 63747" d="M339.844,968.526l-25.784.095.924-32.294h23.939Z" transform="translate(-235.034 -889.169)" fill="#f80" fill-rule="evenodd"/>
        <path id="Path_63748" data-name="Path 63748" d="M411.944,1073.328H429.8v11.632a2.884,2.884,0,0,1-2.876,2.876h-12.1a2.884,2.884,0,0,1-2.876-2.876Z" transform="translate(-328.955 -1018.516)" fill="#e06404" fill-rule="evenodd"/>
        <path id="Path_63749" data-name="Path 63749" d="M421.443,1082.829v11.119a2.37,2.37,0,0,0,2.362,2.362h12.1a2.37,2.37,0,0,0,2.362-2.362v-11.119Z" transform="translate(-337.94 -1027.496)" fill="#f80" fill-rule="evenodd"/>
        <path id="Path_63750" data-name="Path 63750" d="M399.675,1037.63h19.183v3.984a.736.736,0,0,1-.734.734H400.409a.736.736,0,0,1-.734-.734Z" transform="translate(-317.349 -984.346)" fill="#e06404" fill-rule="evenodd"/>
        <path id="Path_63751" data-name="Path 63751" d="M405.957,9.281a9,9,0,0,1,6.569-8.9,10.453,10.453,0,0,1,5.59,0,9,9,0,0,1,6.569,8.9,26.987,26.987,0,0,0-9.363-2.542A26.987,26.987,0,0,0,405.957,9.281Z" transform="translate(-323.285 0)" fill="#9c1803" fill-rule="evenodd"/>
        <path id="Path_63752" data-name="Path 63752" d="M311.833,817.838l3.334-.292a.952.952,0,0,1,1.029.864l.153,1.751a.953.953,0,0,1-.864,1.029l-3.333.292a.953.953,0,0,1-1.029-.864l-.153-1.751a.953.953,0,0,1,.864-1.029Zm3.389.351-3.334.292a.305.305,0,0,0-.277.33l.153,1.751a.306.306,0,0,0,.331.277l3.334-.292a.305.305,0,0,0,.276-.331l-.153-1.751a.305.305,0,0,0-.33-.276Z" transform="translate(-232.813 -775.544)" fill="#fc0" fill-rule="evenodd"/>
        <path id="Path_63753" data-name="Path 63753" d="M747.725,817.838l-3.333-.292a.952.952,0,0,0-1.029.864l-.153,1.751a.953.953,0,0,0,.864,1.029l3.333.292a.953.953,0,0,0,1.029-.864l.153-1.751a.953.953,0,0,0-.864-1.029Zm-3.389.351,3.334.292a.3.3,0,0,1,.206.108.305.305,0,0,1,.071.223l-.153,1.751a.3.3,0,0,1-.108.206.307.307,0,0,1-.223.071l-3.333-.292a.305.305,0,0,1-.276-.331l.153-1.751a.305.305,0,0,1,.331-.276Z" transform="translate(-642.927 -775.544)" fill="#fc0" fill-rule="evenodd"/>
        <path id="Path_63754" data-name="Path 63754" d="M263.167,1495.4q.1-1.883.207-3.768H294.5q.078,1.905.16,3.768Z" transform="translate(-186.893 -1414.996)" fill="#4c271f" fill-rule="evenodd"/>
        <rect id="Rectangle_2742" data-name="Rectangle 2742" width="4.014" height="4.246" rx="2.007" transform="translate(89.91 76.376)" fill="#fc0"/>
        <g id="Group_3762" data-name="Group 3762" transform="translate(65.591 77.316)">
          <path id="Path_63755" data-name="Path 63755" d="M933.76,1526.862c.155,1.232,1.891,7.6,1.649,8.585a21.47,21.47,0,0,0-1.1,5.78,18.19,18.19,0,0,0,.094,2.09c.042.795,1.185.866,1.613.158a7.5,7.5,0,0,0,.225-1.732c.6-.856.474-1.586.766-1.664a3.545,3.545,0,0,1,.221,3.386,5.62,5.62,0,0,0-.825,3.456c.29.989,3.75-1.209,5.311-4.143a12.886,12.886,0,0,0,.381-4.256c-.244-3.724-.263-8.682-.374-12.455Z" transform="translate(-889.477 -1526.067)" fill="#fc0" fill-rule="evenodd"/>
          <path id="Path_63756" data-name="Path 63756" d="M73.959,1526.862c-.154,1.232-1.891,7.6-1.649,8.585a21.468,21.468,0,0,1,1.1,5.78,18.232,18.232,0,0,1-.094,2.09c-.042.795-1.185.866-1.613.158a7.5,7.5,0,0,1-.225-1.732c-.6-.856-.474-1.586-.766-1.664a3.544,3.544,0,0,0-.22,3.386,5.621,5.621,0,0,1,.825,3.456c-.29.989-3.75-1.209-5.311-4.143a12.894,12.894,0,0,1-.381-4.256c.244-3.724.263-8.682.374-12.455Z" transform="translate(-65.591 -1526.067)" fill="#fc0" fill-rule="evenodd"/>
        </g>
      </g>
    </g>
    <g id="Group_3766" data-name="Group 3766" transform="translate(-2087.595 -775.362)">
      <path id="Path_63614" data-name="Path 63614" d="M2529.115,1814.615h-1.823v.879h1.823a.231.231,0,0,0,.23-.231v-.417A.231.231,0,0,0,2529.115,1814.615Z" transform="translate(-323.108 -677.216)" fill="#666" fill-rule="evenodd"/>
      <path id="Path_63615" data-name="Path 63615" d="M2203.861,1814.615h1.741v.879h-1.741a.231.231,0,0,1-.231-.231v-.417A.231.231,0,0,1,2203.861,1814.615Z" transform="translate(-11.584 -677.216)" fill="#666" fill-rule="evenodd"/>
      <g id="Group_3737" data-name="Group 3737" transform="translate(2193.09 1112.012)">
        <path id="Path_63618" data-name="Path 63618" d="M2231.465,1112.331h.774v-.985a.335.335,0,0,0-.334-.334h-.105a.335.335,0,0,0-.334.334Z" transform="translate(-2231.465 -1111.012)" fill="#fbe6d3" fill-rule="evenodd"/>
        <path id="Path_63619" data-name="Path 63619" d="M2533.806,1112.331h.774v-.985a.335.335,0,0,0-.334-.334h-.105a.335.335,0,0,0-.334.334Z" transform="translate(-2522.468 -1111.012)" fill="#fbe6d3" fill-rule="evenodd"/>
      </g>
      <g id="Group_3738" data-name="Group 3738" transform="translate(2191.82 1114.894)">
        <path id="Path_63621" data-name="Path 63621" d="M2556.535,1214.528l-1.229,2.093.026-2.093Z" transform="translate(-2541.891 -1214.528)" fill="#b23c14" fill-rule="evenodd"/>
        <path id="Path_63622" data-name="Path 63622" d="M2197.6,1214.528l1.229,2.093-.026-2.093Z" transform="translate(-2197.601 -1214.528)" fill="#b23c14" fill-rule="evenodd"/>
      </g>
      <g id="Group_3739" data-name="Group 3739" transform="translate(2191.82 1114.894)">
        <path id="Path_63623" data-name="Path 63623" d="M2556.99,1214.528l-.4.674h-.816l.009-.674Z" transform="translate(-2542.346 -1214.528)" fill="#de875a" fill-rule="evenodd"/>
        <path id="Path_63624" data-name="Path 63624" d="M2197.6,1214.528l.4.674h.816l-.008-.674Z" transform="translate(-2197.601 -1214.528)" fill="#de875a" fill-rule="evenodd"/>
      </g>
      <g id="Group_3740" data-name="Group 3740" transform="translate(2191.594 1113.381)">
        <path id="Path_63625" data-name="Path 63625" d="M2205.7,1174.181h.6c.429,0,.385.171.385.927v.586H2191.6v-.586c0-.756-.044-.927.385-.927H2205.7Z" transform="translate(-2191.594 -1174.181)" fill="#fbe6d3" fill-rule="evenodd"/>
        <path id="Path_63626" data-name="Path 63626" d="M2192.313,1174.181h-.332c-.429,0-.385.171-.385.927v.586h1.3v-.912h-.583Z" transform="translate(-2191.594 -1174.181)" fill="#fbe6d3" fill-rule="evenodd"/>
        <path id="Path_63627" data-name="Path 63627" d="M2559.987,1174.181h.332c.429,0,.385.171.385.927v.586h-1.3v-.912h.583Z" transform="translate(-2545.61 -1174.181)" fill="#fbe6d3" fill-rule="evenodd"/>
      </g>
      <path id="Path_63628" data-name="Path 63628" d="M2238.571,1214.528c-.346,8.4-.643,16.779-1.147,25.169-.035.586-.487.612-1.04.607q-4.07-.033-8.136,0c-.553,0-1-.021-1.04-.607-.5-8.39-.8-16.769-1.147-25.169Z" transform="translate(-33.174 -99.634)" fill="#330601" fill-rule="evenodd"/>
      <path id="Path_63629" data-name="Path 63629" d="M2238.571,1214.528l-.028.674h-12.454l-.028-.674Z" transform="translate(-33.174 -99.634)" fill="#b23c14" fill-rule="evenodd"/>
      <path id="Path_63630" data-name="Path 63630" d="M2255.8,1659.645q-.2,4.237-.449,8.476c-.031.513-.38.6-.837.606l-.574,0v0q-3.7-.028-7.394,0v0l-.576,0c-.456-.01-.8-.094-.836-.606q-.255-4.239-.449-8.476c.429,1.71,1.275,3.762,2.873,3.826,1.187.047,2.066.064,2.683.068s1.5-.021,2.683-.068C2254.521,1663.407,2255.367,1661.355,2255.8,1659.645Z" transform="translate(-51.098 -528.058)" fill="#330601" fill-rule="evenodd"/>
      <path id="Path_63631" data-name="Path 63631" d="M2467.474,1198.947h.271v2.541a.136.136,0,0,1-.136.136h0a.136.136,0,0,1-.136-.136Z" transform="translate(-265.534 -84.637)" fill="#de875a" fill-rule="evenodd"/>
      <path id="Path_63632" data-name="Path 63632" d="M2467.746,1206.052v.991h-.271v-.991Z" transform="translate(-265.534 -91.476)" fill="#330601" fill-rule="evenodd"/>
      <path id="Path_63633" data-name="Path 63633" d="M2311.141,1198.947h.271v2.541a.136.136,0,0,1-.136.136h0a.136.136,0,0,1-.136-.136Z" transform="translate(-115.063 -84.637)" fill="#de875a" fill-rule="evenodd"/>
      <path id="Path_63634" data-name="Path 63634" d="M2311.413,1206.052v.991h-.271v-.991Z" transform="translate(-115.063 -91.476)" fill="#330601" fill-rule="evenodd"/>
      <path id="Path_63635" data-name="Path 63635" d="M2547.921,1750.515h.086a.492.492,0,0,1,.49.49v4.705a.492.492,0,0,1-.49.49h-.086a.492.492,0,0,1-.49-.49v-4.705A.492.492,0,0,1,2547.921,1750.515Z" transform="translate(-342.492 -615.52)" fill="#303030" fill-rule="evenodd"/>
      <path id="Path_63636" data-name="Path 63636" d="M2210.376,1750.515h-.086a.492.492,0,0,0-.49.49v4.705a.492.492,0,0,0,.49.49h.086a.492.492,0,0,0,.49-.49v-4.705A.492.492,0,0,0,2210.376,1750.515Z" transform="translate(-17.522 -615.52)" fill="#303030" fill-rule="evenodd"/>
      <path id="Path_63637" data-name="Path 63637" d="M2226.286,1190.205h12.5v.912h-12.5Z" transform="translate(-33.39 -76.223)" fill="#de875a" fill-rule="evenodd"/>
      <path id="Path_63638" data-name="Path 63638" d="M2527.621,1243.668h.923l-.854,14.887Z" transform="translate(-323.425 -127.681)" fill="#fff" fill-rule="evenodd"/>
      <g id="Group_3741" data-name="Group 3741" transform="translate(2194.842 1121.25)">
        <path id="Path_63639" data-name="Path 63639" d="M2284.609,1526.594v2.051h-1.835s-.513.072-1.056-.933-.851-1.661-.851-1.661a1.539,1.539,0,0,0,.995.543Z" transform="translate(-2280.765 -1520.725)" fill="#fff" fill-rule="evenodd"/>
        <path id="Path_63640" data-name="Path 63640" d="M2278.314,1463.911l.537.306-.615,1.044a.659.659,0,0,0,.29.844,2.125,2.125,0,0,0,1.425.351l.7-1.214.571.326-.962-1.687Z" transform="translate(-2278.18 -1460.885)" fill="#fff" fill-rule="evenodd"/>
        <path id="Path_63641" data-name="Path 63641" d="M2432.965,1458.238l1.756-1.06.948,1.572s.326.4-.253,1.386-.983,1.587-.983,1.587a1.538,1.538,0,0,0-.049-1.132Z" transform="translate(-2427.16 -1454.435)" fill="#fff" fill-rule="evenodd"/>
        <path id="Path_63642" data-name="Path 63642" d="M2392.716,1523.549l-.015-.618,1.212-.013a.659.659,0,0,0,.573-.684,2.128,2.128,0,0,0-.436-1.4l-1.4.032-.016-.657-.947,1.7Z" transform="translate(-2387.43 -1515.1)" fill="#fff" fill-rule="evenodd"/>
        <path id="Path_63643" data-name="Path 63643" d="M2316.178,1387.093l-1.786-1.008.9-1.6s.189-.482,1.332-.461,1.865.075,1.865.075a1.538,1.538,0,0,0-.962.6Z" transform="translate(-2313.034 -1384.025)" fill="#fff" fill-rule="evenodd"/>
        <path id="Path_63644" data-name="Path 63644" d="M2399.15,1391.683l-.531.317-.607-1.048a.659.659,0,0,0-.877-.162,2.127,2.127,0,0,0-1.006,1.069l.716,1.2-.564.337,1.942-.009Z" transform="translate(-2391.706 -1390.449)" fill="#fff" fill-rule="evenodd"/>
      </g>
    </g>
  </g>
</svg>
