<svg xmlns="http://www.w3.org/2000/svg" width="70" height="70" viewBox="0 0 70 70">
  <g id="timetable" transform="translate(-1 -1)">
    <path id="Path_76748" data-name="Path 76748" d="M65.355,16V60.032a3.383,3.383,0,0,1-3.387,3.387H4.387A3.383,3.383,0,0,1,1,60.032V16Z" transform="translate(0 1.935)" fill="#ffe9e6"/>
    <path id="Path_76749" data-name="Path 76749" d="M65.355,60.032a3.383,3.383,0,0,1-3.387,3.387H4.387A3.383,3.383,0,0,1,1,60.032V16H6.645V39.71A20.324,20.324,0,0,0,26.968,60.032Z" transform="translate(0 1.935)" fill="#f9d2cf"/>
    <path id="Path_76750" data-name="Path 76750" d="M65.355,9.387v7.9H1v-7.9A3.383,3.383,0,0,1,4.387,6H61.968A3.383,3.383,0,0,1,65.355,9.387Z" transform="translate(0 0.645)" fill="#a2b7ff"/>
    <path id="Path_76751" data-name="Path 76751" d="M65.355,13.9V17.29H1v-7.9A3.383,3.383,0,0,1,4.387,6H6.645V9.387A4.515,4.515,0,0,0,11.161,13.9Z" transform="translate(0 0.645)" fill="#80a1ff"/>
    <path id="Path_76752" data-name="Path 76752" d="M70.226,20V65.161a3.383,3.383,0,0,1-3.387,3.387H10.387A3.383,3.383,0,0,1,7,65.161V62.9H61.194a3.383,3.383,0,0,0,3.387-3.387V20Z" transform="translate(0.774 2.452)" fill="#ffe9e6"/>
    <path id="Path_76753" data-name="Path 76753" d="M70.226,60.258a3.383,3.383,0,0,1-3.387,3.387H10.387A3.383,3.383,0,0,1,7,60.258V58h3.59a3.351,3.351,0,0,0,3.184,2.258Z" transform="translate(0.774 7.355)" fill="#f9d2cf"/>
    <path id="Path_76754" data-name="Path 76754" d="M63.645,13.387v7.9H58V10h2.258A3.383,3.383,0,0,1,63.645,13.387Z" transform="translate(7.355 1.161)" fill="#a2b7ff"/>
    <path id="Path_76755" data-name="Path 76755" d="M63.645,19.032V21.29H58V10h2.258v6.21a2.824,2.824,0,0,0,2.823,2.823Z" transform="translate(7.355 1.161)" fill="#80a1ff"/>
    <g id="Group_5601" data-name="Group 5601" transform="translate(11.161 1)">
      <path id="Path_76756" data-name="Path 76756" d="M19.032,5.516V6.645H16.774V5.516a2.258,2.258,0,1,0-4.516,0V8.9a2.254,2.254,0,0,0,1.185,1.976,1.112,1.112,0,0,1,1.073-.847,1.132,1.132,0,0,1,1.129,1.129v2.258a1.129,1.129,0,1,1-2.258,0v-.158A4.516,4.516,0,0,1,10,8.9V5.516a4.516,4.516,0,1,1,9.032,0Z" transform="translate(-10 -1)" fill="#ff676c"/>
      <path id="Path_76757" data-name="Path 76757" d="M50.032,5.516V6.645H47.774V5.516a2.258,2.258,0,1,0-4.516,0V8.9a2.254,2.254,0,0,0,1.185,1.976,1.112,1.112,0,0,1,1.073-.847,1.132,1.132,0,0,1,1.129,1.129v2.258a1.129,1.129,0,1,1-2.258,0v-.158A4.516,4.516,0,0,1,41,8.9V5.516a4.516,4.516,0,0,1,9.032,0Z" transform="translate(-6 -1)" fill="#ff676c"/>
    </g>
    <path id="Path_76758" data-name="Path 76758" d="M6,22h9.032v6.774H6Z" transform="translate(0.645 2.71)" fill="#ffa71d"/>
    <path id="Path_76759" data-name="Path 76759" d="M15.032,26.516v2.258H6V22H9.387v1.129a3.383,3.383,0,0,0,3.387,3.387Z" transform="translate(0.645 2.71)" fill="#ed9015"/>
    <g id="Group_5602" data-name="Group 5602" transform="translate(6.645 24.71)">
      <path id="Path_76760" data-name="Path 76760" d="M32,22h9.032v6.774H32Z" transform="translate(-2.645 -22)" fill="#ffa71d"/>
      <path id="Path_76761" data-name="Path 76761" d="M45,22h9.032v6.774H45Z" transform="translate(-0.968 -22)" fill="#ffa71d"/>
      <path id="Path_76762" data-name="Path 76762" d="M6,34h9.032v6.774H6Z" transform="translate(-6 -20.452)" fill="#ffa71d"/>
      <path id="Path_76763" data-name="Path 76763" d="M19,34h9.032v6.774H19Z" transform="translate(-4.323 -20.452)" fill="#ffa71d"/>
      <path id="Path_76764" data-name="Path 76764" d="M32,34h9.032v6.774H32Z" transform="translate(-2.645 -20.452)" fill="#ffa71d"/>
      <path id="Path_76765" data-name="Path 76765" d="M45,34h9.032v6.774H45Z" transform="translate(-0.968 -20.452)" fill="#ffa71d"/>
      <path id="Path_76766" data-name="Path 76766" d="M6,46h9.032v6.774H6Z" transform="translate(-6 -18.903)" fill="#ffa71d"/>
      <path id="Path_76767" data-name="Path 76767" d="M19,46h9.032v6.774H19Z" transform="translate(-4.323 -18.903)" fill="#ffa71d"/>
      <path id="Path_76768" data-name="Path 76768" d="M32,46h9.032v6.774H32Z" transform="translate(-2.645 -18.903)" fill="#ffa71d"/>
      <path id="Path_76769" data-name="Path 76769" d="M45,46h9.032v6.774H45Z" transform="translate(-0.968 -18.903)" fill="#ffa71d"/>
    </g>
    <path id="Path_76770" data-name="Path 76770" d="M22.516,30.032a1.129,1.129,0,0,1-.8-.331l-3.387-3.387a1.129,1.129,0,0,1,1.6-1.6l2.513,2.513,4.854-5.824a1.129,1.129,0,1,1,1.734,1.445l-5.645,6.774a1.128,1.128,0,0,1-.816.405Z" transform="translate(2.194 2.581)" fill="#ff676c"/>
    <path id="Path_76771" data-name="Path 76771" d="M58,20h2.258V57.258A2.259,2.259,0,0,1,58,59.516Z" transform="translate(7.355 2.452)" fill="#f9d2cf"/>
    <path id="Path_76772" data-name="Path 76772" d="M41.032,26.516v2.258H32V22h3.387v1.129a3.383,3.383,0,0,0,3.387,3.387Z" transform="translate(4 2.71)" fill="#ed9015"/>
    <path id="Path_76773" data-name="Path 76773" d="M54.032,26.516v2.258H45V22h3.387v1.129a3.383,3.383,0,0,0,3.387,3.387Z" transform="translate(5.677 2.71)" fill="#ed9015"/>
    <path id="Path_76774" data-name="Path 76774" d="M15.032,38.516v2.258H6V34H9.387v1.129a3.383,3.383,0,0,0,3.387,3.387Z" transform="translate(0.645 4.258)" fill="#ed9015"/>
    <path id="Path_76775" data-name="Path 76775" d="M41.032,38.516v2.258H32V34h3.387v1.129a3.383,3.383,0,0,0,3.387,3.387Z" transform="translate(4 4.258)" fill="#ed9015"/>
    <path id="Path_76776" data-name="Path 76776" d="M54.032,38.516v2.258H45V34h3.387v1.129a3.383,3.383,0,0,0,3.387,3.387Z" transform="translate(5.677 4.258)" fill="#ed9015"/>
    <path id="Path_76777" data-name="Path 76777" d="M15.032,50.516v2.258H6V46H9.387v1.129a3.383,3.383,0,0,0,3.387,3.387Z" transform="translate(0.645 5.806)" fill="#ed9015"/>
    <path id="Path_76778" data-name="Path 76778" d="M28.032,38.516v2.258H19V34h3.387v1.129a3.383,3.383,0,0,0,3.387,3.387Z" transform="translate(2.323 4.258)" fill="#ed9015"/>
    <path id="Path_76779" data-name="Path 76779" d="M28.032,50.516v2.258H19V46h3.387v1.129a3.383,3.383,0,0,0,3.387,3.387Z" transform="translate(2.323 5.806)" fill="#ed9015"/>
    <path id="Path_76780" data-name="Path 76780" d="M41.032,50.516v2.258H32V46h3.387v1.129a3.383,3.383,0,0,0,3.387,3.387Z" transform="translate(4 5.806)" fill="#ed9015"/>
    <path id="Path_76781" data-name="Path 76781" d="M54.032,50.516v2.258H45V46h3.387v1.129a3.383,3.383,0,0,0,3.387,3.387Z" transform="translate(5.677 5.806)" fill="#ed9015"/>
  </g>
</svg>
