<svg xmlns="http://www.w3.org/2000/svg" width="22.678" height="22.679" viewBox="0 0 22.678 22.679">
  <g id="search-interface-symbol_54481" transform="translate(-0.006)">
    <g id="_x34__4_" transform="translate(0.006)">
      <g id="Group_2414" data-name="Group 2414" transform="translate(0)">
        <path id="Path_62026" data-name="Path 62026" d="M22.47,21.445l-5.855-5.762A9.261,9.261,0,0,0,19.09,9.39,9.467,9.467,0,0,0,9.547,0,9.466,9.466,0,0,0,.006,9.39a9.466,9.466,0,0,0,9.541,9.39,9.6,9.6,0,0,0,6.006-2.1l5.878,5.784a.742.742,0,0,0,1.038,0A.715.715,0,0,0,22.47,21.445ZM9.547,17.335A8.01,8.01,0,0,1,1.474,9.39,8.01,8.01,0,0,1,9.547,1.445,8.01,8.01,0,0,1,17.621,9.39,8.01,8.01,0,0,1,9.547,17.335Z" transform="translate(-0.006)" fill="#b23c14"/>
      </g>
    </g>
  </g>
</svg>
