<svg xmlns="http://www.w3.org/2000/svg" width="38" height="38" viewBox="0 0 38 38">
  <g id="Group_3771" data-name="Group 3771" transform="translate(-35 -260)">
    <rect id="Rectangle_422" data-name="Rectangle 422" width="38" height="38" rx="7" transform="translate(35 260)" fill="#fbe6d3"/>
    <g id="earnings" transform="translate(43 241.98)">
      <path id="Path_60717" data-name="Path 60717" d="M.655,304.881h1.31a.655.655,0,0,0,.655-.655v-7.205H.655a.655.655,0,0,0-.655.655v6.55A.655.655,0,0,0,.655,304.881Z" transform="translate(0 -258.211)" fill="#b23c14"/>
      <path id="Path_60718" data-name="Path 60718" d="M277.24,27.02a5.24,5.24,0,1,0,5.24,5.24A5.24,5.24,0,0,0,277.24,27.02Zm1.1,7.6a2.466,2.466,0,0,1-.443.169v.181a.655.655,0,1,1-1.31,0v-.161a2.083,2.083,0,0,1-.742-.346.655.655,0,1,1,.786-1.048,1.182,1.182,0,0,0,1.123.032c.144-.072.221-.158.221-.2,0-.078,0-.09-.087-.137a3.11,3.11,0,0,0-.765-.2,3.931,3.931,0,0,1-1.143-.334,1.394,1.394,0,0,1-.78-1.293,1.546,1.546,0,0,1,.944-1.375,2.465,2.465,0,0,1,.444-.17v-.18a.655.655,0,1,1,1.31,0v.16a2.083,2.083,0,0,1,.742.346.655.655,0,0,1-.786,1.048,1.183,1.183,0,0,0-1.124-.033c-.144.072-.22.157-.22.2,0,.078,0,.09.087.137a3.111,3.111,0,0,0,.765.2,3.931,3.931,0,0,1,1.143.334,1.394,1.394,0,0,1,.78,1.293A1.547,1.547,0,0,1,278.338,34.618Z" transform="translate(-260.122)" fill="#b23c14"/>
      <path id="Path_60719" data-name="Path 60719" d="M97.9,275.794h.144a12.149,12.149,0,0,0,6.17-1.777l3.655-2.555a1.308,1.308,0,1,0-1.493-2.148l-3.511,2.463a4.577,4.577,0,0,1-3.747.38l-4.039-1.336a.651.651,0,0,1,.38-1.244c.013,0,4.537,1.467,4.537,1.467a1.309,1.309,0,1,0,.812-2.489l-6.162-2.017a5.813,5.813,0,0,0-4.642.437v7.333l5.14,1.164a12.878,12.878,0,0,0,2.755.323Z" transform="translate(-86.07 -228.774)" fill="#b23c14"/>
    </g>
  </g>
</svg>
