<svg xmlns="http://www.w3.org/2000/svg" width="38" height="38" viewBox="0 0 38 38">
  <g id="Group_3772" data-name="Group 3772" transform="translate(-150 -260)">
    <rect id="Rectangle_424" data-name="Rectangle 424" width="38" height="38" rx="7" transform="translate(150 260)" fill="#fbe6d3"/>
    <g id="calendar" transform="translate(159 267)">
      <path id="Path_60720" data-name="Path 60720" d="M19.333,5A1.333,1.333,0,0,0,18,3.667h-.333v1A.667.667,0,0,1,17,5.333h-.667A.667.667,0,0,0,17,4.667v-2a.667.667,0,1,0-1.333,0v1H14v1a.667.667,0,0,1-.667.667h-.667a.667.667,0,0,0,.667-.667v-2a.667.667,0,1,0-1.333,0v1H10v1a.667.667,0,0,1-.667.667H8.667a.667.667,0,0,0,.667-.667v-2A.667.667,0,1,0,8,2.667v1H6.333v1a.667.667,0,0,1-.667.667H5a.667.667,0,0,0,.667-.667v-2a.667.667,0,1,0-1.333,0v1h-1A1.333,1.333,0,0,0,2,5V7H19.333Z" fill="#b23c14"/>
      <path id="Path_60721" data-name="Path 60721" d="M43.667,40a3.667,3.667,0,1,0,3.667,3.667A3.667,3.667,0,0,0,43.667,40Zm0,4.333a.662.662,0,0,1-.241-.047l-1.217.974-.417-.521,1.218-.974a.637.637,0,0,1,.323-.673V41H44v2.092a.665.665,0,0,1-.333,1.241Z" transform="translate(-25.333 -25.333)" fill="#b23c14"/>
      <path id="Path_60722" data-name="Path 60722" d="M3.333,31.333h11a4.334,4.334,0,0,1,2.333-5.667H15v-2h2v1.878a4.267,4.267,0,0,1,2.333-.091V19H2V30a1.333,1.333,0,0,0,1.333,1.333ZM15,20h2v2H15Zm-3.667,0h2v2h-2Zm0,3.667h2v2h-2Zm0,3.667h2v2h-2ZM7.667,20h2v2h-2Zm0,3.667h2v2h-2Zm0,3.667h2v2h-2ZM4,20H6v2H4Zm0,3.667H6v2H4Zm0,3.667H6v2H4Z" transform="translate(0 -11.333)" fill="#b23c14"/>
    </g>
  </g>
</svg>
