<svg xmlns="http://www.w3.org/2000/svg" width="36.095" height="34.677" viewBox="0 0 36.095 34.677">
  <path id="_9004759_star_favorite_award_like_icon" data-name="9004759_star_favorite_award_like_icon" d="M20.679,33.126l5.745,3.017a3.5,3.5,0,0,0,5.069-3.693L30.4,26.06a3.494,3.494,0,0,1,1.006-3.1l4.642-4.525a3.5,3.5,0,0,0-1.938-5.966l-6.416-.932a3.5,3.5,0,0,1-2.626-1.914L22.187,3.818a3.5,3.5,0,0,0-6.273,0L13.045,9.635a3.5,3.5,0,0,1-2.626,1.914L4,12.481a3.5,3.5,0,0,0-1.938,5.966l4.642,4.525a3.494,3.494,0,0,1,1.006,3.1l-1.1,6.38a3.5,3.5,0,0,0,5.075,3.693l5.745-3.017a3.5,3.5,0,0,1,3.25,0Z" transform="translate(-1.007 -1.868)" fill="#fbe6d3"/>
</svg>
