<svg xmlns="http://www.w3.org/2000/svg" width="18" height="18" viewBox="0 0 18 18">
  <g id="image-" transform="translate(-1.25 -1.25)">
    <path id="Path_76748" data-name="Path 76748" d="M8.552,9.855a2.3,2.3,0,1,1,2.3-2.3A2.3,2.3,0,0,1,8.552,9.855Zm0-3.349A1.047,1.047,0,1,0,9.6,7.552,1.047,1.047,0,0,0,8.552,6.506Z" transform="translate(-0.814 -0.651)" fill="#de875a"/>
    <path id="Path_76749" data-name="Path 76749" d="M12.762,19.25H7.738c-4.546,0-6.488-1.942-6.488-6.488V7.738c0-4.546,1.942-6.488,6.488-6.488h3.349a.628.628,0,0,1,0,1.256H7.738c-3.86,0-5.233,1.373-5.233,5.233v5.023c0,3.86,1.373,5.233,5.233,5.233h5.023c3.86,0,5.233-1.373,5.233-5.233V8.576a.628.628,0,1,1,1.256,0v4.186C19.25,17.308,17.308,19.25,12.762,19.25Z" fill="#de875a"/>
    <path id="Path_76750" data-name="Path 76750" d="M17.878,7.53A.632.632,0,0,1,17.25,6.9V1.879a.62.62,0,0,1,.385-.578.649.649,0,0,1,.687.134L20,3.11A.628.628,0,1,1,19.109,4l-.6-.6V6.9A.632.632,0,0,1,17.878,7.53Z" transform="translate(-2.605 -0.001)" fill="#de875a"/>
    <path id="Path_76751" data-name="Path 76751" d="M15.878,4.181A.621.621,0,0,1,15.434,4a.632.632,0,0,1,0-.887l1.674-1.674A.628.628,0,0,1,18,2.322L16.322,4A.621.621,0,0,1,15.878,4.181Z" transform="translate(-2.279 0)" fill="#de875a"/>
    <path id="Path_76752" data-name="Path 76752" d="M2.548,18.324A.628.628,0,0,1,2.2,17.177l4.127-2.771a2.515,2.515,0,0,1,2.972.159l.276.243a1.234,1.234,0,0,0,1.54,0L14.6,11.819a2.5,2.5,0,0,1,3.181,0l1.365,1.172a.629.629,0,0,1-.82.954l-1.365-1.172a1.234,1.234,0,0,0-1.54,0l-3.483,2.989a2.5,2.5,0,0,1-3.181,0l-.276-.243a1.245,1.245,0,0,0-1.448-.067L2.908,18.224a.733.733,0,0,1-.36.1Z" transform="translate(-0.109 -1.628)" fill="#de875a"/>
  </g>
</svg>
