<?xml version="1.0" encoding="UTF-8"?>
<svg id="final" xmlns="http://www.w3.org/2000/svg" xmlns:xlink="http://www.w3.org/1999/xlink" viewBox="0 0 3000 3000">
  <defs>
    <style>
      .cls-1 {
        fill: url(#linear-gradient-38);
      }

      .cls-1, .cls-2, .cls-3, .cls-4, .cls-5, .cls-6, .cls-7, .cls-8, .cls-9, .cls-10, .cls-11, .cls-12, .cls-13, .cls-14, .cls-15, .cls-16, .cls-17, .cls-18, .cls-19, .cls-20, .cls-21, .cls-22, .cls-23, .cls-24, .cls-25, .cls-26, .cls-27, .cls-28, .cls-29, .cls-30, .cls-31, .cls-32, .cls-33, .cls-34, .cls-35, .cls-36, .cls-37, .cls-38, .cls-39, .cls-40, .cls-41, .cls-42, .cls-43, .cls-44, .cls-45, .cls-46, .cls-47, .cls-48, .cls-49, .cls-50, .cls-51, .cls-52, .cls-53, .cls-54 {
        stroke-width: 0px;
      }

      .cls-2 {
        fill: url(#linear-gradient-12);
      }

      .cls-3 {
        fill: url(#linear-gradient-17);
      }

      .cls-4 {
        fill: url(#linear-gradient-19);
      }

      .cls-5 {
        fill: url(#linear-gradient-33);
      }

      .cls-6 {
        fill: url(#linear-gradient);
      }

      .cls-7 {
        fill: url(#linear-gradient-21);
      }

      .cls-8 {
        fill: url(#linear-gradient-6);
      }

      .cls-9 {
        fill: url(#linear-gradient-42);
      }

      .cls-10 {
        fill: url(#linear-gradient-15);
      }

      .cls-11 {
        fill: url(#linear-gradient-11);
      }

      .cls-12 {
        fill: url(#linear-gradient-5);
      }

      .cls-13 {
        fill: none;
      }

      .cls-14 {
        fill: url(#linear-gradient-31);
      }

      .cls-15 {
        fill: url(#linear-gradient-34);
      }

      .cls-55 {
        clip-path: url(#clippath-1);
      }

      .cls-16 {
        fill: url(#linear-gradient-41);
      }

      .cls-17 {
        fill: url(#linear-gradient-40);
      }

      .cls-18 {
        fill: url(#linear-gradient-13);
      }

      .cls-19 {
        fill: url(#linear-gradient-23);
      }

      .cls-20 {
        fill: url(#linear-gradient-25);
      }

      .cls-21 {
        fill: url(#linear-gradient-43);
      }

      .cls-22 {
        fill: url(#linear-gradient-16);
      }

      .cls-23 {
        fill: url(#linear-gradient-22);
      }

      .cls-24 {
        fill: #fff;
      }

      .cls-25 {
        fill: url(#linear-gradient-35);
      }

      .cls-26 {
        fill: url(#linear-gradient-50);
      }

      .cls-27 {
        fill: url(#linear-gradient-32);
      }

      .cls-28 {
        fill: url(#linear-gradient-20);
      }

      .cls-29 {
        fill: url(#linear-gradient-14);
      }

      .cls-30 {
        fill: url(#linear-gradient-2);
      }

      .cls-31 {
        fill: url(#linear-gradient-45);
      }

      .cls-32 {
        fill: url(#linear-gradient-7);
      }

      .cls-33 {
        fill: url(#linear-gradient-39);
      }

      .cls-34 {
        fill: url(#linear-gradient-3);
      }

      .cls-35 {
        fill: url(#linear-gradient-9);
      }

      .cls-36 {
        fill: url(#linear-gradient-27);
      }

      .cls-37 {
        fill: url(#linear-gradient-36);
      }

      .cls-38 {
        fill: url(#linear-gradient-48);
      }

      .cls-39 {
        fill: url(#linear-gradient-49);
      }

      .cls-40 {
        fill: url(#linear-gradient-8);
      }

      .cls-41 {
        fill: url(#linear-gradient-47);
      }

      .cls-42 {
        fill: url(#linear-gradient-24);
      }

      .cls-43 {
        fill: url(#linear-gradient-26);
      }

      .cls-44 {
        fill: url(#linear-gradient-18);
      }

      .cls-45 {
        fill: url(#linear-gradient-30);
      }

      .cls-46 {
        fill: url(#linear-gradient-44);
      }

      .cls-47 {
        fill: url(#linear-gradient-29);
      }

      .cls-48 {
        fill: url(#linear-gradient-46);
      }

      .cls-49 {
        fill: #fcf4d4;
      }

      .cls-50 {
        fill: url(#linear-gradient-28);
      }

      .cls-51 {
        fill: url(#linear-gradient-10);
      }

      .cls-52 {
        fill: #191919;
      }

      .cls-53 {
        fill: url(#linear-gradient-4);
      }

      .cls-54 {
        fill: url(#linear-gradient-37);
      }
    </style>
    <linearGradient id="linear-gradient" x1="1500" y1="857.3" x2="1500" y2="1983.84" gradientUnits="userSpaceOnUse">
      <stop offset="0" stop-color="#f29322"/>
      <stop offset="1" stop-color="#ffe23b"/>
    </linearGradient>
    <linearGradient id="linear-gradient-2" x1="1500" y1="1510.34" x2="1500" y2="619.62" gradientUnits="userSpaceOnUse">
      <stop offset="0" stop-color="#ffe23b"/>
      <stop offset="1" stop-color="#fff79e"/>
    </linearGradient>
    <linearGradient id="linear-gradient-3" x1="1906.11" y1="1794.02" x2="2099.21" y2="1974.25" gradientUnits="userSpaceOnUse">
      <stop offset=".16" stop-color="#f14924"/>
      <stop offset="1" stop-color="#c22327"/>
    </linearGradient>
    <linearGradient id="linear-gradient-4" x1="2041.28" y1="2117.65" x2="1918.88" y2="1911.11" xlink:href="#linear-gradient-3"/>
    <clipPath id="clippath-1">
      <path class="cls-13" d="m1689.12,1718.61s195.62,8.94,278.14-118.68c82.52-127.63,47.45-222.38,109.34-210.07,61.89,12.31,219.09,309.55,68.28,555.99-150.8,246.44-406.68,262.6-406.68,262.6"/>
    </clipPath>
    <linearGradient id="linear-gradient-5" x1="1853.42" y1="1404.08" x2="2083.63" y2="1677.17" gradientUnits="userSpaceOnUse">
      <stop offset="0" stop-color="#fe6e52"/>
      <stop offset="1" stop-color="#fdf4eb"/>
    </linearGradient>
    <linearGradient id="linear-gradient-6" x1="1550.31" y1="1659.59" x2="1780.52" y2="1932.69" xlink:href="#linear-gradient-5"/>
    <linearGradient id="linear-gradient-7" x1="1987.2" y1="1666.96" x2="2082.01" y2="1743.27" gradientUnits="userSpaceOnUse">
      <stop offset="0" stop-color="#f47b20" stop-opacity="0"/>
      <stop offset=".1" stop-color="#f37c20" stop-opacity=".02"/>
      <stop offset=".23" stop-color="#f38020" stop-opacity=".09"/>
      <stop offset=".37" stop-color="#f38720" stop-opacity=".19"/>
      <stop offset=".53" stop-color="#f29021" stop-opacity=".34"/>
      <stop offset=".68" stop-color="#f19c22" stop-opacity=".53"/>
      <stop offset=".85" stop-color="#f0aa23" stop-opacity=".76"/>
      <stop offset="1" stop-color="#efba25"/>
    </linearGradient>
    <linearGradient id="linear-gradient-8" x1="2033.53" y1="1481.26" x2="2119.09" y2="1475.48" xlink:href="#linear-gradient-7"/>
    <linearGradient id="linear-gradient-9" x1="1889.68" y1="2147.23" x2="1776.75" y2="1994.09" gradientUnits="userSpaceOnUse">
      <stop offset=".16" stop-color="#f14924" stop-opacity="0"/>
      <stop offset="1" stop-color="#c22327"/>
    </linearGradient>
    <linearGradient id="linear-gradient-10" x1="1026.13" y1="1791.76" x2="1154.55" y2="1791.76" gradientUnits="userSpaceOnUse">
      <stop offset="0" stop-color="#373c42"/>
      <stop offset=".89" stop-color="#1c1616"/>
    </linearGradient>
    <linearGradient id="linear-gradient-11" x1="968.22" y1="1923.24" x2="1114.08" y2="1923.24" xlink:href="#linear-gradient-10"/>
    <linearGradient id="linear-gradient-12" x1="1007.2" y1="1896.05" x2="1053.23" y2="1896.05" xlink:href="#linear-gradient-10"/>
    <linearGradient id="linear-gradient-13" x1="1500" y1="1971.5" x2="1500" y2="2593.59" gradientUnits="userSpaceOnUse">
      <stop offset="0" stop-color="#e8182e"/>
      <stop offset="1" stop-color="#8d0d0c"/>
    </linearGradient>
    <linearGradient id="linear-gradient-14" x1="1305.48" y1="1542.68" x2="1305.48" y2="2271.94" xlink:href="#linear-gradient-13"/>
    <linearGradient id="linear-gradient-15" x1="1734.67" y1="1542.38" x2="1734.67" y2="2274.44" xlink:href="#linear-gradient-13"/>
    <linearGradient id="linear-gradient-16" x1="1493.53" y1="1688.37" x2="1493.53" y2="1605.36" xlink:href="#linear-gradient-13"/>
    <linearGradient id="linear-gradient-17" x1="1500" y1="1599.89" x2="1500" y2="1575.88" xlink:href="#linear-gradient-13"/>
    <linearGradient id="linear-gradient-18" x1="1363.28" y1="2157.39" x2="1393.82" y2="2133.97" xlink:href="#linear-gradient-13"/>
    <linearGradient id="linear-gradient-19" x1="1206.62" y1="2219.35" x2="1391.84" y2="2219.35" xlink:href="#linear-gradient-10"/>
    <linearGradient id="linear-gradient-20" x1="1316.03" y1="2140" x2="1277.43" y2="2188.14" xlink:href="#linear-gradient-10"/>
    <linearGradient id="linear-gradient-21" x1="1272.81" y1="2156.69" x2="1250.26" y2="2202.23" xlink:href="#linear-gradient-10"/>
    <linearGradient id="linear-gradient-22" x1="1294.31" y1="2206.18" x2="1204.97" y2="2210.95" xlink:href="#linear-gradient-10"/>
    <linearGradient id="linear-gradient-23" x1="1283.47" y1="2226.2" x2="1231.43" y2="2270.01" xlink:href="#linear-gradient-10"/>
    <linearGradient id="linear-gradient-24" x1="1286.83" y1="2236.2" x2="1284.66" y2="2306.46" xlink:href="#linear-gradient-10"/>
    <linearGradient id="linear-gradient-25" x1="1306.95" y1="2228.23" x2="1351.62" y2="2300.65" xlink:href="#linear-gradient-10"/>
    <linearGradient id="linear-gradient-26" x1="1364.33" y1="2210.88" x2="1347.85" y2="2237.77" xlink:href="#linear-gradient-10"/>
    <linearGradient id="linear-gradient-27" x1="1361.41" y1="2153.75" x2="1339.72" y2="2218.8" xlink:href="#linear-gradient-10"/>
    <linearGradient id="linear-gradient-28" x1="1699.31" y1="1854.8" x2="1637.45" y2="1804.44" gradientUnits="userSpaceOnUse">
      <stop offset="0" stop-color="#ffca94"/>
      <stop offset="1" stop-color="#ffca94" stop-opacity="0"/>
    </linearGradient>
    <linearGradient id="linear-gradient-29" x1="1465.93" y1="2057.25" x2="1418.12" y2="2096.61" xlink:href="#linear-gradient-28"/>
    <linearGradient id="linear-gradient-30" x1="1519.44" y1="1425.67" x2="1519.44" y2="1714.64" gradientUnits="userSpaceOnUse">
      <stop offset=".11" stop-color="#4c1705"/>
      <stop offset=".18" stop-color="#571c07"/>
      <stop offset=".44" stop-color="#82310e"/>
      <stop offset=".67" stop-color="#a14013"/>
      <stop offset=".86" stop-color="#b44916"/>
      <stop offset="1" stop-color="#bb4d18"/>
    </linearGradient>
    <linearGradient id="linear-gradient-31" x1="1284.26" y1="1770.85" x2="1284.26" y2="1469.96" gradientUnits="userSpaceOnUse">
      <stop offset="0" stop-color="#602108"/>
      <stop offset=".23" stop-color="#591c06"/>
      <stop offset=".55" stop-color="#461004"/>
      <stop offset=".89" stop-color="#2c0000"/>
    </linearGradient>
    <linearGradient id="linear-gradient-32" x1="1713.29" y1="1696.04" x2="1713.29" y2="1468.66" xlink:href="#linear-gradient-31"/>
    <linearGradient id="linear-gradient-33" x1="1223.28" y1="631.75" x2="1223.28" y2="1071.62" xlink:href="#linear-gradient-3"/>
    <linearGradient id="linear-gradient-34" x1="1131.22" y1="827.93" x2="1289.32" y2="827.93" xlink:href="#linear-gradient-31"/>
    <linearGradient id="linear-gradient-35" x1="1315.11" y1="976.47" x2="1194.1" y2="829.53" xlink:href="#linear-gradient-5"/>
    <linearGradient id="linear-gradient-36" x1="1851.34" y1="631.75" x2="1851.34" y2="1071.62" xlink:href="#linear-gradient-3"/>
    <linearGradient id="linear-gradient-37" x1="1783.2" y1="880.9" x2="1953.04" y2="880.9" xlink:href="#linear-gradient-31"/>
    <linearGradient id="linear-gradient-38" x1="1748.85" y1="1053.11" x2="1882.83" y2="852.14" xlink:href="#linear-gradient-5"/>
    <linearGradient id="linear-gradient-39" x1="1517.08" y1="1096.93" x2="1517.08" y2="486.58" xlink:href="#linear-gradient-3"/>
    <linearGradient id="linear-gradient-40" x1="1516.21" y1="1562.87" x2="1516.21" y2="1179.85" xlink:href="#linear-gradient-3"/>
    <linearGradient id="linear-gradient-41" x1="1506.48" y1="1742.45" x2="1506.48" y2="1256.68" xlink:href="#linear-gradient-5"/>
    <linearGradient id="linear-gradient-42" x1="1259.59" y1="1558.73" x2="1259.59" y2="1241.71" xlink:href="#linear-gradient-5"/>
    <linearGradient id="linear-gradient-43" x1="1779.3" y1="1558.73" x2="1779.3" y2="1241.71" xlink:href="#linear-gradient-5"/>
    <linearGradient id="linear-gradient-44" x1="1443.03" y1="1252.54" x2="1576.9" y2="1252.54" xlink:href="#linear-gradient-31"/>
    <linearGradient id="linear-gradient-45" x1="1314.95" y1="1076.86" x2="1443.34" y2="1076.86" xlink:href="#linear-gradient-31"/>
    <linearGradient id="linear-gradient-46" x1="1598.29" y1="1097.02" x2="1726.67" y2="1097.02" xlink:href="#linear-gradient-31"/>
    <linearGradient id="linear-gradient-47" x1="1779.88" y1="1504.69" x2="1886.06" y2="1547.93" xlink:href="#linear-gradient-30"/>
    <linearGradient id="linear-gradient-48" x1="1370.66" y1="1528.27" x2="1429.6" y2="1482.73" xlink:href="#linear-gradient-30"/>
    <linearGradient id="linear-gradient-49" x1="1456.11" y1="1254.02" x2="1530.97" y2="1254.02" gradientUnits="userSpaceOnUse">
      <stop offset="0" stop-color="#bb4d18"/>
      <stop offset=".14" stop-color="#b44916"/>
      <stop offset=".33" stop-color="#a14013"/>
      <stop offset=".56" stop-color="#82310e"/>
      <stop offset=".82" stop-color="#571c07"/>
      <stop offset=".89" stop-color="#4c1705"/>
    </linearGradient>
    <linearGradient id="linear-gradient-50" x1="1613.25" y1="875.81" x2="1650.7" y2="809.54" gradientUnits="userSpaceOnUse">
      <stop offset="0" stop-color="#f47b20" stop-opacity="0"/>
      <stop offset="1" stop-color="#efba25"/>
    </linearGradient>
  </defs>
  <circle class="cls-6" cx="1500" cy="1432.72" r="776.95"/>
  <circle class="cls-30" cx="1500" cy="1531.88" r="681.22"/>
  <g>
    <g>
      <path class="cls-34" d="m1689.12,1718.61s195.62,8.94,278.14-118.68c82.52-127.63,47.45-222.38,109.34-210.07,61.89,12.31,219.09,309.55,68.28,555.99-150.8,246.44-406.68,262.6-406.68,262.6"/>
      <path class="cls-53" d="m1767.15,2036.24s316.7-84.22,378.28-380.78c0,0,52.37,93.72,13,215.56-39.37,121.84-255.17,298.58-403.43,315.23-148.25,16.65,12.15-150,12.15-150Z"/>
      <g class="cls-55">
        <path class="cls-12" d="m1948.73,1623.11s109.42-68.18,164.54,28.28c55.13,96.46,44.5,271.84,44.5,271.84,0,0,74.94-75.85,29-247.35-45.94-171.5-169.38-99.52-169.38-99.52,0,0,46.96-19.22,44.85-31.15-2.11-11.94-74.42,7.72-97.59,38.61-23.17,30.89-15.92,39.28-15.92,39.28Z"/>
        <path class="cls-8" d="m1588.44,1733.18s237.71-75.5,294.93,131.69c57.22,207.19-46.55,530.89-46.55,530.89,0,0,176.75-106.36,172.62-449.83-4.12-343.47-269.96-267.55-269.96-267.55,0,0,97.21-13.57,98.97-36.96,1.76-23.38-143.21-21.1-201.41,25.73-58.2,46.83-48.62,66.03-48.62,66.03Z"/>
      </g>
    </g>
    <path class="cls-32" d="m1916.06,1691.13s66.1,25.94,80.6,86.98c14.5,61.04,99.19-92.32,98.43-116.74-.76-24.42-30.52-58.75-95.37-45.02,0,0-58.2,64.85-83.65,74.77Z"/>
    <path class="cls-40" d="m2034.53,1531.54s39.87-3.13,55.5,0c15.63,3.13,21.11,13.29,21.11,13.29,0,0-26.58-128.2-42.21-134.46-15.63-6.25-34.4,121.17-34.4,121.17Z"/>
    <polyline class="cls-35" points="1841.61 1770.59 1841.61 1839.26 1786.4 1886.58 1786.4 2219.35 1721.24 2230.26 1731.81 1809.28"/>
  </g>
  <g>
    <g>
      <polyline class="cls-52" points="1064.37 1552.69 1057.25 1582.95 1035.32 1599.03 960.14 2067.95 1000.47 2102.2 1021.2 2082.4 1025.92 2066.38 1113.58 2018.31 1131.37 1991.91 1157.38 1788.07 1136.75 1552.69 1070.9 1551"/>
      <polyline class="cls-51" points="1089.94 1552.69 1081.76 1593.01 1064.37 1605.84 1045.28 1750.45 1075.12 1688.22 1094.72 1674.58 1079.89 1942.85 1026.13 2030.82 1069.83 1992.58 1117.79 1976.2 1154.55 1755.78 1131.37 1562.78 1096.89 1552.69"/>
      <path class="cls-11" d="m1026.13,1756.88l-57.91,305.76,34.23,26.96,13.16-12.21.53-20.05,86.89-41.03,11.06-14.74-103.74,42.65-9.48,28.96-17.87-13.4s47.33-275.8,47.33-277.51-4.19-25.37-4.19-25.37Z"/>
      <polygon class="cls-2" points="1049.49 1761.27 1007.2 2030.82 1020.69 2028.49 1026.13 2000.14 1021.16 2001.53 1053.23 1771.92 1049.49 1761.27"/>
    </g>
    <path class="cls-18" d="m1503.25,1549.38h-439.83v29.3l27.18,34.59,46.87,16.89,28.49,191.21,70.24,50.48v410.43h494.56c18.25,0,33.04-14.79,33.04-33.04v-377.4l70.24-50.48,28.49-191.21,46.87-16.89,27.17-34.59v-29.3h-433.32Z"/>
    <path class="cls-29" d="m1145.3,1620.1l78.92,35.36,44.16,156.14,80.33,33.74v199.54s104.63,24,112.94,60.01c8.31,36.01,1.15,164.2,1.15,164.2,0,0-9.75-125.72-32.06-149.27-22.31-23.55-100.47-42.14-100.47-42.14v-187.17l-152.24-76.62-32.73-193.79Z"/>
    <polygon class="cls-10" points="1836.38 1620.1 1803.64 1813.91 1651.41 1890.52 1651.41 2271.58 1632.96 2271.58 1632.96 1845.35 1713.29 1811.61 1757.43 1655.44 1836.38 1620.1"/>
    <rect class="cls-22" x="1150.68" y="1607.04" width="685.7" height="81.47"/>
    <polygon class="cls-3" points="1908.64 1599.93 1091.36 1599.93 1078.3 1576.37 1921.7 1576.37 1908.64 1599.93"/>
    <path class="cls-44" d="m1437.51,2282.29s19.43-148.08-65.68-179.36c-83.48-30.68-135.62-29.92-135.62-29.92v209.28h201.3Z"/>
    <g>
      <circle class="cls-52" cx="1299.23" cy="2219.35" r="124.87"/>
      <circle class="cls-4" cx="1299.23" cy="2219.35" r="92.61"/>
      <path class="cls-28" d="m1293.84,2196.69l-4.05-59.8s19.92-7.85,34.27,3.26l-5.33,6.41s-5.1-5.83-20.87-1.99l1.25,33.13s9.36-2.57,14.33,1.37l-13.93,4.33-1.62,13.68-4.05-.39Z"/>
      <path class="cls-7" d="m1279.26,2207.38l-45.61-38.89s8.31-19.74,26.28-22.23l.86,8.29s-7.74-.42-16.01,13.54l24.57,22.26s4.71-8.49,10.99-9.3l-6.64,12.99,8.65,10.71-3.11,2.63Z"/>
      <path class="cls-23" d="m1276.47,2224.29l-59.87,2.87s-7.45-20.08,3.94-34.2l6.3,5.45s-5.93,4.99-2.4,20.83l33.15-.59s-2.38-9.41,1.65-14.3l4.06,14.01,13.64,1.89-.47,4.04Z"/>
      <path class="cls-19" d="m1286.02,2238.53l-41.69,43.07s-19.17-9.53-20.53-27.63l8.33-.34s-.91,7.69,12.51,16.83l23.76-23.12s-8.18-5.23-8.59-11.55l12.55,7.44,11.24-7.96,2.43,3.27Z"/>
      <path class="cls-42" d="m1302.73,2242.38l-.91,59.93s-20.5,6.17-33.88-6.09l5.84-5.95s4.6,6.23,20.64,3.71l1.5-33.12s-9.54,1.78-14.17-2.55l14.24-3.16,2.74-13.5,4,.72Z"/>
      <path class="cls-20" d="m1317.54,2233.74l40.36,44.32s-10.72,18.54-28.87,18.75l.19-8.33s7.62,1.39,17.58-11.42l-21.58-25.17s-5.74,7.83-12.07,7.84l8.22-12.05-7.24-11.72,3.41-2.22Z"/>
      <path class="cls-43" d="m1322.43,2217.31l59.75,4.68s4.87,20.85-8.21,33.43l-5.57-6.2s6.51-4.2,5-20.36l-32.96-3.58s1.18,9.63-3.43,13.98l-2.26-14.41-13.3-3.59.97-3.95Z"/>
      <path class="cls-36" d="m1314.75,2201.98l46.77-37.49s17.82,11.87,16.9,29.99l-8.3-.71s1.87-7.52-10.29-18.27l-26.48,19.95s7.45,6.22,7.07,12.54l-11.51-8.96-12.15,6.49-2-3.54Z"/>
      <circle class="cls-52" cx="1299.23" cy="2219.35" r="10.91"/>
    </g>
    <path class="cls-50" d="m1721.24,1718.61s-26.47,82.01-29.57,85.1c-3.09,3.09-161.69,67.31-161.69,67.31l102.97-25.67,80.34-33.74,18.51-65.52-10.56-27.49Z"/>
    <path class="cls-47" d="m1348.71,2044.88s101.86,28.44,110.16,54.86c8.3,26.42,7.62,65.9,7.62,65.9,0,0,3.83-69.19.01-80.4-3.82-11.21-83.97-38.69-92.93-40.36-8.97-1.68-24.86,0-24.86,0Z"/>
  </g>
  <g>
    <g>
      <path class="cls-49" d="m1443.03,1565.58s10.52,16.39,3.81,39.57c-6.71,23.18-16.42,26-14.96,20.92,1.47-5.09-12.1-40.7-12.1-40.7"/>
      <path class="cls-49" d="m1414.63,1611.13s2.62,18.16-9.72,38.47c-12.33,20.31-20.45,20.58-17.75,16.12,2.7-4.46,3.91-41.61,3.91-41.61"/>
    </g>
    <g>
      <path class="cls-49" d="m1554.01,1581.05s-8.28,17.63,1.42,39.73c9.7,22.09,19.7,23.62,17.58,18.77-2.12-4.85,6.65-41.94,6.65-41.94"/>
      <path class="cls-49" d="m1588.14,1622.47s-.21,18.35,14.68,36.87c14.9,18.52,22.97,17.72,19.71,13.65-3.26-4.07-9.34-40.73-9.34-40.73"/>
    </g>
    <rect class="cls-45" x="1259.59" y="1381.2" width="519.72" height="181.51"/>
    <g>
      <path class="cls-14" d="m1279.93,1381.2s-103.92,25.23-150.39,94.23c-46.47,69,128.51,95.75,128.51,95.75v35.11c0,7.82,4.96,14.77,12.37,17.27,37.86,12.78,150.93,43.25,173.13-39.7,26.75-99.98-118.28-115.75-118.28-115.75"/>
      <path class="cls-27" d="m1717.63,1419.65s103.92-13.22,150.39,55.78c46.47,69-128.51,95.75-128.51,95.75v35.11c0,7.82-4.96,14.77-12.37,17.27-37.86,12.78-150.93,43.25-173.13-39.7-26.75-99.98,118.28-115.75,118.28-115.75"/>
    </g>
    <g>
      <g>
        <g>
          <path class="cls-5" d="m1050.84,662.78s-52.24,211.75,54.92,301.35l-79.7,26.36s9.64,91.61,154.94,43.86l239.49-193.73s-123.11-196.24-369.66-177.85Z"/>
          <g>
            <path class="cls-15" d="m1133.11,744.95s-17.55,110.28,54.34,182.97c0,0,65.59-59.06,101.87-75.63l-57.01-94.28-89.41-30.08"/>
            <path class="cls-25" d="m1357.53,821.15s-104.69-132-277.54-133.92c0,0-43.17,143.15,24.61,240.48,0,0-15.99-114.1,13.35-187.61,0,0,150.69,50.07,168.32,113.6l71.25-32.54Z"/>
          </g>
        </g>
        <g>
          <path class="cls-37" d="m2046.11,733.61s21.73,217.01-97.05,290.54l75.17,37.38s-22.51,89.33-159.59,21.48l-209.65-225.69s149.66-176.83,391.12-123.71Z"/>
          <g>
            <path class="cls-54" d="m1953.04,803.3s1.76,111.65-79.7,173.43c0,0-56.57-67.75-90.14-89.29l69.79-85.26,92.76-17.11"/>
            <path class="cls-1" d="m1720.09,846.95s122.32-115.85,293.71-93.27c0,0,22.46,147.82-58.42,234.57,0,0,31.98-110.68,13.35-187.61,0,0-156.26,28.22-182.71,88.61l-65.93-42.3Z"/>
          </g>
        </g>
      </g>
      <path class="cls-33" d="m1933.64,1056.51c-116.3-140.2-179.79-248.87-391.88-263.96-212.09-15.09-290.33,83.49-425.31,205.81-134.98,122.32-190.48,99-190.48,99,89.37,352.01,594.06,363.05,594.06,363.05,0,0,449.83,56.89,588.15-278.92,0,0-58.25,15.22-174.54-124.98Z"/>
      <path class="cls-17" d="m959.1,1128.3s118.44,273.75,527.76,309.08c357.78,30.89,540.6-122.88,586.45-218.38,0,0-309.2,139.18-589.15,103.6-338.93-43.08-525.06-194.3-525.06-194.3Z"/>
      <g>
        <path class="cls-16" d="m1518.05,1125.76c-97.33-6.93-198.07,83.56-195.37,158.74,3.92,109.26,175.81,116.14,175.81,116.14,0,0,171.13,17.53,190.49-90.07,13.32-74.04-73.6-177.89-170.92-184.81Z"/>
        <g>
          <path class="cls-9" d="m1236.17,1390.63s-112.18-112.83-59.77-239.35c52.41-126.52,255.48-133.78,255.48-133.78,0,0-52.29-117.55-107.72-119.78-55.43-2.23,14.26,102.03,14.26,102.03,0,0-25.76-41.21-101.54-34.62-75.78,6.59-294.53,232.63-.71,425.5Z"/>
          <path class="cls-21" d="m1759.59,1427.88s127.02-95.8,93.06-228.47c-33.96-132.67-233.96-168.61-233.96-168.61,0,0,68.41-108.96,123.6-103.32,55.19,5.64-28.56,98.98-28.56,98.98,0,0,31.33-37.15,105.42-19.89,74.08,17.26,258.61,271.99-59.55,421.31Z"/>
        </g>
        <path class="cls-46" d="m1576.83,1244.23c-1.71,23.97-41.75,56.12-71.05,54.03-29.19-2.08-64.39-39.58-62.68-63.55,1.71-23.97,32.23-30.06,69.16-27.44,36.93,2.63,66.28,12.99,64.58,36.95Z"/>
        <path class="cls-24" d="m1526.22,1219.01s36.61,2.18,38.03,17.92c1.42,15.74-71-17.73-38.03-17.92Z"/>
        <g>
          <g>
            <circle class="cls-31" cx="1379.15" cy="1076.86" r="64.19"/>
            <path class="cls-24" d="m1428.08,1081.08c-10.81,11.32-31.63,8.98-46.5-5.23s-18.16-34.9-7.34-46.21,26.87-3.99,41.73,10.22c14.87,14.21,22.92,29.91,12.11,41.22Z"/>
            <circle class="cls-24" cx="1350.26" cy="1102.49" r="11.3"/>
          </g>
          <g>
            <circle class="cls-48" cx="1662.48" cy="1097.02" r="64.19"/>
            <path class="cls-24" d="m1711.41,1101.24c-10.81,11.32-31.63,8.98-46.5-5.23-14.87-14.21-18.16-34.9-7.34-46.21,10.81-11.32,26.87-3.99,41.73,10.22,14.87,14.21,22.92,29.91,12.11,41.22Z"/>
            <circle class="cls-24" cx="1633.59" cy="1122.66" r="11.3"/>
          </g>
        </g>
      </g>
    </g>
    <g>
      <path class="cls-49" d="m1345.11,1639.2s3.24-13.5,16.2-13.5,13.47,13.04,13.47,13.04c0,0-18.87,27.46-28.59,30.16-9.72,2.7,12.14-27.93-1.08-29.7Z"/>
      <path class="cls-49" d="m1309.9,1634.32s15.56-9.65,23.06,3.81c0,0-13.95,19.75-23.06,21.71s5.97-6.27,0-25.53Z"/>
    </g>
    <g>
      <path class="cls-49" d="m1662.76,1638.35s-4.35-14.86-17.2-13.16c-12.85,1.7-11.64,14.7-11.64,14.7,0,0,22.31,24.75,32.3,26.15,9.99,1.4-16.34-24.19-3.46-27.69Z"/>
      <path class="cls-49" d="m1697.67,1626.99s-16.7-7.52-22.36,6.81c0,0,16.42,17.75,25.71,18.5,9.29.75-6.74-5.43-3.35-25.3Z"/>
    </g>
    <path class="cls-41" d="m1817.06,1452.38s45.16,25.05,35.99,47.28c-9.17,22.23-121.73,50.45-124.55,51.51-2.82,1.06,77.27-45.87,77.27-62.1s-29.28-31.05-29.28-31.05l40.58-5.65Z"/>
    <path class="cls-38" d="m1313.46,1478.88s56.41,1.67,91.8,27.13c35.39,25.46,18.21,75.04,18.21,75.04,0,0-30.1-67.61-110.01-102.18Z"/>
    <path class="cls-39" d="m1467.76,1221.63s-13.26,5.3-11.49,15.91c1.77,10.61,27.85,46.85,46.85,48.62,19.01,1.77,27.85-6.63,27.85-6.63,0,0-68.07-32.71-63.2-57.9Z"/>
    <path class="cls-26" d="m1493.54,804.33s93.42-2.96,163.05,22.96c69.63,25.93,101.48,75.56,101.48,75.56,0,0-81.48-5.93-132.59,30.37,0,0,36.62-49.63,25.72-67.41-10.9-17.78-52.56-48.89-157.66-61.48Z"/>
  </g>
</svg>