<svg xmlns="http://www.w3.org/2000/svg" width="20" height="20" viewBox="0 0 20 20">
  <g id="_9-Home" data-name="9-Home" transform="translate(-1.996 -1.994)">
    <path id="Path_915" data-name="Path 915" d="M16.151,21.992H7.84a3.57,3.57,0,0,1-3.7-3.4V14.137a.714.714,0,1,1,1.428,0v4.456A2.142,2.142,0,0,0,7.84,20.564h8.312a2.142,2.142,0,0,0,2.271-1.971V14.137a.714.714,0,0,1,1.428,0v4.456a3.57,3.57,0,0,1-3.7,3.4Zm5.634-9.49a.714.714,0,0,0,0-1.014L12.5,2.205a.714.714,0,0,0-1.014,0L2.206,11.488A.717.717,0,1,0,3.22,12.5L12,3.719,20.771,12.5a.714.714,0,0,0,1.014,0Z" transform="translate(0)" fill="#b23c14"/>
  </g>
</svg>
