<svg xmlns="http://www.w3.org/2000/svg" width="17.377" height="20" viewBox="0 0 17.377 20">
  <g id="user" transform="translate(-2.66 -1.25)">
    <path id="Path_924" data-name="Path 924" d="M11.6,11.948A5.349,5.349,0,1,1,16.948,6.6,5.356,5.356,0,0,1,11.6,11.948Zm0-9.3A3.953,3.953,0,1,0,15.552,6.6,3.962,3.962,0,0,0,11.6,2.645Z" transform="translate(-0.25 0)" fill="#330601"/>
    <path id="Path_925" data-name="Path 925" d="M19.339,22.157a.7.7,0,0,1-.7-.7c0-3.209-3.274-5.814-7.293-5.814s-7.293,2.6-7.293,5.814a.7.7,0,0,1-1.4,0c0-3.972,3.9-7.209,8.688-7.209s8.688,3.237,8.688,7.209A.7.7,0,0,1,19.339,22.157Z" transform="translate(0 -0.907)" fill="#330601"/>
  </g>
</svg>
