<svg xmlns="http://www.w3.org/2000/svg" width="21.837" height="20.5" viewBox="0 0 21.837 20.5">
  <g id="chat_11279756" transform="translate(-0.25 -1.214)">
    <path id="Path_60776" data-name="Path 60776" d="M20.294,22.328a5.167,5.167,0,0,1-2.248-.509,4.946,4.946,0,0,1-1.469-1.049,8.977,8.977,0,0,1-1.488.122,8.832,8.832,0,1,1,5.685-2.067A4.011,4.011,0,0,0,22.3,21.08a.52.52,0,0,1-.114.907,5.363,5.363,0,0,1-1.895.342Zm-3.528-2.642a.519.519,0,0,1,.4.182,3.921,3.921,0,0,0,1.33,1.011,4.239,4.239,0,0,0,2.438.36,4.606,4.606,0,0,1-1.234-2.566.521.521,0,0,1,.2-.471,7.8,7.8,0,1,0-4.8,1.651,7.84,7.84,0,0,0,1.573-.156.516.516,0,0,1,.1-.01Z" transform="translate(-1.841 -0.614)" fill="#330601"/>
    <path id="Path_60777" data-name="Path 60777" d="M3.883,20.328a5.355,5.355,0,0,1-1.895-.342.52.52,0,0,1-.114-.907A4.011,4.011,0,0,0,3.4,16.825,8.841,8.841,0,0,1,9.089,1.214a4.349,4.349,0,0,1,.449.017.5.5,0,0,1,.5.519.539.539,0,0,1-.544.519H9.484c-.169-.015-.28-.012-.4-.014A7.8,7.8,0,0,0,4.286,16.2a.521.521,0,0,1,.2.471,4.605,4.605,0,0,1-1.234,2.566,4.238,4.238,0,0,0,2.434-.358c.118-.056.23-.118.335-.18a.52.52,0,1,1,.528.9c-.131.077-.269.153-.414.222a5.166,5.166,0,0,1-2.248.509Z" fill="#330601"/>
    <path id="Path_60778" data-name="Path 60778" d="M11.54,16.544a1.04,1.04,0,1,1,1.04-1.04A1.041,1.041,0,0,1,11.54,16.544Z" transform="translate(-3.144 -4.065)" fill="#330601"/>
    <path id="Path_60779" data-name="Path 60779" d="M18.54,16.544a1.04,1.04,0,1,1,1.04-1.04A1.041,1.041,0,0,1,18.54,16.544Z" transform="translate(-5.292 -4.065)" fill="#330601"/>
    <path id="Path_60780" data-name="Path 60780" d="M25.54,16.544a1.04,1.04,0,1,1,1.04-1.04A1.041,1.041,0,0,1,25.54,16.544Z" transform="translate(-7.439 -4.065)" fill="#330601"/>
  </g>
</svg>
