<svg xmlns="http://www.w3.org/2000/svg" width="19.298" height="20" viewBox="0 0 19.298 20">
  <g id="schedule" transform="translate(-2.25 -1.75)">
    <path id="Path_916" data-name="Path 916" d="M19.618,23.241H4.18a1.932,1.932,0,0,1-1.93-1.93V7.276a.526.526,0,0,1,.526-.526H21.022a.526.526,0,0,1,.526.526V21.311A1.932,1.932,0,0,1,19.618,23.241ZM3.3,7.8V21.311a.878.878,0,0,0,.877.877H19.618a.878.878,0,0,0,.877-.877V7.8Z" transform="translate(0 -1.491)" fill="#330601"/>
    <path id="Path_917" data-name="Path 917" d="M21.022,6.61H2.776a.526.526,0,0,1-.526-.526V4.68A1.932,1.932,0,0,1,4.18,2.75H19.618a1.932,1.932,0,0,1,1.93,1.93v1.4A.526.526,0,0,1,21.022,6.61ZM3.3,5.557H20.5V4.68a.878.878,0,0,0-.877-.877H4.18A.878.878,0,0,0,3.3,4.68Z" transform="translate(0 -0.298)" fill="#330601"/>
    <path id="Path_918" data-name="Path 918" d="M5.776,4.206A.526.526,0,0,1,5.25,3.68v-1.4a.526.526,0,0,1,1.053,0v1.4A.526.526,0,0,1,5.776,4.206Z" transform="translate(-0.895 0)" fill="#330601"/>
    <path id="Path_919" data-name="Path 919" d="M10.776,4.206a.526.526,0,0,1-.526-.526v-1.4a.526.526,0,0,1,1.053,0v1.4A.526.526,0,0,1,10.776,4.206Z" transform="translate(-2.386 0)" fill="#330601"/>
    <path id="Path_920" data-name="Path 920" d="M15.776,4.206a.526.526,0,0,1-.526-.526v-1.4a.526.526,0,1,1,1.053,0v1.4A.526.526,0,0,1,15.776,4.206Z" transform="translate(-3.877 0)" fill="#330601"/>
    <path id="Path_921" data-name="Path 921" d="M20.776,4.206a.526.526,0,0,1-.526-.526v-1.4a.526.526,0,1,1,1.053,0v1.4A.526.526,0,0,1,20.776,4.206Z" transform="translate(-5.368 0)" fill="#330601"/>
    <path id="Path_922" data-name="Path 922" d="M25.776,4.206a.526.526,0,0,1-.526-.526v-1.4a.526.526,0,1,1,1.053,0v1.4A.526.526,0,0,1,25.776,4.206Z" transform="translate(-6.86 0)" fill="#330601"/>
    <path id="Path_923" data-name="Path 923" d="M15.39,24.283H12.583a.526.526,0,0,1-.526-.526V20.63l-2.6-1.947a.527.527,0,0,1-.21-.421V13.35a.526.526,0,0,1,.291-.471l2.807-1.4a.526.526,0,0,1,.762.471v4.468l.877.439.877-.439V11.946a.526.526,0,0,1,.761-.471l2.807,1.4a.526.526,0,0,1,.291.471v4.912a.527.527,0,0,1-.21.421l-2.6,1.947v3.126a.526.526,0,0,1-.526.526ZM13.11,23.231h1.754V20.367a.527.527,0,0,1,.21-.421L17.671,18V13.675L15.917,12.8v3.942a.526.526,0,0,1-.291.471l-1.4.7a.527.527,0,0,1-.471,0l-1.4-.7a.527.527,0,0,1-.291-.471V12.8l-1.754.877V18l2.6,1.947a.527.527,0,0,1,.21.421Z" transform="translate(-2.088 -2.884)" fill="#330601"/>
  </g>
</svg>
